<svg xmlns="http://www.w3.org/2000/svg" viewBox="0 0 304.59 910.42"><defs><style>.a{fill:#ffeaae;}.b{fill:#f7fcfc;}.c{fill:#fffaf5;}.d{fill:#3d7fc1;}.e{fill:#efd93f;}</style></defs><title>1912kvinne</title><path class="a" d="M1067.34,603.5h37.8v5.6c0,5.32-3.72,14.42-8.32,14.43h-21.15c-4.59,0-8.32-9.11-8.32-14.42V603.5Z" transform="translate(-812 -92.44)"/><path class="a" d="M815.09,602.67h37.8v5.59c0,5.32-3.73,15.26-8.33,15.27H823.42c-4.6,0-8.33-9.93-8.33-15.25v-5.62h0Z" transform="translate(-812 -92.44)"/><path class="b" d="M876.08,969.86h72.69v25.5a7.5,7.5,0,0,1-7.5,7.5H883.58a7.5,7.5,0,0,1-7.5-7.5v-25.5Z" transform="translate(-812 -92.44)"/><path class="b" d="M972.17,969.86h72.72v25.5a7.5,7.5,0,0,1-7.5,7.5H979.67a7.5,7.5,0,0,1-7.5-7.5v-25.5Z" transform="translate(-812 -92.44)"/><path class="c" d="M812,328v275.5h44.74V359c-.07-2.54,1.66-4.67,3.86-4.75h0c2.2.08,3.92,2.21,3.86,4.75V667c0,4.91,3.22,8.89,7.19,8.89h176.88c4,0,7.2-4,7.2-8.89V359c-.07-2.54,1.66-4.67,3.86-4.75h.77c2.2.08,3.92,2.21,3.85,4.75V603.53H1109V328c0-16-10.54-29-23.53-29H835.53C822.5,299,812,312,812,328Z" transform="translate(-812 -92.44)"/><rect class="a" x="126" y="180.43" width="43" height="27"/><path class="a" d="M1028,208.37c0,1.47,0,2.93-.14,4.38a68.5,68.5,0,0,1-136.68.59c-.12-1.64-.18-3.3-.18-5a68.5,68.5,0,1,1,137,0Z" transform="translate(-812 -92.44)"/><path class="c" d="M979.17,970.86l-152-1c-6.68,0-12.08-4.81-12.08-10.74L864.47,660H994.59l-3.35,300.23C991.2,966.12,985.8,970.86,979.17,970.86Z" transform="translate(-812 -92.44)"/><path class="c" d="M1109,975.23l-125.89-4.37c-4.21,0-7.64-4.77-7.66-10.67L974,660h81.74l60.85,304.49C1116.62,970.42,1113.19,975.23,1109,975.23Z" transform="translate(-812 -92.44)"/><path class="d" d="M864.46,466.1s57.42,24,191.27,6v25.65s-85.4,22.66-191.27-3.75Z" transform="translate(-812 -92.44)"/><path class="c" d="M874.36,190.46s10.46-51.12,93.28-53.26,86.82,56.5,86.82,56.5S922.6,212.91,874.36,190.46Z" transform="translate(-812 -92.44)"/><path class="e" d="M883,213.92S885.88,333.2,961.66,332s75.5-112.1,74.87-111.9C1036.53,220.09,960,231.25,883,213.92Z" transform="translate(-812 -92.44)"/><path class="c" d="M817.05,190.42c54,24.24,178.25,66.35,287.23,3.1a4.1,4.1,0,0,0-3-7.54c-42.48,10.88-153,8-281.74-3.33C814.66,182.23,812.61,188.43,817.05,190.42Z" transform="translate(-812 -92.44)"/><path class="c" d="M923.85,157.94s-138.23-27.33-59.53-58.83S923.85,157.94,923.85,157.94Z" transform="translate(-812 -92.44)"/></svg>