<svg xmlns="http://www.w3.org/2000/svg" viewBox="0 0 361 943.86"><defs><style>.a{fill:#333332;}.b{fill:#f9f9f4;}.c{fill:#ffeaae;}.d{fill:#93711c;}.e{fill:#b73c35;}</style></defs><title>1912Mann</title><path class="a" d="M14.24,254.62v289.5H68.62v-257a4.85,4.85,0,0,1,4.69-5h0a4.85,4.85,0,0,1,4.69,5V610.78c0,5.16,3.92,9.34,8.75,9.34h215c4.83,0,8.75-4.18,8.75-9.34V287.12a4.85,4.85,0,0,1,4.69-5h.93a4.85,4.85,0,0,1,4.69,5v257h54.39V254.62c0-16.85-12.81-30.5-28.6-30.5H42.84C27,224.12,14.24,237.77,14.24,254.62Z" transform="translate(-14.24 -13.26)"/><rect class="b" x="307.55" y="530.86" width="52.51" height="5"/><path class="c" d="M310.37,535.86h45.95a0,0,0,0,1,0,0v5.88a10.13,10.13,0,0,1-10.12,10.13h-25.7a10.13,10.13,0,0,1-10.12-10.12v-5.87A0,0,0,0,1,310.37,535.86Z"/><rect class="b" x="0.94" y="530.86" width="52.51" height="5"/><path class="c" d="M3.75,535.86H49.7a0,0,0,0,1,0,0v5.88a10.13,10.13,0,0,1-10.12,10.13H13.88A10.12,10.12,0,0,1,3.75,541.73v-5.88a0,0,0,0,1,0,0Z"/><path class="a" d="M241.24,224.12h-95v-6a4,4,0,0,1,4-4h87a4,4,0,0,1,4,4Z" transform="translate(-14.24 -13.26)"/><rect class="c" x="158" y="173.86" width="43" height="27"/><path class="c" d="M262.24,122.62c0,1.47-.05,2.93-.14,4.38a68.5,68.5,0,0,1-136.68.59c-.12-1.64-.18-3.3-.18-5a68.5,68.5,0,0,1,137,0Z" transform="translate(-14.24 -13.26)"/><path class="d" d="M262.24,122.62c0,1.47-.05,2.93-.14,4.38l-30,23.78a62,62,0,0,1-76.76.06l-29.95-23.25c-.12-1.64-.18-3.3-.18-5a68.5,68.5,0,0,1,137,0Z" transform="translate(-14.24 -13.26)"/><path class="a" d="M254.19,48.69V79a9.39,9.39,0,0,1-.06,1.19,2.17,2.17,0,0,1,0,.26,14.15,14.15,0,0,1-14,12.64H147.91c-3.34-.85-6.73-1.77-10.19-2.81h0a14.27,14.27,0,0,1-5.31-8.15c-.06-.25-.1-.5-.15-.75a14.42,14.42,0,0,1-.2-2.38V48.69a35.54,35.54,0,0,1,35.43-35.43h51.28A35.54,35.54,0,0,1,254.19,48.69Z" transform="translate(-14.24 -13.26)"/><path class="a" d="M268.41,80.46c-16.37,13.1-58,28.49-120.5,12.66-3.34-.85-6.73-1.77-10.19-2.81h0q-11.33-3.37-23.47-8.15c-2.32-.91-.73-4.6,1.69-4,4.45,1.1,10,2.53,16.47,4,27.07,6.07,70.79,12.67,121.72-1.68q6.12-1.73,12.38-3.86C268.74,75.85,270.26,79,268.41,80.46Z" transform="translate(-14.24 -13.26)"/><path class="e" d="M254.19,73.15V79a9.39,9.39,0,0,1-.06,1.19c-1.92.54-54,15-121.88,1.19a14.42,14.42,0,0,1-.2-2.38v-4.7S206,82.94,254.19,73.15Z" transform="translate(-14.24 -13.26)"/><path class="a" d="M184.46,924.12H110c-4.85,0-8.77-4.7-8.77-10.5V620.12h94.42l-2.43,293.6C193.19,919.48,189.27,924.12,184.46,924.12Z" transform="translate(-14.24 -13.26)"/><path class="a" d="M280.47,924.12H206c-4.82,0-8.74-4.66-8.77-10.43l-1.61-293.57h93.58v293.5C289.24,919.42,285.31,924.12,280.47,924.12Z" transform="translate(-14.24 -13.26)"/><path class="a" d="M96.19,910.86h72.69a0,0,0,0,1,0,0v25.5a7.5,7.5,0,0,1-7.5,7.5H103.69a7.5,7.5,0,0,1-7.5-7.5v-25.5A0,0,0,0,1,96.19,910.86Z"/><path class="a" d="M192.28,910.86H265a0,0,0,0,1,0,0v25.5a7.5,7.5,0,0,1-7.5,7.5H199.78a7.5,7.5,0,0,1-7.5-7.5v-25.5A0,0,0,0,1,192.28,910.86Z"/></svg>