<svg id="Layer_1" data-name="Layer 1" xmlns="http://www.w3.org/2000/svg" viewBox="0 0 397.95 519.49"><defs><style>.cls-1{fill:#bd8966;}.cls-2{fill:#998675;}.cls-3{fill:#fff;}</style></defs><title>arnfinn</title><path class="cls-1" d="M198.51,191.1c26.6,0,50.36-23.75,59.14-59.1a6.25,6.25,0,0,1,9.38-3.8c1.81.07,6.63-6.42,6.63-18.51,0-11.49-4.22-18.07-6-18.74l-.19,0a6.28,6.28,0,0,1-5.06-1.81,6.35,6.35,0,0,1-1.79-5.08l.18-1.56a35.37,35.37,0,0,0,.33-4.15,62.62,62.62,0,0,0-125.24,0,38,38,0,0,0,.32,4.16l.18,1.57A6.24,6.24,0,0,1,129.54,91l-.19,0c-1.77.67-6,7.25-6,18.74,0,12.12,4.71,18.78,6.26,18.78a7,7,0,0,1,3.65-1,5.7,5.7,0,0,1,2.2.42,6.36,6.36,0,0,1,3.91,4.15C148.15,167.35,171.91,191.1,198.51,191.1Z"/><path d="M342.55,291.3H54.47A6.27,6.27,0,0,1,48.21,285v-9.19A81.47,81.47,0,0,1,102.88,199l32.22-11.21a6.31,6.31,0,0,1,6.67,1.68c15.78,17.23,35.94,26.73,56.74,26.73s41-9.5,56.72-26.73a6.31,6.31,0,0,1,6.68-1.68L294.12,199a81.44,81.44,0,0,1,54.69,76.89V285A6.27,6.27,0,0,1,342.55,291.3ZM60.74,278.77H336.28v-2.93A68.94,68.94,0,0,0,290,210.77l-28.42-9.88c-17.75,18-40,27.78-63.1,27.78s-45.35-9.83-63.1-27.78L107,210.77a68.93,68.93,0,0,0-46.25,65.07Z"/><path d="M198.51,203.62c-30.86,0-58.28-24.92-69.66-62.65-10.32-.62-18-13.86-18-31.28,0-14.2,5.09-25.61,12.57-29.69,0-.54,0-1.09,0-1.63a75.15,75.15,0,0,1,150.3,0c0,.54,0,1.09-.05,1.63,7.48,4.08,12.57,15.49,12.57,29.69,0,17.42-7.69,30.66-18,31.28C256.79,178.7,229.37,203.62,198.51,203.62Zm-65.24-76.19a5.7,5.7,0,0,1,2.2.42,6.36,6.36,0,0,1,3.91,4.15c8.77,35.35,32.53,59.1,59.13,59.1s50.36-23.75,59.14-59.1a6.25,6.25,0,0,1,9.38-3.8c1.81.07,6.63-6.42,6.63-18.51,0-11.49-4.22-18.07-6-18.74l-.19,0a6.28,6.28,0,0,1-5.06-1.81,6.35,6.35,0,0,1-1.79-5.08l.18-1.56a35.37,35.37,0,0,0,.33-4.15,62.62,62.62,0,0,0-125.24,0,38,38,0,0,0,.32,4.16l.18,1.57A6.24,6.24,0,0,1,129.54,91l-.19,0c-1.77.67-6,7.25-6,18.74,0,12.12,4.71,18.78,6.26,18.78A7,7,0,0,1,133.27,127.43Z"/><path class="cls-2" d="M290,210.77l-28.42-9.88c-17.75,18-40,27.78-63.1,27.78s-45.35-9.83-63.1-27.78L107,210.77a68.93,68.93,0,0,0-46.25,65.07v2.93H336.28v-2.93A68.94,68.94,0,0,0,290,210.77Z"/><path d="M185.37,105.5l-8.85-8.85a7,7,0,0,0-9.41,0l-8.86,8.85a6.26,6.26,0,1,0,8.86,8.86l4.7-4.7,4.71,4.7a6.26,6.26,0,0,0,8.85-8.86Z"/><path d="M238.69,105.5l-8.86-8.85a7,7,0,0,0-9.41,0l-8.85,8.85a6.26,6.26,0,0,0,8.85,8.86l4.71-4.7,4.7,4.7a6.26,6.26,0,0,0,8.86-8.86Z"/><path d="M228.11,164.4a5,5,0,0,0-6.21-3.27c-16.79,5.17-30,5.17-46.78,0a5,5,0,1,0-2.93,9.48c18.7,5.77,33.94,5.77,52.64,0A5,5,0,0,0,228.11,164.4Zm41.46-21.23C269,136.9,268.46,131,268,125.69a5,5,0,0,0-9.65-1.19c-8.56,25.32-14.21,27.68-19,26.56-3.16-.77-7.1-2-11.36-3.37-9.91-3.14-21.14-6.7-29.54-6.7s-19.62,3.57-29.53,6.7c-4.26,1.34-8.2,2.6-11.36,3.37-4.76,1.17-10.4-1.23-19-26.56a4.91,4.91,0,0,0-5.3-3.33,5,5,0,0,0-4.35,4.52c-.44,5.29-1,11.22-1.55,17.48-2.68,29.44-6,66.07-3.38,83,1.36,8.69,13.22,49.81,29.82,84.11a5,5,0,0,0,1.59,3.21c12.61,25.22,27.73,46,43,46s30.4-20.76,43-46a4.84,4.84,0,0,0,1.59-3.2c16.61-34.3,28.48-75.43,29.84-84.11C275.59,209.24,272.25,172.61,269.57,143.17Zm-6.46,81.48c-1.68,10.73-9.53,36.07-19.92,61.14V250.23a5,5,0,1,0-9.93,0v57.62c-9.63,19.62-20.27,35.95-29.79,40.44V210.51a5,5,0,0,0-9.93,0V348.3c-9.53-4.49-20.16-20.82-29.79-40.44V230.38a5,5,0,1,0-9.93,0V285.8c-10.39-25.08-18.25-50.42-19.93-61.15-2.38-15.23.62-49.41,3.2-77.79,5.3,9.79,12.35,16.41,22.86,13.86,3.34-.81,7.51-2.12,12-3.55,8.77-2.78,19.67-6.24,26.53-6.24s17.77,3.46,26.54,6.24c4.5,1.43,8.68,2.74,12,3.55,10.51,2.54,17.56-4.07,22.87-13.86C262.5,175.24,265.5,209.42,263.11,224.65Z"/><path class="cls-3" d="M237.05,160.72c-3.33-.81-7.51-2.12-12-3.55-8.77-2.78-19.67-6.24-26.54-6.24s-17.76,3.46-26.53,6.24c-4.51,1.43-8.68,2.74-12,3.55-10.51,2.55-17.56-4.07-22.86-13.86-2.58,28.38-5.58,62.56-3.2,77.79,1.68,10.73,9.54,36.07,19.93,61.15V230.38a5,5,0,1,1,9.93,0v77.48c9.63,19.62,20.26,35.95,29.79,40.44V210.51a5,5,0,0,1,9.93,0V348.29c9.52-4.49,20.16-20.82,29.79-40.44V250.23a5,5,0,1,1,9.93,0v35.56c10.39-25.07,18.24-50.41,19.92-61.14,2.39-15.23-.61-49.41-3.19-77.79C254.61,156.65,247.56,163.26,237.05,160.72Zm-12.22,9.89c-18.7,5.77-33.94,5.77-52.64,0a5,5,0,1,1,2.93-9.48c16.79,5.17,30,5.17,46.78,0a5,5,0,1,1,2.93,9.48Z"/></svg>