<svg id="Layer_1" data-name="Layer 1" xmlns="http://www.w3.org/2000/svg" viewBox="0 0 176.79 348.27"><defs><style>.cls-1{fill:#bd8966;}.cls-2{fill:#fff;}</style></defs><title>arnfinn</title><path class="cls-1" d="M87,182.93c25.45,0,48.17-22.71,56.57-56.52a6,6,0,0,1,9-3.64c1.72.07,6.33-6.14,6.33-17.71,0-11-4-17.28-5.74-17.92l-.18,0a6,6,0,0,1-6.55-6.59l.17-1.5a34.29,34.29,0,0,0,.32-4,59.9,59.9,0,1,0-119.8,0,37.07,37.07,0,0,0,.31,4l.17,1.5a6,6,0,0,1-1.72,4.85A6.09,6.09,0,0,1,21,87.16l-.18,0c-1.69.64-5.72,6.93-5.72,17.92,0,11.6,4.5,18,6,18a6.62,6.62,0,0,1,3.48-1,5.42,5.42,0,0,1,2.11.4,6.1,6.1,0,0,1,3.74,4C38.83,160.22,61.55,182.93,87,182.93Z"/><path d="M87,194.91c-29.52,0-55.75-23.84-66.64-59.92-9.87-.6-17.22-13.27-17.22-29.93,0-13.58,4.87-24.49,12-28.4,0-.51,0-1,0-1.55a71.88,71.88,0,1,1,143.76,0c0,.51,0,1,0,1.55,7.15,3.91,12,14.82,12,28.4,0,16.66-7.35,29.33-17.22,29.93C142.75,171.07,116.52,194.91,87,194.91ZM24.59,122a5.42,5.42,0,0,1,2.11.4,6.1,6.1,0,0,1,3.74,4c8.39,33.81,31.11,56.52,56.56,56.52s48.17-22.71,56.57-56.52a6,6,0,0,1,9-3.64c1.72.07,6.33-6.14,6.33-17.71,0-11-4-17.28-5.74-17.92l-.18,0a6,6,0,0,1-6.55-6.59l.17-1.5a34.29,34.29,0,0,0,.32-4,59.9,59.9,0,1,0-119.8,0,37.07,37.07,0,0,0,.31,4l.17,1.5a6,6,0,0,1-1.72,4.85A6.09,6.09,0,0,1,21,87.16l-.18,0c-1.69.64-5.72,6.93-5.72,17.92,0,11.6,4.5,18,6,18A6.62,6.62,0,0,1,24.59,122Z"/><path d="M74.43,101.06,66,92.59a6.72,6.72,0,0,0-9,0l-8.47,8.47A6,6,0,0,0,57,109.53l4.5-4.5,4.5,4.5a6,6,0,0,0,8.47-8.47Z"/><path d="M125.43,101.06,117,92.59a6.72,6.72,0,0,0-9,0l-8.47,8.47a6,6,0,0,0,8.47,8.47l4.5-4.5,4.5,4.5a6,6,0,0,0,8.47-8.47Z"/><path d="M115.31,157.4a4.75,4.75,0,0,0-4.54-3.35,4.85,4.85,0,0,0-1.4.21c-16.06,5-28.68,5-44.75,0a4.75,4.75,0,0,0-2.8,9.07c17.89,5.52,32.47,5.52,50.36,0A4.73,4.73,0,0,0,115.31,157.4ZM155,137.09c-.54-6-1.06-11.66-1.48-16.73a4.75,4.75,0,0,0-9.24-1.13c-8.18,24.22-13.58,26.48-18.13,25.4-3-.73-6.79-1.92-10.87-3.22C105.77,138.4,95,135,87,135s-18.77,3.41-28.25,6.41c-4.07,1.29-7.84,2.49-10.86,3.22-4.55,1.13-10-1.17-18.14-25.4A4.71,4.71,0,0,0,24.68,116a4.76,4.76,0,0,0-4.16,4.32c-.42,5.07-.94,10.74-1.48,16.73-2.57,28.16-5.76,63.2-3.23,79.4,1.3,8.32,12.64,47.64,28.52,80.45A4.76,4.76,0,0,0,45.85,300C57.91,324.14,72.37,344,87,344s29.08-19.86,41.14-44a4.67,4.67,0,0,0,1.52-3.06c15.88-32.81,27.24-72.14,28.54-80.45C160.73,200.29,157.53,165.25,155,137.09ZM148.8,215c-1.61,10.27-9.12,34.51-19.06,58.49v-34a4.75,4.75,0,0,0-9.5,0v55.12C111,313.38,100.85,329,91.74,333.3V201.51a4.75,4.75,0,0,0-9.5,0v131.8C73.13,329,63,313.39,53.75,294.62V220.5a4.75,4.75,0,0,0-9.5,0v53c-9.94-24-17.45-48.23-19.06-58.5-2.28-14.56.59-47.26,3.06-74.4,5.06,9.36,11.81,15.7,21.87,13.26,3.19-.78,7.18-2,11.49-3.4,8.39-2.66,18.82-6,25.38-6s17,3.31,25.39,6c4.3,1.36,8.3,2.62,11.49,3.4,10,2.43,16.79-3.9,21.87-13.26C148.21,167.76,151.07,200.46,148.8,215Z"/><path class="cls-2" d="M123.87,153.88c-3.19-.78-7.19-2-11.49-3.4-8.39-2.66-18.82-6-25.39-6s-17,3.31-25.38,6c-4.31,1.36-8.3,2.62-11.49,3.4-10.06,2.44-16.81-3.9-21.87-13.26-2.47,27.14-5.34,59.84-3.06,74.4,1.61,10.27,9.12,34.51,19.06,58.5v-53a4.75,4.75,0,0,1,9.5,0v74.12C63,313.39,73.13,329,82.24,333.31V201.51a4.75,4.75,0,0,1,9.5,0V333.3c9.11-4.3,19.29-19.92,28.5-38.69V239.49a4.75,4.75,0,0,1,9.5,0v34c9.94-24,17.45-48.22,19.06-58.49,2.27-14.56-.59-47.26-3.06-74.4C140.66,150,133.92,156.31,123.87,153.88Zm-11.69,9.45c-17.89,5.52-32.47,5.52-50.36,0a4.75,4.75,0,0,1,2.8-9.07c16.07,5,28.69,5,44.75,0a4.85,4.85,0,0,1,1.4-.21,4.75,4.75,0,0,1,1.41,9.28Z"/></svg>