<svg id="Layer_1" data-name="Layer 1" xmlns="http://www.w3.org/2000/svg" viewBox="0 0 455.76 227.93"><defs><style>.cls-1{fill:#f26522;stroke:#f26522;}.cls-1,.cls-10,.cls-11,.cls-12,.cls-13,.cls-2,.cls-3,.cls-4,.cls-5,.cls-6,.cls-7,.cls-8,.cls-9{stroke-miterlimit:22.93;stroke-width:0.57px;fill-rule:evenodd;}.cls-2{fill:#fdc689;stroke:#fdc689;}.cls-3{fill:#f04923;stroke:#f04923;}.cls-4{fill:#b01d21;stroke:#b01d21;}.cls-5{fill:#f9a341;stroke:#f9a341;}.cls-6{fill:#ed1c24;stroke:#ed1c24;}.cls-7{fill:#ffd800;stroke:#ffd800;}.cls-8{fill:#fbb568;stroke:#fbb568;}.cls-9{fill:#81181b;stroke:#81181b;}.cls-10{fill:#f7941e;stroke:#f7941e;}.cls-11{fill:#ffc20e;stroke:#ffc20e;}.cls-12{fill:#560f11;stroke:#560f11;}.cls-13{fill:#320001;stroke:#320001;}</style></defs><title>chinese</title><polygon class="cls-1" points="227.73 19.48 89.46 19.48 66.94 67.66 227.73 67.66 227.73 19.48 227.73 19.48"/><path class="cls-2" d="M227.73,67.66H86.33v153.9h95.56a65.37,65.37,0,0,1,45.84-112V67.66Z"/><path class="cls-3" d="M166.93,150.86H86.33v70.7h95.56a65.45,65.45,0,0,1-15-70.7Z"/><path class="cls-4" d="M127.62,80.17A20.65,20.65,0,1,1,107,100.81a20.64,20.64,0,0,1,20.64-20.64Z"/><polygon class="cls-5" points="86.33 97.06 5 97.06 5 221.56 86.33 221.56 86.33 97.06 86.33 97.06"/><path class="cls-6" d="M45.67,112.7a28.16,28.16,0,1,1-28.16,28.15A28.15,28.15,0,0,1,45.67,112.7Z"/><path class="cls-7" d="M45.67,123.65a17.2,17.2,0,1,1-17.2,17.2,17.2,17.2,0,0,1,17.2-17.2Z"/><polygon class="cls-3" points="227.73 19.48 366 19.48 388.52 67.66 227.73 67.66 227.73 19.48 227.73 19.48"/><path class="cls-8" d="M227.73,67.66H369.12v153.9H273.57a65.37,65.37,0,0,0-45.84-112V67.66Z"/><path class="cls-6" d="M288.53,150.86h80.59v70.7H273.57a65.45,65.45,0,0,0,15-70.7Z"/><path class="cls-9" d="M327.83,80.17a20.65,20.65,0,1,0,20.65,20.64,20.65,20.65,0,0,0-20.65-20.64Z"/><polygon class="cls-10" points="369.12 97.06 450.46 97.06 450.46 221.56 369.12 221.56 369.12 97.06 369.12 97.06"/><path class="cls-4" d="M409.79,112.7a28.16,28.16,0,1,0,28.15,28.15,28.15,28.15,0,0,0-28.15-28.15Z"/><path class="cls-11" d="M409.79,123.65a17.2,17.2,0,1,0,17.2,17.2,17.21,17.21,0,0,0-17.2-17.2Z"/><polygon class="cls-12" points="73.82 4.46 227.73 4.46 227.73 22.61 73.82 22.61 73.82 4.46 73.82 4.46"/><polygon class="cls-13" points="381.64 4.46 227.73 4.46 227.73 22.61 381.64 22.61 381.64 4.46 381.64 4.46"/><path class="cls-4" d="M227.73,113.63a61.32,61.32,0,0,0-39.84,107.93H167.68a76,76,0,0,1,60-122.62v14.69Z"/><path class="cls-9" d="M227.73,113.63a61.32,61.32,0,0,1,39.84,107.93h20.21a76,76,0,0,0-60-122.62v14.69Z"/></svg>