<svg id="Layer_1" data-name="Layer 1" xmlns="http://www.w3.org/2000/svg" viewBox="0 0 246.1 371.39"><defs><style>.cls-1{fill:#b01d21;}.cls-1,.cls-10,.cls-11,.cls-2,.cls-3,.cls-4,.cls-5,.cls-6,.cls-7,.cls-8,.cls-9{fill-rule:evenodd;}.cls-2{fill:#fbb568;}.cls-3{fill:#fff;}.cls-4{fill:#f26522;}.cls-5{fill:#824d1e;}.cls-6{fill:#81181b;}.cls-7{fill:#f9a341;}.cls-8{fill:#fed7ad;}.cls-9{fill:#f04923;}.cls-10{fill:#553215;}.cls-11{fill:#560f11;}</style></defs><title>chinese</title><polygon class="cls-1" points="122.54 22.29 100.8 22.29 81.88 41.22 81.88 60.14 122.54 60.14 122.54 22.29 122.54 22.29"/><polygon class="cls-2" points="94.08 60.14 122.54 60.14 122.54 89.55 94.08 89.55 94.08 60.14 94.08 60.14"/><path class="cls-3" d="M116.05,89.55H100.57V78.05a7.76,7.76,0,0,1,7.74-7.74h0a7.76,7.76,0,0,1,7.74,7.74v11.5Z"/><polygon class="cls-4" points="122.54 89.55 88.14 89.55 69.22 108.47 69.22 127.4 122.54 127.4 122.54 89.55 122.54 89.55"/><polygon class="cls-1" points="69.22 108.47 122.54 108.47 122.54 127.4 69.22 127.4 69.22 108.47 69.22 108.47"/><polygon class="cls-2" points="85.56 127.4 122.54 127.4 122.54 156.81 85.56 156.81 85.56 127.4 85.56 127.4"/><path class="cls-3" d="M114.11,156.81H94v-9.62a9.65,9.65,0,0,1,9.62-9.63h.87a9.65,9.65,0,0,1,9.62,9.63v9.62Z"/><polygon class="cls-4" points="122.54 156.81 72.18 156.81 53.26 175.73 53.26 194.66 122.54 194.66 122.54 156.81 122.54 156.81"/><polygon class="cls-1" points="53.26 175.73 122.54 175.73 122.54 194.66 53.26 194.66 53.26 175.73 53.26 175.73"/><polygon class="cls-2" points="72.7 194.66 122.54 194.66 122.54 234.29 72.7 234.29 72.7 194.66 72.7 194.66"/><path class="cls-3" d="M111.18,234.29H84.07v-13a13,13,0,0,1,13-13h1.18a13,13,0,0,1,13,13v13Z"/><polygon class="cls-4" points="122.54 234.29 54.68 234.29 29.17 259.79 29.17 285.3 122.54 285.3 122.54 234.29 122.54 234.29"/><polygon class="cls-1" points="29.17 259.79 122.54 259.79 122.54 285.3 29.17 285.3 29.17 259.79 29.17 259.79"/><polygon class="cls-2" points="122.54 285.3 43.56 285.3 43.56 362.64 122.54 362.64 122.54 285.3 122.54 285.3"/><polygon class="cls-5" points="122.54 338.24 5.71 338.24 5.71 362.64 122.54 362.64 122.54 338.24 122.54 338.24"/><polygon class="cls-6" points="122.54 22.29 104.72 22.29 122.54 4.46 122.54 22.29 122.54 22.29"/><polygon class="cls-6" points="122.54 22.29 144.29 22.29 163.21 41.22 163.21 60.14 122.54 60.14 122.54 22.29 122.54 22.29"/><polygon class="cls-7" points="151.02 60.14 122.54 60.14 122.54 89.55 151.02 89.55 151.02 60.14 151.02 60.14"/><path class="cls-8" d="M129,89.55h15.48V78.05a7.76,7.76,0,0,0-7.74-7.74h0A7.76,7.76,0,0,0,129,78.05v11.5Z"/><polygon class="cls-9" points="122.54 89.55 156.95 89.55 175.88 108.47 175.88 127.4 122.54 127.4 122.54 89.55 122.54 89.55"/><polygon class="cls-6" points="175.88 108.47 122.54 108.47 122.54 127.4 175.88 127.4 175.88 108.47 175.88 108.47"/><polygon class="cls-7" points="159.53 127.4 122.54 127.4 122.54 156.81 159.53 156.81 159.53 127.4 159.53 127.4"/><path class="cls-8" d="M131,156.81H151.1v-9.62a9.65,9.65,0,0,0-9.62-9.63h-.88a9.65,9.65,0,0,0-9.62,9.63v9.62Z"/><polygon class="cls-9" points="122.54 156.81 172.91 156.81 191.84 175.73 191.84 194.66 122.54 194.66 122.54 156.81 122.54 156.81"/><polygon class="cls-6" points="191.84 175.73 122.54 175.73 122.54 194.66 191.84 194.66 191.84 175.73 191.84 175.73"/><polygon class="cls-7" points="172.38 194.66 122.54 194.66 122.54 234.29 172.38 234.29 172.38 194.66 172.38 194.66"/><path class="cls-8" d="M133.91,234.29H161v-13a13,13,0,0,0-13-13h-1.18a13,13,0,0,0-13,13v13Z"/><polygon class="cls-9" points="122.54 234.29 190.42 234.29 215.92 259.79 215.92 285.3 122.54 285.3 122.54 234.29 122.54 234.29"/><polygon class="cls-6" points="215.92 259.79 122.54 259.79 122.54 285.3 215.92 285.3 215.92 259.79 215.92 259.79"/><polygon class="cls-7" points="122.54 285.3 201.53 285.3 201.53 362.64 122.54 362.64 122.54 285.3 122.54 285.3"/><polygon class="cls-10" points="122.54 338.24 239.38 338.24 239.38 362.64 122.54 362.64 122.54 338.24 122.54 338.24"/><polygon class="cls-11" points="122.54 22.29 140.38 22.29 122.54 4.46 122.54 22.29 122.54 22.29"/></svg>