<svg id="Layer_1" data-name="Layer 1" xmlns="http://www.w3.org/2000/svg" viewBox="0 0 370.35 275.07"><defs><style>.cls-1{fill:#f26522;}.cls-1,.cls-10,.cls-11,.cls-12,.cls-13,.cls-14,.cls-2,.cls-3,.cls-4,.cls-5,.cls-6,.cls-7,.cls-8,.cls-9{fill-rule:evenodd;}.cls-2{fill:#824d1e;}.cls-3{fill:#b01d21;}.cls-4{fill:#560f11;}.cls-5{fill:#ed1c24;}.cls-6{fill:#ffc20e;}.cls-7{fill:#fbaa19;}.cls-8{fill:#ffead4;}.cls-9{fill:#f04923;}.cls-10{fill:#553215;}.cls-11{fill:#81181b;}.cls-12{fill:#320001;}.cls-13{fill:#f57e20;}.cls-14{fill:#fed7ad;}</style></defs><title>chinese</title><polygon class="cls-1" points="183.81 166.32 31.46 166.32 31.46 264.55 183.81 264.55 183.81 166.32 183.81 166.32"/><polygon class="cls-2" points="66.18 94.06 79.64 94.06 79.64 129.41 66.18 129.41 66.18 94.06 66.18 94.06"/><polygon class="cls-2" points="133.29 94.06 146.74 94.06 146.74 129.41 133.29 129.41 133.29 94.06 133.29 94.06"/><path class="cls-3" d="M98.71,2.58c24.16,3.57,53.24,6.06,85.1,7.11V94.06H32.4L3,57a108.64,108.64,0,0,0,17.51,1.4C63.71,58.4,98.72,33.61,98.72,3V2.58Z"/><path class="cls-4" d="M183.81,9.69c-31.86-1-60.94-3.54-85.1-7.11V3c0,30.58-35,55.37-78.21,55.37A108.64,108.64,0,0,1,3,57L13.65,70.43A187,187,0,0,0,66.5,77.8c64.38,0,116.65-30.43,117.31-68.11Z"/><polygon class="cls-5" points="48.04 113.14 183.81 113.14 183.81 187.59 10.81 187.59 10.81 150.37 48.04 113.14 48.04 113.14"/><polygon class="cls-6" points="70.88 264.55 183.81 264.55 183.81 252.03 70.88 252.03 70.88 264.55 70.88 264.55"/><polygon class="cls-7" points="99.03 252.03 183.81 252.03 183.81 238.9 99.03 238.9 99.03 252.03 99.03 252.03"/><polygon class="cls-8" points="150.33 238.9 183.81 238.9 183.81 187.59 150.33 187.59 150.33 238.9 150.33 238.9"/><polygon class="cls-9" points="183.81 166.32 336.15 166.32 336.15 264.55 183.81 264.55 183.81 166.32 183.81 166.32"/><polygon class="cls-10" points="301.43 94.06 287.98 94.06 287.98 129.41 301.43 129.41 301.43 94.06 301.43 94.06"/><polygon class="cls-10" points="234.33 94.06 220.88 94.06 220.88 129.41 234.33 129.41 234.33 94.06 234.33 94.06"/><path class="cls-11" d="M268.9,2.58c-24.16,3.57-53.24,6.06-85.09,7.11V94.06h151.4L364.62,57a108.85,108.85,0,0,1-17.52,1.4c-43.19,0-78.21-24.79-78.21-55.37V2.58Z"/><path class="cls-12" d="M183.81,9.69c31.85-1,60.93-3.54,85.09-7.11V3c0,30.58,35,55.37,78.21,55.37A108.85,108.85,0,0,0,364.62,57L354,70.43a186.93,186.93,0,0,1-52.84,7.37c-64.39,0-116.66-30.43-117.31-68.11Z"/><polygon class="cls-3" points="319.57 113.14 183.81 113.14 183.81 187.59 356.8 187.59 356.8 150.37 319.57 113.14 319.57 113.14"/><polygon class="cls-7" points="296.73 264.55 183.81 264.55 183.81 252.03 296.73 252.03 296.73 264.55 296.73 264.55"/><polygon class="cls-13" points="268.58 252.03 183.81 252.03 183.81 238.9 268.58 238.9 268.58 252.03 268.58 252.03"/><polygon class="cls-14" points="217.28 238.9 183.81 238.9 183.81 187.59 217.28 187.59 217.28 238.9 217.28 238.9"/></svg>