<svg id="Layer_1" data-name="Layer 1" xmlns="http://www.w3.org/2000/svg" viewBox="0 0 515.63 233.12"><defs><style>.cls-1{fill:#efefef;}</style></defs><title>cloudw</title><path class="cls-1" d="M283.1,12.68c34,5.9,63.8,19.35,87.32,45.2A7,7,0,0,0,376,60.49a232.81,232.81,0,0,1,29.4,1.23c32.37,3.59,63,12.21,90,31.21,18.13,12.77,31.73,28.82,35.45,51.58.15,1,1.59,5.25-.16,15.93-4.07,22.28-17.5,38.15-35.33,50.71-25.39,17.91-54.26,26.51-84.69,30.67-14.23,2.94-41.23,2.94-61.91,0-19-2.72-37.6-7-55.36-14.51a12.49,12.49,0,0,0-7.29-.47,169.59,169.59,0,0,1-75.13-4,11.21,11.21,0,0,0-6.33-.42,183.68,183.68,0,0,1-33.38,5.89c-39.84,3.3-78.12-1.76-113.25-22.24-19.37-11.29-35-26-40.93-48.69-2.65-10.64,0-25.56.28-26.53C23.84,109.23,39,94.93,57.58,83.73,82,69,109,63.11,137,60.87c2.82-.22,5-.85,7-3,23.31-25.55,52.74-39.42,86.44-45.07C231.94,12.51,260.49,8.76,283.1,12.68Z" transform="translate(-15.97 -10.91)"/></svg>