<svg xmlns="http://www.w3.org/2000/svg" viewBox="0 0 1073.53 577.58"><defs><style>.a{fill:#f9dc8a;}.b{fill:#663509;}.c{fill:#c43b31;}.d{fill:#512807;}</style></defs><title>columbusSkip</title><polygon class="a" points="0.53 111 222.53 340 0.53 340 0.53 111"/><path class="b" d="M1099.48,386.9v4C1043,415.26,972.8,430.45,925.11,438.76c-4.13.72-8.09,1.39-11.85,2-26,4.26-42.78,6.14-42.78,6.14v11l-36,7s-.06.65-.21,1.86l-.27,2a204.86,204.86,0,0,1-5.57,26l-.58,2a200.61,200.61,0,0,1-9.52,26c-.29.67-.6,1.33-.91,2a153.66,153.66,0,0,1-19.6,32c-.53.67-1.08,1.34-1.64,2a111.57,111.57,0,0,1-40.67,31q-2.38,1.05-4.87,2a121,121,0,0,1-41.45,7.69c-102.19,1.82-450.51.35-515.65,0a14.32,14.32,0,0,1-12.64-7.74,14.13,14.13,0,0,1-.85-2c-.05-.13-.09-.27-.13-.4l-9.33-30.6-.61-2-9.75-32-.61-2-7.92-26-.61-2-7.92-26-.61-2-7.93-26-.61-2-5.48-18-.61-2-5.18-17-.61-2-.35-1.14a8.45,8.45,0,0,1,8-10.91l141.24-.59,15.93-.07h0l14.93-.06s-.59,5.46,2.43,12.77c.27.65.57,1.32.9,2,2.59,5.33,7.14,11.41,15.08,17,1,.67,2,1.34,3,2,17.52,10.85,49.24,19.14,106.61,15a4.68,4.68,0,0,1,4.72,3,4.2,4.2,0,0,1,.29,1.12c0,.28.07.58.12.88.82,5.71,3.42,15.27,9.61,26,.38.66.78,1.33,1.19,2a100.18,100.18,0,0,0,23.2,26c.84.67,1.7,1.34,2.59,2,.58.44,1.17.87,1.77,1.3a124.84,124.84,0,0,0,18,10.76,161.65,161.65,0,0,0,33.3,11.85q4.86,1.19,9.77,2.09,6.66,1.25,13.38,2a200.62,200.62,0,0,0,40.78.4l4.45-.4,22.26-2c66-6,70.83-7.25,74.91-26,.15-.65.29-1.31.43-2a199.23,199.23,0,0,1,6.51-26c.22-.65.44-1.32.68-2,.92-2.66,2-5.47,3.18-8.44,1.82,0,36.55-5.35,74.09-11.21l11.46-1.79,29-4.56,12.7-2c24.19-3.81,42.11-6.65,42.11-6.65v8.79l1.09-.14c2-.26,6.95-.91,14.2-2C920.74,433.53,1010.42,418.15,1099.48,386.9Z" transform="translate(-25.95 -22.76)"/><rect class="b" x="447.53" y="18" width="18" height="486"/><path class="a" d="M285.48,22.76h357s88,172-8,322c0,2-349,0-349,0S424.48,183.76,285.48,22.76Z" transform="translate(-25.95 -22.76)"/><polygon class="c" points="477.41 168.63 342.53 180 342.53 141 477.41 159.69 477.41 168.63"/><polygon class="c" points="502.53 160.38 637.41 149 637.41 188 502.53 169.31 502.53 160.38"/><polygon class="c" points="484.85 147.94 473.47 13.06 512.47 13.06 493.78 147.94 484.85 147.94"/><polygon class="c" points="493.1 178.06 504.47 312.94 465.47 312.94 484.16 178.06 493.1 178.06"/><circle class="c" cx="487.53" cy="163" r="21"/><circle class="a" cx="488.03" cy="163.5" r="14.5"/><rect class="b" x="749.27" y="125.46" width="11.46" height="309.54"/><rect class="b" x="164.35" y="74.18" width="11.46" height="401.72" transform="translate(-169.54 173.65) rotate(-44.2)"/><path class="a" d="M655.48,136.76H882.86s56,109.55-5.1,205.09c0,1.27-222.28,0-222.28,0S744,239.3,655.48,136.76Z" transform="translate(-25.95 -22.76)"/><polygon class="c" points="768.3 221.4 682.4 228.64 682.4 203.8 768.3 215.7 768.3 221.4"/><polygon class="c" points="784.3 216.14 870.21 208.9 870.21 233.74 784.3 221.83 784.3 216.14"/><polygon class="c" points="773.04 208.22 765.79 122.32 790.63 122.32 778.73 208.22 773.04 208.22"/><polygon class="c" points="778.29 227.41 785.54 313.31 760.7 313.31 772.6 227.41 778.29 227.41"/><circle class="c" cx="774.75" cy="217.81" r="13.38"/><circle class="a" cx="774.61" cy="217.67" r="8.33"/><path class="d" d="M435,439.88c0,.28.07.58.12.88H134.63l-.61-2H434.71A4.2,4.2,0,0,1,435,439.88Z" transform="translate(-25.95 -22.76)"/><path class="d" d="M828.37,438.76h42.11v2H815.67Z" transform="translate(-25.95 -22.76)"/><path class="d" d="M320.35,418.76c1,.67,2,1.34,3,2H128.54l-.61-2Z" transform="translate(-25.95 -22.76)"/><path class="d" d="M304.37,399.76c.27.65.57,1.32.9,2H122.75l-.61-2Z" transform="translate(-25.95 -22.76)"/><path class="d" d="M444.73,466.76c.38.66.78,1.33,1.19,2H143.17l-.61-2Z" transform="translate(-25.95 -22.76)"/><path class="d" d="M834.27,466.76H698c-.24.68-.46,1.35-.68,2H834Z" transform="translate(-25.95 -22.76)"/><path class="d" d="M469.12,494.76c.84.67,1.7,1.34,2.59,2h-320l-.61-2Z" transform="translate(-25.95 -22.76)"/><path class="d" d="M828.43,494.76l-.58,2H690.33c.15-.65.29-1.31.43-2Z" transform="translate(-25.95 -22.76)"/><path class="d" d="M534.55,522.76q6.66,1.25,13.38,2H160.23l-.61-2Z" transform="translate(-25.95 -22.76)"/><path class="d" d="M818.33,522.76c-.29.67-.6,1.33-.91,2H593.16l22.26-2Z" transform="translate(-25.95 -22.76)"/><path class="d" d="M755.51,589.76q-2.38,1.05-4.87,2H180.9l-.85-2Z" transform="translate(-25.95 -22.76)"/><path class="d" d="M797.82,556.76c-.53.67-1.08,1.34-1.64,2H170.59l-.61-2Z" transform="translate(-25.95 -22.76)"/></svg>