<svg id="Layer_1" data-name="Layer 1" xmlns="http://www.w3.org/2000/svg" viewBox="0 0 916.56 1041.31"><defs><style>.cls-1{fill:#e4f6fa;}.cls-2{fill:#535251;}.cls-3{fill:#595649;}.cls-4{fill:#6c6767;}.cls-5{fill:#0060a8;}.cls-6{fill:#fbc931;}.cls-7{fill:#a43045;}.cls-8{fill:#0261a7;}.cls-9{fill:#f6c79f;}.cls-10{fill:#e5a139;}.cls-11{fill:#fbc689;}.cls-12{fill:#00a78d;}.cls-13{fill:#9e2940;}.cls-14{fill:#dbd89b;}.cls-15{fill:#01ad91;}.cls-16{fill:#01ac90;}.cls-17{fill:#6987b5;}.cls-18{fill:#d48d3b;}.cls-19{fill:#7a7575;}.cls-20{fill:#02599f;}.cls-21{fill:#4f3639;}.cls-22{fill:#75644d;}.cls-23{fill:#564535;}.cls-24{fill:#7c8182;}.cls-25{fill:#988a81;}.cls-26{fill:#99263c;}.cls-27{fill:#b12c46;}.cls-28{fill:#4b3d2e;}.cls-29{fill:#f8cba2;}.cls-30{fill:#fbfcfc;}.cls-31{fill:#9e273f;}.cls-32{fill:#575e66;}.cls-33{fill:#fcd093;}.cls-34{fill:#636051;}.cls-35{fill:#484e52;}.cls-36{fill:#bab8b8;}.cls-37{fill:#4d412a;}.cls-38{fill:#25445d;}.cls-39{fill:#fbbb86;}.cls-40{fill:#e7b37f;}.cls-41{fill:#189766;}.cls-42{fill:#b32b47;}.cls-43{fill:#848584;}.cls-44{fill:#1a517e;}.cls-45{fill:#f0f0ac;}.cls-46{fill:#634950;}.cls-47{fill:#947155;}.cls-48{fill:#5a5551;}.cls-49{fill:#192936;}.cls-50{fill:#807e7d;}.cls-51{fill:#837b7c;}.cls-52{fill:#595554;}.cls-53{fill:#8f7f81;}.cls-54{fill:#58242c;}.cls-55{fill:#585857;}.cls-56{fill:#144e52;}.cls-57{fill:#48171f;}.cls-58{fill:#497f6f;}.cls-59{fill:#21524d;}.cls-60{fill:#7b7575;}.cls-61{fill:#5c2e36;}.cls-62{fill:#4c2027;}.cls-63{fill:#332618;}.cls-64{fill:#38161b;}.cls-65{fill:#63383e;}.cls-66{fill:#403724;}.cls-67{fill:#892135;}.cls-68{fill:#deab7b;}.cls-69{fill:#633840;}.cls-70{fill:#441f24;}.cls-71{fill:#c5d2d6;}.cls-72{fill:#c7cccf;}.cls-73{fill:#686c6e;}.cls-74{fill:#f5cb39;}.cls-75{fill:#44262a;}.cls-76{fill:#442126;}.cls-77{fill:#4e4433;}.cls-78{fill:#bd9827;}.cls-79{fill:#352f2a;}.cls-80{fill:#f8b984;}.cls-81{fill:#df9d39;}.cls-82{fill:#fcca8f;}.cls-83{fill:#b38965;}.cls-84{fill:#a87b31;}.cls-85{fill:#362e1d;}.cls-86{fill:#866c3b;}.cls-87{fill:#df9d38;}.cls-88{fill:#5d5139;}.cls-89{fill:#796c65;}.cls-90{fill:#583f35;}.cls-91{fill:#1f181a;}.cls-92{fill:#7a6f66;}.cls-93{fill:#f8b17f;}.cls-94{fill:#7c7976;}.cls-95{fill:#7b6552;}.cls-96{fill:#604929;}.cls-97{fill:#bd956d;}.cls-98{fill:#61573e;}.cls-99{fill:#846432;}.cls-100{fill:#f3b884;}.cls-101{fill:#0365b4;}.cls-102{fill:#71563a;}.cls-103{fill:#6a533f;}.cls-104{fill:#453529;}.cls-105{fill:#202e45;}.cls-106{fill:#009e52;}.cls-107{fill:#009c4b;}.cls-108{fill:#254239;}.cls-109{fill:#06936f;}.cls-110{fill:#049679;}.cls-111{fill:#e8a339;}.cls-112{fill:#039f86;}.cls-113{fill:#12734e;}.cls-114{fill:#51a886;}.cls-115{fill:#00a062;}.cls-116{fill:#106255;}.cls-117{fill:#453e33;}.cls-118{fill:#dfdfa1;}.cls-119{fill:#28231f;}.cls-120{fill:#1b2f3f;}.cls-121{fill:#1a322f;}.cls-122{fill:#acaa7d;}.cls-123{fill:#eda438;}.cls-124{fill:#c58c36;}.cls-125{fill:#76582d;}.cls-126{fill:#f5fcfc;}.cls-127{fill:#9faaaf;}.cls-128{fill:#837f5d;}.cls-129{fill:#7a654d;}.cls-130{fill:#4d443e;}.cls-131{fill:#eceae6;}.cls-132{fill:#58483c;}.cls-133{fill:#b2a59b;}.cls-134{fill:#715428;}.cls-135{fill:#f8d0a6;}.cls-136{fill:#8c6a4b;}.cls-137{fill:#ccac75;}.cls-138{fill:#9b712d;}.cls-139{fill:#3b3835;}.cls-140{fill:#3f3d39;}.cls-141{fill:#7e603e;}.cls-142{fill:#0f0c10;}.cls-143{fill:#737156;}.cls-144{fill:#01b195;}.cls-145{fill:#322c22;}.cls-146{fill:#f3aa3b;}.cls-147{fill:#00b398;}.cls-148{fill:#2e2a24;}.cls-149{fill:#14584d;}.cls-150{fill:#8a8682;}.cls-151{fill:#7b7974;}.cls-152{fill:#0d1113;}.cls-153{fill:#3d3936;}.cls-154{fill:#e5a274;}.cls-155{fill:#f7e079;}</style></defs><title>columbus</title><path class="cls-1" d="M27.55,383.37V325.59c2.93-1.09,4.9,1.08,7.05,2.36,1-11.55-3.5-23.79,6.5-33.58,2.23-2.18,1.24-6.29,1.63-9.54,1.17-9.78,4.1-12.42,14.62-13.37,6.34,1.32,6.9,6.37,7.21,11.42.57,9.38-1.44,19.3,6.48,27,1.33,1.29,1.07,3.75,1.09,5.73q.28,31.17,0,62.33a11.18,11.18,0,0,1-2.45,7.6c-3.47,2.85-7.6,3-11.93,1.88-5.62-2.42-5.05-8-6.24-12.6-1-4.1-.37-8.58-2.38-12.2-3-2.31-5.78-2.15-8.64-.37-3.28,4.2-1.39,9.63-3.19,14.22C35.15,380.34,33,384.22,27.55,383.37Z" transform="translate(-27.55 -31.69)"/><path class="cls-2" d="M27.55,383.37c3.79-.64,5.32-4.09,7.88-6.27,7.16,2.12,3.4,8.56,5.13,12.76,2.6-4,2.63-4,7.56-5.45,4.54,1.83,3.38,7.59,7,10.06,5,5.83,11.85,3.45,18,4.1,3,.35,5.86.84,7.65,3.64,2.61,16.4,4,32.78-1.12,49v9.72c-2.82,3-5.28,5.65-7.07,7.57L38,433.76c-2.7-3,.64-7.54-3.25-12.72l-7.18-3.8Z" transform="translate(-27.55 -31.69)"/><path class="cls-3" d="M54.81,273.37,46,276.69c-.37,7.12-.72,13.95-1.05,20.26-1.45,3.64-5.12,1.65-7.49,4.31v30.1c-5.38.76-6-5.22-9.93-5.77V265.82c10.72-5.68,16.64-16.55,26.4-25,2.6,9.36,12.43,9.19,17.15,15.38,5.07,6.59,3.53,13.36.57,20.15C64.67,283.15,63.5,275,61,272,58.28,271.46,56.75,273.2,54.81,273.37Z" transform="translate(-27.55 -31.69)"/><path class="cls-4" d="M748.73,198.06c6.89,16.37,9.51,32.48-.43,48.92-8.47,14-12.83,31.32-32.39,37.61l-1,5.15c-2.61,2.34-5.25,2.29-7.83.17-2.58-3.24.94-6.41-.11-9.55-9.31-6.73-18.13-3.11-21.39,8.84,1.1,4.74,5.08,6.41,8.94,8.31,4.47,2.19,8.12,4.88,4.63,10.61q-.18,8.61-.35,17.21c-11.06,1.57-17.71-4.19-22.38-14.41-10.55.8-19.28-3-27.09-10.67-4.12-4.07-8.39-7.21-9.18-13.34a11.08,11.08,0,0,0-3.72-6.89c-10.87-9.55-20.14-21-32.85-28.36-15.87-2.16-31.8-.68-47.68-.87-7.27-.09-13.65-1.48-19.39-6.18a27.49,27.49,0,0,0-21.32-6.14c-10.22,1.09-20.53.91-30.66-1.65-2.86-.73-5.86-1.34-8.75.12-5.88,2.74-3.94,13.73-13.37,12.7-2.95-.41-4.12-3-5.77-4.93-2.71-.09-2.89,2.66-4.53,3.63a6.73,6.73,0,0,1-5.18,1.13c-8.07-1.72-13.2-9.16-21.25-10.92-7.91,2.06-15.86,4.32-22.81-3.39L407.7,231c-30.3-27.16-33.74-64.65-40.87-99.17,5.13-6.82,8.57-11.31,15-11.44,1.64-.87,2.33.08,2.81,1.43,3,7.48,10.43,9.57,16.63,12.39,5.34,2.41,10.89,4.45,16.38,8,7.82-5.09,14.16-11.88,21.41-17.45,3-2.31,2.21-6.74,2.26-10.36.08-6.29,0-12.58-.1-18.87a30.72,30.72,0,0,1,5-19.21,163.86,163.86,0,0,0,10.93-13.55c2.46-3.52,5.46-6.58,10.5-5C484,61.51,500.56,59.06,517,59.51c9.93.28,19.82-.38,28.4,6.15A9.88,9.88,0,0,0,554,67.25c11.36-3.64,23.1-6.38,33.44-12.71,5.5,2.36,8.49,9.5,15.84,8.36,2.38,5.1.36,10.26,1,14.84-6.4,4.76-8.7-2.28-14-3.33-8.08,7.34-19.07,7.39-30.38,8.47,10.1,1.43,16.7,10.1,26.65,10.86,3,.19,6,.28,7.84,1.66,10.25,16.8,18.82,33.2,6.74,50.93,1.28,6,4.23,9.42,7.68,12.89,7.89-2,12.46-7.7,17.24-13.1,2.84-3.2,5.16-7.07,10.15-7.24,5.68.48,10.3,4.06,15.76,5.27,4.16.93,5.46,4.29,5.75,8.15-.62,6.71,1.72,12,6.66,16.75,12.86,12.39,25.28,25.22,38,37.76,3.21,3.16,6.23,7.35,11.84,4.65,7.87-7.38,18.48-9.87,27.38-15.43A8.12,8.12,0,0,1,748.73,198.06Z" transform="translate(-27.55 -31.69)"/><path class="cls-5" d="M451.84,875.37l-7,.39-5.91-9.31c-15.63,3.66-32,5.79-48.47-.1-4.37-1.57-9.95,2.57-14.57,5.35-27.44,16.51-55.39,19.6-83.91,2.65-13.94-8.28-27.85-16.63-41.85-25V818.19c10.4-7.93,20.26-15.88,33.27-19.51,11.94-3.33,20.92-11,24.18-24,2.17-8.7,8.39-14,16.6-17.18,7.41-2.86,14.77-5.88,20.81-11.52l69.2,32.54,8.06-6c11.27-.65,17.26,11.77,28.32,10.8,13.56-4.25,26.19-4.16,36.32,7.72,7.87,10.36,19.68,12.1,35.32,5.31,3.71-2.08,3.09-7.78,7.89-8.59,9.95,3.4,15.92,9.46,15.57,20.87-.42,13.56-.1,27.14-.1,41.57-6.23,2-8.64,11.24-17.55,9.37-4,2.91-8.62,3.13-13.3,3.14-12.6,0-25.22.51-37.79-.14C465.73,862,456.59,864,451.84,875.37Z" transform="translate(-27.55 -31.69)"/><path class="cls-6" d="M604.93,250c7.64,1.8,11.6,7.86,16.69,13.11,6.73,7,14.72,12.73,21.1,20.93v8.39c5.66,5.26,14.65,6,16.71,14,6.83,3.63,13.69-.3,20.8,1.88-1.81,14.21,10.92,12.68,18.52,17q31.63,28.6,24.89,70.72a23.54,23.54,0,0,0,.21,4.94c-1.55,8-3.41,15.93,0,23.91-3,9.94-10.87,15.38-19.1,20.47-5.16.18-5.06,5.39-7,7.42-2.26,1.92-4.16,2.75-6.11,2.66-7.89-.33-13,3.64-16.43,10.28-4.29,8.27-10.48,14.1-20,15.8-11.58,8.76-25.44,13.38-37.72,20.91-10.11,6.2-21.19,3.85-26.47-4.6-.23-13.89,2.17-27.7,1.23-41.61-.36-5.24.48-10.63-2.07-15.58-.73-11.83-1.15-23.52-8.57-34-2.87-4-.91-10.24-1.26-15.46-.46-19.27-.21-38.53-.16-57.78,0-8.36-.57-16.58-2.83-24.64-1.56-7.27-.69-14.69-1.28-22C573,277.43,566,272,557.27,268.33c-7.25-3-13.74-6.59-13.22-16a4.33,4.33,0,0,1,4.4-3.32C567.28,249.46,586.14,247.62,604.93,250Z" transform="translate(-27.55 -31.69)"/><path class="cls-7" d="M554.9,728.36l-1.49-1.76c-5.94-5.34-10.33-11.11-11.16-19.8-.68-7.17-9.82-11.63-7.71-19.87-2.9-4.9-7.88-7.85-8.67-13.43-.93-7.43-8.84-5.6-13.14-9.84-3-10,12.25-13.7,8.72-23.22a12.46,12.46,0,0,1,12.37-4,9.27,9.27,0,0,1,2.73,1.2c3.34,3.19,6.53,6.65,11.12,8,10.54,3.2,17.49,9.29,16.93,20.18,9.11,10.7,11.18,25.23,23.71,32,6,5.8,22.84,8.35,30.28,3.33A33.32,33.32,0,0,1,638,695.08c3.53,0,6.41-1.43,7.43-5.25a12.27,12.27,0,0,1,4.13-4.87c13.49-5.06,25.59,2.77,38,3.43,4.41,4.45,6.19,10.27,11.57,12.77,2.58,2.91,2.5,6.54,2.73,10.1.91,14.07,2.38,15.7,16.29,18.19a13,13,0,0,1,4.57,1.57c4.9,7.47,5.08,16.89,10.71,24.32,2.94,3.88,5.67,8,9,11.62,3.14,14.24,1,28.67,1.45,43,.24,7.62.64,15,4.89,21.68,1.14,6.73,8,4.22,10.69,6.41,3,2.76.81,5.19,1.53,7.32-2.27,9.19-10.55,7.38-16.75,8.65-8,1.65-16.48-.65-24.48,1.64-4.45,3.42-6.66,9.55-13.12,10.05-5.14-.67-9.54-2.73-11.7-7.67-4.15-9.54-8-19.2-12.25-29.4-9.68,1.55-9.66-12.23-19.36-11.86V791.57C645.89,794.39,640.92,778,629.58,771c-10.16,5.78-21.33,2.67-32.21,2.82-2-4.09,2.17-7.51.74-13.53C585,749.69,567.5,742.2,554.9,728.36Z" transform="translate(-27.55 -31.69)"/><path class="cls-8" d="M798.49,913.43c6.33,2.32,10.57,6.35,13.55,12.76,8.69,18.74,25.37,28.07,43.77,34.83,23.65,8.69,46.74,18.39,65.71,35.66,3.65,3.33,7,7,10.44,10.52-.1,5-4.47,4.32-7.2,4.71C910.7,1014,898,1021.25,883.6,1022a8.19,8.19,0,0,0-5.37,2.32c-8.44,8.75-16.77,17.6-27.17,24.18-2.57,1.63-.63,4.21-.33,6.37.21,4.52-3.64,4.16-6.22,4.82-17.93,4.53-35.92,8.88-54,13.33-32.37-25-50.36-57.38-51.28-98.42l-25.34-21.32c3.19-6.22,6.3-12.3,9.41-18.38,2.85-4.38,5.14-9.23,10-12,3.83-.63,7,1.43,10.49,2.35,7.07,3.84,14,3.92,20.56-1.09,5.85-4.63,10.35-11.33,18.26-12.8C788,910.39,793.63,909.26,798.49,913.43Z" transform="translate(-27.55 -31.69)"/><path class="cls-9" d="M218.33,423.35c-9.61-3.86-13.13-14.12-20.9-19.92-5.39-5.84-3.83-12-.89-18.6,13.69-4.91,26.39-14.08,42.29-9.36,4.54,2.83,7,7.79,11.81,11.21-.37,13.52,6.27,21.64,20.73,23.64.7-5-1-9.7-5.21-11.55-10.94-4.77-11.85-14.09-12.48-23.9.52-11.05-2.08-22.27,2-33.09,2.2-2.51,5.15-3,8.25-3,4.08-.23,8.15-.38,12.1.95,2.44,1.13,4.69,2.43,4.81,4.5-.09,9.07-13.82,7.67-11.19,18.23,11.61,5.33,25.22-1.11,36.42,4.09,3.36,3.83,3.33,8,4.63,11.67,1.16,10.16,1.47,20.29-.32,29.09-3.35,4.36-7,4.86-10.53,5.79-13.77,3.68-16.56,8.35-12.88,22.18,2.88,10.84,4,22,6.39,32.92.64,2.87.22,5.92.09,8.88-.15,8.45,1.41,17-1.92,25.41-4.58,3.09-9.46,5.83-12.95,10.27-7.21.61-5.81-4.76-5.64-8.68.5-11.94-.37-23.55-6.5-34.2-3-6.46-2.3-13.56-3-18.63-1.77-5.07-5.74-5.74-7.35-8.7s-.25-6.66-3.22-10.56C241.29,432.05,233.47,414.37,218.33,423.35Z" transform="translate(-27.55 -31.69)"/><path class="cls-10" d="M163,393.28c-8.8,5.53-22,4.52-25.6,17.39-8.07.71-15.92-2.49-23.64.45-5.73-5.8-3.59-12.57-2.38-19.23,5.79-6.64,7.36-14.51,6.75-23.06-1.13-15.72,2.69-31.77-3.21-47.18-1.35-10.68-.48-21.61-4.18-32.06a13.88,13.88,0,0,1,1.33-11.45c4.61-4.51,10.48-3.55,15.9-3,8.7.83,17.13,5,26.8-.17,3,12,4.87,22.72,12.8,30.59,4.39,2.3,6.41,5.65,7.07,10.87,1.81,14.49,1.26,29,1.19,43.49,0,2,.15,4.33-1,5.79C168.43,373.85,166.58,383.92,163,393.28Z" transform="translate(-27.55 -31.69)"/><path class="cls-11" d="M864.44,539.25a37.49,37.49,0,0,1,1.79,16.42L850,570.37l-7.48,1.13c-3.78,7.1-14.4,7.59-17.84,16.72-7.53-.59-12.32,2.86-13.27,11.06-8.38,1.2-13.64,6.44-18.36,12.8-1.89,15.22,1.23,30.81-1.7,46.16-5.19-3.41-3.26-8.81-3.5-13.44-.43-8.25-.21-8.26-4-14.92C776.18,636,774.11,644,773.49,653c-.51,7.36,2.1,15.17-2.82,22-5.21,1.69-10,.6-14.48-2.25-3.68-5.72-2.05-12.15-2.41-18.31s.77-12.51-1.69-19.74c-14-1-28.24-4.31-42.25,1.62-8.51,3.6-16,3.74-21.8-4.75-3.11-8.91-6.09-17.81,4.48-24.2a11.43,11.43,0,0,1,10.4.73c6,3.37,12.47,3.66,19,3.65a50,50,0,0,1,17.55,2.4c8.79,3,16.13.22,20.56-7.3,3.86-6.56,8.71-12.23,13.1-18.32,1.81-2.87,4.2-5.76,7.38-6.25,9.89-1.54,17.23-7.69,25.16-12.83,4.64-.84,8.32-3,10.13-7.62,7.41-4.48,10.94-11.92,14.75-19.17,1.5-2.84,2.19-6.3,5.68-7.71C846.05,533.85,856.13,530.88,864.44,539.25Z" transform="translate(-27.55 -31.69)"/><path class="cls-12" d="M453.78,586.89c-5.6,2.69-8.6-2.58-11.93-4.35-20.33,4-31.91-1.49-41.52-18.37-2.43-4.26-7-6.74-12-7.74-3.18-3-2.67-6.66-1.2-10.06,2.27-5.27,1.44-11.11,3.42-16.38,1.43-3.08,5.17-3.6,7-6.24,2.24-2.91,1.53-6.78,3.21-9.88,5.82-4.67,8.21,4.14,13.14,3.27,5.49-.79,8.28-4.77,10.49-9.39,2.39-6.83-1.27-14.63,3.41-21.2,6.67-3.72,11.15-.89,14.72,4.86,1.39,2.22,1.68,5,3.7,6.87,2.69,2.25,6.34,1.85,9.29,3.36,7.74,7.47,13.39,16.76,23.86,21.88,6.18,3,8.86,11.23,11.58,18.06a10.13,10.13,0,0,1-1,5.34c-1.69,3.67,1,6.6,1.69,9.88.44,6.7-2.87,12.49-4.49,18.69C476.42,580.41,466.65,588.2,453.78,586.89Z" transform="translate(-27.55 -31.69)"/><path class="cls-13" d="M534.11,638.18c-3.54.28-7.25-.14-10.9,2.9.59,1.9,1.29,4.13,1.87,6-3.37,5.68-9.77,8.42-11.43,14.34,3.09,4.48,7.35,1.85,9.88,3.19,3.93,1.63,4.09,4.58,4.11,7.6-2.34,3.15-6.72,2.48-10.32,5.89,12.52,7.76,17.77,18.15,9.84,32.12-2.41,3.85-5.13,1.93-7.5.15a40.93,40.93,0,0,1-9.26-8.85c-1.34-2.25-1.55-5.12-4.23-7.31-7-2.24-14.54-.91-22.73-.86-5.52,8.41-13.43,7.95-21.84,5-3.26-8.58-1.06-17.35-1-26.06,5-4.09,6-9.44,6.33-15.7.53-11.09-2.47-22.25.69-33.26a1,1,0,0,1,.1-1c3.38-16.6-.75-15.52,28.41-18.06,4.23.54,6.55,4.11,9.83,6.17,7.44,4.67,12.76,12,21.33,15.49C531.62,627.66,534.2,632.77,534.11,638.18Z" transform="translate(-27.55 -31.69)"/><path class="cls-14" d="M69.84,277.94c1.93-7.16,1.93-14.44,1.26-21.76l15.54-6.6c11.17,2.22,11.67,15,19.87,20.06a7.72,7.72,0,0,1,4.21,7.75c-3.35,13-2.06,26.32-2.21,39.53-.25,22.17.29,44.34-.25,66.51-.13,5.62.06,11.26-.18,16.9-.12,3,.14,6.58-2.08,8.51-7.8,6.8-7.73,15.51-7,24.57-7.36,4.95-13.53,11.19-19.38,17.8l-.09-49.86c9.29-9.1,4.64-21.15,6.39-31.78,1.54-9.34.37-19,.29-28.56-.09-11.66-6.54-20.32-12.76-29.19C71.3,300.63,73.92,288.93,69.84,277.94Z" transform="translate(-27.55 -31.69)"/><path class="cls-15" d="M705.37,443.13l17.26-17.74c2.1-6.4,7.13-11,10.63-17.86,13.62-1.16,27.5-3.95,41.29,1.69,14.64,1.56,30.13-2.77,43.71,6.26,4.75,6.34,1,12.55-.28,18.8-7.52,4.42-8.91,15.29-18.45,17.62-7-1.18-8-8.09-11.75-12.6-7.61-2.49-15.55-.72-23.33-1.3-8.86.64-17.85-1-28.07,1.6.82,13.56-9.23,20.15-18.48,27.18-5.43,4.13-8.38,9.11-8.1,16.07.16,3.94.14,8-2.09,11.58-2.38,2.86-5.66,3.14-9.05,3.19-10.55-2.9-11.88-4.76-12.47-17.41-.78-9.2,1-17.26,8.72-23.53C699.33,453.08,699.27,445.67,705.37,443.13Z" transform="translate(-27.55 -31.69)"/><path class="cls-16" d="M838.12,471c-1.63,8.61,4.18,15.62,5.06,23.56l7.26,8.21c-2.72,3.31-5.83,6.25-8.54,9.08-6.55,3.22-13.58.49-20.49,3.23-2.56,4.77-7.86,8-10.6,13.41-6.14,6.69-11.7,14-20.14,18.19a16.88,16.88,0,0,1-9.24-.29c-4.36-1.4-6.62-6.52-11.75-6.57-12.71-2.1-15.62-6.1-13.8-18.87,4.7-4.32,10.59-2.52,16-3,6.48-.57,12.29-1.9,14.6-9.12-3-4.3-8.48-2.46-12.39-5.13-.32-15.1-5.93-27.33-18.68-35.64a7.08,7.08,0,0,1,1.23-7.3c2.46-2.25,5.59-2.58,8.83-2.54,10.57-2.07,18.71,2.87,26.36,9.19,3.73,2.42,4.23,7.4,8.74,10.72,8.51-4.55,19.31-2.22,28.41-7.52C832,468.9,835.19,468.28,838.12,471Z" transform="translate(-27.55 -31.69)"/><path class="cls-17" d="M850.73,1054.85l-8.51-4.56c15.24-7.77,26.28-18.69,35.69-30.56,19.41-.75,36.12-9.2,54.05-12.53,7.54,4.95.24,11.69,2.39,18.06,1.31,2.84,5.63-.59,7.83,2.45,3.2,8.35,1.34,17.07,1.81,27.14Z" transform="translate(-27.55 -31.69)"/><path class="cls-18" d="M344.77,303.27c12.61.71,24.65-1,35.37-8.29,17.5-6,32.11.52,35.47,15.91-1.69,5.26-1.88,11.07-5.6,15.61-3.48,2.36-7.73,1.57-11.4,3.08-20.48,10.93-43.76,13.26-63.57,22.32-6.26-4.42-6.9-10.58-11.46-13.67-2.66-8-6.74-15.62-5.23-24.48,2-6.17,6.8-8.43,12.79-8.82C335.72,304.63,340.22,303.72,344.77,303.27Z" transform="translate(-27.55 -31.69)"/><path class="cls-19" d="M635.43,140.19c-8.74,7.73-14.73,18.54-27.24,23.71l-12-16.58,6.66-8.31c1.36-6.66-1.1-13.85,3-20.26L596,107.54c-.36-2.81-.76-6-1.14-9.06-2.17-2.64-5-1.78-7.54-2.08-2.13-2.67-1.82-5.35-.05-8.33,6.12-3.46,12.17-3.89,18.17.45,15.12,7.47,27,18.24,34.08,33.77-.39,3.41-3.8,5.19-4.51,8.42C634,133.93,636.89,137,635.43,140.19Z" transform="translate(-27.55 -31.69)"/><path class="cls-20" d="M392.42,528.84c2.11,9.71-4,18.2-4.09,27.59-3.09.78-1.4,4-3,5.87-3.5,0-7.37,2-10.68-1.42-2.81-8.66.17-17.82-2.29-26.86-5-4.77-8.16-11.8-15.58-14.36-9-8-13.24-33.37-7.41-43.78,2.43-4.36,6.17-5.59,10.82-4.93,10.53,3,17.54,9.79,21.68,19.78,4.85,8.19,7.48,17.33,11.08,26C394.59,520.81,395.43,525,392.42,528.84Z" transform="translate(-27.55 -31.69)"/><path class="cls-21" d="M587.41,54.54c-.25,2.25-.51,4.5-.85,7.55l-16,.92-8.46,7.37h-17l-9.33-7.79c-19.33,0-39.14,0-58.95,0-4.24,0-8.8.82-11.27-4.1-.65-5.15,1.5-9.53,3.58-13.62,3-2.61,6.15-2.79,9.47-1.8,15.51,12.28,35.95,11.81,51.23-1.3a27.94,27.94,0,0,1,7.62-4.56h19.83c6.49,3.32,4.5,10.32,6.35,15.71Z" transform="translate(-27.55 -31.69)"/><path class="cls-22" d="M109,275.72c-.83-2-1.65-4.06-2.48-6.08,3.89-3.31,8.2-4.53,13.46-4.38,22.69.67,45.44-.31,68.05,2.71,4.48.6,7.4,3.9,11,6.09a5.59,5.59,0,0,1,1.06,6.48c-3,4.35-8.65,3.34-11.08,8,1,5.78,6.71,11.29,2.91,18.15-6.54,2.49-7.4-8.15-12.88-6-4.18.12-6.05,2.67-8.46,4.26a8.57,8.57,0,0,1-5.12,2c-2.63-3.66-3.92-8.71-9.64-8.42-.56-7.15-1.05-13.54-1.59-20.44-14.45,8.08-27.39-4.49-40.63,0C111.55,278.2,110.2,277.1,109,275.72Z" transform="translate(-27.55 -31.69)"/><path class="cls-23" d="M232.76,273.69l6.71-7.67H254c3.14,3.39,3.83,9.93,10.63,8,3.72,3.75,2.45,8.57,2.75,13,.32,4.84-.36,9.84,2.83,14.75,3.94-1.06,4.29-7.85,9.59-6.54,5.87,2.69,5.61,7.91,5.45,13.1-1.09,9.19-7.66,11.48-15.44,12.18-8.83.8-17.8-.86-26.55,1.48-8.27,1.44-16.14,0-23.81-3.2-4.35-1.84-7.27-4.33-6.12-9.55,2-4.47,6.74-4.7,10.43-6.54,4.44-1.61,8.2,1.93,12.83,1.64,4.2-.8,7.18-3.71,9.55-7.14C248.89,285.08,242.06,278.68,232.76,273.69Z" transform="translate(-27.55 -31.69)"/><path class="cls-24" d="M485.65,791.67c-10-9.74-22.74-8.39-35.1-8.39l7.79-9.23h27V749.44c-12.33-11.55-5.12-30.57-15.93-42.86,4.66-4.81,10-3.73,15.5-1.89,3.61,11.71,10.11,22.48,11.74,34.88.27,3.88-.21,7.84.8,10.7,1.89,4.35,5.91,5.53,8,9.9.87,6.48-.87,13.86-1.39,21.29C501,790.53,495,794.12,485.65,791.67Z" transform="translate(-27.55 -31.69)"/><path class="cls-25" d="M723.07,732H706.83l-8.23-10.54v-19.4c-.57-4.55,1.63-8.2,3.81-11.87,3.84-3.13,8-3.12,12.25-1,3.66,3.05,2.2,8.21,5.19,12.29,5.92,3.27,13,1.57,18.5,2.39,7.3-.92,10.22-11.51,18.39-5.5,2,12.79-3.33,20.93-15.61,24.67-4.57,1.38-6.85,4.8-8.29,9C729.57,735,726.31,734.6,723.07,732Z" transform="translate(-27.55 -31.69)"/><path class="cls-26" d="M635.43,140.19l-4.13-8.41c1.35-4.77,4.65-7.25,8.23-9.49,5,2.72,10.45,2,15.77,2.38,2,2.66,2.32,6.08,3.92,8.93,12.14,8.09,19.54,20.75,29.73,30.72q.45,3.35.9,6.73L709.22,178c6.74,7.47.37,13.81-1.76,20.52-9.7,4.84-14-4.54-18.5-8.86-6.26-6.06-11.93-12.74-19-18.06-6.07-4.56-9.54-11.52-14.57-17.07-.29-2.25-.58-4.5-1-7.43C646.85,147.77,641.67,142.68,635.43,140.19Z" transform="translate(-27.55 -31.69)"/><path class="cls-27" d="M479.82,45h-9c-1.3,5-1.39,10.05-5.28,13.44-8.5,3.43-8.87,14.7-17.44,18.05-3.86-.41-7.8-.22-11.48-1.25-4.88-4.32-2.37-9-.95-13.59-2.81-7.64,2.94-11.44,7.41-15.88L444,35.65c19.8-7.83,39.65-2.26,59.51,1.33-.91,9.15-5.07,12.75-13.75,11.81A19.35,19.35,0,0,1,479.82,45Z" transform="translate(-27.55 -31.69)"/><path class="cls-28" d="M240.34,377.74C225,374,212,382.6,197.43,386.67v16.76c-7.66-2.21-17.3,1.39-22.62-7.69-1-7.36,7.06-9.88,8.54-15.92,3-3.86,4.79-8.4,7.13-12.63a30,30,0,0,1,12.67-4.58c5.22,1.76,10.12.8,15.2-1.08,7.57-2.79,15.15-6.48,23.66-3.67,9.71,6.79,10.88,10.32,6.79,20.28C245.89,379.93,243.08,379.51,240.34,377.74Z" transform="translate(-27.55 -31.69)"/><path class="cls-29" d="M756.74,698.32c-3.16,0-6.57-1.07-8.62,2.83a12.35,12.35,0,0,1-7.23,6.33c-4.22-.44-8.43-.93-12.65-1.32-3.83-.35-7.91,1.06-11.59-1.82-3.34-4.22-1.19-9.35-1.8-14.1.17-5.06,5.08-5.62,7.93-7.93,7.24-5.84,17-6.75,24.76-11.92,2.69-1.78,6.5-.63,9.21,1.86,4.67-.48,9.11.6,13.49,2,2.2.65,3.76,1.66,2.47,4.31-1.75,3.72-3.51,7.44-5.22,11.06l-8.61,1C756.31,693,757.26,695.84,756.74,698.32Z" transform="translate(-27.55 -31.69)"/><path class="cls-30" d="M764.73,927.15c-7.2,4.7-14.39,6-21.54-.11-6.17-7.72-7.15-18-13.5-25.94-2.91-3.61-4.69-8.57-7.59-11.76-2.61-4.72.56-10-3.14-13.84l-4-2.14c9.58-14.59,20.35-15.33,31.06-2.12-.27,18.16,12.23,32,16.57,48.62C763.21,922.29,765.7,924.2,764.73,927.15Z" transform="translate(-27.55 -31.69)"/><path class="cls-31" d="M435.7,61.69c.24,3.82.48,7.63.73,11.57,3.86,2,9.84-4.21,11.7,3.27-2.1,6.45-5.5,12.62-4.33,19.79a12.38,12.38,0,0,0-4.62,9.52c-.23,8.45-4.25,14.88-9.71,21-8.53,9.6-25.72,9.12-33.15-1.39-1.74-3.21-6.69-4.77-4.84-10.54,5.67-7,15.46-.31,22.13-5.22,3-5.47,8.66-8.53,12.21-13.5V70Z" transform="translate(-27.55 -31.69)"/><path class="cls-32" d="M764.73,927.15c-7.53-5.87-8.78-15.18-11-23.25A34.39,34.39,0,0,0,743.66,887c-2.24-5.74,2.86-10.46,1.21-15.77,2.2-7.35,7.78-6.63,13.47-5.64.36,2.61.4,5.31,1.15,7.8,2.54,8.48,5.33,16.88,7.7,24.27,6.43,4.87,12.41,2.64,18.26,2.51,8.81-.21,15.25,2.38,13,13.24C783.92,909.84,774.23,918.27,764.73,927.15Z" transform="translate(-27.55 -31.69)"/><path class="cls-33" d="M340.41,545c-13.24,2.15-26.46,4.61-40,3.4-5.28-11.64-3.72-20.43,5-28.07,5.18-2.5,8.32,2.65,12.57,3.51,5.74-.73,9.93-5.17,15.49-6.08,7.78.55,14.52,4.46,21.79,6.73,6.5,3.26,7.17,9,3.8,14C354.86,544.74,348.46,548.17,340.41,545Z" transform="translate(-27.55 -31.69)"/><path class="cls-34" d="M425.63,238.55c5.38-4.53,7.89,1.07,11.34,3.25,3,1.92,6,3.94,9,5.91.28,4.09,2.07,7.82,2.79,11.82a5.94,5.94,0,0,1-.7,2.84c-6.5,8.92-13.41,17.64-12.75,28.6-4.41,3.5-7.82,2.3-11.23,1-4.24-4-10.77-4.88-13.85-10.38L416.43,270l-6.58-12.54c3.93-5.37,7.84-10.5,15.78-9.5Z" transform="translate(-27.55 -31.69)"/><path class="cls-35" d="M485.65,791.67c2.9-3,6.92-.83,11-2.61l5.12-7.12c1.92-2.17,4.9-3.29,6.12-6,2.85-9.17-2.82-21.34,9.94-26.62,3.32.53,4,3.24,4.36,5.82.73,4.71,2.19,8.93,6,10.9,1,5.91-.23,10.9.92,15.76.34,2,.67,3.92,1,5.88-2.41,3-2.44,6.75-2.62,9.48-13.38,9.2-26.62,7-40,1.3C485.07,797.07,486.24,794.15,485.65,791.67Z" transform="translate(-27.55 -31.69)"/><path class="cls-36" d="M497.7,605.45c-6.8.95-13.25,3.49-20.36,3.25-9.41-.32-5.95,9.34-9.58,13.62V605.6c-3.05-8.44-11.75-11.07-14-18.71,7.1-3.43,15.79-3.4,20.76-9.52,4.22-1.85,8.68,1.08,11.65-2.78C499.68,580.05,504.11,591.91,497.7,605.45Z" transform="translate(-27.55 -31.69)"/><path class="cls-37" d="M185,381.5c-.73,6.64-8,8.6-10.15,14.23-4.49,1.9-8.15-.2-11.78-2.44V376.85l9.91-10.8c0-8.63.2-18.14-.06-27.63-.25-9.15-1-18.28-1.49-27.65-1.11-2.38-5.4-.34-6-3.84l3-3.08c4.75-.32,9.24.25,13.09,3.75,3.33,5.29,2.4,11.31,2.34,17.19.63,14.43-1.6,29,2.49,43.27C187.64,372.69,183,376.78,185,381.5Z" transform="translate(-27.55 -31.69)"/><path class="cls-38" d="M451.84,875.37V866.7l7.52-7.17H528c-2.53,7.66-8.79,8.4-15.67,8.08l-8.21,7.76Z" transform="translate(-27.55 -31.69)"/><path class="cls-39" d="M232.76,273.69c7.24-.61,11.33,4.09,15.46,9.34.45,4.53.56,9.43,3.21,13.86l-11,9.81c-6.44,3.79-10.38-2.37-15.56-3.3-6.49-5.18-13.07-10.28-16.11-18.48-.26-2.6-.28-5.14,1.9-7.08C216.81,269.83,225.5,275.59,232.76,273.69Z" transform="translate(-27.55 -31.69)"/><path class="cls-40" d="M309.52,520.79c-14,5.6-7.43,18-9.09,27.65l-9.75-2.64V527.56c-7.44-2.47-8.45-9.64-12.1-14.82.22-2.88.43-5.75.67-9l11.54-1.83V476.59c2.79-2,5.46-1.64,8.81,1,3.82,9.72.38,20.73,2.25,31.23,1.07,4,4.23,6.47,7,9.24A4.62,4.62,0,0,1,309.52,520.79Z" transform="translate(-27.55 -31.69)"/><path class="cls-41" d="M838.12,471c-5.56-1.08-9.17,2.49-13.33,6-8.81-.31-18-.48-25.64,7.4-2.8-6-6.79-9.58-6.59-15.21-.95-6.19,4.19-7.35,8-9.66,8.87-2.64,15.61-10.7,25.73-10.23,5.56.23,10.12,2,11.91,7.91Z" transform="translate(-27.55 -31.69)"/><path class="cls-42" d="M706.88,198.18c-2.19-7.08,6-13,2.33-20.21,3-.76,5.41-5,9.21-1.77,7.52.53,15.21-.08,22.48,3.34,3.63,6.26,4.35,12.36-.19,18.47L732,205.42l-8.46,1.34-8.14,7.09C711.53,209.19,701.92,207.64,706.88,198.18Z" transform="translate(-27.55 -31.69)"/><path class="cls-43" d="M218.33,423.35c5.09-9.61,12.93-4.79,20.73-3.79,1,2.24,2.12,4.76,3.21,7.18l10.69.56c6.68,3.53,5.28,9,4.42,14.66L265.3,445c2,8.44,1.43,16.64,1.14,24.82-3.71-1.17-3.38-5.37-5.39-7.56-3.9-2.11-9.12-.67-12.05-6.35q-.23-4.63-.64-12.73l-9.3-8H227.65Z" transform="translate(-27.55 -31.69)"/><path class="cls-44" d="M864.44,539.25c-9.83-3.08-19.92-2.58-30-2.15-2.29-2-2.54-4.66-2.64-7.41a14.55,14.55,0,0,1,2.82-9.62c11.13.37,13.88-13,23.7-16.78,7.63,4.13,12.36,11.22,18.83,17.63C870.76,526,868.85,533.41,864.44,539.25Z" transform="translate(-27.55 -31.69)"/><path class="cls-45" d="M410.27,281.58c4.5,2.77,11.3,1.77,13.56,8.24,5.93,4.42,8.62,11.33,12.6,17.16,3.86,5.64,1.06,11.5-3.67,15.72-6,5.39-10.76,1.4-15.22-2.88-2.11-2.3-4.21-4.6-3.72-8.1.5-9.19-8.62-10.64-13-16.74h-20.7c-.5-5.46,3.12-5.4,7-5.35,7.09.09,14.18,0,20.39,0C410.71,286.85,409.72,284,410.27,281.58Z" transform="translate(-27.55 -31.69)"/><path class="cls-46" d="M758.34,865.61c-4.06,2.91-10.15,1-13.47,5.64-4.44-2.3-7.36-7.14-13.3-7.88-5.78,2.45-11.7,5.36-16.62,10-.1-1.59-.2-3.19-.28-4.49-2.41-2.57-6.35.13-8.09-3.14,3.07-4.53,9.14-6.87,8.84-13.26C731,849,747.34,856,760.93,845.38l4.56,6.59Z" transform="translate(-27.55 -31.69)"/><path class="cls-47" d="M772.71,678.59l-2.47-4.31C771.4,657.15,767,638.7,783,624.66c3-.39,4.15,3.94,8.34,4.42v29.17C790.3,669.75,781.49,674.15,772.71,678.59Z" transform="translate(-27.55 -31.69)"/><path class="cls-48" d="M282.73,307.94c-.22-4.45.55-9.23-4.14-12.15-.31-5,.16-9.65,5.65-11.91,4.79,5.44,9.59,10.87,13.7,15.52,13.58,0,25.11,0,36.65,0,3.91,0,8.08-.82,10.18,3.88-2.48,5.4-7.37,4.56-11.82,4.31-5.61-.32-10.37.58-12.7,6.48-7.28-.07-14.22,2.1-21.31,3.28C292.78,315.51,288.3,310.78,282.73,307.94Z" transform="translate(-27.55 -31.69)"/><path class="cls-49" d="M340.41,545c6.37-.22,11.3-4.2,17.35-6.15V527.52l-5.41-1c-.59-4.39,1.95-6.24,5.73-7.07h7.36c3.68,4.11,1.88,12.23,10.79,9.72-1.11,11.6,1.85,21.74-1.61,31.7-2.24-1.93-4.49-3.87-6.74-5.79C358.38,552.69,345.34,559.93,340.41,545Z" transform="translate(-27.55 -31.69)"/><path class="cls-50" d="M529.08,781.84c-3.14-4-.69-8.92-1.83-12.41-1-4.57-5.6-2.64-7-5.45-2.25-4.38,1.85-9.88-2.49-13.89-2.53-3.91.12-8.48-1.57-12.23-.91-3.41-4.66-3.91-6-6.67-2.53-8.85-1.79-17.77-.71-26.7a6.72,6.72,0,0,1,1.88-2.86c6.28.77,8,8.62,14.3,9.31,6-2.42,7.83-1.66,11.95,5l-7.55.47C526.75,738.61,529.2,760.25,529.08,781.84Z" transform="translate(-27.55 -31.69)"/><path class="cls-51" d="M554.9,728.36c5.29-.88,7.57,3.54,10.41,6.41,3.44,3.49,7.06,5.83,12.51,5.52l2.84,7.31c9.18,1.52,16,7,22.7,13.81l-6,12.36a114.26,114.26,0,0,1-35.24-24.68c-.25-3.18-.48-6.12-.7-8.94C559,736.25,554,733.89,554.9,728.36Z" transform="translate(-27.55 -31.69)"/><path class="cls-52" d="M699.1,308.12l-1.34-7.07c-7.07-1-12.5-4.36-16.07-10.6.78-8.44,5.28-13.65,13.65-15.85,6.77-1.78,12.44-1.08,16.57,6.07l-4.43,6.67c2,3.45,5,1.91,7.38,2.4.19,3.23.39,6.46.64,10.66l-9.29,7.37Z" transform="translate(-27.55 -31.69)"/><path class="cls-53" d="M605.45,88.52H590.08c-3.32,2.66-2.44,5.43-2.75,7.88h-8.45l-7.91-7c-5.81-2.52-15.55,2.37-17.17-9.49,8.49-2.81,17.1-.43,25.74-1.71,5.19-2,7.91-10.45,12.54-8.37,6.33,2.55,4.13,7.43,8.68,8.26,4.78-4.24,1.39-10.19,2.49-15.18C607.65,71.12,603.67,80.07,605.45,88.52Z" transform="translate(-27.55 -31.69)"/><path class="cls-54" d="M537.67,715.92c-3.77-2.17-7.31-4.89-11.95-5-2.82-7.27,5.52-13.16,2.71-21.18-8.36,1.2-7.91-9.8-15.33-10.52,2.67-7.12,8.5-7.29,14.54-7,2,4.31,3.3,9.26,9.6,9.08.24,5.33.45,9.9.63,13.93,1.3,3.57,5,2.31,7.22,4.9.23,4.4.48,9.28.71,13.57,2,5.14,8.2,7,7.61,12.92C545.43,727.06,542.82,719.62,537.67,715.92Z" transform="translate(-27.55 -31.69)"/><path class="cls-55" d="M719,875.5c8.74,1.33.35,8.79,4,12.25l6.93,4.61c1.42,12.77,14.44,21,13.32,34.68l-9.25-2.38c-3.72,3.11-5.57,8.38-10.69,10.23V901.56l-9-10.17C717.33,886.25,719.58,881.24,719,875.5Z" transform="translate(-27.55 -31.69)"/><path class="cls-56" d="M858.31,503.29c-7.85,5.56-7.56,21-21.69,17.85-2.81,2.48-1.93,5.25-2.2,7.75-8.62,4.74-17.33,4.43-26.09.43.19-2.29.39-4.57.64-7.48,5.78-.43,8.59-3.82,8.12-10.35h23.23c2.16-4.87,3.6-10.14,10.13-8.71Z" transform="translate(-27.55 -31.69)"/><path class="cls-57" d="M479.82,45c8.68-.41,19.72,6.13,23.73-8.06l33.91.22C525,57,506,55.55,486.66,52.41,482.78,51.78,480.42,49.06,479.82,45Z" transform="translate(-27.55 -31.69)"/><path class="cls-58" d="M838.15,457.18c-3.61-2.65-7-5.81-11.82-6.05-2.83-5.68-7.56-10.19-10-16.12q1-9.76,1.93-19.53l5.52-3.47c11.35,11.4,14.92,25.95,18.6,41.08C842.75,455.67,838.54,454.73,838.15,457.18Z" transform="translate(-27.55 -31.69)"/><path class="cls-59" d="M774.55,409.22H734.22c-.79,8-5.76,12.45-11.59,16.17-5.24-8.41-6.41-16.63,1.22-24.4h45C773.28,403.33,773.06,406.77,774.55,409.22Z" transform="translate(-27.55 -31.69)"/><path class="cls-60" d="M723.07,732l9.77,0c10.46,8.89,17.45,19.39,15.84,33.92-2.6,2.1-5.23,2.1-7.87.09l-6.52-.73C731.21,753.68,720.7,745,723.07,732Z" transform="translate(-27.55 -31.69)"/><path class="cls-61" d="M486.17,706.33l-16.81.25-7.76-8.21c4.36-4.9,9.35,2.07,15-1.68.6-1.24,1.8-3.72,2.89-6h30.46c2.59,3.78,1.52,7.42,1.48,10.93l-.19.52.37.42C503.56,706.79,494.55,704.39,486.17,706.33Z" transform="translate(-27.55 -31.69)"/><path class="cls-62" d="M689,164.32c-9.49,3.31-6.69-12-15.05-8.77-.72-3.51-1.18-5.72-1.71-8.32-5-.66-8.45-3.09-7.93-8.19l-9-2v-12.4c4.94.44,10.4-1.6,14.48,3.07,2.45,2.8.52,6.37,1.81,10l9.06,1c-.11,5.28,1.16,10.21,7.22,10.06C691.05,154.55,689.2,159.47,689,164.32Z" transform="translate(-27.55 -31.69)"/><path class="cls-63" d="M210.7,277.84c-.09,2.63-.19,5.26-.28,7.88-.63,14.18-7.51,22.79-18.38,23l-1.11-1.07c-.06-10.38-1-12.65-7.36-18.4,2.6-5.7,7.34-7.84,13-7.78,2.78-2.09,1.8-5,2.4-7.41C203.75,272.65,207.33,274.92,210.7,277.84Z" transform="translate(-27.55 -31.69)"/><path class="cls-64" d="M740.71,198V182.18c-7.36-4.88-16.83,2.45-22.29-6l13.16-12.14h9.32l7.83,7.46v26.54Z" transform="translate(-27.55 -31.69)"/><path class="cls-65" d="M740.81,766l7.87-.09,0,65.71-7.9-6.87Z" transform="translate(-27.55 -31.69)"/><path class="cls-66" d="M99.05,433.41c-5.27-6.34-2.89-13.38-2.49-20.4l8.76-5.32V385.38c2.61-2.09,5.33-2.45,8.19-.5,1.7,2.23.94,4.49.1,6.76l.18,19.48C115.06,422.63,103.93,426,99.05,433.41Z" transform="translate(-27.55 -31.69)"/><path class="cls-67" d="M417.86,112.15c-7.52,6-17.77-1.37-25.34,4.42.66,5.29,6.15,2.59,7.55,5.84-5.32,3.78-10.62,4.13-15.91,0l-2.3-2-14.33-16.91c4.45-6.56,9.85-8.48,16.62-6.89,7.56,7.7,15.14,15.29,27.47,13.28A7.72,7.72,0,0,1,417.86,112.15Z" transform="translate(-27.55 -31.69)"/><path class="cls-68" d="M284.24,283.88c-1.89,4-2.07,8.75-5.65,11.91-3.55,2.81-4.2,7-4.58,10.64a6.09,6.09,0,0,1-6.44.39c-4-10.56-1.36-21.9-3-32.82H275C276,279,281.88,279.63,284.24,283.88Z" transform="translate(-27.55 -31.69)"/><path class="cls-69" d="M467.66,623.35c3.68,15.64,1.8,31.45,2,46.55-3,3.29-6.2,2.08-9,2.41V629.9Z" transform="translate(-27.55 -31.69)"/><path class="cls-70" d="M417.86,112.15H393.51c.94-7.73-11.75-6.64-9.36-15.59l9.64-.51,6.08,8.08H410c4.35-4.44,8.36-9.73,15.83-7.91-.15,3.36,1.43,7.49-4.15,8.22C416.75,105.08,418.47,109.25,417.86,112.15Z" transform="translate(-27.55 -31.69)"/><path class="cls-71" d="M69.84,277.94c8.6,5.12,4.81,13.58,5.44,20.77.38,4.27,0,8.61,0,12.92-1,25.16-.38,50.33-.62,75.5,0,4.93.46,10.05-3.33,14.12-6.1-1.22-14.7,4.68-17.41-6.14-1.15-3.62-1.5-7.11,1.7-10,4.21.09,8.5,1.11,13.18-1.18V309.57l-7.34-3.93V277c-1.88-3.61-4.42-3.22-6.61-3.65,1.89-2.14,3.78-4.27,6.33-7.17C63.94,270.84,61.52,278.93,69.84,277.94Z" transform="translate(-27.55 -31.69)"/><path class="cls-72" d="M55.58,385.13c-.65,3.31,1.08,7-1.7,10-7.35.6-2.35-8.11-7.58-9.72-5.42,2.89-.93,9.12-4.17,13.1-5.86-1.17-4.26-6-4.68-9.86s2.93-8.44-2-11.53V360.46c6.18-4.14,11.3-2.88,17.28-2.15Q54.15,371.71,55.58,385.13Z" transform="translate(-27.55 -31.69)"/><path class="cls-73" d="M71.29,401.25q0-38.6,0-77.19c0-4.59-.34-9.23,3.95-12.43l11.92,12.74c1.68,18.25,3.08,36.28.33,54.37-.8,5.24,3,10.34,1,15.6a10.72,10.72,0,0,1-8.89,7Z" transform="translate(-27.55 -31.69)"/><path class="cls-74" d="M604.93,250c-17,0-34.09,0-51.14-.13-4.71,0-8.73.23-8.4,6.46-5.35,2.7-10.77,5.27-16.31,7.57-7.4.27-13.85-3.61-20.93-4.78A7.45,7.45,0,0,1,505.9,257c-2.82-5.72-7.67-6.69-13.38-5.8a72.27,72.27,0,0,0-19,5.46,17.74,17.74,0,0,1-11.65,1.16c-4.46-2.1-9.18-4-8.06-10.41a5,5,0,0,1,6.11.14h6.63c4.41-16.5,5.48-17.14,21.65-13.38,9.92,2.31,26.27,2.23,34.63-.32,7.7,3.54,15.72,7.26,22.24,14.24,16.42,0,33-.1,49.55.07C598.08,248.22,602,246.67,604.93,250Z" transform="translate(-27.55 -31.69)"/><path class="cls-75" d="M384.16,122.36l15.91,0c.31,2.24.62,4.48,1,7.35h22.7c6.53-9.44,16.14-17.77,12.16-30.37,2.47-3.75,5.36-2.74,7.85-3.06a13.87,13.87,0,0,0,.13,3c6.06,24.27-10,35.83-26.92,46.85-4.47-.2-4.55-5.4-8.61-7.14-11.55,0-18.86-9.71-29.74-15.49Z" transform="translate(-27.55 -31.69)"/><path class="cls-76" d="M706.88,198.18c.65,3.2-.62,7.28,4.86,7.89,4.68.53,3,4.89,3.66,7.78-4.79,3.86-8.46,1.43-12-2.09-15.85-15.78-31.72-31.53-48-47.76v-9.5h6.76c-1.49,9,9.62,9.3,10.42,16.75,2.6,2.11,8-.38,8.37,5.22.31,4.68,5.3,3.09,7.41,5.27.5,2.39,1,4.62,1.62,7.68C699,185.85,697.76,201.07,706.88,198.18Z" transform="translate(-27.55 -31.69)"/><path class="cls-77" d="M478.17,178.07V153L501,170.72c.59,5.56-4.07,7-6.08,10.07.61,2.37,1.17,4.54,1.75,6.75-11.07,3.07-21.86,3-33.54,2.25C466.08,183.91,472.91,184.25,478.17,178.07Z" transform="translate(-27.55 -31.69)"/><path class="cls-78" d="M447.93,257.89c-6.28-2.33-4.66-6.15-1.92-10.18l5.87.23,1,1.4C453.73,253.65,456.21,258.86,447.93,257.89Z" transform="translate(-27.55 -31.69)"/><path class="cls-79" d="M459.94,247.57l-5.8.56a1.38,1.38,0,0,1-2.31-.18h.05c.31-2.48-.62-5.22,1.58-7.33C460.37,238.49,459.92,243.25,459.94,247.57Z" transform="translate(-27.55 -31.69)"/><path class="cls-80" d="M490.1,542.56l-12.32-18.68c-11.56-2.15-16.92-11.28-22.09-20.61-6.34-4.3-6.93-10.78-6.3-17.49.53-5.52-.25-10.38-4.47-14.38a10.78,10.78,0,0,1-3.52-8.89c.8-8.11-2.52-14.58-7.32-20.62a187,187,0,0,1-.64-36.8c.32-2.53,2.14-4.61,2.59-6.76-1.6-2.92-4.87-2.71-6.39-4.92A156.87,156.87,0,0,0,451.82,369c2.16-2.89,5-5.37,5.18-8.84-1.23-8.28-11.33-3.5-13.39-10,7.53-6.74,15.42-12.65,26.41-11.3a13.72,13.72,0,0,1,7.63,1.73c3.84,3.4,1.91,8.82,5.54,14.4,14.57,2.94,29.39,11.4,46.64,9.28,5.24.58,10.51.18,15.76.41,12.27-1.13,13.84-2.86,13.54-15.24-.06-3-.8-6.27.75-8.71,5.46-8.62,7.14-18,7.38-28,.07-2.61.77-7.38,5.76-3.55,2.74,7.05,1.47,14.41,1.61,21.64.37,18.81-.48,37.66.45,55.12,2.75,4.21,6.32,5.1,8.31,7.8v13l12.07,17.7c-4.84,4.09-4.21,9.37-3.93,14.57-.61,7.86-1.68,15.69-1.42,23.62a19.44,19.44,0,0,1-3.64,12.08c-6.09,8.68-5.7,17.17,1,25.37.79,5.72-4.14,6.25-7.46,8.25-4.25,1.51-9.07,1.23-12.9,4.09-3,2-2.94,5.68-4.69,8.37-7.33,3.83-12.17,10-16.06,17.08-4.48,4.27-10,6.59-15.67,8.81-7.1,2.26-12-1.46-16.13-6.23-7.35-1.11-14.21-2-20.27,2.87C492.77,543.87,491.32,543.89,490.1,542.56Z" transform="translate(-27.55 -31.69)"/><path class="cls-81" d="M579.44,506.37l7.89-5c1.25-2.55,3.19-3.48,5.94-2.54,9.27,7.75,21.75,5.53,30.53-5.68,13.21,1.82,20-11.22,31.42-14.12,4.08-1.21,6.26,2.93,9.73,3.43,8.26.63,15.2-8.15,24-3.39.22,3.91.44,7.82.59,10.6,2.48,4.42,5.74,5,9.09,5.43,6,2.25,9.84,6.29,11.12,12.69,1,5,5.66,8,7.17,12.81,1.53,7.58.82,15.23.8,22.86-.84,6.25,2.78,11.25,4.7,16.73-.89,10.82.54,21.77-1.9,32.5-2.49,5.85-7.64,6.66-13.1,6.85-4.94.16-9.88,0-14.8.27-16.06,5-28.77,26.23-25.95,43,1.23,4,5.81,3.49,7.49,6.52,1.56,9.28-9,9.93-11.58,16.24-5.11,2.34-10.12,1.91-16.27-.83-2.4-10.61-2.35-22.76-10.43-32-2.12-3.24-4.36-6.32-8.41-6.68-3.51.43-2.9,3.15-3.44,5.18a5.32,5.32,0,0,1-3,3,31.52,31.52,0,0,1-10.45,1.74c-5.52-1.65-11.68-2-15.28-7.55-3.7-9.14-9.7-17-13.11-26.51-4-11.17-6.35-22.13-5.69-33.87-.85-16.83-.32-33.65-.36-50.47C576.17,513.5,576.75,509.62,579.44,506.37Z" transform="translate(-27.55 -31.69)"/><path class="cls-82" d="M571.29,307.6c-4.28,7.7-.21,16.2-2.64,25-6.45,4.68-8.28,11.09-6,20,2.54,10.11-3.68,14.8-17.23,14.73-3.14-3.94-2.32-8.05-.25-12,8.62-16.57,6.68-33.59,2.28-50.72-1.42-4-2.43-8.33-6.08-11.11-8.74-6.68-7.9-15-4.32-23.9,11,.1,22.34-.86,29.9,9.81,4,1.59,8.39,1.79,12.23,3.8l.06,23.93C576.74,310.24,574.06,309.56,571.29,307.6Z" transform="translate(-27.55 -31.69)"/><path class="cls-83" d="M571.29,307.6l7.93-.45c3.35,4.4,4.37,9.57,4.38,14.89,0,23.88-.12,47.75-.21,71.63l-12.1-1.22Z" transform="translate(-27.55 -31.69)"/><path class="cls-84" d="M689,479l-25.32,6.83L655.22,479c2.27-3.38,6.38-.76,10-3.64l15.11-22.17h13.42c4.43-2.4,2.51-6.16,4.44-8.87,1.84-2,4.6-1.08,7.15-1.19-1.19,6.16-9.15,9-7.39,16.12l-6.79,3.95C687.47,468.46,690.41,474,689,479Z" transform="translate(-27.55 -31.69)"/><path class="cls-85" d="M593.27,498.8l-5.95,2.54c-3.72-.23-5.5-3.14-8-5.69V478.57l7.13-7.87c3.77-10.68-2.86-22.3,5-31.73,4.31,2.29,3.81,6.37,3.85,10.27C595.55,465.8,596,482.37,593.27,498.8Z" transform="translate(-27.55 -31.69)"/><path class="cls-86" d="M579.15,283.22h-13.4c-4.8-2-3.39-5.85-5.53-8.85-7.49-.29-15.7-.19-22.82-4.78-4.7-.32-8-2.07-7.83-7.51l7.08-5.78h8.74c4.34,5.37,8.48,11.11,16.61,9.06C568,271.6,574.8,276.17,579.15,283.22Z" transform="translate(-27.55 -31.69)"/><path class="cls-87" d="M490.1,542.56l3.23.1c7.38-1.77,14.64.4,21.67,1.67,7.21,1.3,14.28,1.2,19.44,1.41a3.47,3.47,0,0,1-3.07-1.28l14-7.72c5.67-2.39,10.94-1,15.66,1.06,4.17,5.13,3.27,10.59,3.55,15.81.68,12.45,0,24.88,8,36.13,4,5.64,2.46,13.44.9,20.33-2.35,5.79-5.14.28-7.79.19-2.62,2.85-1,7.3-2.9,9-3.82,4.21-8.45,3.21-12.49,5.93-3.12,4.71-5.28,11.43-12.18,13.89a2.94,2.94,0,0,1-2.63-.72,3.05,3.05,0,0,0-1.37-.2c-2.37-3.55-4.75-7.09-7.28-10.86-12.48-3.19-20.41-13.06-29.13-21.87,1.45-12.26-.75-23.16-11.51-30.86-2.6-7.23,5.66-12.61,3.36-19.78,1.41-3.21-.47-5.62-2-8.13Z" transform="translate(-27.55 -31.69)"/><path class="cls-88" d="M621,632.82l2.1-2.29c2.78-3,5.9-2.42,8.5-.15,2.78,2.43,3.85-.07,5.49-1.24,3.13,2,.69,5.69,2.82,8.44l7.36,2.1v22.78c5.69,2.43,10.9,1.69,16.08,1.38,12.24-5.14,18.14-2.91,19.11,7.19-2.94,4.89-7.94,3.81-12.4,4.13-4.92.35-9.9-.34-14.8.63a5.3,5.3,0,0,0-2.7,1.15c-2.63,2.49-1.47,6.34-3.23,9.14q-1,2.08-2,4.17c-8.5,5.1-12.2-2.85-17.64-6.54-5.41-1.82-11.84,1-17-3.15a6.9,6.9,0,0,1-.25-7.63c3.7-4,8.9-2.67,12.21-5.75,2.72-5.26-.25-9.44-2.54-13.82C618.65,646.72,616.36,639.94,621,632.82Z" transform="translate(-27.55 -31.69)"/><path class="cls-89" d="M613.35,680.25h18.82c3.05,6.21,7.65,10.31,15.14,10-.28,2.23-.57,4.46-1,7.7H626.45l-7.51,8.24c-8.2,0-16.4,0-24.59,0-1.62,0-3.24-.18-4.51-.26-3.2-1.95-2.17-4.84-2.5-7.31-2.07-3.46,2-6.13,1.22-9.43-1.26-6.65-6.45-12.56-3.74-20,3.42-4.12,7-7.82,13.08-5.1,3.17,3.74,1.11,9,3.68,13C605.05,679.71,610.16,676.49,613.35,680.25Z" transform="translate(-27.55 -31.69)"/><path class="cls-90" d="M584.81,670.6c2.51,7,5,13.91,7.57,21l-5,7c-8.73,2.44-7.28-10.5-14.94-9.16-1.18-5.4-2.23-10.2-3.39-15.55L562,670.8c-.26-4.26-.52-8.49-.79-12.91-4.94-8.58-14.82-8.45-22.7-12.91-.83-1.85-1.91-4.23-3-6.6l2.5-1c12.09-1.83,24-4.54,36.29-5.37a10,10,0,0,1,5.54,3.12c5,7.43-.51,13.53-2.74,19.5C578,661.23,585.09,664.09,584.81,670.6Z" transform="translate(-27.55 -31.69)"/><path class="cls-91" d="M649.28,686.08c-2.31-3.9-3.1-8-.9-14h32.88c5.13-4,10.34-2.8,15.67-.69,4,6.66,3.41,14.26,5.94,20.94.94,4.28-2.16,6.77-4.27,9.7-2.86-.17-6,.76-8.76-2.69-.39-2.09-.93-4.93-1.57-8.33C675.24,690.44,662.85,684,649.28,686.08Z" transform="translate(-27.55 -31.69)"/><path class="cls-92" d="M300.73,512.23c-4.8-10.75-.26-22.29-2.86-33.34-1.78-2.38-4.77-1.35-7.08-2.3.06-14.1-3.81-27.41-7.51-40.85-1.44-5.2-.24-11.12-.24-17.3l6.54-6.9,18.33-2.8V377.08c.08-5-2.72-10.74,3.54-14.22,4.79.67,7.05,3.93,8.35,8.16.77,4.24-2.3,9,1.84,13.05,5.48-2.07,7.85-6.09,8.61-11.72.36-2.68.7-7.34,5.67-3.5,2.14,7.43,2.36,14.41-4.3,20a8.76,8.76,0,0,0-3.23,6c-.8,12.13-7.76,20.72-15.82,28.88a28.74,28.74,0,0,0-6.48,10.54c8.82,16.56,4.34,34.75,5.16,52.45.14,3-.21,6-2.47,8.36-8.7-4.44-4.21-11.61-4.39-17.61C300.89,488.5,306.86,501.1,300.73,512.23Z" transform="translate(-27.55 -31.69)"/><path class="cls-93" d="M312.38,363.46c-4.88,3.43-3.67,8.86-4.47,13.63-.83-2.78-1.67-5.55-3-9.79H267.53c-4.79-6.46-1.32-10.7,1.09-17.45.07-2.92,15.11,3.53,7.93-8.15,1.16-1.77,3-2.23,4.9-2.59,5.38.59,7-4.85,10.75-6.81a7.35,7.35,0,0,1,2.88,0C302.43,341.81,311.22,350.52,312.38,363.46Z" transform="translate(-27.55 -31.69)"/><path class="cls-94" d="M240.34,377.74l8.15-.6a6.27,6.27,0,0,1,8.2.25c.69,4.87,1.39,9.74,2.16,15.1,7.09.25,11.67,4.17,15.2,9.92v14.7c-7.44-8.25-20.61-4.92-25-16.36l-.89-14.42C243.67,385.39,239.08,384,240.34,377.74Z" transform="translate(-27.55 -31.69)"/><path class="cls-95" d="M256.69,377.39l-8.19-.25c0-3.26,0-6.53,0-9.63a23.75,23.75,0,0,0-8.28-8.52c-5.31-13.44-3.2-23,6.08-27.46a10.09,10.09,0,0,1,3.46.33c4,2.21,8.24,4.24,7,10.08Z" transform="translate(-27.55 -31.69)"/><path class="cls-96" d="M256.79,341.94l-6.26-8.58c9.69-8.43,20.72-12.54,33.68-10.48,6,.95,10.14,3.26,8,10.43-2.84,1.82-.79,5.43-2.68,7.91H283c-6.22-6.15-12.39-6.84-18.49.17Z" transform="translate(-27.55 -31.69)"/><path class="cls-97" d="M264.48,341.39c.51-2.46,1-4.92,1.57-7.62h14.69c2.83,2.16,1.67,5,2.23,7.45l-6.42.48Z" transform="translate(-27.55 -31.69)"/><path class="cls-98" d="M113.17,385.43l-7.85-.05c-.11-32.94-.18-65.89-.39-98.83,0-4.25,2.19-7.42,4.06-10.83,1.91,0,3.59.48,4.55,2.33-1.85,14.77,7.49,28.61,3.57,43.55-1,16.9-.53,33.81-.73,50.72C116.32,376.88,117,381.74,113.17,385.43Z" transform="translate(-27.55 -31.69)"/><path class="cls-99" d="M113.17,385.43c0-17.06.08-34.12,0-51.17,0-4.67,0-9.23,3.9-12.66,2.37,3.14,4.53,6.1,4.46,10.58-.29,17.17-.12,34.35-.12,53.21l-7.84,6.25Q113.4,388.54,113.17,385.43Z" transform="translate(-27.55 -31.69)"/><path class="cls-100" d="M702.87,692.34c-9-3.93-4.86-12.3-6.58-20.25h-15c-.22-2.23-.44-4.47-.7-7.23l-17.26-1c-.09-3.53-.75-7.2,4.63-7.66,4.73-.4,5.2-4,4.89-7.8,5-6.36,10-12.74,16.33-18l8.66,6.75c17.4-9.89,37.34-6.51,58.94-6.61v41.71H745.23L737.64,680l-10.14.67c-2.06,6-7.91,7-12.65,9.59C710.8,690.66,706.29,688.4,702.87,692.34Z" transform="translate(-27.55 -31.69)"/><path class="cls-101" d="M804.33,562.31c-7.2-3.74-10.82-10.33-13.86-17.39,7-4,10.17-12.39,17.86-15.6l26.09-.44c0,2.74,0,5.48,0,8.22.6,9.09-8.52,13.9-8.83,21.93l-8.55,3.77C812.7,565.53,808.41,566.58,804.33,562.31Z" transform="translate(-27.55 -31.69)"/><path class="cls-102" d="M689.15,630.4c-.27,2.24-.53,4.47-.88,7.38-5.39.06-8.17,3-7.59,8.63l-7.86,2c-4,2.51-8.23,1.11-8.54-2.79-.8-9.74-4.43-20.07,4.69-28.65,6.88-6.48,12.08-14.71,20.18-20,2.54,3.47,5,7,3.87,11.66-2,2.5-4,5-5.84,7.33C687.86,620.94,688.51,625.67,689.15,630.4Z" transform="translate(-27.55 -31.69)"/><path class="cls-103" d="M723,596.32c8.59,1.72,15.06,10.1,27.2,7.41l12.75-15.25h12.42c-.18,2.29-.36,4.58-.6,7.52-5,.23-6.92,3.25-9,7.84-4.93,11-15.82,15.2-27.54,12.59-5.07-1.13-10.29-1.57-15.45-2.33C718.68,608.13,718.56,602.21,723,596.32Z" transform="translate(-27.55 -31.69)"/><path class="cls-104" d="M723,596.32q-.09,8.89-.19,17.78c-11,4.06-19.53-5.34-29.76-5.51-2.35-3.54-5-7-3.87-11.66,6.86-.31,13.73-1,20.56-.76,4,.15,6.85-.95,9.26-3.86Z" transform="translate(-27.55 -31.69)"/><path class="cls-105" d="M804.33,562.31l12.72.49c-.18,2.48-.37,5-.57,7.7l-10,.74-5.59-1C801.05,566.94,798.28,562.78,804.33,562.31Z" transform="translate(-27.55 -31.69)"/><path class="cls-106" d="M427.59,570.33c-1.12-4.66-3.24-8.59-9.06-8.61V538.5c4.91-3,9.88-1.36,14.1-1.48,4.22,1.11,2.47,5.7,6.57,7.73h26.25c4.31,5.15,4.87,10.46,3.6,17.23C454.85,561.76,442.92,572.38,427.59,570.33Z" transform="translate(-27.55 -31.69)"/><path class="cls-107" d="M426.14,510.85c-10.36,12.74-10.49,12.75-24,2-4.2-5.19-4.25-15.34.05-22.09,1.72-2.71,4.39-4.82,5.11-8.18.85-2.3,2-4.35,4.39-5.38,5.19-1.26,10.29-1.81,15.88,2.64C426.78,489.71,427.69,500.3,426.14,510.85Z" transform="translate(-27.55 -31.69)"/><path class="cls-108" d="M435.86,443.14l7.08,4c3.06,7,0,13.34,1.1,20.45,8.63,3.54,10.76,10.55,8.07,19.73-1.7,5.83,1.93,10.74,3.58,16L444,502.89c-2.22-9.4-1.26-19.86-9.38-27.3-1.15-1.06-1.4-3.11-1.21-4.73,1.05-9-3.54-15.85-8.49-22.58a8.39,8.39,0,0,1-1.45-2.72c.89-5.58,5.13-5.57,9.35-5.62C434.47,440.4,435.07,441.86,435.86,443.14Z" transform="translate(-27.55 -31.69)"/><path class="cls-109" d="M410,484.93l-7.6,9.56c1.24,5.84-4.16,11.93-.3,18.36-.87,6.76,3,16.41-9.7,16,.17-11-5.94-20-9.54-29.73-1-2.69-2.93-5.05-2.84-8.16,5.52-6.2,8.52-15.65,19.36-14.95,1.53,6.26-5.24,11.59-2.05,17.76C399.56,488.24,400.11,480.09,410,484.93Z" transform="translate(-27.55 -31.69)"/><path class="cls-110" d="M426,445.15a22.19,22.19,0,0,0,9.68,10.72v16.41c1.57,5.88,6.22,4,8.31,8.76v21.85c-4.25-5.57-1.35-18.07-14.57-15.2-3.9,7.45,1.39,16-3.3,23.16V481.09c-5.65-3.52-10.95-1.58-16-2,0-.33-.19-.89-.1-.94,12.51-5.81,14.24-16.68,13.7-28.73C423.7,447.78,425,446.4,426,445.15Z" transform="translate(-27.55 -31.69)"/><path class="cls-111" d="M487.58,546.68c2.55.25,5.58-.26,6,3.58.29,2.91-1.3,4.23-4,4.55C486.48,552.69,483.85,550.46,487.58,546.68Z" transform="translate(-27.55 -31.69)"/><path class="cls-112" d="M714.28,519.08c-2.41-2.12-4.81-4.25-7.23-6.4-.28-3.07-.55-5.95-.8-8.75l-7.58-8.86c2.51-.38,5.35.51,8.53-3.08-8.17-22.55,13.44-29,25-41.05.42-5.15.79-9.68,1.26-15.57H765c3,4,2.53,7.95-.13,11.89-4.39,3.43-9.53,2.05-15.38,2.54,6.32,1.23,12.27-.61,17,2.81,2.43,2.87,2.48,5.56.44,8.33l-8.07.51c-2.75,2.43-1.89,5.16-2.13,7.64-1.6,4.81-.87,9.18.5,14.2,3.36,12.34,4.55,25.07-.47,37.5l2.82,13.61c4.65,3.57,9.17,1.84,13.32,2.52,1.27,2.42,2,4.86-.42,8.62-9.33,3.94-19.83,3.2-30.44.82-2.93-1.6-3.43-4.36-3.49-7.32,4-8.44-.37-16.48-1.71-24.54-.65-3.92-4.9-5.87-9.26-6-3.87,3.07-.77,9.55-6,11.82C718.92,521.37,716.55,520.5,714.28,519.08Z" transform="translate(-27.55 -31.69)"/><path class="cls-113" d="M766.93,460.94c-.37-2.23-.74-4.46-1.23-7.45H743c-1.13-4.68,2.49-5.48,4.36-7.74,5.32.39,10.76,3,16.88-.07.23-3.24.49-6.77.75-10.31H791.5c.56,6.84,2.94,12.42,8.82,15.81,3.35,3.21,2.75,6.51.24,9.85-2.49,2.88-6.64,4.13-8,8.13h-8.22c-1.2-2.68-2.32-5.18-3.69-8.22Z" transform="translate(-27.55 -31.69)"/><path class="cls-114" d="M800.56,461l-.24-9.85c3.19-5,9.66-8,8.55-15.43l7.46-.74c5.5,4,11.32,7.87,10,16.12-3.14,2.3-6.93,1.84-10.46,2.23C811.2,457,807.62,462.61,800.56,461Z" transform="translate(-27.55 -31.69)"/><path class="cls-115" d="M756.76,520.79c0-7.63-.25-15.26,0-22.88.32-8.19,0-16-7.33-21.12a16.25,16.25,0,0,1,7.25-7.7l8,.69c2.08,5.16,4.32,9.94,10,11.58v19.19c4.73,4.19,10.39.81,14.65,3.33,1.63,9.64-3.6,16.22-13.73,16.85C769.35,521.11,763.05,520.79,756.76,520.79Z" transform="translate(-27.55 -31.69)"/><path class="cls-116" d="M740.78,544.65h28.94c3.72-2.27,2.6-5.27,3.18-7.73l8.08,7.87c-2.36,2.91-4.68,5.85-5.21,8.86L721,559c-6.59-3.11-6.85-8.68-5.78-14.78C723.8,540.2,732.33,540.08,740.78,544.65Z" transform="translate(-27.55 -31.69)"/><path class="cls-117" d="M334.87,367.83c-5.87,3.39-.61,9.29-4.06,14.76-1.57,1.6-8.71-.2-6.53,7.53-9.64-4.7-9-11.33-5.86-18.66,3.52-6.31,2.72-13.26,3-20.06.22-4.76-1-9.93,3.14-13.81,7.33.12,7.33,6.17,8.61,10.87,6.6,3,9.22-.2,10-6.81h22.89c1.24-3,2.2-5.31,3.39-8.21H390.6c1.2-2.84,2.17-5.15,3.5-8.33h15.58c3.71,2.1,7.53,4.09,9.3,8.41-1.34,5.07-5.33,7.41-9.39,9.68-9,1.38-18.33,2-25.27,9.22-1.09,1.15-3,1.48-4.61,1.51-14.18.26-25.86,7.12-37.52,14.06C339.75,369.44,337.27,369.74,334.87,367.83Z" transform="translate(-27.55 -31.69)"/><path class="cls-118" d="M324.6,337.59c-.08,8.6-.22,17.2-.22,25.8,0,4.24-.22,8.15-6,8.07l-6-8-18-30c-2-6.65.74-12.06,4.43-17.24,7-1.82,13.68-7.48,21.44-2.17C318.72,322.45,326.11,329.2,324.6,337.59Z" transform="translate(-27.55 -31.69)"/><path class="cls-119" d="M410,341.67l7.38-8.45c-3.14-2.09-8.55-2.43-7.72-8.11.3-4.79-.44-9.91,4.14-13.39l4.58,5.52c5.16,7.89,12.37,14.08,17.84,21.73,2.27,3.17,6,5.39,6.08,9.85-1.49,2.93-4.89,3.37-6.92,5.55-5.57,4.53-11.68,4.14-18,2a16.33,16.33,0,0,1-4.62-1.73C407.86,351.17,406.26,347,410,341.67Z" transform="translate(-27.55 -31.69)"/><path class="cls-120" d="M358.08,519.46l-5.73,7.07-20-7.8c9.44-14.84,6.21-31.51,6.89-47.61.16-3.63.35-7.28,3.31-10.67,6.26-3.76,13.54-2.72,20.69-1.89,5,.59,7.5,3.73,6.71,9-1.38,3.85-3.62,6.46-8.21,5.7h-8.38c-6,12.17-1.82,24.68-2.9,35.94Z" transform="translate(-27.55 -31.69)"/><path class="cls-121" d="M361.79,473.26l6.53-4.28c5.43-4.94,13-1.1,19.1-4.64,3-4.6,1.39-12.85,9.67-14.18,2.08-.51,3.81-1.81,5.79-2.56,2.77-.78,5.42-.72,7.78,1.17,2.45,3.6,3.14,8.18.42,11-4.86,5.08-6.83,11.75-11.06,17.05l-7,.56c-.67,3-1.29,5.73-1.89,8.4-4,1.56-9.09.15-11.07,5.17-4.5-2.29-5.26-6.93-6.6-11C369,478.22,364.49,477.3,361.79,473.26Z" transform="translate(-27.55 -31.69)"/><path class="cls-122" d="M181.38,325.34c-.28-5.29-.56-10.58-.85-16.13-3.55-2.86-9.3-1-12.13-5.36l7.91-7.56c4,.91,7.07,4.85,11.16,3.56,1.41,3.16,2.43,5.48,3.46,7.8l.15,0c3.37,5.7,11.33,6.71,13.73,13.43,1.14,4.4,1.21,8.72-.95,12.88-6.66,4.19-2,12.72-7.2,18.08-7.88,2.5-9.76-2.75-10.45-9.23C185.56,336.68,186.61,330.16,181.38,325.34Z" transform="translate(-27.55 -31.69)"/><path class="cls-123" d="M202.69,333.57l-.14-14c1.85-12.6,3.35-14.08,11.9-11.81.22,2.25.44,4.51.65,6.61,9,3.87,18,6.22,27.54,5.54,6.78,2.28,10.88,5.74,5.87,13.24-2.54.6-5.42.45-8.3,6.21V359c-9.11-.32-17.12,3.35-25,7.23-5.17,2.56-9.38,2.53-12.77-2.6C198.1,353.57,198.45,343.56,202.69,333.57Z" transform="translate(-27.55 -31.69)"/><path class="cls-124" d="M248.51,333.17V326c-1.58-2.78-5.94-2.22-5.87-6,8.72-4.21,18-1.57,27.05-2.3,6.47-.53,12.78-1,13-9.69,8-2.34,10.92,5.15,16.08,8.29,1.15,6.42-3.29,11.41-4.43,17.24l-2.17-.16-3-7.45H265.58c-4.19,4.16-8.3,8.58-15,7.51Z" transform="translate(-27.55 -31.69)"/><path class="cls-125" d="M214.45,307.78l-6.18.3c-2.35,3.59-.79,9.28-5.72,11.51-3.07-2.88-7-4-11.47-5.26v-6.71c9.06,3.4,6.29-11.92,14.68-8.4,1.73-5.11.6-10.24,4.66-13.5,3.56,6.93,12.87,9.15,14.49,17.68C222.88,308.33,218.45,307.55,214.45,307.78Z" transform="translate(-27.55 -31.69)"/><path class="cls-126" d="M486.17,706.33c7.36-8.77,16.95-2.51,25.43-3.76l.54,29.24c1.71,2.77,1.81,5.5-.55,8.72-5.67,3.13-11.63,4.23-17.44-1-.14-2.89-.28-5.79-.4-8.49l-7.58-8Z" transform="translate(-27.55 -31.69)"/><path class="cls-127" d="M494.15,739.53h15.57c3.13-1.72,1.64-5.1,2.42-7.72l6.8.78c1.5,6.23,1.41,11.93-1.17,17.5l-6.2,7.19v22.78c-3.27,3.1-6.71,1.54-9.83,1.88a72.48,72.48,0,0,1,1.82-21c-1.68-4.34-6.31-3-8.87-6.68C493.11,750.07,494,744.77,494.15,739.53Z" transform="translate(-27.55 -31.69)"/><path class="cls-128" d="M202.69,333.57l-.21,30.05c-2.42,3.64-6,4.71-10.83,3.72.09,6.44-3.11,10.41-6.69,14.16-7.89-3.81-.37-8.26-.5-11.64-6.14-15-2.78-29.88-3.08-44.52l5.86.91c5.3,7.82-3.41,19.16,6.69,25.17C201.2,346.48,190.88,335.15,202.69,333.57Z" transform="translate(-27.55 -31.69)"/><path class="cls-129" d="M434.29,351.82c1-3.43,4.82-1.26,6.69-3.55-4.47-7.78-14.77-11.47-15.6-21.75l-7-2.3v-7l8.19,6.58c10.82-6.12,12.51-12.63,4.18-20.53-4.25-4-3.33-9.73-6.94-13.48l8.36,1.59c3.31-4.93.86-10.06,2.3-15.3,3.42-6.32,10.66-10.65,13.44-18.22,6.35-1.33,3.29-6.36,3.9-9.94l2.31.18q3.89,4,7.79,7.9c3.12,1.77,6.7,3.08,7.13,7,1.15,3.89-2.46,6.32-2.13,9.75,1.65-1.48,1.18-4.56,4.18-5.18,4.51.74,7.19,3.77,8.79,8.05,1,4.68,1.29,9.3-.92,13.75-1.6,2.4-4.74,3.47-6.11,8.35-.9,3.85.46,9.77-.86,15.48-.87,4.34-5.09,6.44-6.93,9.85,0,5.39,5.56,7.29,6.48,11.78a6.7,6.7,0,0,1-1.79,6.76c-11-3.12-16.94,7.09-25.74,9.77C440.89,354.34,437.64,354.33,434.29,351.82Z" transform="translate(-27.55 -31.69)"/><path class="cls-130" d="M308.78,494.77l7.34.49v18.09l-7.47,6.18c-3.32-1.7-6.53-3.5-7.92-7.3,1.12-13.21-3.36-27,3.6-42.25C308.91,479.61,303.68,488.08,308.78,494.77Z" transform="translate(-27.55 -31.69)"/><path class="cls-131" d="M477.47,289.82l.39-16c1.35-4.8,4.56-8.66,6.7-13.07,3.82-7.89,13.09-9.27,22.82-4.24a3.18,3.18,0,0,0,.53,1.29c6.59,6,14.89,12,18.06,19.15,4.65,10.45,11.7,19.94,14.34,31.3-.09,8.6-.27,17.19,5.86,24.32a7.65,7.65,0,0,1,1.35,3.67c1.26,6.82-11.3,27.22-18.27,29.66L523.56,369,477.8,356.53V342.26c5.37-6.82,13.81-1.09,20.38-5.15,2.59-6.76,3.61-14,1.57-21.51-2.61-4.2-6.05-8-7.3-12.89C490.44,294.84,480.3,296.61,477.47,289.82Z" transform="translate(-27.55 -31.69)"/><path class="cls-132" d="M537.49,307.74c-.53-5.09-1.42-9.93-7-9.74-4.34-5.42-1.36-10.69-2.92-16.08-5.56-8.28-17.28-12.49-19.66-24.14,7.88-1.88,14.25,3.85,21.66,4.3l7.84,7.51c0,6.21,0,12.43,0,19.11,8.43,1.7,12.41,6.63,11.72,14.93C546.93,309.76,543,311.09,537.49,307.74Z" transform="translate(-27.55 -31.69)"/><path class="cls-133" d="M507.38,256.49c-6.5,1.36-13.81-2.83-19.12,2.43-3.36,2.92-1.77,6.75-3.58,10l-6.82,4.9-7.63-5.86c-.35,4.87-.61,8.61-1,13.8-9.1-5.94-6.55-11.31-.92-16.91l-6.4-8.8c10.56.72,18.81-7.4,29.1-7.6C497.82,248.3,506.1,245.34,507.38,256.49Z" transform="translate(-27.55 -31.69)"/><path class="cls-134" d="M579.6,636.4l-4.47-2.23c0-7.43,5.28-15.76-3.67-21.68V590.41l-7.14-5.1c-2.91-15-2.72-30.2-3-45.06-5.57-2.59-11.46.24-15.9-3.51,2.7-8,5.44-16,16-16.33,4.91,11.56,14.43,21.32,13,35.33-.53,5.42,2.44,10.21,4.74,15-2.21,14.84,5.72,27.43,10.45,43.41,1.89,3.09,8.88,6.52,7.82,14.37C591.74,637.87,588.5,639.3,579.6,636.4Z" transform="translate(-27.55 -31.69)"/><path class="cls-135" d="M434.29,351.82l9.73-.39h9.86c1.53,1.18,2.9,2.1,4.09,3.2s2.23,2.42,4.36,4.78c-10.74,11.35-16.18,27.35-32.32,33.76-3.62,3.51-7.23,2.15-10.33-.53s-7.18-4.33-10.36-7.07c-1.73-2.68-2.51-6-.89-8.46,4.81-7.18,5.72-15.9,9.84-23.29C424,355.94,429.59,357.58,434.29,351.82Z" transform="translate(-27.55 -31.69)"/><path class="cls-136" d="M537.49,307.74c4.58.63,8.35-1.05,11.63-4.11,5.64,7.71,7,39.36,1.82,47.45-3.18,5-6.79,9.8-5.55,16.29-5.34-.87-11.08,2.48-16.14-1.49l6.51-6.59c.36-2.6.76-5.5,1.12-8.12,8.54-8.69,8.54-8.69,8.18-17.08-2.27-2.39-4.75-5-7.57-8Z" transform="translate(-27.55 -31.69)"/><path class="cls-137" d="M410.24,385.3c3.81.09,7.72-.3,9.82,4.14s6.07,4,9.95,3.73c4.06.24,8.44-.28,10.75,5.1l-5.21,3.15c-3.41,3.7-8.8,1.74-12.79,4.52-2.91,4.56-1.28,9.9-1.81,15,.27,4.95.65,9.9-2.61,14.48-4.85,3.46-10.12,3.49-15.6,1-2.67-2.09-2.87-4.89-2.24-7.91,5.13-6.64,9.24-13.54,5.4-22.17-3.71-3.47-9.4-1.27-12.67-5.14-1.45-2.86-1.3-5.55,1.23-8.57C399.31,390.24,405.79,389.87,410.24,385.3Z" transform="translate(-27.55 -31.69)"/><path class="cls-138" d="M579.2,570.73l-7.55-6.84V542.47l-7.49-6.56c-.93-5.27-1.83-10.38-2.74-15.5v-8c5.82-4.81,11.69-6.17,18-6.08Z" transform="translate(-27.55 -31.69)"/><path class="cls-139" d="M502,313.51c6,9.13-1.75,18.4,1.69,28.75H477.8l-8-.6c-.07-2.58-.13-5.17-.2-7.75,1.87-3,5-2.6,7.87-3,11.73-1.44,12.81-2.46,14.65-14a6.11,6.11,0,0,1,1.69-3.44C496.53,312,499.28,312.62,502,313.51Z" transform="translate(-27.55 -31.69)"/><path class="cls-140" d="M418.28,419.25c.05-4.95.08-9.9.18-14.84a8.49,8.49,0,0,1,.79-2.17c5.21-1.95,10.81-.62,16.3-.82q.17,20.85.31,41.72l-2-2.08c-2.84-2.74-1.89-6.92-4-10.48C426.19,427.07,421.28,424.12,418.28,419.25Z" transform="translate(-27.55 -31.69)"/><path class="cls-141" d="M531.37,544.46l11.68.7c-16.69,1-33.48,4-49.72-2.5.07-4.4,2-6.28,6.67-6,5.84.37,11.73.09,16.92.09,4.31,1.26,1.74,5.86,5.57,7.7Z" transform="translate(-27.55 -31.69)"/><path class="cls-142" d="M613.35,680.25l-14.64,1.87c-3.43-6.07-1.5-12.08-1.78-17.87,1.09-4.52-.77-9-.46-14.23,5-4.69,11.51-8.66,15.18-15.27,2.7-2.56,6-2.46,9.31-1.93-.16,9.27-.85,18.72,8,24.18v13.54c-4.45,3.1-9.41.92-14,2.68C612.57,674.91,613.67,677.77,613.35,680.25Z" transform="translate(-27.55 -31.69)"/><path class="cls-143" d="M611.65,634.75c1.65,10.33-7.77,11.57-13.7,16.08-.47,4.43,8.6,10-1,13.42-4.87.53-8.1,4.19-12.13,6.35-3.3-3.64-7-7-9.82-11-4.07-5.72-.85-9.88,4-12.82.2-3.8.38-7.1.56-10.4,7.71,1.34,12.34-4.29,17.87-7.89Z" transform="translate(-27.55 -31.69)"/><path class="cls-144" d="M740.78,544.65l-25.57-.41-.93-25.16,8.61-.23a8.82,8.82,0,0,1,8.6,2.13c3,4.87,3.55,11.91,9.32,15.8Z" transform="translate(-27.55 -31.69)"/><path class="cls-145" d="M637,629.14c-.5,3,1,6.55-2.65,9.36-3.69-3.13-4.33-10.57-11.34-8-2.91-2-1.37-4.65-1.53-6.93C629.08,619.68,632.72,625.3,637,629.14Z" transform="translate(-27.55 -31.69)"/><path class="cls-146" d="M571.46,612.49l7,.89c1,7.42,2.87,14.68-3.36,20.79-12.24,2.69-24.48,5.52-37.16,3.26,5.06-3.88,8.57-8.69,8.73-14.74,4.23-3.64,9-1.17,12.73-2.88,5.36-3.61-2.56-14,8-15.35C568.93,607.41,570.19,610,571.46,612.49Z" transform="translate(-27.55 -31.69)"/><path class="cls-147" d="M400,476.82c.77-4.83,1.54-9.65,2.32-14.52l7.16-2.82c.33-3.75.61-7,.9-10.27,2.05-8.89,7.74-7.26,13.74-4.76l1.88.7c0,3-.34,6,.08,8.92,1.9,13-1.44,22.5-15.94,25l-.15,5.88c-14.24-1.47-6.74,12.81-13.51,19-4.27-7.83-1.51-15.25-2.45-22.5Z" transform="translate(-27.55 -31.69)"/><path class="cls-148" d="M424.14,444.45c-4.56,1.66-10.77-1.47-13.74,4.76l-7.95-.1c-2.17-4.57-4.58-9.13-.4-13.88h14.69c3.07-5.49.13-11,1.54-16,6.81.72,8.39,9.33,15.59,8.67,0,5.3,0,9.22,0,13.14Z" transform="translate(-27.55 -31.69)"/><path class="cls-149" d="M740.81,536.78l-7.07-.61-3.8-13.83-7.05-3.49v-15c7.24.42,11.59,4.67,15.88,6.41,4.55,6.85-2.35,16,7,19.75Z" transform="translate(-27.55 -31.69)"/><path class="cls-150" d="M410.24,385.3c-.46,2.44.53,5.26-2.26,7.56l-11.64.74c-3,2-2.09,4.87-2.5,7.31-2,3.61-6.79,2.28-9.18,5.21-2.17,2.7-1.77,6.22-2.84,9.3-2,4-2.07,8.93-5.78,12.11l-7.85-.81c-.54-4.78-1-9-1.5-13.28L359,408.86c-.36-5.22-1.55-10.21,2.09-14.61,6.08-3.42,13.21.73,21-3.27,6.06-15.13,10.27-34.06,32-37.5l4.19.34v13.67l-8,9Z" transform="translate(-27.55 -31.69)"/><path class="cls-151" d="M376,427.53c0-4.47.28-8.88,3.86-12.24,8.36,2.17,14.24,8.89,22,12.08,0,2.62.07,5.24.11,7.86q.19,6.94.4,13.88c-.48,1.54-.38,3.56-2.84,3.49.17-2,.33-3.91.56-6.53-5.33-1.22-9.13-4.09-8.31-10.66H378C375.22,432.8,376.53,430,376,427.53Z" transform="translate(-27.55 -31.69)"/><path class="cls-152" d="M495.68,313.53c-3.77,3.19.43,6.69-.41,10.28-1.63,3.81-5.08,6.29-9.48,10.1H469.57l-8.86-8.38c.78-5.93,5.71-7.23,9-10.09,5.51-5.38,12.76-6.86,19.85-8.32C494.08,306.18,497.68,307.52,495.68,313.53Z" transform="translate(-27.55 -31.69)"/><path class="cls-153" d="M495.68,313.53c-.32-5.66-3.82-4.86-7.53-3.72-6.15,1.9-12.31,3.76-18.47,5.63V292.86c2.43-3.73,5.27-2.86,7.79-3,2.48,3.87,6.78.56,10,2.69,6.78,6.54,6.78,6.54,7.91,14.42l6.65,6.58C499.91,314.11,497.81,316.77,495.68,313.53Z" transform="translate(-27.55 -31.69)"/><path class="cls-154" d="M451,308.13c-3.52-4.55-9.53-7.78-7-15.22-6-1.63-10.57-3.62-6.64-10.21,6.7-2.67,9.07,3.71,13.94,6.69l8.93,1.86c-2.55,8.92,5,19.51-5.66,26.88C450.32,314.86,453.16,310.83,451,308.13Z" transform="translate(-27.55 -31.69)"/><path class="cls-155" d="M401.94,427.37l-9-.73-13-11.35c.33-4.09.65-8.18.92-11.51,4.55-3.73,9.07-1.75,13-2.87l16.11.89C407.8,410.89,416.53,422.08,401.94,427.37Z" transform="translate(-27.55 -31.69)"/></svg>