<svg id="Vectorportal.com" xmlns="http://www.w3.org/2000/svg" viewBox="0 0 481.12 312.91"><defs><style>.cls-1{fill:#c3dbf2;}.cls-1,.cls-10,.cls-2,.cls-3,.cls-4,.cls-5,.cls-6,.cls-7,.cls-8,.cls-9{fill-rule:evenodd;}.cls-2{fill:#6891b8;}.cls-3{fill:#dcedfa;}.cls-4{fill:#f3f9fd;}.cls-5{fill:#fff;}.cls-6{fill:#cee4f6;}.cls-7{fill:#8db3db;}.cls-8{fill:#9dc2e7;}.cls-9{fill:#cae1f5;}.cls-10{fill:#b9d7f1;}</style></defs><title>igloo</title><path class="cls-1" d="M393.9,156.56c53.93-1.83,100.83,34.19,94.34,60.33-13.86,55.74-182.47,71.67-275.34,64.72l-68,38.39L22,284.9,7.72,260.39l93.14-61.87Z" transform="translate(-7.72 -7.1)"/><path class="cls-2" d="M46.44,135.79a209.4,209.4,0,0,1,402.63,80.43v1.11a3.83,3.83,0,0,1-.18,1c-5.48,21.7-50.89,34.49-110,40.41-41.67,4.16-90.24,4.85-136.18,2.47l-65.12,32.49a2.59,2.59,0,0,1-1.24.31,1.83,1.83,0,0,1-.33,0c-3.62-.18-7.13-.39-10.52-.6-3.68-.24-7.22-.48-10.62-.74a2.6,2.6,0,0,1-2.4-2.59h0v-57.8L31.11,271.66a2.57,2.57,0,0,1-1.29.35,2.69,2.69,0,0,1-.7-.1,63.74,63.74,0,0,1-10.65-3.41,36.67,36.67,0,0,1-9.88-6.18,2.59,2.59,0,0,1-.87-1.93h0V197.26a77,77,0,0,1,.49-8.64c1.85-16.19,8.87-30.14,19.2-40.06a57.9,57.9,0,0,1,13.15-9.47Z" transform="translate(-7.72 -7.1)"/><path class="cls-3" d="M135.55,188.74l.1.35.17.61,0,.08.09.34.1.35.09.35,0,0,.14.55.06.22.15.58.08.35,0,.07.14.58v0l.09.35.08.35.08.35v0l.1.47.12.56.06.26,0,.1.07.35v.07l.09.42.11.59,0,.21,0,.13.06.36,0,.07.05.28.06.36,0,.36.05.28.09.56,0,.27.1.68v.19l.08.59.05.39.07.52,0,.36.06.58,0,.26c0,.24.05.48.07.73v.13l.07.79v0l.07.86v.05c0,.28,0,.56.05.84v.08c0,.29,0,.57.05.85v0l0,.89v0l0,.84v0h0v22.56l20.17-10.06a146.68,146.68,0,0,0,0-23.34,133.41,133.41,0,0,0-3.15-20.42l-20.38,10.17ZM112,151.09l41.91-20.91a105.6,105.6,0,0,1,11.7,15.22,75.44,75.44,0,0,1,8.33,18.42l-40,20-.15-.42-.16-.42-.16-.42-.17-.42h0l-.16-.4-.17-.42-.17-.41-.17-.41-.17-.41-.18-.42-.17-.41-.18-.41,0,0-.15-.33,0,0-.18-.41,0,0-.15-.33,0,0-.18-.41-.19-.38v0l-.19-.4h0l-.19-.38h0l-.2-.4h0l-.18-.35,0,0-.2-.4v0l-.17-.33,0,0-.2-.4-.21-.39-.21-.39-.18-.33,0-.07-.21-.39-.19-.33,0-.05-.21-.39,0-.05-.13-.23-.06-.11-.22-.38-.08-.13,0-.08-.34-.59-.16-.26,0-.09-.22-.38,0,0-.15-.24-.06-.12-.24-.37-.06-.1-.07-.12-.35-.56-.14-.22-.08-.12-.24-.37h0l-.11-.18-.37-.55,0-.08,0-.08-.39-.57,0-.07,0-.07-.39-.56-.18-.26-.09-.13-.25-.36,0-.05-.09-.12-.39-.54,0,0,0,0-.46-.62,0,0-.07-.09-.42-.57,0,0-.51-.67,0,0-.52-.67h0l0,0-.49-.62,0,0h0l0,0-.51-.63-.56-.66h0l0,0-.54-.63h0l0,0-.47-.54-.07-.08-.05-.05-.48-.54,0-.05-.07-.08-.48-.52,0,0-.57-.62h0l-.11-.12-.37-.38-.12-.13h0l-.53-.55-.08-.08L115,154l-.36-.37-.14-.14-.12-.12-.26-.25L114,153,114,153l-.06-.06-.39-.37-.12-.12-.13-.12-.44-.42-.2-.19h0l-.13-.12-.29-.26-.23-.22Zm88.84,50.43V178.2a69.58,69.58,0,0,0-3.11-20.46l-37,18.46a138.42,138.42,0,0,1,3.56,22.39,154.09,154.09,0,0,1,.22,21.06l36.33-18.13Zm-21.85,65.76V218.21l21.85-10.9v49.07l-21.85,10.9Zm-40,20V238.18l34.84-17.38v49.06l-34.84,17.39ZM83.3,135l.41.12.41.12a66.31,66.31,0,0,1,10.71,4.16l.11.06c1,.49,2,1,3,1.55l0,0c1,.53,1.92,1.09,2.86,1.67l.13.08.62.39.12.07.5.33.28.17.26.18.36.24.06,0,.3.2.35.24.06,0,.3.21.35.25.09.06.27.19.35.25,0,0,.33.24.35.25,1,.78h0l.34.27h0l.34.27,22.09-11a51.12,51.12,0,0,0-8.73-7.1,81.63,81.63,0,0,0-14-7.21L83.3,135Zm.53-14.34A115.92,115.92,0,0,1,99.72,118c1.61-.16,3.22-.3,4.82-.42l-29,15.8H75.4l-.21,0H75l-.32,0h-.27l-.63-.07H73l-.22,0h0l-.29,0h-.1q-2.84-.27-5.55-.27c-1.57,0-3.13.07-4.66.19l21.73-12.24Zm44.82-16.23a61.08,61.08,0,0,0-11.25,1,58.08,58.08,0,0,0-16.24,5.49h0L97.35,113l1.84-.2c5.32-.54,10.61-.81,15.89-1l13.57-7.39ZM168,117.32a71.12,71.12,0,0,0-30-12.14L112.74,119a81.75,81.75,0,0,1,11.09,6,54.89,54.89,0,0,1,10.72,9L168,117.32Zm13.44,11.92a77.37,77.37,0,0,0-8.83-8.44l-14,7A107.55,107.55,0,0,1,170,142.66a81.13,81.13,0,0,1,8.63,18.82L196,152.8a77.29,77.29,0,0,0-14.5-23.56Zm-120.77-1.5a23.25,23.25,0,0,1-3.29-3.41c-1.21,2.38-2.37,4.8-3.48,7.23l6.77-3.82Zm56.34-27.52-.56.1a63.33,63.33,0,0,0-17.69,6l-.18.1-16.93,9.53-.22.13-16.08,9.06a14.81,14.81,0,0,1-5.18-6.1A203.91,203.91,0,0,1,83.86,84.53c5.11,6.26,16.94,11.52,33.19,15.69Zm84,51.38c9.58.53,19.32.91,29.08,1.14,0-6-.18-12.26-.44-18.79s-.67-13.66-1.26-21.06c-22.64-.6-45-2.15-65.13-4.55a82.85,82.85,0,0,1,37.75,43.26ZM206,200.66c24.72,1.15,50.15,1.43,74.72.76.31-7.13.39-14.32.17-21.55s-.74-14.67-1.61-22.11c-13.28.4-26.84.5-40.41.31-12.08-.17-24.15-.58-36-1.2A74.8,74.8,0,0,1,206,178.2v22.46Zm0,55.55c11.17.55,22.48.91,33.79,1.09l.55-50.44c-11.5-.16-23-.5-34.34-1v50.38ZM192.91,106c-28.35-2.07-54.42-5.67-73.88-10.59l-.66-.17a103.24,103.24,0,0,1,6.25-16.73,126,126,0,0,1,10.08-17.4c3.26,1.17,6.91,2.26,10.88,3.26,13.47,3.41,31,6,50.16,7.68a163.06,163.06,0,0,0-2.44,17.13,131.34,131.34,0,0,0-.39,16.82Zm8-33.52a156.53,156.53,0,0,0-2.47,17.12,127.16,127.16,0,0,0-.36,16.76c13.22.87,26.87,1.41,40.52,1.61,10.16.14,20.32.1,30.3-.15.18-5.65.19-11.29,0-16.93s-.61-11.31-1.27-17c-9.37.32-19,.41-28.59.27-12.91-.18-25.81-.77-38.12-1.72ZM113.39,93.87a106.64,106.64,0,0,1,6.55-17.59,130.64,130.64,0,0,1,9.85-17.16c-4.94-2.2-8.64-4.65-10.8-7.35A205.35,205.35,0,0,0,95,72.39q-4,4-7.75,8.22c3.06,4.91,12.45,9.38,26.11,13.26ZM272.82,73.7q1,8.51,1.25,17t0,17a521.38,521.38,0,0,0,60.53-5.12,162.2,162.2,0,0,0-4.3-17.25,98.29,98.29,0,0,0-7.05-17c-14.37,2.81-31.85,4.57-50.45,5.38Zm55.71-6.48c1.46-.33,2.89-.68,4.27-1,13.61-3.5,23.44-8.33,27.35-14.65a207.36,207.36,0,0,1,24.26,20.85q3.48,3.49,6.77,7.13c-2.73,7.61-14.86,13.67-32.77,18.27-5.7,1.47-12,2.77-18.69,3.91a165.29,165.29,0,0,0-4.47-18,102.26,102.26,0,0,0-6.72-16.49ZM202.53,35a57.12,57.12,0,0,1,7.33-13.48,60.61,60.61,0,0,1,7-7.94A204.22,204.22,0,0,0,166,26c2.58,1.76,7.23,3.44,13.31,5a186.15,186.15,0,0,0,23.24,4Zm23.22-22.23q6.94-.48,14-.5c1.62,0,3.24,0,4.86.07a58.18,58.18,0,0,1,6.72,12.12,56.4,56.4,0,0,1,3.44,12.74c-5.09.13-10.27.16-15.46.08-10.76-.15-21.5-.73-31.41-1.71a52,52,0,0,1,6.16-11,58.34,58.34,0,0,1,11.72-11.8ZM251,12.59a62.18,62.18,0,0,1,5.12,9.94A61.08,61.08,0,0,1,259.94,37c15.12-.61,29.1-2.17,39.4-4.82C306,30.48,311,28.42,313.47,26A205.18,205.18,0,0,0,251,12.59Zm42.31,54.6A532.29,532.29,0,0,1,239.11,69L235.64,69l.73-26.57,2.85.06A319.59,319.59,0,0,0,286.08,40c1.68,4.67,3.09,9.33,4.3,14,1.13,4.38,2.08,8.79,2.91,13.23Zm-2-28c1.58,4.49,2.93,9,4.1,13.49,1.21,4.72,2.22,9.39,3.08,14a232.46,232.46,0,0,0,33.06-5.51c12.76-3.28,21.65-7.48,24.42-12.65A202.56,202.56,0,0,0,318.47,28c-3,4-9.31,7-17.85,9.18-2.86.74-6,1.39-9.34,2ZM230.47,68.83l.74-26.59c-18.82-.63-37-2.55-50.27-5.55a111.44,111.44,0,0,0-9.13,14,73.52,73.52,0,0,0-5.49,12.59c18.65,3,41.18,4.93,64.15,5.58Zm-69.3-6.46a78.76,78.76,0,0,1,6.1-14.18,114,114,0,0,1,8.25-12.86c-6.87-1.95-12-4.36-14.76-7.23A202.66,202.66,0,0,0,123.1,48.82c3,3.88,11.6,7.43,23.74,10.5,4.37,1.11,9.18,2.12,14.33,3ZM397,244.14c0-8.54-.18-17.1-.74-25.66-.52-8.17-1.38-16.33-2.7-24.44-7.34,1.83-15.32,3.45-23.82,4.87-13.85,2.3-29.13,4.09-45.29,5.39a238.49,238.49,0,0,1,1.93,26.64c.14,8.25-.11,16.12-.56,23.8q6.39-.51,12.59-1.14c22-2.2,42-5.33,58.59-9.46Zm1.59-51.42c1.39,8.41,2.29,16.9,2.84,25.44.52,8.14.73,16.36.73,24.63,23.34-6.4,38.84-14.95,41.79-25.84a205,205,0,0,0-5-45.42c-6.57,8.81-20.9,15.82-40.41,21.19Zm-78,62.42c.47-7.85.74-15.84.6-24.12a234.19,234.19,0,0,0-1.93-26.32c-23.42,1.71-48.54,2.42-73.78,2.21l-.55,50.45c25.84.27,51.61-.45,75.66-2.22ZM417.22,181c-12,5.31-28.7,9.58-48.37,12.85q-3.71.62-7.53,1.19a144.11,144.11,0,0,0-2.16-21.73,119.29,119.29,0,0,0-6-21.73c10.06-1.56,19.36-3.4,27.68-5.54a125,125,0,0,0,25.5-9.12,133.8,133.8,0,0,1,7.78,22.2A102.61,102.61,0,0,1,417.22,181Zm-6.41-46.63c5-3.13,8.76-6.61,11-10.44a202.36,202.36,0,0,1,15.36,40.22c-1.76,5.41-6.95,10.2-14.87,14.4a108.89,108.89,0,0,0-3.17-20.68,139.43,139.43,0,0,0-8.3-23.5Zm-54.64,61.4a702.68,702.68,0,0,1-70.3,5.55c.3-7.1.37-14.28.15-21.55s-.74-14.67-1.59-22.14a622.09,622.09,0,0,0,63.44-5.28,114.75,114.75,0,0,1,6.21,21.87,139,139,0,0,1,2.09,21.55ZM233.63,113c.56,7.1,1,14,1.22,20.74s.4,12.94.45,19.1l3.6.06c25.16.35,50.32-.29,73.56-2a186.48,186.48,0,0,0-.53-20,134.27,134.27,0,0,0-3.14-20.08,699.16,699.16,0,0,1-70.23,2.34c-1.64,0-3.29,0-4.93-.09ZM314,110.28c17.22-1.7,32.85-4.18,45.71-7.48,2.07-.54,4.07-1.09,6-1.67a77.8,77.8,0,0,1,7.85,19.72,106.38,106.38,0,0,1,3,20.89c-16.53,4-36.74,6.87-58.88,8.72a191.14,191.14,0,0,0-.53-20A140,140,0,0,0,314,110.28ZM370.7,99.51a84,84,0,0,1,7.86,20.08,110.72,110.72,0,0,1,3.05,20.86c20.86-5.6,34.65-13,37-22.32l.14,0a203.41,203.41,0,0,0-23.87-34.43C391.21,90.12,382.69,95.36,370.7,99.51Z" transform="translate(-7.72 -7.1)"/><path class="cls-4" d="M266.5,14a137.22,137.22,0,0,1,19,20.8c-7.74,1.1-16.46,1.81-25.59,2.18a61.08,61.08,0,0,0-3.84-14.49A62.18,62.18,0,0,0,251,12.59Q258.8,13,266.5,14Zm27.58,33.88a130.36,130.36,0,0,1,8.65,18.31l-4.27.47c-.86-4.65-1.87-9.32-3.08-14q-.61-2.37-1.3-4.74Zm10.43,23.29a127.65,127.65,0,0,1,6.4,34.18c-11.69,1.1-24.08,1.84-36.82,2.25q.27-8.48,0-17t-1.25-17c11.1-.48,21.81-1.31,31.69-2.49Zm6.23,49.53a127.37,127.37,0,0,1-6,30.66c-21,1.35-43.44,1.83-65.84,1.51l-3.6-.06q-.08-9.24-.45-19.1c-.27-6.72-.66-13.64-1.22-20.74,1.64,0,3.29.07,4.93.09a699.16,699.16,0,0,0,70.23-2.34q1.18,5,1.95,10Zm-7.86,36a131.29,131.29,0,0,1-16.73,30.92q0-3.93-.13-7.89-.33-10.93-1.59-22.14,9.35-.35,18.45-.89Zm-22,37.64q-3.09,3.73-6.45,7.24c-22.62.47-45.86.15-68.5-.91V178.2a74.8,74.8,0,0,0-3.14-21.33c11.86.62,23.93,1,36,1.2,13.57.19,27.13.09,40.41-.31.87,7.44,1.39,14.81,1.61,22.11.15,4.84.16,9.66.06,14.46Zm-11.77,12.5a140.32,140.32,0,0,1-23.87,18l.19-17.91c7.92.07,15.83,0,23.68-.08Zm-29.07,20.95A143.76,143.76,0,0,1,206,241V205.83c11.35.53,22.84.87,34.34,1l-.23,20.92ZM117.64,239.17v34.52c2.77.2,5.5.39,8.16.56s5.33.33,7.94.47V239.17Zm10.69-55.44v0L128,183v0l0-.06-.28-.66,0-.05,0-.08-.24-.57,0-.11,0-.11-.23-.51-.1-.23-.27-.6-.06-.12-.28-.61-.08-.16-.28-.59-.07-.14-.27-.56-.12-.24-.29-.57,0-.09-.35-.67v0l-.34-.63,0-.08,0-.08-.32-.59,0-.06,0-.07-.34-.61,0,0v0l-.39-.68h0l-.34-.58-.08-.13h0l0-.07-.37-.62,0,0-.39-.63,0,0,0-.06-.37-.58,0-.05,0-.09-.38-.59,0,0-.37-.57-.14-.2-.33-.5-.1-.14-.42-.61h0l-.45-.63,0-.06-.4-.55-.13-.19-.33-.44-.08-.11,0,0-.39-.52-.06-.08,0-.06-.41-.53-.05-.06,0-.06,11,19.27Zm7.22,5,.1.35.17.61,0,.08.09.34.1.35.09.35,0,0,.14.55.06.22.15.58.08.35,0,.07.14.58v0l.09.35.08.35.08.35v0l.1.47.12.56.06.26,0,.1.07.35v.07l.09.42.11.59,0,.21,0,.13.06.36,0,.07.05.28.06.36,0,.36.05.28.09.56,0,.27.1.68v.19l.08.59.05.39.07.52,0,.36.06.58,0,.26c0,.24.05.48.07.73v.13l.07.79v0l.07.86v.05c0,.28,0,.56.05.84v.08c0,.29,0,.57.05.85v0l0,.89v0l0,.84v0h0v22.56l20.17-10.06a146.68,146.68,0,0,0,0-23.34,133.41,133.41,0,0,0-3.15-20.42l-20.38,10.17ZM112,151.09l41.91-20.91a105.6,105.6,0,0,1,11.7,15.22,75.44,75.44,0,0,1,8.33,18.42l-40,20-.15-.42-.16-.42-.16-.42-.17-.42h0l-.16-.4-.17-.42-.17-.41-.17-.41-.17-.41-.18-.42-.17-.41-.18-.41,0,0-.15-.33,0,0-.18-.41,0,0-.15-.33,0,0-.18-.41-.19-.38v0l-.19-.4h0l-.19-.38h0l-.2-.4h0l-.18-.35,0,0-.2-.4v0l-.17-.33,0,0-.2-.4-.21-.39-.21-.39-.18-.33,0-.07-.21-.39-.19-.33,0-.05-.21-.39,0-.05-.13-.23-.06-.11-.22-.38-.08-.13,0-.08-.34-.59-.16-.26,0-.09-.22-.38,0,0-.15-.24-.06-.12-.24-.37-.06-.1-.07-.12-.35-.56-.14-.22-.08-.12-.24-.37h0l-.11-.18-.37-.55,0-.08,0-.08-.39-.57,0-.07,0-.07-.39-.56-.18-.26-.09-.13-.25-.36,0-.05-.09-.12-.39-.54,0,0,0,0-.46-.62,0,0-.07-.09-.42-.57,0,0-.51-.67,0,0-.52-.67h0l0,0-.49-.62,0,0h0l0,0-.51-.63-.56-.66h0l0,0-.54-.63h0l0,0-.47-.54-.07-.08-.05-.05-.48-.54,0-.05-.07-.08-.48-.52,0,0-.57-.62h0l-.11-.12-.37-.38-.12-.13h0l-.53-.55-.08-.08L115,154l-.36-.37-.14-.14-.12-.12-.26-.25L114,153,114,153l-.06-.06-.39-.37-.12-.12-.13-.12-.44-.42-.2-.19h0l-.13-.12-.29-.26-.23-.22ZM14,184.86,28.21,190A42.78,42.78,0,0,1,41,166.62l.67-.6L33.1,150.38c-.72.62-1.42,1.25-2.1,1.91a59.44,59.44,0,0,0-17,32.57ZM12.9,223.09l14.33,3.35V200.08c0-1.65.07-3.29.22-4.9l-14.19-5.1c-.23,2.32-.36,4.72-.36,7.18v25.83Zm187.89-21.57V178.2a69.58,69.58,0,0,0-3.11-20.46l-37,18.46a138.42,138.42,0,0,1,3.56,22.39,154.09,154.09,0,0,1,.22,21.06l36.33-18.13Zm-21.85,51.77V218.21l21.85-10.9v35.08l-21.85,10.9Zm-40,20V238.18l34.84-17.38v35.08l-34.84,17.38ZM83.3,135l.41.12.41.12a66.31,66.31,0,0,1,10.71,4.16l.11.06c1,.49,2,1,3,1.55l0,0c1,.53,1.92,1.09,2.86,1.67l.13.08.62.39.12.07.5.33.28.17.26.18.36.24.06,0,.3.2.35.24.06,0,.3.21.35.25.09.06.27.19.35.25,0,0,.33.24.35.25,1,.78h0l.34.27h0l.34.27,22.09-11a51.12,51.12,0,0,0-8.73-7.1,81.63,81.63,0,0,0-14-7.21L83.3,135Zm.53-14.34A115.92,115.92,0,0,1,99.72,118c1.61-.16,3.22-.3,4.82-.42l-29,15.8H75.4l-.21,0H75l-.32,0h-.27l-.63-.07H73l-.22,0h0l-.29,0h-.1q-2.84-.27-5.55-.27c-1.57,0-3.13.07-4.66.19l21.73-12.24Zm44.82-16.23a61.08,61.08,0,0,0-11.25,1,58.08,58.08,0,0,0-16.24,5.49h0L97.35,113l1.84-.2c5.32-.54,10.61-.81,15.89-1l13.57-7.39ZM168,117.32a71.12,71.12,0,0,0-30-12.14L112.74,119a81.75,81.75,0,0,1,11.09,6,54.89,54.89,0,0,1,10.72,9L168,117.32Zm13.44,11.92a77.37,77.37,0,0,0-8.83-8.44l-14,7A107.55,107.55,0,0,1,170,142.66a81.13,81.13,0,0,1,8.63,18.82L196,152.8a77.29,77.29,0,0,0-14.5-23.56Zm-107.77,9.1h.17l.63.08h.08L71.2,157.1a40.91,40.91,0,0,0-4.87-.3,37.14,37.14,0,0,0-20.53,6.07l-8.57-15.7A51.52,51.52,0,0,1,43,143.68h0l.06,0a51.14,51.14,0,0,1,23.74-5.75c1.53,0,3.06.06,4.6.19H72l.19,0h.94l.63.08ZM103.1,150.5l0,0,.55.41,0,0L92.49,165.47A48.2,48.2,0,0,0,76.28,158l3.38-18.62c1.22.29,2.42.61,3.62,1h0c.66.2,1.31.42,2,.64l.39.14h0l.36.14.4.14h0l.36.13,0,0c.77.28,1.53.59,2.29.9h0l.65.27.2.09.29.13.38.17.07,0,.32.15.38.17,0,0,.34.16.37.18h0l.29.14.07,0,.38.19h0l.24.12.4.2.3.16.5.26,0,0h0l0,0,.55.29.1.05,0,0,.36.2.09.05.28.16.37.21.09,0,.21.12.06,0,.36.21.06,0,.23.14.44.26.12.08L98,147l.52.32.17.11.53.34h0l0,0,.53.34.08.05,0,0,0,0,.55.37,0,0,.08,0,.49.34.16.11.5.35.14.1.44.31.14.1.07.05.55.41Zm14.21,14,11.31,20v0h0l0,.05.22.58.12.32.17.47.05.14,0,0L114,193.6a61.83,61.83,0,0,0-9.4-16.69,58,58,0,0,0-8-8.28l11.12-14.39.14.12.13.12.25.21,0,0,.14.12.13.12.27.25.13.12.14.12.26.25.14.13.13.12.39.38.13.12.4.38.13.13.13.13.13.13.13.13.12.13.13.12.13.13.26.26.13.13.12.14,0,0,.2.21,0,0,.12.13.22.23.16.17.12.13.25.27.13.13h0l.12.13.37.4,0,.06.08.08.36.41.1.11,0,0,.49.55,0,0,0,0,.51.59,0,.06.48.56.47.58,0,.05,0,0h0c.32.39.64.78,1,1.18Zm16.43,47.2c0-.28,0-.56,0-.84V210l0-.85h0V209l0-.77v0l0-.76v-.08h0v-.07l-.05-.73v-.09l-.06-.75v-.05l0-.28,0-.32V205l0-.25-.06-.68,0-.2-.07-.6,0-.13v-.09l-.08-.63,0-.27,0-.33,0-.13-.05-.42,0-.09-.05-.33-.08-.53v-.11l-.06-.32,0-.31h0l-.05-.32-.09-.52-.07-.37-.07-.39-.06-.32-.06-.32,0-.2,0-.12-.07-.32v-.05l0-.26-.07-.32-.14-.63-.07-.32-.14-.6v0l-.07-.31-.08-.32-.08-.31-.15-.63-.09-.31c-.1-.41-.21-.82-.33-1.22v0l-.09-.31-15.27,7.49a57,57,0,0,1,2.08,15.15V234h16.1V211.66Zm-73-83.92a23.25,23.25,0,0,1-3.29-3.41c-1.21,2.38-2.37,4.8-3.48,7.23l6.77-3.82Zm56.34-27.52-.56.1a63.33,63.33,0,0,0-17.69,6l-.18.1-16.93,9.53-.22.13-16.08,9.06a14.81,14.81,0,0,1-5.18-6.1A203.91,203.91,0,0,1,83.86,84.53c5.11,6.26,16.94,11.52,33.19,15.69Zm84,51.38c9.58.53,19.32.91,29.08,1.14,0-6-.18-12.26-.44-18.79s-.67-13.66-1.26-21.06c-22.64-.6-45-2.15-65.13-4.55a82.85,82.85,0,0,1,37.75,43.26ZM27.23,231.75,12.9,228.41V259.2a32.28,32.28,0,0,0,7.62,4.56,52.47,52.47,0,0,0,6.71,2.32V231.75ZM192.91,106c-28.35-2.07-54.42-5.67-73.88-10.59l-.66-.17a103.24,103.24,0,0,1,6.25-16.73,126,126,0,0,1,10.08-17.4c3.26,1.17,6.91,2.26,10.88,3.26,13.47,3.41,31,6,50.16,7.68a163.06,163.06,0,0,0-2.44,17.13,131.34,131.34,0,0,0-.39,16.82Zm8-33.52a156.53,156.53,0,0,0-2.47,17.12,127.16,127.16,0,0,0-.36,16.76c13.22.87,26.87,1.41,40.52,1.61,10.16.14,20.32.1,30.3-.15.18-5.65.19-11.29,0-16.93s-.61-11.31-1.27-17c-9.37.32-19,.41-28.59.27-12.91-.18-25.81-.77-38.12-1.72ZM113.39,93.87a106.64,106.64,0,0,1,6.55-17.59,130.64,130.64,0,0,1,9.85-17.16c-4.94-2.2-8.64-4.65-10.8-7.35A205.35,205.35,0,0,0,95,72.39q-4,4-7.75,8.22c3.06,4.91,12.45,9.38,26.11,13.26ZM202.53,35a57.12,57.12,0,0,1,7.33-13.48,60.61,60.61,0,0,1,7-7.94A204.22,204.22,0,0,0,166,26c2.58,1.76,7.23,3.44,13.31,5a186.15,186.15,0,0,0,23.24,4Zm23.22-22.23A58.34,58.34,0,0,0,214,24.56a52,52,0,0,0-6.16,11c9.91,1,20.65,1.56,31.41,1.71,5.19.08,10.37,0,15.46-.08a56.4,56.4,0,0,0-3.44-12.74,58.18,58.18,0,0,0-6.72-12.12c-1.62-.05-3.24-.07-4.86-.07q-7,0-14,.5Zm67.54,54.43c-.83-4.44-1.78-8.85-2.91-13.23-1.21-4.65-2.62-9.31-4.3-14a319.59,319.59,0,0,1-46.86,2.46l-2.85-.06L235.64,69l3.47.06a532.29,532.29,0,0,0,54.18-1.82Zm-62.82,1.64.74-26.59c-18.82-.63-37-2.55-50.27-5.55a111.44,111.44,0,0,0-9.13,14,73.52,73.52,0,0,0-5.49,12.59c18.65,3,41.18,4.93,64.15,5.58Zm-69.3-6.46a78.76,78.76,0,0,1,6.1-14.18,114,114,0,0,1,8.25-12.86c-6.87-1.95-12-4.36-14.76-7.23A202.66,202.66,0,0,0,123.1,48.82c3,3.88,11.6,7.43,23.74,10.5C151.21,60.43,156,61.44,161.17,62.37Z" transform="translate(-7.72 -7.1)"/><path class="cls-5" d="M189.62,28.49a80.79,80.79,0,0,1,15.14,1.4q-1.24,2.5-2.23,5.1a186.15,186.15,0,0,1-23.24-4c-1.53-.39-3-.78-4.3-1.19a81.67,81.67,0,0,1,14.63-1.3ZM210,31.06a66.42,66.42,0,0,1,14.65,5.74c-5.74-.29-11.37-.71-16.75-1.24q.93-2.28,2.1-4.5Zm26.31,14.38c5.86,6,9.27,13.12,9.27,20.82a26.32,26.32,0,0,1-.16,2.81L239.11,69,235.64,69l.64-23.51Zm8,28.78C239.46,89.45,221,101.27,198,103.61a129.78,129.78,0,0,1,.45-14,156.53,156.53,0,0,1,2.47-17.12c12.31,1,25.21,1.54,38.12,1.72,1.75,0,3.5,0,5.25,0ZM192.84,104c-1.07,0-2.14.06-3.22.06-30.89,0-55.92-16.91-55.92-37.77A26.89,26.89,0,0,1,134,62l.66-1c3.26,1.17,6.91,2.26,10.88,3.26,13.47,3.41,31,6,50.16,7.68a163.06,163.06,0,0,0-2.44,17.13,131.17,131.17,0,0,0-.46,14.82ZM135.77,56c3.23,1.15,6.94,2.25,11.07,3.29,4.37,1.11,9.18,2.12,14.33,3a78.76,78.76,0,0,1,6.1-14.18,114,114,0,0,1,8.25-12.86,54.62,54.62,0,0,1-9.22-3.41C151.53,36.5,140.23,45.3,135.77,56Zm94.7,12.8.74-26.59c-18.82-.63-37-2.55-50.27-5.55a111.44,111.44,0,0,0-9.13,14,73.52,73.52,0,0,0-5.49,12.59C185,66.27,207.5,68.18,230.47,68.83Z" transform="translate(-7.72 -7.1)"/><path class="cls-6" d="M117.64,239.17v34.52c2.77.2,5.5.39,8.16.56s5.33.33,7.94.47V239.17Zm10.69-55.44v0L128,183v0l0-.06-.28-.66,0-.05,0-.08-.24-.57,0-.11,0-.11-.23-.51-.1-.23-.27-.6-.06-.12-.28-.61-.08-.16-.28-.59-.07-.14-.27-.56-.12-.24-.29-.57,0-.09-.35-.67v0l-.34-.63,0-.08,0-.08-.32-.59,0-.06,0-.07-.34-.61,0,0v0l-.39-.68h0l-.34-.58-.08-.13h0l0-.07-.37-.62,0,0-.39-.63,0,0,0-.06-.37-.58,0-.05,0-.09-.38-.59,0,0-.37-.57-.14-.2-.33-.5-.1-.14-.42-.61h0l-.45-.63,0-.06-.4-.55-.13-.19-.33-.44-.08-.11,0,0-.39-.52-.06-.08,0-.06-.41-.53-.05-.06,0-.06,11,19.27ZM14,184.86,28.21,190A42.78,42.78,0,0,1,41,166.62l.67-.6L33.1,150.38c-.72.62-1.42,1.25-2.1,1.91a59.44,59.44,0,0,0-17,32.57ZM12.9,223.09l14.33,3.35V200.08c0-1.65.07-3.29.22-4.9l-14.19-5.1c-.23,2.32-.36,4.72-.36,7.18v25.83Zm60.81-84.75h.17l.63.08h.08L71.2,157.1a40.91,40.91,0,0,0-4.87-.3,37.14,37.14,0,0,0-20.53,6.07l-8.57-15.7A51.52,51.52,0,0,1,43,143.68h0l.06,0a51.14,51.14,0,0,1,23.74-5.75c1.53,0,3.06.06,4.6.19H72l.19,0h.94l.63.08ZM103.1,150.5l-.55-.41-.07-.05-.14-.1-.44-.31-.14-.1-.5-.35-.16-.11-.49-.34-.08,0,0,0-.55-.37,0,0,0,0-.08-.05-.53-.34,0,0h0l-.53-.34-.17-.11L98,147l-.09-.05-.12-.08-.44-.26-.23-.14-.06,0-.36-.21-.06,0-.21-.12-.09,0-.37-.21-.28-.16-.09-.05-.36-.2,0,0-.1-.05-.55-.29,0,0h0l0,0-.5-.26-.3-.16-.4-.2-.24-.12h0l-.38-.19-.07,0-.29-.14h0l-.37-.18-.34-.16,0,0-.38-.17-.32-.15-.07,0-.38-.17-.29-.13-.2-.09-.65-.27h0c-.76-.31-1.52-.62-2.29-.9l0,0-.36-.13h0l-.4-.14-.36-.14h0l-.39-.14c-.66-.22-1.31-.44-2-.64h0c-1.2-.36-2.4-.68-3.62-1L76.28,158a48.2,48.2,0,0,1,16.21,7.44L103.71,151l0,0-.55-.41,0,0Zm14.21,14,11.31,20v0h0l0,.05.22.58.12.32.17.47.05.14,0,0L114,193.6a61.83,61.83,0,0,0-9.4-16.69,58,58,0,0,0-8-8.28l11.12-14.39.14.12.13.12.25.21,0,0,.14.12.13.12.27.25.13.12.14.12.26.25.14.13.13.12.39.38.13.12.4.38.13.13.13.13.13.13.13.13.12.13.13.12.13.13.26.26.13.13.12.14,0,0,.2.21,0,0,.12.13.22.23.16.17.12.13.25.27.13.13h0l.12.13.37.4,0,.06.08.08.36.41.1.11,0,0,.49.55,0,0,0,0,.51.59,0,.06.48.56.47.58,0,.05,0,0h0c.32.39.64.78,1,1.18Zm16.43,47.2c0-.28,0-.56,0-.84V210l0-.85h0V209l0-.77v0l0-.76v-.08h0v-.07l-.05-.73v-.09l-.06-.75v-.05l0-.28,0-.32V205l0-.25-.06-.68,0-.2-.07-.6,0-.13v-.09l-.08-.63,0-.27,0-.33,0-.13-.05-.42,0-.09-.05-.33-.08-.53v-.11l-.06-.32,0-.31h0l-.05-.32-.09-.52-.07-.37-.07-.39-.06-.32-.06-.32,0-.2,0-.12-.07-.32v-.05l0-.26-.07-.32-.14-.63-.07-.32-.14-.6v0l-.07-.31-.08-.32-.08-.31-.15-.63-.09-.31c-.1-.41-.21-.82-.33-1.22v0l-.09-.31-15.27,7.49a57,57,0,0,1,2.08,15.15V234h16.1V211.66ZM27.23,231.75,12.9,228.41V259.2a32.28,32.28,0,0,0,7.62,4.56,52.47,52.47,0,0,0,6.71,2.32Z" transform="translate(-7.72 -7.1)"/><path class="cls-7" d="M54.26,215.71,85.1,200.52l-1.55-30.15-29.5,14.36.21,31Zm34.4-46.61L90.15,198l16.57-8.16a56.53,56.53,0,0,0-6.21-9.77,52.06,52.06,0,0,0-11.85-11ZM67.84,162a36.87,36.87,0,0,1,4.16.42h0l.85.15h0a40.48,40.48,0,0,1,9.08,2.82l-14.75,7.19L67.84,162ZM33.76,188.85a37,37,0,0,1,10.7-18.42,31.89,31.89,0,0,1,18.18-8.25l-.8,13L33.76,188.85Zm-1.35,37.63,16.71-8.23-.22-31-16.25,7.91a49.34,49.34,0,0,0-.24,4.93v26.4Zm73.15,3.39.5-33.91,2.75-1.36a52.9,52.9,0,0,1,3.65,19.11v12.82l-6.9,3.34ZM70.74,246.73l-.26-33.12h-.25l30.63-15.09-.5,33.87L70.74,246.73ZM32.41,265.29V232.24l20.53-10.11H54.3v-.66l11-5.44.26,32.46h1.55Z" transform="translate(-7.72 -7.1)"/><path class="cls-8" d="M54.26,215.71,85.1,200.52l-1.55-30.15-29.5,14.36.21,31ZM94,173.25c0,.59,0,1.19,0,1.79a82,82,0,0,1-3.19,22.64l-.72.35L88.66,169.1A48.4,48.4,0,0,1,94,173.25Zm-5.47,31.33a91,91,0,0,1-17.92,28.74l-.16-19.71h-.25l18.33-9Zm-23,34A111.28,111.28,0,0,1,32.41,260V232.24l20.53-10.11H54.3v-.66l11-5.44.18,22.52ZM67.84,162a36.87,36.87,0,0,1,4.16.42h0l.85.15h0a40.48,40.48,0,0,1,9.08,2.82l-14.75,7.19L67.84,162ZM33.76,188.85a37,37,0,0,1,10.7-18.42,31.89,31.89,0,0,1,18.18-8.25l-.8,13L33.76,188.85Zm-1.35,37.63,16.71-8.23-.22-31-16.25,7.91a49.34,49.34,0,0,0-.24,4.93Z" transform="translate(-7.72 -7.1)"/><path class="cls-9" d="M231.4,257.13c2.78.07,5.57.12,8.36.17l.06-5.6c-2.78.59-17.58,3.16-27.07,4.82l18.65.61ZM384.11,87.59c3.6-2.47,6-5.15,7.07-8.07q-3.29-3.63-6.77-7.13l-2.29-2.26a138.18,138.18,0,0,1,2,17.46ZM397,244.14c0-8.54-.18-17.1-.74-25.66-.52-8.17-1.38-16.33-2.7-24.44-7.34,1.83-15.32,3.45-23.82,4.87-10.86,1.8-22.59,3.29-34.94,4.48-3.05,2.85-6.23,5.61-9.51,8.27.64,6.65,1,13.05,1.09,19.28.14,8.25-.11,16.12-.56,23.8q6.39-.51,12.59-1.14c22-2.2,42-5.33,58.59-9.46Zm1.59-51.42c1.39,8.41,2.29,16.9,2.84,25.44.52,8.14.73,16.36.73,24.63,23.34-6.4,38.84-14.95,41.79-25.84a205,205,0,0,0-5-45.42c-6.57,8.81-20.9,15.82-40.41,21.19Zm-78,62.42c.47-7.85.74-15.84.6-24.12-.09-5-.34-10.22-.78-15.56A202.9,202.9,0,0,1,245,250.52l-.08,6.84c25.84.27,51.61-.45,75.66-2.22ZM417.22,181c-12,5.31-28.7,9.58-48.37,12.85q-3.71.62-7.53,1.19a143.64,143.64,0,0,0-1.93-20.39,150.46,150.46,0,0,0,14.42-26.93q3.6-.81,7-1.68a125,125,0,0,0,25.5-9.12,133.8,133.8,0,0,1,7.78,22.2A102.61,102.61,0,0,1,417.22,181Zm-6.41-46.63c5-3.13,8.76-6.61,11-10.44a202.36,202.36,0,0,1,15.36,40.22c-1.76,5.41-6.95,10.2-14.87,14.4a108.89,108.89,0,0,0-3.17-20.68,139.43,139.43,0,0,0-8.3-23.5Zm-54.64,61.4q-7.53,1-15.48,1.87a165.91,165.91,0,0,0,14.39-16.88,145.46,145.46,0,0,1,1.09,15ZM376,141.86l.48-.12-.06-1c-.13.38-.28.77-.42,1.16Zm4.23-14a138.66,138.66,0,0,0,4-33.21c0-.4,0-.79,0-1.19,4.91-2.89,8.53-6.12,10.61-9.73a203.41,203.41,0,0,1,23.87,34.43l-.14,0c-2.36,9.32-16.15,16.72-37,22.32A119.05,119.05,0,0,0,380.26,127.86Z" transform="translate(-7.72 -7.1)"/><polygon class="cls-10" points="109.92 266.59 126.02 267.63 126.02 281.61 109.92 280.58 109.92 266.59"/></svg>