<svg xmlns="http://www.w3.org/2000/svg" viewBox="0 0 1057.12 1489"><defs><style>.a{fill:#212121;}.b{fill:#fe9898;}.c{fill:#efc97f;}.d{fill:#fff;}.e{fill:#fefe99;}.f{fill:#dfac66;}.g{fill:#fd9898;}.h{fill:#dfac65;}.i{fill:#a28b8b;}.j{fill:#020201;}.k{fill:#ddab65;}.l{fill:#131212;}.m{fill:#040404;}.n{fill:#fefefe;}.o{fill:#191816;}.p{fill:#0a0606;}.q{fill:#0b0a06;}.r{fill:#17160d;}.s{fill:#222114;}.t{fill:#050505;}</style></defs><title>indianer</title><path d="M951.46,5.72c1.84,4.42,6.2,2.74,9.36,3.65C978,14.29,983.22,23.28,979.71,41c-4.7,23.69-18.46,42.46-33.78,59.74-33.78,38.11-68.6,75.3-103,112.87-.81,2.78-3,4.72-4.87,8.13,2.5-3.59,5.78-3.49,8.39-4.76,32.59-21.75,64.86-44,97.87-65.1,23.51-15,48.39-27.55,76.1-33.45,9.79-2.09,19.08-1.19,29,.2,15.91,2.24,20.27,14.18,19.09,25.2-1.52,14.29-3.43,29.19-13.22,42-36.41,47.81-85.88,77.31-138,104.65-45,23.63-91,43.49-141.5,54.75,23.88,12.23,46,26.4,64.72,44.57,22.5,21.79,38.31,48.28,42.3,79.89,1.86,14.71,1.66,29.87,2.5,44.75,2.47,43.8-24.87,73.69-46.49,106.45-2,3-5.23,5.66-6,8.93-9.12,38.76-33.23,71.67-42.95,110.22a23.74,23.74,0,0,0,.82,14.72A1135.09,1135.09,0,0,0,908.88,997.6c35.84,55.66,64,115.51,91.09,175.51,14,31,16.46,67,18.62,101.64,2.59,41.78.75,75.88-5.08,117.6-18.62,49.64-84.69,83.52-123.52,91.56-17.75,3.68-35.53,7.21-53.3,10.81H796.36c-23.44-3.57-47-1.29-70.54-1.39-19.9-.08-39.91-2.14-59.75,1.39H663c-22.61-7-46.32-9.92-68.46-18.63-14.15-8.54-14.15-8.67-.29-19.71,2.71-3.55,2.85-8.08,4.5-12,3.09-5.25,7.18-4.63,11.62-2,3,2.11,5.6,4.76,8.42,7.12,4,3.88,9.29,7.67,1.25,12.74,5.79-1.18,4.45-7.23,7.16-10.53,8.25-8,15.76-8.85,22,2.24,4.08,6.24,9.55,6.94,15.94,4,2.61-1.16,5.26-2.13,8.19-1.4,10.2,5.09,16.73,3.44,17.52-9.32a8.14,8.14,0,0,1,3.71-6.43,6.62,6.62,0,0,1,6.24.77c3.79,4.27.08-1,2.49,3.57,2.35-10.48,8.39-3.42,12.35,4.06s10.56-11,12.46-7.16c6.27.5,3.67,15.31,9.9,15.87,34.79,7.75,69.81,5.63,104.83,2.56,4.64-.41,9.29-1.18,13.91-.8,29.61,2.49,57.11-3.28,83.61-17.33,25.95-13.74,43.78-34,48.08-62.24,6.37-41.73,13.25-83.84,5.71-126.38a20.76,20.76,0,0,1-.23-6.19c4.6-36-8.45-67-24-98.82-37.33-76.6-85.75-146.11-133-216.44-12-17.85-21.93-35.85-24.49-57.76-1.73-14.86-4.65-15.11-18.12-8.9-18.63,8.59-34.35,23.29-55.5,26.55-9.35-3.92-3.46-9-.55-13.12,8.68-12.16,17.91-23.93,27.31-35.54,7.7-9.51,10.14-19.44,6.58-31.63-5.47-18.71-9.37-37.89-16.59-59.49-12,55.55-40,101.78-57.58,152.11-7.58,15-10.62,32.45-21.13,42.83,24.17-16.81,59.05-8.15,74.2,19.4,11.42,20.76,18.95,43.76,21.07,65.82,2.53,26.43-.67,55-15,79.46-15.69,26.71-31.45,53.45-49.27,78.83-6.33,9-6.35,16.63-2.56,27.16,8,22.15,21.55,36.23,44.39,43,17.75,5.29,34.74,13.22,52.1,19.89,13.72,5.28,23.42,14.76,31.35,26.58,2,3,5.23,6.34,3.09,9.74-2.66,4.23-7.49,2.43-11.33,1.23-21.71-6.79-42.74-15.45-64-23.48-39.66-15-79.6-29-120.88-38.87a45.75,45.75,0,0,0-22.92-.1c-8.49,2.22-17.16,3.87-25.57,6.34-15.45,4.55-29,2-42.56-6.9-19.21-12.63-43.29-4.54-54.17,15.95-11.46,21.58-12.05,44.49-10.43,67.89.15,2.06-.7-.21.26,1.5,15.39,27.12,27.38,56.82,55.71,74.22,7.32,4.49,16.75,6.25,20.23,15.72,1.32,7.52,2.06,15-1.19,22.27-11.1,1.56-27.39-7-29.43-15.79-1.46-6.22,2.36-6.14,4.69-5.74-11,5.65-19.76-2.2-28.43-9.73-11.69-10.16-22.75-21-34.76-30.82-3.2-2.6-6.84-5.61-7.77-9.5-6.17-25.7-17.21-50.9-6.67-78.28,5.75-15,10.85-30,20.32-43.27,7-9.82,14.17-19.11,25.35-24.33,7.82-3.65,9.9-8.43,4.08-15.62-35.9-44.4-58.07-96.12-79-148.5-5.35-13.38-16.43-22.34-25.4-32.91a12.86,12.86,0,0,0-9.64-4.43c-21.59-.31-43.38-3.4-64.3,5.22-34.39,14.16-69.47,26.54-104.49,39-21.7,7.74-40.24,21-59.84,32.34-23.23,13.45-46.74,26.48-69.14,41.32-10,6.6-20.14,9.66-32.2,6.62-9-2.27-18.53-.84-27.81-1.18s-15-4.35-14.71-14c.42-15.95-.09-32.31,11.54-45.37,5.57-6.26,4.87-13,3.18-20.37-8.67-37.61-18-75.08-23.45-113.36v-6.21c30.51-9,58.66-24.22,90.29-35.08,2.29,33.9,5,66.68,6.5,99.52.61,13.27,2.11,18.8,17.87,13.18,62.58-22.33,125.66-43.25,188.57-64.67,4.47-1.52,8.08-2.82,8.73-9,1.41-13.29,9.57-23.41,18-33.14,21.53-5.19,42-3.42,60.79,9.28,3.72,2.51,10.14,4.35,8.72,9.38-1.66,5.91-8.47,5.11-13.44,4.33a169.18,169.18,0,0,0-32.41-2.14c-4.14.15-8.3.25-12,2.39s-6.43,5.41-6.39,9.93c.05,5.13,4.05,6.67,8.16,7.93,6.88,2.09,14.45,2,20.68,6.09,3,2,5.95,4.68,4.87,8.82-.92,3.53-4.43,4.09-7.45,4.48a122.46,122.46,0,0,1-26.31.22c-10.18-.87-14.77,4.87-15,13.53-.21,9.73,7.44,11.29,15.29,10.78a93,93,0,0,0,19.74-3.85c11.09-3.22,22.4-3.29,33.8-3.19,20.74.18,34.71,8.23,41.92,29.2,22,64.12,57.91,120.77,96.51,176,9.2,13.15,22,19.82,35.71,26,7.1,3.21,12.87-.16,18.82-3.66,31.93-18.79,60.23-41.21,80.64-73,13.92-21.71,30.13-42,44.45-63.44a140.33,140.33,0,0,0,23.89-88c-1-16.67-18.2-34.6-33-36.84-13.28-2-30.66,8.54-38.08,23.64-27.81,56.64-61.49,110-92.78,164.65-3.17,5.55-5.69,14.52-13.3,13.28s-7.47-10.57-8.35-16.76c-2.81-19.7-12.15-35.78-24.49-50.88-10.45-12.78-20.55-26-29.68-39.71-7.58-11.41-15-20.51-31-17.26-8.08,1.64-9.37-4.27-6.39-10.94a16.49,16.49,0,0,1,2.33-4c21.81-25.88,14.77-55.28,10.28-84.34-.39-2.56-1.33-5.3-3.31-6.89-17.92-14.47-34.3-31.89-60.09-31.43-10.85.19-21.72.45-32.54-.19-5.07-.3-11.92,1.7-13.63-6.38,33.37-28.14,81.33-18.43,107.55,8.48,5.93,6.09,11.38,7.26,19.14,5.94,25.45-4.35,51.23-7.1,76.41-12.59,14.13-3.08,23.13.83,29.29,12.51,2.89,5.46-11.13,22.77-20.64,26-20.51,7-40.92,14.4-61.75,20.29-11.42,3.23-13.89,8.19-10.68,19.34,3.41,11.84,4.43,24.35,6.71,36.53.84,4.53,1,9.91,3.65,13.29,20,26.06,40.53,51.72,61.9,78.78,14.53-31.15,28.29-60.4,41.72-89.8,1.41-3.07,1.12-7,1.21-10.55,1.29-46.45,2.28-92.94,7.11-139.18.78-7.53-4.23-8.94-7.52-11.74-24-20.38-47.79-41.08-72.88-60.07-12.58-9.52-17.63-22.51-23.1-35.65-12.43-29.87-27.93-58.83-28.86-92.35-.19-6.72-2.79-8.81-9.75-5.34-12.45,6.23-25.91,10.53-38,17.31-12.28,6.88-24.06,5.07-35.45.23-14-5.94-11.67-20.58-10.7-31,5.43-58.76,34.1-105.39,81.09-139.76,14.12-10.33,33-14.26,49.83-20.71,8.12-3.1,13.87-7.41,17.14-16.15,10.22-27.35,34.61-42.89,54.06-62.47,4.5-4.52,8.43-8.92,10.27-15.07C628,362.52,651.72,333.05,690,316.3c8.86-3.87,12.83-9.56,16.43-19.16,22.63-60.44,47.81-120.33,87-171.87,22.49-29.6,51.15-54.83,80.9-78.29,21.15-16.67,44.64-28.51,67.86-41.26Z" transform="translate(-11.53 -5.72)"/><path class="a" d="M666.07,1494.72c1.66-3.48,4.81-3.24,7.92-3.24q56.38,0,112.79,0c3.52,0,7.36-.69,9.58,3.25Z" transform="translate(-11.53 -5.72)"/><path class="b" d="M368.47,905.84c14,7.4,29.24,4.29,43.3,2.85,29.2-3,46.86,16.86,66.34,31.46,9.19,6.89,6.17,23.17,7.5,35.33,2.79,25.67.52,50.29-20.91,71.3,25.88-8.78,35,8.77,45.74,23.79,8.11,11.32,15.8,23.12,25.24,33.24,18.55,19.88,24.54,44.49,28.38,71.45,9.21-7.37,12-17.07,16.7-25.32,31-54.71,64.57-108,92.11-164.6,8.62-17.75,41.4-21.27,57.44-6.57,15.8,14.48,19.47,32.2,16.8,53.13-5.25,41.2-28.87,72.68-50.81,105.89-28.09,42.52-60.66,79.21-106.17,103.49-6.81,3.63-11,2.94-18,.53-29.62-10.26-41.23-37-58-59.49-35.22-47.21-57.72-100.85-80-154.63-3.69-8.9-8.91-12.92-18.78-15.24-22.86-5.37-44.27.43-65.67,5.71-11.25,2.78-19.88-1.72-23.81-9.17-3.5-6.64,3.91-15.13,7-22.52,1.61-3.81,6.4-1.86,9.93-1.63,11.77.77,23.55,1.42,36.4,2.18-3.15-15.18-15.64-10.43-23.61-12.39-15.45-3.79-18.94-11.76-9.55-24.53,3.46-4.7,7.63-4.28,12.23-4.56,16.87-1,33.57,1.82,52.37,3.4-21.31-18.65-44.6-21.72-69.19-20.06,6.48-2,11.33-5.44,13.87-12.2C357.55,910.86,360.92,905.59,368.47,905.84Z" transform="translate(-11.53 -5.72)"/><path class="c" d="M700.2,1445.09c-1.61,0-3.83-2.13-5.43-2.15-4,1.34-7.4-.21-10.62-2.42-22.64-20.23-47.68-37.72-68.31-60.32-9-9.9-16.54-21.14-26.7-30-3.92-3.42-8-8.06-13.06-2.53s-.15,9.3,3.88,12.6c10.38,8.46,21.26,16.34,31,25.58,3.55,3.37,10.09,5.78,8.13,11.79s-9,3.33-14.93,5.92c6.62,8.42,15.8,13.27,23.14,20,3.4,3.14,7.56,5.42,10.77,8.79s14.45,10.9,12.5,15.8c-2,5.07-14.76-1.09-18.89-.68-7.11.7-14.29-1.15-20.95-4.17-9.25-5.26-19.69-.5-29.22-3.43-7.13-1.45-14.3-2.8-20.39-7.19a34.36,34.36,0,0,1-2.64-3.49c-38.18-12.79-55.76-46.07-73.4-77.58-10.37-18.53-6.7-41.48-1.65-61.82,4.56-18.32,11.78-36.08,33.38-42.94,10.1-3.2,19-7.92,28,.82,23,22.27,48.12,10.26,72.44,3.88,6.26-1.64,11.48-2.57,17.73-1.14,53.52,12.27,104.57,32,155.7,51.43,14.38,5.47,28.84,10.71,47.35,17.58-14-17.15-23.75-31.44-43.14-37.26-23.16-6.94-45.15-17.69-68-25.84-10.31-3.68-12.13-13-17.6-20.16-17.52-23-10.81-42.25,4.91-63.16,15.45-20.55,30.66-42.17,40.86-65.56,11.83-27.12,18.88-56.82,10.1-86.94-5.84-20-9.49-40.87-20.63-59.29-4.59-7.59-9-11.53-18.25-13.73C704,942.23,683,937.38,665.53,960.14c14.72-17.83,20.34-38.92,30-57.95,13.08-6.91,28.11-6.75,41.78-11.54,26.23-9.55,48.24-27.23,74-38.8.86,2.32,2.11,4.18,2.17,6.08,1.39,40.7,25.08,71.25,47.3,102.1,51.15,71,94,146.74,131.93,225.45,2.26,4.7,4.28,9.2,4.56,14.58,3.14,61.43,6.79,122.91-4.59,183.91-4.66,25-20.24,44.48-41,56.89-28.92,17.32-60.71,26.68-95.78,24.28-25.15-1.72-50.67.15-75.89,2.16-15.64,1.25-30.11-3-45.09-5-3.45-3.88-4-8.86-4.82-13.61-1-5.94-7.38,8.63-11.3,8.78C711.67,1456.73,707.36,1445.16,700.2,1445.09Z" transform="translate(-11.53 -5.72)"/><path class="b" d="M645.7,742.27c-37-11.06-71.62-26-108.79-32.64-12.16-2.16-16.07-7.5-14.6-19.73,1.65-13.8.66-27.9,1.82-41.78,1-11.67-3-11.72-12-7.4-20.92,10.06-42.18,19.41-63.3,29-2.35,1.08-4.7,2.15-7,3.29-7.47,3.69-14.59.45-20.49-2.91s-.84-9.63.22-14c5.08-21,9.41-42.5,17.09-62.63,8.35-21.91,24.73-40.18,42.78-53.6,20.71-15.38,44.24-29,71.38-31.7,11.44-1.15,17.34-7.08,20.3-17.66,7.69-27.49,26.63-47.18,46.38-66.33,3.9-3.77,6.67-5.34,11.65-1.49,9.38,7.24,19.23,13.89,29.05,20.53,4.76,3.23,6.36,7.36,6.58,13,.54,13.41,2.2,26.78,2.63,40.19,1.32,41.38,8.16,81.82,16.5,122.38,7,33.85,23.41,62.49,39.64,91.7,5.39,9.71,10.55,14.56-2,26.72-31,30-57.51,64.64-75.81,104.56-2.76,6-6.44,11.63-10.62,19.08-32.89-33-66.68-63.15-96.06-97.68-7.71-9.06-8.4-22-11.34-33.34-1.78-6.9,5-4.46,8.44-4.88,21.8-2.65,39.69,9.63,59.16,15.79,9.32,3,18.69,6.2,27.39,10.6C634.34,756.26,640.09,753.28,645.7,742.27Z" transform="translate(-11.53 -5.72)"/><path class="d" d="M881,150.45c-.71-12.38-1.14-20-1.57-27.54l-2.5-1.22-27.38,49.56c-.5-7.84-.81-12.7-1.26-19.8-17.61,24.63-33.59,47.82-50.48,70.33a485.18,485.18,0,0,1-35.62,42.84c-14.42,15.24-24.21,31.82-22.93,53.49,5-.06,7.12-4.81,9.92-8.11,33-38.82,76.27-64.23,118.75-90.67,44.2-27.52,88.84-54.24,134.27-79.74,14-7.86,25.75-2.37,38.6-1,3.27.36,4.28,2.72,3.66,5.51-3.19,14.55-2.53,29.05-16.73,41C970.87,233,914.57,281.37,846.49,314c-3-3.46.51-6.69,1.85-10.19,1.45-3.76,2.74-7.58,5.47-15.21l-33.89,22.2c-3.36-5.92,5.77-8.15,3.39-14.44-18.55,12.14-37.68,22.72-56.71,33.5-8.85,5-15,4.53-23.79-.1-32.3-17-31.91-16.33-19.27-50.18,17-45.57,39.27-88.4,64.57-129.81,15.83-25.92,38.61-45.34,60.3-65.78a306,306,0,0,1,84.5-56.42c2.34-1.07,4.47-2.71,6.88-3.51,14.09-4.65,20.21,1.05,19.41,15.63-.88,16.25-10.74,28.08-19.35,39.66C922.4,102.78,902.68,124.53,881,150.45Z" transform="translate(-11.53 -5.72)"/><path class="e" d="M844.06,554.61c.38,5.14,1.19,10.3,1,15.43-.43,13-5.3,26.11-17,30-12.81,4.26-25.7,2-34.38-14-12-22.15-23.2-44.89-36.53-66.23-22.82-36.54-51-68.47-88.36-91.19-6.6-4-12.95-8.44-19.31-12.83-13.78-9.49-16.36-29.35-4.53-40.9,13.48-13.15,24.62-29.09,44-35.38,7.11-2.3,11.19-1.3,16.28,3.46,43.08,40.31,80.4,85.82,114.79,133.35C836.08,498.41,845.76,525.53,844.06,554.61Z" transform="translate(-11.53 -5.72)"/><path class="f" d="M322.43,984.53c-2.06,13.35-17.45,18.21-13.5,31.79.14.46-5.09,3-8,3.76-76.07,18.63-137.59,65.1-201.12,107-19,12.5-35.84,8-56.08,6.84,6.71-15.66,12.71-29.23,25.71-41.29,38.2-35.46,85.48-50.78,133.22-65.84,36.46-11.5,72.22-24.9,107.94-38.45C313.83,987.1,317.2,986.19,322.43,984.53Z" transform="translate(-11.53 -5.72)"/><path class="g" d="M737.26,890.65c-11.66,12-27,10.94-41.78,11.54,12.3-35.63,27.42-70.15,42.93-104.41,7.92-17.51,7.91-37,15.93-54.72,7.26,4,6,11.06,7.92,16.51s3.13,10.91,4.66,16.38c15.82,56.75,15.69,57.3-28.95,109.55C736.43,887.3,733.06,888.28,737.26,890.65Z" transform="translate(-11.53 -5.72)"/><path class="h" d="M62.53,1078.68c-9.67-35.11-18-66.42-27.1-97.48-2.54-8.63-1.61-13,7.49-16C54.15,961.58,65,956.71,75.83,952c6-2.61,9.26-3.06,9.48,5.33.78,29.86,2.46,59.7,3.08,89.56C88.73,1063.4,71.76,1065.7,62.53,1078.68Z" transform="translate(-11.53 -5.72)"/><path class="i" d="M716.69,504.56c22.52,28.48,38,57.94,53.7,87.31,5.54,10.39,11.72,20.35,12.6,32.84,1.37,19.29-1.75,27.26-19.93,41.46-2.37-17.41-4.61-34-7-51.83-9.69,8.25-9.89,20.94-18.83,30.32C727.14,598.49,722.77,552.86,716.69,504.56Z" transform="translate(-11.53 -5.72)"/><path class="j" d="M610.64,1442.44l36.74,3L594,1400.27l26.71-1.66c-17.61-14.56-33-27.92-49.14-40.34-6.11-4.7-5.8-8.46-.22-11.38,4.5-2.35,6.1-15.34,14.77-5.24,29.58,34.45,61.46,66.5,97.65,94.1.72.55.88,1.83,1.3,2.76-3,4.45-8,5.7-12.54,7.75-2.95.43-5.58-.67-8.21-1.72-13.79-6.44-11.3,9.36-17.71,13-4.48-12.28-8.47-6.22-18.11-2.45-4.42-.36-8.42-2.07-12.4-3.85l-5.73-5.29Q608,1444,610.64,1442.44Z" transform="translate(-11.53 -5.72)"/><path class="k" d="M564.73,921.47c4.78,1.11,11.56-2.34,12.38,5.77.77,7.66-5.88,7.32-10.51,8.34-19.06,4.15-38.18,8-57.27,12-6.31,1.32-12.35,2.61-14.09-6.49-1.93-10,6.38-7.56,10.81-8.6C525.52,927.89,544.91,922.74,564.73,921.47Z" transform="translate(-11.53 -5.72)"/><path class="d" d="M592.46,1474.44a19.09,19.09,0,0,0-4.13-.85,20,20,0,0,1-11.23-4.71,67.7,67.7,0,0,0-.9-8.5c-1.26-8.5-2.45-16.52,5.65-23.23,2.75.38,5.58.52,8.32.66,6.81.34,13.85.69,20,4.88l-.18,2.46a11,11,0,0,1-1.93-1.89c-1.11-1.28-2.27-2.61-3.78-2.61-1.34,0-2.63,1-4.05,3.23-.58,1.29-2.74,2.26-4.83,3.19-2.67,1.19-5.42,2.42-5.51,4.5-.08,1.89,2.1,4,6.86,6.66.57,2.37.53,4-.15,4.87-.52.67-1.46,1-3.06,1-.61,0-1.24,0-1.88-.08s-1.32-.08-2-.08c-1.64,0-3.61.25-4.38,2.2l0,.12v.13c.48,3.59,3.11,5.33,5.44,6.85C591.31,1473.62,591.92,1474,592.46,1474.44Z" transform="translate(-11.53 -5.72)"/><path d="M582,1437.67c2.71.37,5.47.51,8.15.64,4.77.24,9.37.47,13.7,1.86-1.39.17-2.7,1.28-4.09,3.44l0,.07,0,.07c-.46,1-2.63,2-4.54,2.86-2.8,1.25-5.7,2.55-5.8,4.94-.09,2.1,2,4.27,6.92,7,.48,2.07.45,3.53-.1,4.24-.42.53-1.24.77-2.67.77-.59,0-1.2,0-1.85-.08s-1.33-.08-2-.08h0c-1,0-3.84,0-4.83,2.51l-.1.24,0,.26c.47,3.56,2.88,5.37,5.16,6.89-.51-.09-1-.15-1.52-.22a19.17,19.17,0,0,1-10.81-4.46,70.67,70.67,0,0,0-.89-8.33c-1.23-8.29-2.4-16.12,5.3-22.63m25,3.76a23.12,23.12,0,0,1,2.61,1.51l-.09,1.21c-.37-.36-.75-.79-1.12-1.22s-.9-1-1.4-1.5m-25.29-4.81c-11.43,9.31-5.23,21.38-5.1,32.5,8.82,7,12.5,3.39,18.12,7-2.05-3.49-8.24-4.26-9-9.82.61-1.56,2.14-1.88,3.91-1.88,1.24,0,2.59.16,3.83.16,2.89,0,5.12-.87,3.64-6.67-16.26-9,1.53-9.36,3.47-13.74,1.43-2.22,2.6-3,3.63-3,2.34,0,3.95,4,6.15,4.77.09-1.16.17-2.32.26-3.48-8.79-6.2-19.19-4.4-28.94-5.82Z" transform="translate(-11.53 -5.72)"/><path class="l" d="M666.9,1441.92l4.71,3.11c4.37,4.18,4.38,8.36,0,12.53l-4.57,3.12c-7.25.92-15.73,4.72-17.87-7C647.27,1443.33,652.54,1439.91,666.9,1441.92Z" transform="translate(-11.53 -5.72)"/><path class="d" d="M682.35,1464.23c-4.39,0-7.93-2.35-10.26-6.79l0-12.3c1.95-4.3,5.2-6.3,10.22-6.3a24.48,24.48,0,0,1,2.61.16l9.28,4.24a33.43,33.43,0,0,0-.11,6.26c.24,5.5.46,10.71-5.8,13.4A15.17,15.17,0,0,1,682.35,1464.23Z" transform="translate(-11.53 -5.72)"/><path d="M682.33,1438.34v1a22.07,22.07,0,0,1,2.48.15c3,1.35,5.91,2.69,8.86,4a36.13,36.13,0,0,0-.06,6c.24,5.56.45,10.36-5.5,12.92a14.49,14.49,0,0,1-5.76,1.29c-4.15,0-7.52-2.22-9.76-6.41l0-12.07c1.86-4,5-5.91,9.72-5.91v-1m0,0c-4.65,0-8.49,1.69-10.72,6.69q0,6.27,0,12.53c2.58,5,6.48,7.17,10.76,7.17a15.61,15.61,0,0,0,6.15-1.37c9.25-4,5-13.29,6.27-20.42-3.22-1.48-6.46-3-9.69-4.42a23.79,23.79,0,0,0-2.75-.18Z" transform="translate(-11.53 -5.72)"/><path class="m" d="M597.83,1460.6c-4,2.39-15.51,15.51-18.62,6.2-1.35-4-1.62-20.59.47-24.37,4.17-7.55,19.5-2.38,24.35-3.54C604.15,1443.79,603.22,1457.09,597.83,1460.6Z" transform="translate(-11.53 -5.72)"/><path class="d" d="M657.29,1464.18c-3.77,0-7.19-2.29-10.17-6.82,0-9.42.9-14.43,3.19-16.73a5.92,5.92,0,0,1,4.45-1.63c2.67,0,6.22,1,11.47,3.18-.74,1.5-1.48,2.26-2.21,2.26s-1.64-.76-2.56-1.56c-1.12-1-2.29-2-3.67-2a2.88,2.88,0,0,0-.71.09c-7.33,2-7.1,7.07-6.87,12l0,.46c.24,5.33,3,7.81,8.55,7.81.42,0,.86,0,1.31,0,.93,0,1.74-1,2.6-2.08.67-.81,1.5-1.82,2.07-1.82.27,0,1,.32,1.69,3.14C663.16,1462.94,660.08,1464.18,657.29,1464.18Z" transform="translate(-11.53 -5.72)"/><path d="M654.76,1438.5v1c2.48,0,5.92.94,10.77,2.93-.54,1-1.06,1.51-1.51,1.51s-1.42-.73-2.23-1.43c-1.14-1-2.43-2.12-4-2.12a3.32,3.32,0,0,0-.83.11c-7.73,2.06-7.47,7.62-7.25,12.53l0,.46c.25,5.65,3.13,8.29,9,8.29.42,0,.87,0,1.34,0,1.15-.07,2-1.13,3-2.26.43-.53,1.33-1.62,1.67-1.64,0,0,.51.21,1.13,2.44-3.11,2.26-6,3.4-8.6,3.4-3.61,0-6.77-2.12-9.67-6.47,0-9.18.87-14,3-16.23a5.42,5.42,0,0,1,4.1-1.48v-1m0,0c-6.42,0-8.23,5.65-8.14,19,3.17,4.87,6.74,7.17,10.67,7.17,3,0,6.29-1.38,9.73-4-.7-2.88-1.46-3.84-2.25-3.84-1.57,0-3.23,3.82-4.7,3.9-.44,0-.87,0-1.28,0-4.93,0-7.81-1.86-8.06-7.33-.23-5.17-.68-10.08,6.48-12a2.36,2.36,0,0,1,.58-.07c2.31,0,4.23,3.55,6.23,3.55.93,0,1.87-.77,2.88-3-5.21-2.21-9.17-3.42-12.14-3.42Z" transform="translate(-11.53 -5.72)"/><path class="d" d="M618.07,1464.06a30.18,30.18,0,0,1-8.49-1.57,4.79,4.79,0,0,1,3.86-1.6,18.47,18.47,0,0,1,2.56.24,17.34,17.34,0,0,0,2.4.23h0a3.94,3.94,0,0,0,4.13-3.08,2.88,2.88,0,0,0,0-2.32c-.55-1-1.83-1.39-3.07-1.73-1.91-.54-3.09-1-2.86-2.65a10.72,10.72,0,0,1,3.5-.63c2.88,0,5.47,1.38,7.9,4.23-1.67,6.14-4.72,8.88-9.89,8.88Z" transform="translate(-11.53 -5.72)"/><path d="M620.06,1451.45h0c2.66,0,5.07,1.26,7.35,3.86-1.61,5.7-4.51,8.25-9.34,8.25a27.68,27.68,0,0,1-7.51-1.31,4.49,4.49,0,0,1,2.88-.86,17.63,17.63,0,0,1,2.49.24,19.07,19.07,0,0,0,2.47.23,4.44,4.44,0,0,0,4.61-3.43,3.39,3.39,0,0,0-.08-2.71c-.65-1.21-2.1-1.62-3.38-2-1.89-.53-2.55-.85-2.53-1.79a10.27,10.27,0,0,1,3-.5m0-1a11.33,11.33,0,0,0-3.95.76c-1,5,7.52,2.08,5.95,6.91a3.44,3.44,0,0,1-3.66,2.74c-1.51,0-3.25-.47-5-.47a5.29,5.29,0,0,0-4.7,2.36,32.68,32.68,0,0,0,9.33,1.81c4.95,0,8.58-2.4,10.44-9.5-2.4-2.89-5.15-4.61-8.45-4.61Z" transform="translate(-11.53 -5.72)"/><path class="n" d="M557.47,1454.32c.33-8.36-.3-16.38,0-24.74.73.71,5.28,3.54,6.2,3.1,4.58,9.21,4,15.36-3,24.48-.57,1.26-1.15,2.53-1.73,3.79" transform="translate(-11.53 -5.72)"/><path class="o" d="M548.19,1451.29c.07-9.17,9.24-12.54,9.31-21.71,7,2.05,16.25,7.77,24.2,7-6.47,10.08,2.42,22.58-5.1,32.5C571.31,1465.13,553.48,1455.28,548.19,1451.29Z" transform="translate(-11.53 -5.72)"/><path class="p" d="M613.68,526.67c.45,11.86-3.11,22.4-15.51,22.63-7,.13-11.75-8.66-11.78-17.23,0-10.38,2.8-21.44,13.31-22.71C605.1,508.71,613.19,517.58,613.68,526.67Z" transform="translate(-11.53 -5.72)"/><path class="q" d="M706.92,383.47c-.76,14.41-9,24.59-19.07,21.43-9.88-3.1-8-15.31-7.5-22.19.8-11.59,14-9.34,21.75-10.6C712.26,370.44,704.8,380.07,706.92,383.47Z" transform="translate(-11.53 -5.72)"/><path class="r" d="M763.7,445.33c6.82-.28,12.93-3.47,13.7,7.31,1,14.5-10.76,17-18.44,17.6-8.92.65-8.38-11.58-9.17-17.89C748.11,439,760.65,449.86,763.7,445.33Z" transform="translate(-11.53 -5.72)"/><path class="s" d="M817.38,515c1.76,7.91-2.86,10.45-10.12,11.19-9.71,1-7.13-6.63-8.22-11.45-2.08-9.17,5.36-8,10.47-9.13C817.61,503.69,817.75,508.92,817.38,515Z" transform="translate(-11.53 -5.72)"/><path class="t" d="M681.58,1438.89c5.83,0,12.28,7.1,12.41,12.4.13,5-3.38,12-9.31,12.41s-15.26-6.43-15.34-11.85C669.25,1446.8,675.45,1439.73,681.58,1438.89Z" transform="translate(-11.53 -5.72)"/></svg>