<svg id="Layer_1" data-name="Layer 1" xmlns="http://www.w3.org/2000/svg" viewBox="0 0 1974.43 1198.09"><defs><style>.cls-1{fill:#476C9B;}.cls-2{fill:#020202;}.cls-3{fill:#CCAC89;}.cls-4{fill:#080808;}</style></defs><title>kart-changed-color</title><path class="cls-1" d="M1974.43,1196.69H1457.82c-58.75,10.74-79.25-43.51-79.25-43.51s6.58,43.51-16.75,43.51H440.74c-18,0-26.69-29.51-26.69-29.51s-13.31,29.51-30.15,29.51H0V862.18l40.57-19.9L0,810.3V164.84l16.17-14.31L0,124.18V33.31S39.21,31.19,75.21,0H1974.43V384c0,18.67-70.86-6.55-70.86-6.55l70.86,43.61Z"/><path d="M834.65,341.41c8.51-5.13,16.13-11.47,23.83-17.69,2.12-1.72,4.5-1.17,6.84-1.29,6.1-.31,8-2.82,6.41-8.68-.94-3.52-1.45-7.05.29-10.42s4.29-5.63,8.12-5.5c4.67.16,2.13,3.95,2.39,6,.28,2.36,1.43,3.2,3.18,2.43s5.06-.94,4.1-4.54c-1.6-6-7-8.85-12.6-6.56-10.66,4.36-17.6.36-19.24-11.07-2-13.85-1.34-13.28,11.78-18.68a55.9,55.9,0,0,0,23.45-18.24c6.32-8.34,13.08-17.07,25.34-19.58,8.71-1.78,16.71-6.84,26.2-6.9,13.14-.08,25.55,1.55,37.78,7.29,7.8,3.66,17.51,2.12,25.79,5.82,3,1.32,6.25,1.85,9.27,3a7,7,0,0,1,4.64,5.79c.24,1.3-3.79,5.36.91,3.81,2.24-.74,9.37,2.5,7.79-5.27-.37-1.77-2-5.45,1.79-5.67,3.09-.18,8.23-2.08,9.17,1.1,2.35,7.91,6.29,4,9.44,1.87,6.73-4.6,14.37-7.65,21.91-5.7s14.44,0,21.62-.37c1.64-.07,3.13.06,4.67-1.24,4.83-4.09,10.23-3.74,16.07-2a102.6,102.6,0,0,0,17.67,3c-5.16-3-9.76-5.87-9.73-12.69,0-3.92,1.33-6.41,5.21-7.35,12.65-3.08,14.73-3,23.76,10.71-.59-5.43,1.34-7.14,5.7-6.42,5,.84,9.46-1.42,12.83-4.74,5.31-5.23,11.48-7.19,18.66-6.8,3.15.18,5.73.16,5.11-4.36-.51-3.74,2.87-4.09,5.23-4.26,10.3-.75,20.31-5,30.93-2.41,3.13.78,5.27-2.6,6.75-4.18a15.35,15.35,0,0,1,18.65-2.82c7.94,4.63,15.55,3.58,23.4,3.35,4.65-.14,8.9,1.38,13.34,1.9a6.74,6.74,0,0,1,6.2,5.54c.85,5.37-3.63,5.82-6.58,8.58,11-5.67,21.42,4.91,32.38.16a5.36,5.36,0,0,1,3.58,0c13.52,4.83,27.33.54,41,1.35,6.11.36,11.21,2.86,16.16,6.08,5.86,3.81,11,9.61,19.37,4.49,2.49-1.51,6.88-.39,10.53.33,5,1,11.37,3.5,13-5.38.32-1.73,3.54-2.72,6.1-2.58,16.25.86,32.62,1.08,47.55,8.86a10,10,0,0,0,6.11,1.29c10.16-1.33,20.23,2.93,30.48.12,7.35-2,12.38,5,19.21,5.94a40.84,40.84,0,0,0,12.34.14,61.51,61.51,0,0,1,17.87.33c3.4.51,8.45,5.24,12.09-1.58.85-1.59,6.9-1,10.39-.47,17.53,2.86,35.29,4.05,52.28,10.35,9.24,3.42,20,2.11,28.75,8.22,1.18.83,2.6-.48,3.92-.83,7.36-2,18.82,3.23,22,10,1.44,3,.3,5.49-3.18,5.45-4,0-7.89.71-12-1.12-6.12-2.76-13.2-2.82-19.46-6-3.14,1,2.28,8.66-5.8,5.89,6.71,2.48,11.67,6.27,17.75,7.3,2.66.45,3.08,2.7,2.85,5.06-.25,2.71-2,4-4.43,3.49-7.55-1.6-12.28,1.77-15.93,8-1.82,3.11-5.69,5.46-8.51,3.42-6.17-4.47-11,.29-16.27,1.21-2,.35-5.64.1-5.4,3.33.2,2.7,1.93,6.33,4.58,6.72,10.61,1.57,11.87,11,16.22,17.93,1,1.61,1.28,3.63.48,4.8-3.06,4.45-1.07,8.73-.23,13.12.57,3,2,7.06-2.12,7.92-3.25.69-7.71,2.35-10.37-2.12a29.72,29.72,0,0,0-10.07-9.81c-7.91-5-13.28-12.63-18.61-20.12-1.93-2.72-3.39-6.49-1.24-9.37,3.91-5.24,3.17-11.64,5.34-17.29,1.53-4-1.87-5.9-4.81-8-2.08,8.46-5.6,9.76-13,5.3-3.16-1.91-7-3.77-10.23-2.27-3.63,1.7-3.41,5.8-2.81,9.74.82,5.35-3.14,8.79-11,5.93-9.2-3.37-17.84.06-26.47-1.27-7.46-1.15-13-.12-18.11,5.63-4.6,5.12-3.17,12.07-6.52,17.5-1,1.56,10.43,7.29,13.77,6,7.72-2.93,13.8-1.31,19.2,4.79.74.84,2.41,3.65,5.36.31,1.84-2.08,8.14-2,9.89,2.41,3.3,8.24,10.62,11.53,17.19,15.9,5.34,3.54,5.9,5,3.5,11.65-.64,1.76.58,2,1.15,2.65,1.42,1.64,3.11,3,4.59,4.63,2.13,2.3,3.74,4.85,3.5,8.21-.17,2.26-1.82,1.73-3.15,1.84-3.94.32-7.76.29-9.87-3.95-2-4-3.71-8.08-5.91-11.92a62,62,0,0,0-8.28-11.32c1.87,6.63.36,13.22,1.08,19.63,1.09,9.73-3.26,17.93-6.73,26.27-1.35,3.25-6,3.46-9.66,3.05-6.27-.69-8.84,2.13-8.34,8.95.27,3.59.83,7.69-3.33,9.46-4.36,1.86-2.06,3.28,0,4.74a85.25,85.25,0,0,0,8.77,5.8,20.45,20.45,0,0,1,9.39,11.08c3,7.5,2,8.88-7.63,13.82-6.51,3.34-8.3-.23-10.2-5.18-3.12-8.13-7.07-15.53-17.07-16.79-2.6-.33-1.35-2.59-1.6-4-1-5.95-5.5-8-10.78-4.91-6.2,3.62-8.71,2.49-11-5-1-3.3-2.39-4.51-5.44-1.62-2.61,2.47-4,6.19-8.15,7.24-2,.49-.62,2.58.55,3.26,3.57,2.05,6.28,6,11.62,3.91,4.36-1.71,9,.45,13.25,1.56,3.42.89,4.47,4.13,1,7a47.66,47.66,0,0,1-4.68,3c-6.41,4.36-6.39,5.93-.56,11.24a18.91,18.91,0,0,1,3.93,5.79c1.85,3.91,3.87,7.37,8.15,9.3,5.49,2.48,3.17,11,5.51,12.15,7.25,3.62,3.23,7.84,2.39,11.93-1.37,6.63-2.74,13.29-4.66,19.78-3.47,11.72-11.6,18.43-23.47,21.19-9,2.08-18.52,2.83-24.87,11.3-2,2.71-5.26,4-6.94-1.71-1.06-3.59-4.35-5-8.73-2.84-10.72,5.25-12.36,11.77-3.79,20,6.3,6,12.74,11.48,16.11,20.06a63.66,63.66,0,0,1,4.11,17.63c.65,6.81-2.17,11.47-8.52,13.88-3.2,1.21-6.07,2.76-7,6.28-.78,2.93-3.6,4-5.51,4.84-3.12,1.34-7.55,2-6.58-4.28.55-3.59-.09-6.25-4.71-5.35a3.4,3.4,0,0,1-3.63-1.84c-4.51-8.27-13.09-12-20.33-18.45-.57,6.67-1.84,13.2-1.32,19,.61,6.76,3.58,14.78,9.41,18.65C1441,631.9,1446.71,642,1449,655.1c1.69,9.92,2.33,9.81-7.31,9.95-5.44.25-9-2.15-10.38-7.48a188.85,188.85,0,0,1-8.82-25.54c-1-4.21-4.94-7-8.67-9.08-3.37-1.93-4.69-4.5-4.22-8.19.78-6.07,1.59-12.13,2.36-18.2.15-1.14.72-2.73.2-3.36-6.54-7.87-7.12-18.05-10.75-27-.16-.4-.69-.66-2-1.88-1,1.45-2,3.11-3.25,4.61-2.43,3-5.93,2.14-8.7,1.39s-3.77-3.52-4.08-6.82c-.87-9.12-3.77-17.5-12.85-21.78-4.21-2-5.21-6-6.93-9.45-2-4-4.32-6.18-8.54-3.63-3,1.83-6.41,1.09-9.55,2.15-4.17,1.42-7.6,2.85-7,8.13.15,1.25,0,2.8-1.26,3.12-7.47,1.88-10.82,8.86-15.66,13.56-6,5.79-11.44,12.12-18,17.34-1.9,1.52-1.39,3.47-1.27,5.32.87,13.63.44,26.75-8.41,38.5-2.52,3.34-4.85,3.41-7.76,3.17s-6-1.13-7.16-4.67c-6.23-18.34-15-35.54-23.06-53.11-4.26-9.33-5.35-19.54-4.34-30.56-3.12,5.65-10.18,7.45-16.32,4.79-5-2.17-5.76-4.14-3.9-10.73.18-.68.57-1.22-.14-1.34-8.18-1.4-12.24-7.93-17.3-13.39-1.88-2-4.72-4.13-8.14-1.59-.82.61-2.36.49-3.53.34-12.16-1.54-24.48,1.26-36.6-1.4-3.62-.79-7-1.8-9.13-6.18-1.92,5.54-.57,8.42,4,10.75a63.22,63.22,0,0,1,13.42,8.9,8,8,0,0,1,.72,11.29l-.23.25c-6.51,6.2-9.56,14.59-15.14,21.22-3.32,3.93-7.11,7.26-13,7.66a13.17,13.17,0,0,0-10.18,5.71c-4.7,7.67-12.67,9.84-20.11,12.92-10.51,4.34-20.23,11.15-32.44,10.29-2.73-.2-2,2.06-1.63,3.62,1.45,5.41,8.34,9.51,14.25,7.76,8.67-2.57,18-2.69,26-7.74,3.16-2,5.3-1.37,6.36,3,1.32,5.53,1.78,10.77-.87,15.88-6.43,12.44-12.7,25-19.62,37.16-4,7.07-12.58,9.67-17.7,15.73-12.16,14.37-28.63,25.49-33.69,45.31a18.67,18.67,0,0,0,.94,12c5.21,11.27,7.68,22.66,8.6,35.11.55,7.35-.24,13.19-3.47,19.32-3,5.79-9,7.64-14.22,9.9-9.23,4-11.08,14.52-18.78,19.79-2.06,1.41.45,4.08,1.26,5.82,5.57,12,3.33,19.81-8.36,25.17-6.37,2.92-9.55,6.17-6.57,13.55,1.12,2.78.45,5.81-3,8.36-6.67,5-10.64,12.69-15.93,19-7.22,8.68-15.75,14.53-25.56,19.32-2.44,1.19-5.09,1.52-6.91.73-7.46-3.24-14.31-.9-21.38,1.11-10,2.85-15.67-1.45-15.57-11.9.08-8.81-5.14-15.61-9.62-22-4.73-6.76-8.82-13.43-9.14-21.5-.64-16.39-5.93-31-14.26-45-6.7-11.21-5.93-23.28-1.39-35.3,1.22-3.23,1.83-6.73,4-9.51,4.71-6,5-12.31,1.29-18.88-.35-.62-1.26-1.32-1.13-1.75,2.91-9.55-5.21-16.33-6.28-25A19.59,19.59,0,0,0,883.66,697c-10.28-8-11.87-18-7.27-29.78,1.08-2.75,2.25-5.6,2.06-8.88-.23-3.88.07-7.13-5.59-5.18-3.11,1.08-3.56-1.39-3.19-3.8.65-4.22-1.55-6.44-5.87-5.44-5.29,1.23-9.5,2-11.81-5.12-1.91-5.84-10-8.35-16.13-6.27-5.5,1.88-10.84,4.22-16.38,5.94-6.65,2.07-13.16,4.89-20.53,1.88-4.06-1.66-8.83.08-12.48,1.67-13.92,6-24.67.45-34.42-8.53A50.52,50.52,0,0,1,739.3,616c-3.16-7.21-7.25-16-16.24-19.42a3.73,3.73,0,0,1-1.18-.63c-4.08-3.62-5.11-24.33-1.8-29.1,4.87-7,7.13-15.13,3.07-22.83-5.34-10.14-2.59-18.74,3.39-26.69a84.66,84.66,0,0,0,7.64-12.61A54.57,54.57,0,0,1,753.76,483c5.51-3.55,11.7-7.7,11.78-16.75a16.8,16.8,0,0,1,9.71-15c4.3-2.12,8.52-4.77,10.82-9.71,2.79-6,8-6.18,12.81-3,6.56,4.41,11.82,3.38,18.39-.51,10.77-6.38,22.27-10.44,35.53-7.27a26.71,26.71,0,0,0,17.42-2c12.19-5.62,18.41-.47,16.82,13a11.36,11.36,0,0,0,8.55,12.54c8.09,1.9,15.85,3.18,21.56,11.15,2.7,3.77,10.26,4.45,15.82,5.52,1.46.28,4.61-2.64,4.8-5.57.22-3.3-.59-8.18,2.43-9,4.84-1.32,10.49-2.05,15.41.53,9.16,4.8,18.67,8.44,28.95,9.94,4.29.63,8.54,1,12.79-.2a20.63,20.63,0,0,1,11.93.09c7.29,2.11,12.21-.08,13.48-6.79,1.45-7.61,4.57-15,3.69-23-.17-1.52-.41-3.62-1.59-3.58a10.62,10.62,0,0,0-5.61,2.14c-2.64,2,1.09,1,1.27,2.21.43,3-.26,5.23-2.65,6.94-2.81,2-6,3.23-9.36,2.17-1.87-.6-.77-3-1-4.59-.54-4.12,5.08-1.15,5.15-5-3.86-.29-8-.34-11.26-3.28a2.19,2.19,0,0,0-3.51.05c-2.76,2.84-6.41,1.39-9.58,1.13-2-.16-3.71-2.65-4.17,1.57-.32,2.87-3.25,1.86-4.62,1.3-1.82-.76-1.62-2.55,0-3.91.42-.36,2-.47,1.21-1-5.87-3.77-3.31-11.72-8.13-15.94-1.62-1.41-3.14-2.85-2.89-5.46.14-1.5,2.4-3.68-1.24-4.64-2.46-.65-4.83-1.55-6.5.76-2.08,2.88-5.26,2.77-8.25,3.45,2,6.71,7.45,12.44,1.9,20-1.62,2.23-2.64,2.81-4.6,2.61-5.39-.53-7.2-4.84-8.73-9.09-1.1-3.05,1.15-4,5.43-4.71-5.54-.81-9.51-.83-12.51-4s-3-7.19-3.25-11.28c-.37-6.27-6.29-12.25-12.54-12.92-2.76-.29-5.59-1-6.85-3.09-3.57-6-12.09-5.39-15.11-11.88-.59-1.26-1.43-.56-2.16.12-1.42,1.32-1.15,2.53.2,3.61,8.72,7,15,17,25.93,21.31,2.16.86,4.17,2.11,6.35,2.94,2,.75,1.2,2.31,1.35,3.59.25,2.16-1.29,2.43-2.76,2.16-5.51-1-6.57,1.74-6,6.43.47,3.7-1.6,6.39-5,6.49-3.64.11-3.26,1.95-3.79,4.44-.86,4-3.21,6.33-7.59,3.32-1.13-.78-2.61-1.06-3.78-1.79-2.41-1.51-7.11-1.79-5.59-5.92,1.08-2.92,4.94-3,8.08-2.77a7.18,7.18,0,0,0,2.17,0c2.3-.59,5,4.06,6.66,0,1.3-3.14-.32-6.4-2.45-9.2-3-3.93-7.25-6-11.44-8.2-7.39-3.91-14.75-7.65-18-16.36-1.12-3-3.18-5.34-7.56-1.76a23.54,23.54,0,0,1-20.77,4.67c-2.89-.7-5.69.78-5.69,2.23,0,9.13-8.65,9.93-13.34,14.42-3.53,3.38-6.38,7.12-7.5,11.76-2.1,8.69-7.92,13.86-16.68,14-3.79.07-7.42-.08-11,2.05s-7.37,1.13-10.84-.86a20.59,20.59,0,0,1-4.71-3.06c-2.62-2.7-7.93,1.29-8.78-2.5a34.15,34.15,0,0,1,0-15.83,65.91,65.91,0,0,0,2.59-20.33c-.22-5.13,2.15-7.31,7.31-7.45,6.5-.17,12.77,1,19,2.44,8.37,1.9,13.69.37,15.33-5.77,2.1-7.89,1.36-16-7-18.4-1.33-.37-2.57-1.08-3.91-1.4-3.63-.87-3.12-3.69-3.11-6.3,0-3.91,3-1.93,4.76-2.41,9.63-2.66,20.46-2.5,27.27-11.71Z"/><path d="M168.3,299.5c.25-2-1.56-3.44-2.76-3.83-9.9-3.18-17.62-10.44-28.25-13s-19.65-.37-29.13,2.45c-1.62.48-3.32,1.46-4.78.91-7.39-2.8-12.94,1.17-18.53,4.82-2.18,1.43-7.11,1.62-3.54,6.5.56.75.71,3.2-1.53,3.19-3.92,0-7.11,2.35-10.8,3a7.89,7.89,0,0,1-2.17,0c-10.73-1.2-12.81-1-24.71,4.45a29.68,29.68,0,0,1-15.1,2.8c-1.27-.1-3,.75-3.55-1.34s.82-2.77,2.49-3.51c8.67-3.86,17.93-6.46,26.31-12.18-3.08-.3-6-.45-8.06-2.29-2.52-2.27-4-5.15.43-7.1,4.71-2,7.21-5.09,6.36-10.51-1-6.15,6.73-8.17,15.84-9.44,5.94-.84,12.07-.79,17.68-5.14-4.54-.81-8.33-1.65-12.15-2.12-2.61-.32-3.73-1.45-4.06-4.06s1.33-3.15,3-4c7-3.61,14.51-4,22.14-3.47,5.75.43,6.9-.67,5.48-5.7-1.64-5.78,2.29-8.6,6.56-8.46,12.48.38,22.67-7.22,34.5-8.81,18.31-2.47,36.32-3.58,54.89.05,14,2.74,28.08,5.19,42.09,8.09,9.2,1.91,17.87-3.57,26.94-4.46,8.64-.84,17-4.27,26.25-.26,6.47,2.81,14.53,0,21.92,1.81,5.43,1.37,10.09,5.35,16.08,4.64.4,0,1.23.39,1.22.57-.61,11.36,6.29,3.1,9.72,3.67a13.36,13.36,0,0,0,5.79-.53c-5.69-.27-10.55-2.62-15.37-5.2-1.92-1-3.19-2.22-2.67-4.42.58-2.49,2.76-1.3,4.2-1.36,4.06-.17,8.14-.06,12.24-1.51-2.65,0-5.34.31-7.92-.1-1.94-.31-5.32,2.11-5.66-2.07s3.93-.88,5.07-2.9c-5.39-2.61-10.14-.41-14.73,2.06a14.77,14.77,0,0,1-9,1.48,5.53,5.53,0,0,1-4.52-4.13c-.53-1.72-.8-4.15,1.37-5.19,10.63-5,20-14,32.93-12.25,7,.93,14.4,1.26,20.08,7a8.81,8.81,0,0,0,11.52,1.45c1-.59,2.88-1.49,3.11-1.21,4.7,5.62,9.26.12,13.77-.22,6.69-.51,6.81,3,4.8,7.3-1.52,3.27-2.51,5.13,1.62,7.38s2.75,5.12-.84,7.23a35.15,35.15,0,0,1-19.74,4.7c5.22,2.41,10.49,4.63,16.24,2.49,5.56-2.06,10.59,3.83,16.22,1.28-3.38-1.3-7.83-1-6.81-6.33.83-4.35,4.47-5,8.23-5.06,1.45,0,2.91.11,4.35,0,2.06-.18,5.66,2.41,5-3-.11-.95,3-2.28,5.56-4.1-6.19.65-11-.85-15-4.5-1.29-1.15-2.65-2-2.41-4,.32-2.77,2.63-1.95,3.9-1.67,6.25,1.37,9.84-5.26,15.87-4.93,3.43.19,7.57-4.29,9.57,2.36.44,1.48,1.95-.28,2.8-.58A51.54,51.54,0,0,1,453,203.36c5.85-.32,8.14,1.77,7.11,7.5l.22-.22c-5.93,2.19-12.44,1.42-18.41,4.2-2.92,1.37-8.17,1.8-7.36-5l-3.27,6.68c7.89-1.36,10.48,1.58,7.86,8.74-1.16,3.18.64,3.93,3.42,4.37,6.69,1.07,6.75,1.31,5,8.46a8.74,8.74,0,0,0,7-3.8c4.38-7,11.1-6.25,17.86-6.23,6.38,0,5.91,4.45,4.74,8-2.39,7.16-11,12.17-18.91,12.5-5,.21-10.43-1.75-15.71,2.74,4.65-.4,8.12,1.12,11.71,2.17,5.42,1.6,5.36,6.12,4.1,9.83-1.54,4.54-5.33,2.74-8.39,1.13-2.63-1.38-4.95-1.27-8-.58-3.77.85-10.12,3.85-9.81-4.53-6.95.76-13.18,4.29-20.24,3.73a3.35,3.35,0,0,0-2.61.78c-6.64,10.14-19.93,9.51-28,17.45-3.12,3.06-9.08,4.88-7.84,9.75,1.38,5.42,4.45,11.28,11.93,11.14,4.32-.08,7.73,2.44,10.83,4.58a29.1,29.1,0,0,0,12.14,5c6.29.94,6.4,3.53,4.21,8.53-1,2.3-1.78,4.76-2.82,7.12-1.37,3.12.86,5.53,2.73,7.44,2.12,2.15,4-.75,5.48-1.61,4-2.3,4.71-7,5.7-11a11.28,11.28,0,0,1,7.39-8.55c2.8-1.13,5.24-3.24,8.09-4.14,4.93-1.56,9.1-7.21,8.64-9.41-2.58-12.24,9.62-16.46,12.34-25.48.6-2,2.17-3.12,3.7-4.21,5.68-4.06,28.07-1,32.92,6.58a10,10,0,0,1,.83,8.92c-1.17,3,.38,4,1.83,5.29,1.73,1.51,3.34.4,5.17-.57,3.58-1.91,6.54-4.53,9.74-6.92,5.42-4.07,9-2.05,9.74,4.64.92,8.83,1.16,17.76,5.56,26,1.35,2.54,2.35,3.87,5.08,3.71,4-.24,8.22-.38,9.48,4.35,1.31,4.94-1.48,8.76-5.15,11.76-1.59,1.3-3.59,2.11-6.17,3.58,2.5.62,5.57,1.39,4.11,4.31-2.34,4.73-.36,6,4,7,4,.95,6.19,4.11,6.27,8.38.09,4.94-4,3.56-6.68,4.44-9.25,3-18.39.22-27.57-.3-1.54-.09-2.05-.81-2-2.24,0-1.67.61-2.58,2-3.94,4.26-4.36,9.75-7.72,13.13-13.88-10.14,1.14-19.24,6.25-28.47,3.77-6.87-1.85-12.36.82-18.43,1.81-1.3.21-2.19.92-2.48,2.87a22.27,22.27,0,0,1,4,0c2.34.47,5.68-1.59,6.87,1.58,1,2.81-1,5.32-2.6,7.72-1.35,2-5.56,2.85-3,6.59,2.31,3.4,5.38,5.32,9.7,4.51a3.46,3.46,0,0,1,1.43-.09c2.53.71,6.48-1.9,7.47,1.65s-2.79,5.44-5.59,6.24a105,105,0,0,0-21.94,8.89c-2.24,1.22-5.2,1.53-7.43-.57s-.81-4.7.09-7.95c-7.92,3.71-15.16,7.21-22.5,10.46-1.67.74-3.09,1.38-3.29,3.28-.75,6.76-6.07,8.43-11.28,9.83-6,1.6-11,3.57-15.26,8.93-3.4,4.3-11.33,5-13.45,10.6-1.63,4.25-3.13,4.23-7,2.45,3.08,14.66-4.18,22.1-16.05,27.55-6.71,3.07-12.65,8-18.54,12.59-9.3,7.28-6.48,17.14-4.75,26.53.84,4.54,1.34,8.91-.82,13.16-1.13,2.22-1.8,4.71-5.41,4.33a6.55,6.55,0,0,1-6.17-4.94c-1.7-5.14-3.44-10.21-3-15.82.51-6.41-2.51-10.28-9.21-9.72-4.63.38-8.14-2.27-12-3.66-4.46-1.61-8.4-.53-10.05,2.58-4.87,9.14-12.5,5.64-17.66,2.94-6.94-3.63-11.44-1.73-16.77,2a45,45,0,0,1-11,6.05A12.67,12.67,0,0,0,253,498c-1.27,6.75-3.84,12.95-6.11,19.29-3.1,8.7-.64,16.48,3.39,24.14,3.29,6.26,8.07,10.06,15.41,8.85,7.51-1.23,13.71-4.87,17.06-12,3-6.34,15.4-11.31,21.44-7.86,3.66,2.09,2.63,5.47,1.14,8.79-3.32,7.44-6.37,15-9.58,22.48-.67,1.56-2.48,3-1.31,4.77,1.65,2.48,4.94,1.93,6.61,1.06,4.25-2.22,8.57-1.24,12.73-1,7.57.34,10.21,3.86,8.49,11.15a117.65,117.65,0,0,0-2.94,19.57c-.56,8.49,8.56,16.55,16.34,14,6.5-2.09,12.77-2.69,18.82,1.51,5.19,3.61,6.87-1.58,8.37-4.35,3-5.54,5.64-10.61,13.24-10.37,1.59,0,3.33-2.46,4.88-3.92,5.11-4.83,8.71-4.57,12.54,1.21,1.3,2,1.77.09,2.51-.26,5-2.3,10-2.16,13.83,1.66,5.85,5.89,13.15,6.62,20.65,7.38,3.75.38,7.66-1.14,11.26,1,1.28.77,3,0,3-.92.05-5.73,10.25.08,8.37-7.51l-.2.21c1.95.38,4.67-1.49,5.73,1.22s-1,3.2-3.22,3.12c-.12,3.33-4.72,7.23-.25,9.83,6.54,3.8,10.15,10.07,15,15.26a20.76,20.76,0,0,0,16.44,6.85c16.23-.29,23,5.06,27.65,21.08,1.42,4.88,6.46,8.93,2.85,15-.95,1.61,1.86,1.32,3.11,1.5,2,.3,5.23-1,5.85,1.5,1.78,7.24,7,4.14,11.18,4.3,8,.32,14.16,5.4,14.89,12.2,10.9-2,21.35,1.72,32,2.65.69.06,1.09,1.92,1.86,2.71,4.45,4.61,9.1,8.62,15.71,10.31,8.39,2.15,12.69,9.22,10.76,17.86-1.28,5.75-2.27,11.64-7.16,16.37-6.39,6.18-8.88,15.47-15.61,21.68a5.77,5.77,0,0,0-1.67,5.21c3.65,18.55-1.66,35.69-8.73,52.46-2.13,5.06-5.55,8.11-11.92,8.26-11.08.27-19.52,6.82-27.5,13.83-1.53,1.35-1.47,2.82-.87,4.52,2.56,7.29.77,14.14-3.55,19.89-3,4-1.4,8.82-3.72,12.59-3.55,5.77-7.38,11.37-11.11,17-6.26,9.53-10.91,11.17-21.51,7.59-1.41,3.92,2.47,6,3.6,8.91,4.12,10.74-3.58,16.86-12.25,18.46a25.48,25.48,0,0,1-5.79,0c-3.62-.16-5.17.31-4.35,5,1.62,9.31-2.35,12.16-12.46,10-.11.44-.4.94-.28,1.32,1.31,4.23,11.07,4.52,6.06,11.31-3.06,4.15.24,10.25-5.44,13.36-2.25,1.23-1.69,3.91.59,6.24,9.27,9.43,9.6,11.21,3.85,22.17-2.19,4.17-1.27,7.17-.14,11.58,1.25,4.9,3.38,6.06,7,7.33,7.78,2.71,13.29,9.56,21.3,11.85,1.66.48,1.47,1.62,1.4,2.78-.1,1.75-1.48,1.52-2.63,1.57-9.07.39-18.19,3.11-27.12-1.34-2.31-1.14-5.26-2.62-4.78-4.56,2.05-8.3-4.94-7.86-8.7-8.29-12.89-1.5-18-11.63-23.13-20.77-3.59-6.38-4.47-14-11.83-18.25-3.13-1.81-2.66-5.78.91-7.56,2.29-1.14,4.31-2.75,3.17-4.69-3.41-5.81-2.44-13.56-7.57-18.28-5.61-5.16-6.56-11.65-8.83-18.43-3.9-11.63-.23-22.53-.91-33.69s-4.31-22.2-5-33.55c-.11-1.75-.57-3.7-.79-5.58-.95-8,1.91-16-1.22-24.2-2.17-5.65,1.79-11.58,1.69-17.65-.29-17.75-11.27-28.26-25.26-35.38-9.74-5-17.13-10.73-20-21.31-1-3.61-4-5.37-6.12-7.76-6.78-7.62-7.92-17.82-12.83-26.26-1.68-2.89-3.25-5.71-5.73-8-8.65-8-9.82-15-3.51-24.22,1.73-2.54,1.94-2.87-.69-5.09-3.57-3-2-7.66-.48-11.82,3.56-9.46,10.42-16.67,16.34-24.5,5.43-7.17,5.74-14.74,2.57-22.69-1.13-2.82-3.43-5.29-2.76-8.57.63-3.06-1.35-5-3.42-5-1.88,0-5.38,1-5.16,3.85.35,4.55-2.19,4.84-5.22,4.24-12.05-2.39-23.16-8.17-29.82-17.8-3.13-4.52-7.34-10-8.6-16.22-.55-2.65-1.86-3.64-4.35-3.67-11.41-.17-20.9-4-27.73-13.72-3-4.3-7.3-6.71-12.83-3.68-7.13,3.9-13.13,0-19.27-2.89-11.78-5.63-24.39-9.67-34.19-19-3-2.87-4.52-6.24-3.14-9.57,4.29-10.29-2-17.11-7.28-24.17-8.91-12-16.16-24.72-19-39.59-.26-1.38.21-2.89-1.24-3.93-1.26-.91-1.93-3.16-4-2.14a3.59,3.59,0,0,0-2,4.26,38.65,38.65,0,0,0,2.41,7.26c3.2,6.5,6.73,12.86,7.11,20.32.29,5.82,3,10.71,5.66,15.66.94,1.78,1.57,4,.12,5.28-1.64,1.43-5,1.38-6.07.13-3.33-3.74-8.37-6.93-7.7-12.84a8.57,8.57,0,0,0-4.53-9c-4.57-2.46-5.09-6.45-4.06-10.17a9.64,9.64,0,0,0-1.5-9c-3.34-4.77-3.67-10.25-3-15.72.74-6.05-1.32-10.33-6.86-12.78-4.41-1.94-6.22-5.18-6.36-10-.18-6.12-2.45-11.92-3.31-18-1.32-9.31,1.17-16.41,5.51-24.94,6.37-12.5,18-21.2,22.56-34.47,2.22-6.39,6.58-8.11,12.53-6.31,1.47.44,2,.41,3.28-1.4-4.58-.86-9.25.13-13.07-3.18a11,11,0,0,1-4.2-9.16c0-3.73,2.51-4.13,5.43-4.1,1.53,0,1.9-.79,1.55-2.32-1.78-7.8.39-15.26,2.14-22.74l-.24.23c3.9-2.39,1.61-6.12.9-8.55"/><path d="M1606.51,898.73c-2.77,0-3.52,1.84-4.69,2.93-2.82,2.61-4.18,1.63-5.79-1.45-2.14-4.09-3.94-8.23-7.37-11.82-7-7.28-15.33-5-23-3.91s-15.85,2.41-22.49,7c-6.17,4.3-13.45,5.1-20.1,5.26-8.92.22-16.17,4.64-24.3,6.59-4.09,1-7.51,1.45-11.56-.1-8-3-8.62-5.83-2.93-12,4.71-5.14,5.79-11.44,4.56-18.41-2.79-15.72.84-31.32,1.58-47,.55-11.48,11.71-11.81,18.88-15.2,6.71-3.17,13.77-6.32,22-6.79,6.36-.36,11.59-5.65,14.91-11.91,2.06-3.87,3.09-9.59,9.8-8,1.18-4.88,6.65-5.89,8.87-9.9,2.76-5,7-7.84,12.57-9.45,4.86-1.38,8.56-1.46,12.13,2.61,2.67,3,4.87,4.62,6.08-1.78,1-5.21,4.48-9.77,10.92-10.61a16.06,16.06,0,0,0,6.35-2.84c8.89-5.82,17.28-1.94,25.39,1.6,3.89,1.7,2.33,5.23.37,8.11-6.85,10.06-5.58,9.57,2.69,15.38.78.55,1.28,1.7,2.1,2,5.2,1.56,9.43,10,14,6.54,5.62-4.29,11.62-10.43,10.56-19.64-.65-5.65,2-10.89,4-16.14.94-2.39,2-3.59,4.58-3.56s3.86,1.09,4.35,3.72c1.19,6.37,4.88,11.24,8.59,16.53a27.89,27.89,0,0,1,3.74,23c-.77,2.93-.57,4.61,1.42,6.1,6.17,4.64,9,11.53,11.92,18.15s6,13,11.29,18.42a13,13,0,0,1,3.75,10.24c-1.3,18.07-5,35.29-19.77,47.35-12.21,10-22.64,21.49-32.49,33.63-1.73,2.13-3.55,1.63-5,1.3-6.43-1.49-11.18,1.25-15.54,5.37-1.24,1.17-2.7,2.88-4.29,1.93-8.32-5-18.48-1.38-26.81-6-4.38-2.41-7.06-6.19-4.49-10.81,2-3.6-1.57-5.81-.7-8.8.25-.86-.06-1.5-1.54-1C1604.13,907.63,1605,903.5,1606.51,898.73Z"/><path d="M733,211.2c3,1.61,5,2.81,7.11,3.77,2.79,1.27,5,2.94,4.61,6.38s-3.37,3.27-5.77,3.82c-.69.15-2,0-2,.22-3.48,11.94-15.12,5.52-22.16,9.7-4.57,2.72-10.54,2.09-16,1.41-5.2-.63-9.79,2.6-12.92,5.43A34,34,0,0,1,665,251c-14.22.89-22.53,8.9-29.45,20-4,6.49-8.18,13.72-17.73,12.19-13.33-2.13-26.35-9.46-21.41-26.66a6.41,6.41,0,0,0-.13-3.42c-2.06-8.72,0-13.53,7.87-17.71a28.69,28.69,0,0,0,7.9-5.93c3.74-4.06,3.09-8-1.2-10.9-2.34-1.56-3.74-2.68-4.12-5.81-1.47-12.27-12.7-20-24.89-18.21a38.67,38.67,0,0,1-17-1.32c-4-1.23-2.81-4.46-3-7.18-.17-2.54.16-3.68,3.42-4.73,5.21-1.67,10.4-1,15.53-1.66,10.94-1.47,19.8-8,30-11s20.41-4.3,30.87-2.27c10.76,2.08,21.4.88,32.18,0,15.84-1.34,31.18-7.9,47.64-4,4.11,1,9.08-2.49,13.63-2.4,12.93.25,26,.69,37.74,7.22,5,2.77,9.58-1.87,14.37-.13,1.76.64,4.85-1.49,5.22,1.82a4.63,4.63,0,0,1-4,5.2,4.47,4.47,0,0,1-.73,0c-4.18-.22-7.86,1.65-11.94,1.78a11.29,11.29,0,0,0-10.49,9.17c-2.5,12.58-11.19,18.86-21.53,23.76C740.8,210.34,737.07,210.38,733,211.2Z"/><path d="M513.07,194.37c-1.67-1.09-2.66-2.49-5.67-1.72-4.59,1.16-9.85,1.82-14.71-.67-1.88-1-3.5-1.72-3.35-4,.22-3.32,2.86-1.72,4.44-1.9,4.29-.49,8.6,2.4,12.94,0a7.63,7.63,0,0,1,2-.45c-4.93-9,11.67-3.36,8.44-11.91-.13-.33,7.94-1.56,11.45-.38,5.13,1.72,9.92.47,14.88.45-6.93.06-13.53-2.51-20.46-2.26-1.7.06-3.51.25-3.28-2.44.18-2.19,1.75-1.8,3.13-1.9,19-1.4,37.78-4.74,56.94-4.53,8.45.09,16.91-1.86,25.39-2.64,1.5-.13,4.18-1.37,4.46,1.83.2,2.25-1.32,3.07-3.25,4-13.52,6.58-27.4,11.83-42.58,13-2.29.18-5,.35-6.7,1.66-9.36,7.41-21.74,8-31.67,14.44-3.71,2.41-8.41,3.21-11.85,7-2.73,3-7.06,3.46-11.29,3.06-11.6-1.07-23.21-2-34.81-2.95-1.09-.09-2.74.41-2.81-1.32-.09-2.3-.74-4.6,1.34-6.75,3.85-4,9.45-5.31,13.13-3.13C490.15,197.21,501.71,193.43,513.07,194.37Z"/><path d="M460.2,210.78c5.4-3.31,11.29-7.45,17.47-5.6,6.56,2,12.77.88,19.14,1.22,1.78.09,4.08.66,5.16,1.89,3.83,4.33,7.94,6.13,13.67,4,1.45-.54,4.29-1.21,5.28.74,3.38,6.7,9.34,8.77,16.06,9.93,2.89.49,3.52,2.68,3.13,5.34-.75,5,1.77,8.35,6.21,10,6,2.14,7,6.69,4.7,11.33s-7.13,6.18-12.34,4c-2.72-1.14-5.33-2.56-8.25-4-1.13,4.2,1.82,7.3,1.06,11s-.57,7.32-5.86,6.83c-.84-.08-2.48.43-2.49.7-.2,8.61-6.74,4.65-10.49,4.88-6.13.37-11.43-3.14-14.59-7.83-4.23-6.28-8.2-9.66-15.69-5.3-1.45.85-3.8.34-5.71.18-2.27-.19-3.27-1.64-3.36-3.91-.06-1.86.33-2.91,2.36-3.69a11.77,11.77,0,0,1,4-1c7.45-.13,15,1.68,21.11-5.55,4-4.72,10.28.08,17.53-.41-6.63-2.27-9-6.41-11.38-10.6-4.14-7.38-7.81-9-15.77-6.85a7.79,7.79,0,0,1-3.59.15c-8.71-2-17.51-1.64-26.35-1.57-2.54,0-6-.91-6.64-4.27-.6-3.21-.43-6.64,3-8.63a5.79,5.79,0,0,0,2.85-3Z"/><path d="M1581.91,457.8c.12,1.92.26,3.83.37,5.75.14,2.55-.08,4.75-3.25,5.5s-4.46-1.45-5.13-3.51c-.83-2.53-2.66-4-4.4-5.53-1.94-1.72-2.54-5.19-1.61-5.69,4.86-2.6.66-9.1,6.2-11.94,4.32-2.21,7.42-6.1,13.2-5.44,4.36.5,17.24-10.43,19.13-14.32,1.21-2.49-.62-3.71-1.25-5.12-1.8-4.06-4.71-7.65-4.06-12.53.15-1.11.24-2.75-1.5-2.61-4,.32-4.81-3.28-5.72-5.46-2.79-6.71,1.48-14-1.08-21.08-.51-1.43,3.9-1.7,5.27-.39,5.81,5.55,12.84,8.37,20.45,10.08,3.24.73,4.07,4.12,2.67,5.25-3.68,3-5.83,9.78-12.84,6.44-2-.95-4.74-2.33-5.67,1.25-1.09,4.22,2,3.54,4.71,3.9,6.34.86,12.29,8.13,12.57,15.21.17,4.51.57,8.67,2.42,13.08,3.43,8.21-1.66,14.85-10.86,15.09-4.14.1-7,.24-8.21,5.48-.91,4.06-4.07,6-7,.67-.65-1.16-2-1.93-3.24-3.1-1.21,11-1.75,11.39-11.29,9.2.11-1.44-.35-2.85-.17-4.3-.11-1-1.4.61-.59.08.08-.06.42.08.46.48A23.53,23.53,0,0,0,1581.91,457.8Z"/><path d="M1622.54,676.6c5.6-1,8.42,1.53,9.26,7.94.87,6.69,3.55,7.87,9.06,3.83,9.29-6.82,17.72-6.87,27.67-.78,9.21,5.64,20.65,6.81,29.68,13.55,7,5.18,13.32,9.12,13.87,19.85.4,7.79,7.85,14,15.41,18,3,1.59,5.61,4.1,4,7.27-1.45,2.88-4.7,1.13-7.45.51-9-2-17.44-4.34-22.1-13.51-1.13-2.24-3.52-4-5.64-5.52-3.71-2.7-7-2.21-9.41,2-1.4,2.52-1.44,6.26-5.58,6.32-5.68.08-11.64.1-16.1-3.66-3-2.53-5.68-4.07-9.52-3.6-2.33.28-4.55-.16-5.08-2.81-.41-2,.25-3.36,2.26-5.13,4.82-4.26.57-8.62-2.8-10.17-8.59-4-16.09-10.69-26.27-11-4.9-.13-4.08-4.21-3.66-7,.46-3,.22-4.77-2.93-6.05-2.58-1.06-7-1.63-5.69-5.83,1.06-3.4,4.68-4.32,8.21-4.23Z"/><path d="M1075.7,821.32a10.85,10.85,0,0,1,3-9.86c6.45-6.26,4.41-14.12,4.25-21.57-.15-7.17,2-10.67,9.68-13.8a40.25,40.25,0,0,0,19.09-17.27c1.13-2,.66-5.8,4.48-5.19,3.47.55,3.61,4,4.5,6.54,3,8.72.67,16.9-2,25.35-4.73,15-12.31,29.08-14.25,45.14-1.13,9.34-14.72,14.44-23,10-6.5-3.47-3.13-10.31-5.6-15.14C1075.29,824.56,1075.7,823.14,1075.7,821.32Z"/><path d="M1477.82,670.68c-.16-7.12.76-11,7-10,2.62.39,4.63-.16,5.44-3s3.37-3.43,5.66-4.47c3.28-1.48,6.1-3.48,7.43-7.12a8.57,8.57,0,0,1,7.08-6.07c3.85-.72,7-3.88,8.67-7.07,3.31-6.41,8.38-5.19,12.54-3,7.49,4,9.81,11,5,15.73-5.75,5.63-3.69,10.08,0,14.81,3.21,4.14,2.87,6.72-1.19,10.44-6.13,5.62-7,14.46-10.91,21.59s-6.3,8.93-13.66,5.84c-6-2.53-12.54-1.6-18.79-2.64-5.07-.85-8.46-2.74-9.81-7.54C1480.37,681.63,1478.9,675,1477.82,670.68Z"/><path d="M1550.05,695.52c-4.16,2.68-1.75,5-1.25,7.41,1.41,6.7-1.2,9.54-7.4,8.52-1.18-.19-2.71,0-2.58-1.66.66-8.4-6.9-17.16,1.46-25.3,3.24-3.16.52-7.88,1.67-11.77,2.28-7.76,7.36-11.18,14.89-8.78,4.92,1.57,9.19,1.38,13.61-1,2.4-1.28,5.49-2,7.21.16,1.45,1.84,0,4.7-1.35,6.6-3.55,4.9-8,7.24-14,4.06-2.73-1.44-5.47-3.24-8.84-1.55-1.87.93-4.4,2-3.74,4.09s3.16,4.42,5.69,2.86c2.37-1.45,4.61-1,6.91-1.07,1.4,0,3.58-1.08,4,1.63a3.54,3.54,0,0,1-2.38,4c-5,2-5.11,4.59-2.66,9.23,1.51,2.87.54,7,.68,10.65.06,1.53-.75,2.08-2.2,2-3.25-.11-6.63-1-7.64-4C1551.42,699.58,1550.08,697.9,1550.05,695.52Z"/><path d="M1431.26,657.57c3.18,2.88,6.31,5.84,10.38,7.48,4.63,9.49,10.7,17.91,17.5,26,3.59,4.28,4,10.53,1.78,16.12-2.9,7.34-11.68,6.8-18.31,1.08-9-7.76-11.69-19.11-18.45-28-8-10.43-13.42-22.73-23.9-31.36-3.32-2.73-7.12-7.91-4.75-11.6,2.71-4.24,8.46-1,12.15.69,6,2.75,12.14,5.72,15.08,12.61C1424.24,654.16,1427.48,656.41,1431.26,657.57Z"/><path d="M834.86,341.21c-8.84-.31-17.31,2.13-25.89,3.62-3.18.55-7.48,2.46-8.68-.78-1.8-4.87,4.39-3.47,6.54-5.54.53-.51,1.75-.3,3.29-.51-2.71-1.8-7.43-.15-7-4,.37-3.68,1.75-8.11,5.4-9.87,2.29-1.1,4.75-1.25,4.4-4.37s-3.43-2.36-5.4-3.35c-5.3-2.64-4.48-8.33-4.48-13,0-4,2.09-7.37,6.79-8.73s4.67,3.76,7.86,4.6c4.66,1.22,3,4.22.81,6.72-1.67,1.9,0,1.7,1.07,1.85,4.61.62,5.76,5,7.4,8,2.71,4.9,2.47,11.6,11,11.3,1.94-.07,2,5.64.19,6.43-4.17,1.77-3.15,4.87-3.49,7.79Z"/><path d="M1788.46,946.14c-.22,2.23.57,4.3-1.33,5.18-7.18,3.34-12.18,10.15-19.82,12.6a19,19,0,0,0-7.64,4.82c-7.32,7.13-15.57,12.08-26.34,11.28-1.83-.13-4.34-1.12-4.6,2.63-.21,2.93-3.18,1.91-4.56,1.38-1.94-.75-.41-2.47-.32-3.94.88-14.52,13.31-16.05,22.91-19.77,11.76-4.55,21.63-11.74,31.51-19.06,2.42-1.79,4.57-2.78,7.09-1.24S1789.08,943.75,1788.46,946.14Z"/><path d="M337.45,519.89c11.84-.56,21.38,2.27,29.9,9.15,3,2.39,7,3.48,10.71,4.9,2.5,1,3.8,2.22,3.92,5.15.15,3.77-3.07,2.59-4.53,3.16-7.29,2.81-14.52-1.79-21.89-.7-.55-4.94-4.88-6.36-8-9.09-6.18-5.38-12.71-7-20.16-3.57-2.76,1.26-6.25,2.41-7.59-.15-2-3.85,1.71-5.52,4.73-7.26C329.06,518.88,333.86,520.27,337.45,519.89Z"/><path d="M1465.61,712.89a28.78,28.78,0,0,1,7.6,1.2c6.13,1.7,12.26,4.91,19,1.82,1.51-.68,4.31-.51,5.53.49,4.81,3.91,10.66,5.56,16.12,8,2.84,1.26,3.4,3.16,3,5.66-.5,3.05-3.24,1.89-4.63,1.59-10-2.22-20.49-1.61-30.42-5-6.4-2.21-13.65.41-20.29-2.75-3.22-1.53-6.37-2.08-5.54-6.59.8-4.33,4.1-4.37,7.44-4.36Z"/><path d="M1795.42,948c-1.36-.18-3.4.65-3.89-.88s-1-4,1-5.31c3.21-2.26,3.54-5.45,3.16-8.91-.5-4.61,2.91-6.32,6.17-7.55,6.37-2.42,9.21-6.2,7-13.15-.63-2-.25-4.32-.06-6.47.14-1.6-1.18-4.13,2.2-4.19,2.71,0,4.85.52,5,3.74.09,2.4,0,4.81,0,7.22,0,4.63,3.08,6.52,6.79,7.91,1.57.59,4.13-1.32,4.75,1.62s.3,7-1.89,7.85c-9.63,3.79-15.52,12.77-24.79,17A13.22,13.22,0,0,1,1795.42,948Z"/><path d="M1552.41,594.73c-7.73.87-11.18-2.05-8.78-8.78,1.39-3.91-.91-4.81-2.53-6.27-5.95-5.37-7-11.62-3.5-18.51,1-1.89.77-3.65,1.2-5.45s-1.76-4.9,1.74-5.25c2.43-.24,5.37-1.33,7.43,1.2,3.84,4.67,6.9,9.64,4.58,16-2.21,6.07,1,11.22,7.5,11.58,3.34.18,6.2,0,6.34,4.69s-.47,6.67-5.91,4.91c-7.94-2.58-8.92-1.58-8.22,6Z"/><path d="M1768.5,728.19c1.53-2,.06-6.74,4.92-5,3.42,1.2,6.37,3.33,6.24,7.66a3.65,3.65,0,0,1-.54,1.93c-2.9,4-6.35-3.75-11,1.2-3.39,3.6-7.31-2-7.38-7.45,0-3.76-3.22-3.33-5.89-3.48-4.74-.27-9.55-9.52-6.83-13.4,1.75-2.49,4.13-1,5.1.82,2.25,4.34,5.05,6.55,10.33,7.1C1769,718.1,1768.22,723.65,1768.5,728.19Z"/><path d="M760.49,247.07c4.28-.22,7-.38,9.16,1.37,3.49,2.78,5.11,6.46.36,8.83-11,5.51-22,13.58-35,4.37-1.85-1.32-5.78,2.07-6.16-2.56-.25-3,.95-6.64,3.48-7.14,3.77-.74,6.91-3.25,10.62-3.44C749.36,248.18,755.84,248.76,760.49,247.07Z"/><path d="M394,541.73c7.11-.4,13-.31,17.77,4.08,2.54,2.34,3.69,4-.76,6.1-11,5.1-22.47,3.12-33.81,2.46-1.43-.08-4.64-.67-4-3.83.6-2.89,3.07-1.56,4.67-1.6,3.81-.09,6.73.67,7.36-5.42C385.73,539.16,391.89,543.12,394,541.73Z"/><path d="M1726.21,718.7c-1.62-.19-3.26.28-4.85-.86s-4.19-1.43-4.08-4.27,3.07-3.33,4.57-3.37c5.17-.17,7.92-3.72,11.37-6.59,3.84-3.18,2.07-5.16-1.15-6.53-3.06-1.31-6.28-3-4.29-6.34,1.34-2.24,4.86-1.34,7.68.13,4.93,2.57,10.21,4.47,9.4,11.59C1744.22,708,1732.14,718.6,1726.21,718.7Z"/><path d="M1585.18,626.42c0,6.43-7.46,12.34-13.75,11-3-.63-3-3.1-3.67-5.24-1.14-3.85-2.54-7.22-7.69-6.45-1.69.26-4.29.81-3.88-2.46.34-2.69.12-6.34,4.16-6.09,7,.44,11.94-1.88,14.69-8.55,1.23-3,2.66-2.69,4.41-.07C1582,612.41,1585.17,621.58,1585.18,626.42Z"/><path d="M794.88,312.51c2.5.43,6.38-1.89,7.62,1.15,1.16,2.83,1.18,6.68-2.07,9.19a2.67,2.67,0,0,0-.71,1.92c.09,10.18-9.13,10.11-15.06,13.14-5.2,2.65-8.47-.07-7.88-5.91.48-4.83.12-11.54,3-13.9C783.54,315.05,788.06,309.53,794.88,312.51Z"/><path d="M1564.4,605c.15,1.89.71,3.85.34,5.63-.47,2.31-.76,5.17-4.39,5.07s-4.31-2.17-4.22-5.19c.07-2.46.19-4.08-3.29-5.53-4.94-2.06-2.57-6.62-.44-10.2l-.15.16c2.53-.36,6.41,3.07,7-2.78.18-1.83,2.35-1,3.68-1.11,1-.06,1.9.28,1.91,1.56s.2,2.65-1.49,2.67c-5.22,0-2.87,4.84-3.76,7-1.18,2.9,4,.64,5.06,2.92Z"/><path class="cls-2" d="M366,494.05c1,.43,4.63-1.95,5.53,1.29.85,3,1.67,7.1-3.84,8.06-.74.13-4,2.68-3.31,6,.32,1.54,1.59,4.52-2.27,4.73a5.68,5.68,0,0,1-6-4.07c-.67-2-1.45-5.14,1.1-6.56s1.05-1.85.43-3.71C355.26,492.88,360.2,493.29,366,494.05Z"/><path d="M453.12,596.66c-4.84.87-6.16-2.3-3.71-5.08,3.45-4,3.92-9.16,7.35-13.18,2.33-2.73-.16-7-3.79-9.28-1.57-1-4.42-.66-4.33-3.76.05-1.65,1-2.26,2.25-1.91,2.68.75,6-2.11,8.18,1.93,1.82,3.33.58,7.45,3.88,10.56,1.68,1.58-2.83,3.19-2.94,3.64-1.46,6.18-7.35,10.53-7.09,17.29Z"/><path d="M1628.82,961.09c-2.75.09-5.53.2-5.88-3.59-.52-5.55,4.39-10.08,3.07-15.82a1.58,1.58,0,0,1,1.06-.8c6.62.53,13.3.79,19.82,2,1.54.28,1,4,.39,5.91C1645.45,954.08,1634.66,961.08,1628.82,961.09Z"/><path d="M1544.08,733.62c-2-7.56-1.51-8.69,5.72-7.47,3.69.62,10.39-.65,10.18,4.66-.16,4-6.42,3.48-10.36,3.84-.94.09-1.89.1-2.79.14-.45,2.58,3.31,6.44-2,7-3.07.32-6.78-.87-7.32-4.23C1536.64,732.13,1541.83,736.1,1544.08,733.62Z"/><path d="M494.75,181.42c-3.74,1.27-7-1-10.48-1.27-1.44-.09-3.56.88-3.7-2-.1-2,.06-4,2.05-5,6.57-3.34,13.51-5.48,20.93-4.46,1.84.25,4.64.68,4.71,4.1.06,2.73-.64,4.34-3.23,5.37C501.64,179.56,499,183.1,494.75,181.42Z"/><path d="M1300.61,618.8c.1-1.25-.21-3.59.59-5.47.49-1.15.38-3.51,2.81-3.5,1.93,0,3,.5,4.47,2.23,3.69,4.25,6.13,8.83,6.67,14.31.56,5.68-6.54,10.49-11.61,8.07-2.72-1.31-.52-4-1.51-5.69C1300.3,625.85,1300.82,622.76,1300.61,618.8Z"/><path d="M1792.92,797.12c2.36-.63,2.48,1.41,3.36,2.73,3.53,5.29,6.8,10.8,11.93,14.81,2.73,2.13,3,5.93,1.41,7.63-2.12,2.2-5.7,1.53-8.12-1.18-5.42-6-13.17-10.67-11.74-20.7C1790.08,798.22,1790.13,796.58,1792.92,797.12Z"/><path d="M1579,727.39c2.07.41,4.51-.76,6.68,1,1,.83,2.66.71,2.49,2.78s-1.68,1.63-3,2.06c-4.78,1.58-9.88,2.55-13.38,6.81a6.69,6.69,0,0,1-9,1.15c-2.54-1.93.28-4.71,1.73-7.19C1567.82,728.34,1572.89,727.25,1579,727.39Z"/><path d="M1787,747.7a3.43,3.43,0,0,1-4.1-2.05c-.89-2.67-2.32-3.87-5.17-3.78-3.16.09-3.87-2-3.91-4.78,0-3.32,2.35-2.45,4-2.38,2.43.11,3.6-.61,3.31-3.21-.13-1.13-.2-2.47,1.55-2.61,1.6-.13,2.5.24,3,2.08,1.16,4.18,2.94,8.19,4,12.4C1790.15,745.05,1790.93,748.08,1787,747.7Z"/><path d="M1588.18,670.42c1.33-2.88,1-6.95,1.87-10.82,1-4.68,5.21-4,7.93-3.07,3.2,1.08,2.16,4.17.29,6.11-3.08,3.18.66,6,.18,9.18-.58,3.75-2,4.83-5.52,4.84C1589.09,676.67,1587.78,674.84,1588.18,670.42Z"/><path d="M1564.63,605.19c-.28-4.21,4.08-7.61,1.83-12.34-.85-1.8,1.48-1.74,2.86-1.91,5.51-.66,7.68,3.43,9.87,7.17.56.95-.19,2.66-.33,4-8-3.59-4.62,8.15-10.5,7.77-3.51-.23-.85-4.75-3.95-4.92Z"/><path d="M1541.62,515.17c1.11,2.71-1.48,5.05-1.53,7.94,0,2.24-.61,4.73-3.36,5.39-3.12.74-4.93-1.34-6.42-3.59-3.11-4.71-1.88-13.18,2.2-17a5.57,5.57,0,0,1,6.07-.91C1541.79,508.37,1541.73,511.77,1541.62,515.17Z"/><path d="M964.74,438.55c2.6.56,5.6-.64,8.7,1.11,2,1.11,2,2.15,2.12,3.79.17,2.68-1.71,2.46-3.34,2.33-4.18-.34-8.37.68-12.6-1.19-2.37-1-4.89-1.4-4.23-4.43s3.54-1.13,5.39-1.56A19.41,19.41,0,0,1,964.74,438.55Z"/><path d="M1816,775.71c.65-1.5-1.73-5.35,2.68-4.61,2.86.48,7-4.07,8.66,2.93,1.45,6.12-2.86,10.1-3.36,15.3-.08.85-3.14,1-3.45-.43C1819.53,784.39,1815.27,781.07,1816,775.71Z"/><path d="M1541.64,604.85c-.05,5.49-5.45,12.8-10.26,13.58-1.74.28-4.43,1.1-5.28-.71a7.3,7.3,0,0,1,.18-6.08c2.25-3.52,5.37-6.47,8-9.76,1.71-2.15,4-2.94,6.29-2S1541.18,603.29,1541.64,604.85Z"/><path d="M1466.22,548.65c-.69-8.16,4.68-7.07,9.08-7,2.17.05,6.48-1.51,5.19,3.12-1.21,4.33-1.42,10.15-8.7,10C1466.65,554.67,1465.43,552.35,1466.22,548.65Z"/><path d="M879.88,409.78c-.79,3.32,1.84,8.77-4.71,8.34-6.14-.4-4.61-6.13-5.47-9.81-.93-4,.81-5.93,5.4-6.19C882.37,401.69,878.87,406.89,879.88,409.78Z"/><path d="M1529.56,726.81c2.32,2.33,8-2.55,7.49,3.66-.38,4.82-5.5,3.78-8.89,4.11-3,.29-6.94.89-6.77-4C1521.63,723.72,1527.24,729.49,1529.56,726.81Z"/><path d="M432.61,554.65c.15,2.23-.76,3.38-2,2.82-3.82-1.76-7.81-1.23-11.75-1.36-1.41,0-2.28-.64-2.13-2.09s-.92-4.18.69-4.55c3.14-.71,7.47-1.62,9.52-.08A61.3,61.3,0,0,1,432.61,554.65Z"/><path d="M1597.76,691.11c4.16,0,9.47-.26,10.2,3.6.68,3.62-4.26,3.69-7.49,3.65-3.43,0-7.44.49-8-4.37S1596.17,692,1597.76,691.11Z"/><path d="M359.54,556.1c-1.85,0-3.31.12-4.74,0-2.72-.28-3.34-2.11-3.44-4.57-.14-3.21,2-2.56,3.85-2.63a24.17,24.17,0,0,1,3.61,0c3.15.34,7.29-.31,7,4.68C365.54,558.77,361.18,554.72,359.54,556.1Z"/><path d="M834.4,419.68c-2.28-.05-2.87-2.15-2.49-2.22,4.6-.89,3.2-8.22,8.65-7.93,2,.11,4.57-.92,4.4,2.8-.12,2.46.31,5.2-3.49,4.4C838.15,416,836.11,418.18,834.4,419.68Z"/><path d="M444.21,564.76c-1.88-.9-4-2.16-4.19-4.85-.23-3.35,2.15-2.6,3.88-1.86,3.09,1.34,1.55-1.34,1.88-2.13.82-2,2.41-1,3.68-1.21,1.51-.19,2,.72,2.12,2.15C451.73,558.52,446.19,565,444.21,564.76Z"/><path d="M879.71,395.15c0,3.05,1,6-3.86,5.81-3.81-.15-3.33-2.19-3.39-4.58-.07-3.14.27-5.61,4.35-5.78C881.13,390.42,879.32,393.53,879.71,395.15Z"/><path d="M380,531.47c-1.53-.35-4.16,1-3.91-2.33.24-3.14,2.46-3.57,5.06-3.52,2,0,3.59-.17,3.69,2.76C385,532.57,382.14,531.19,380,531.47Z"/><path d="M444.31,553.41c.14,1.51-.1,3-2.54,2.68a3.44,3.44,0,0,1-3.28-3.59c0-.08,0-.16,0-.23,0-1.52-.58-3.57,2.16-3.39S444.34,550.59,444.31,553.41Z"/><path d="M458.79,557.31c.14,1.8,0,3.35-2.45,3.18-1.61-.12-3.39.31-3.36-2.31,0-2,0-3.71,2.86-3.56C457.77,554.72,459.09,555,458.79,557.31Z"/><path d="M471.85,586.68c.3,2.13-.67,2.79-2.77,2.89-2.68.12-3.05-1.16-3.06-3.39,0-2.48,1.43-2.43,3.21-2.51C471.51,583.57,472.11,584.7,471.85,586.68Z"/><path d="M907.31,437.89c.13,2.09-1.29,2.06-2.77,2.13-1.89.08-3.25-.22-3-2.61.22-2.16,1.81-1.68,3.13-1.75C906.25,435.56,907.51,435.87,907.31,437.89Z"/><path d="M380.41,518.73c.2,1.79-.49,2.7-2.35,2.56-1.54-.12-3.48.5-3.44-2.18,0-1.41.57-2.25,2-2.14S380.13,516.12,380.41,518.73Z"/><path d="M378.88,513c-.09.55.67,2.25-1.57,2.51s-2.82-.93-2.7-2.9c.09-1.43-.05-2.81,2-2.89S379.1,510.57,378.88,513Z"/><path class="cls-3" d="M1152.47,502.48c-.88,7.87,4.24,11.4,10.24,14.48,5,2.59,10.51,5,10.24,12.12,0,1,.28,2.43-.22,2.81-9,6.82-10.29,20.68-20.74,25.16-18.4,7.89-32.74,23-52.43,28.35-1,.28-2,1-3.21,1.24-14.4,2.32-16.41.57-17.63-16.84-.22-3.14-1.7-5-3.17-7.52-7-11.71-18.38-20.42-21.85-34.69-2.09-8.59-9.5-14.91-15-21.71-4.64-5.71-8-11.52-9.33-18.51-.48-2.5-2.26-3.49-3.62-5.05-1.21,1.17-2.38,2.37-3.61,3.51-8,7.32-.26,12.75,2.57,18.39C1029,512.71,1032,522,1038.94,529c.89.91.56,3.25.44,4.9-.41,5.62,2,10.06,5.62,14,3.83,4.17,7.19,8.52,8.43,14.27,2,9.14,11.31,11.67,16.63,17.86,3.6,4.18,7.68,7.44,8.79,13.56,1.18,6.52,10,14.32,19.11,11.18,7.84-2.69,16.6-2.66,24-7.17,3-1.82,4.38.31,4.41,2.33.06,4.2,1.05,8.48-1.17,12.64-6.48,12.15-12.48,24.55-19.1,36.62-3.4,6.2-10,9.54-15.2,14-13.14,11.18-23.23,25-33.82,38.28-5.15,6.47-5.49,15.49-2.08,23.16,4.83,10.87,8.08,21.68,8,33.79,0,5.31,1.63,10.29-1,15.69-2.21,4.56-5,8-9.7,9.26-12.77,3.55-16,16.88-25.24,24.09-2.46,1.92.17,4.54,1.07,6.46,5.39,11.48,3.55,17.08-7.38,23-6.08,3.31-11.22,7.4-7.56,15.72.6,1.38.61,4-.28,4.91-13.17,13.47-21.63,32-41.22,38.73-2.44.84-5,1.56-6.87.79-7.43-3.13-14.31-1-21.39,1-9.49,2.72-12.31.13-13-9.78S924.29,870,918.18,863c-5.3-6.12-5.56-12.93-6.32-19.68-1.58-13.91-4.82-27-12.43-39s-8.36-25-3.6-38.45A71.92,71.92,0,0,1,902,752.69c2.44-4.07,3.09-7.68,1-11.93-2.15-4.41-1-11-2.58-13.58-5.75-9.45-4.41-22.09-13.53-29.59-10.44-8.58-12.54-18.83-7.2-31a20.38,20.38,0,0,0,1.38-11.89c-.71-3.9-7.4-4.14-7.07-5.94,1.14-6.33-4.26-5.07-6.67-7.13-.36-.31-.9-1-1.08-.87-8.62,4.1-11.78-3.17-16.32-7.7-7.1-7.08-14.76-3.74-22.22-.84-9.77,3.8-19.13,9-30.34,5.32-3.89-1.29-7.94.88-11.72,2C767.29,645,750,634.87,742.8,616.8c-3.45-8.68-10.08-16.5-17.75-22.71-.7-.57-1.78-.75-2.37-1.4-2-2.15-1.62-23,.16-25.52,5-7.28,7-15.3,3-23.45-4.41-8.9-2.86-16.51,2.47-24.29,3.81-5.57,7-11.57,10.3-17.47,3.62-6.49,8.61-11.27,14.67-15.79,6.64-5,15-9.25,15.11-20.24a14,14,0,0,1,8.74-12.66,20.78,20.78,0,0,0,10.09-8.85c3.23-6,7.53-5.48,11.67-2.72,6.57,4.39,11.81,3.36,18.38-.54,10.77-6.39,22.28-10.38,35.54-7.24a26.34,26.34,0,0,0,17.42-2c10.57-5,15.07-1.43,13.89,9.84-.62,6,5.39,14.25,11.44,15.67,2.5.59,5.14.73,7.53,1.57,4,1.42,8.14,2,10.7,6.75,3.89,7.28,12.79,5.69,19.33,8,1.64.58,8.25-4.69,7.56-10.57-.42-3.63,1-4.34,4.4-4.41a30.76,30.76,0,0,1,15.69,3.45c12.27,6.56,25.14,10.12,39.26,6.95a19.65,19.65,0,0,1,8.56.45c8.91,2.09,15.48-.91,17.11-9.57,1.35-7.13,4.28-14,3.64-21.58-.6-7.18-4.32-9.59-10.31-5.6-5.78,3.86-10.75,1.67-15.91-.82-2-1-3.2-1.76-6-.23-7.41,4.11-17.38-1.24-18.58-9.47-.37-2.56-2-3.74-3.46-5.19s-3.3-3.33-2.36-5.59c1.49-3.55-.27-5.06-3-6.42s-5.89-2.91-8.26.46c-2.64,3.74-9.73,1.36-10.18,6.42-.32,3.51,2.78,7.22,3.86,11a6.54,6.54,0,0,1-3.42,7.94,3.16,3.16,0,0,1-4.35-1l-.08-.13c-1.7-2.61-2.85-4.69.26-7.84,3.4-3.45-1.29-5-3.25-5-7.69,0-9.49-4.11-9.49-10.88,0-7.84-7.66-16-15.38-16.77-2.29-.23-4.85-.9-5.82-2.12-4.7-6-12.54-7.91-16.87-13.68-7.66,3.92-4.72,7.38-.09,11.65,8.91,8.21,16.82,17.65,29.4,22.09-10.39.06-8.33,8-9.56,14.34-3.3-12.42-12.4-18-22.73-22.38-7.21-3.06-10-10.39-14.72-15.84-2.09-2.41-3.41-3.43-6.84-.77-5.68,4.4-12.76,6.73-20.05,4.93a7.52,7.52,0,0,0-9.38,5l0,.11c-1.43,5.82-5.84,7.95-9.64,11.05-5.79,4.72-10.54,9.72-11.62,17.86-.86,6.49-7.34,7.3-12.56,8.13-4.16.66-8.33.07-12.38,2.41-2.81,1.63-6.48,1.16-9.51-.79a33.67,33.67,0,0,0-4.11-2.78c-2.44-1.11-6.91-1.5-7.21-2.89-.92-4.38-1.34-9.41,0-13.59a53.34,53.34,0,0,0,2.41-19.64c-.27-3.9,1.13-4.72,4.83-4.81,6.27-.15,12.33,1.05,18.31,2.34,9.14,2,14.86-.19,18.13-7.83,3.58-8.32.83-16.22-7.13-20.61a31.2,31.2,0,0,1-6.76-4.75c7.32,1.24,11.9-5.57,18.8-5.31a8.8,8.8,0,0,0,6.91-3c7.29-7.93,17.5-12.22,24.77-20.18,2.16-2.37,5.17-2.91,8.41-3,7.91-.13,11-4.81,9.82-12.77-.66-4.41-1.85-9.87,4.71-11.88,2,8.57,4.44,10.41,9.75,7.25,3.66-2.19,6-4.33,2-9-4.12-4.87-6.21-10.87-14.87-6-6.13,3.45-13.74.22-14.88-4.18-3.7-14.27-2.1-16.34,8.15-20.3a57.82,57.82,0,0,0,25.52-19.18c6.17-8.1,12.54-16,24-18.69,8.72-2,16.72-6.88,26.21-6.94,13.14-.08,25.54,1.58,37.78,7.3,7.8,3.65,17.53,2.08,25.78,5.84a56.13,56.13,0,0,0,7.21,2.66c1.73.52,4.17,0,3.51,3.09-.49,2.22-2.08,2.76-4.23,3-9,1.13-17.51-1.17-25.84-3.64-3.23-1-3.94.65-5.12,2-1.77,2,.88,3,1.82,3.56,6.41,3.9,9,12.07,16.89,14.51,2.79.86,4.19.68,6.28-1,3-2.38-1.41-3.31-.62-5.55,5.58,2.51,9.7,1.32,12.62-4.45.76-1.51,3.92-2.14,6.1-2.53,4.58-.82,7-2.33,7-7.92,0-4.64,4.45-2.81,6-.79,4.47,5.77,7.89,3.73,13.16.58a31,31,0,0,1,26.07-3.41c5.8,1.68,14.43.36,20.69-3.52a17.19,17.19,0,0,1,13.72-2.17c6.35,1.68,12.93,2.41,19.07,4.47,3.07,1,4.8.56,5.77-1.64,1.21-2.77-1.5-3.68-3.47-4.58-4.79-2.19-9.4-4.36-8.53-11.07.29-2.18.67-2.85,3.06-3.64,9-3,13.55-2,18.72,6.12,2.63,4.1,4.64,4.93,7.22.27.23-.42.37-1.33.45-1.32,10.21,1.45,15.68-7.62,23.83-10.76,3.51-1.36,6.94-1.33,10.47-1.33,2.21,0,4.94.35,5.7-2,3.74-11.63,14.67-6.32,22-9.41,2.67-1.13,6.3-.62,9.34-.07,3.77.68,6.34-.38,9.22-2.84,8.57-7.33,17.7-6,26.73-.66,1.34.79,1.93,2,4.22,1.37,8.44-2.21,17-.66,25.44.56,1.87.27,3.1,1.13,3.49,3a3.43,3.43,0,0,1-1.65,3.72c-.56.38-1.46.37-1.89.83-1.61,1.71-5,2.79-4.18,5.5,1.2,3.88,5,2,7.17,1.3a22.81,22.81,0,0,1,14.49.1c4.68,1.51,9.56,2.63,14.49.19a5.86,5.86,0,0,1,4.28,0c12.79,5.17,25.88.7,38.8,1.27,7.15.32,13,2.84,18.84,6.77,5.3,3.58,10.34,8.72,18.17,4,2.77-1.68,7.29-.52,11.18.41,6.1,1.46,12.73,1.64,15.22-6.18.83-2.59,2.39-2,3.84-1.92,16,.84,32.14.9,46.87,8.64a9.65,9.65,0,0,0,6.07,1.5c10.15-1.48,20.23,2.9,30.48.07,7.35-2,12.54,4.55,19.21,5.87a37.69,37.69,0,0,0,13.06.2,54.67,54.67,0,0,1,17.82.53c4.25.83,9.74,4.11,14.18-1.62,1.16-1.49,5.55-1.09,8.3-.62,17.5,3,35.25,4.1,52.25,10.42,9.22,3.42,19.53,3.26,29,7.76,4,1.91,10.66-2.2,16.09,1.27a22.46,22.46,0,0,1,7.64,7.12c-4.52,1.22-8.45,1.65-12.53-.12-6-2.61-12.51-3.45-18.72-5.4-5.65-1.78-5.8,5.59-9,8.3-1.14,1,1.86,3.18,4.23,4a87.43,87.43,0,0,1,15.55,7.6c-10-1-16,3.93-20.53,11.59-1.18,2-4.29,1.65-5.29.86-5.5-4.35-10.61-.46-15.7.47-3.88.71-8.94,2.6-9.23,6.61-.34,4.51,3.93,9.26,7.88,10,9.66,1.91,11.45,10.6,12.69,16.61,1.2,5.77-.23,12.71.38,19.31.35,3.85-5.08,3.12-6.89,1.2-9-9.58-21.28-15.93-28.08-27.75-2-3.57-3.92-7-1-11.16,3.45-4.94,3.1-11.15,4.83-16.68,1.41-4.5-3.6-7.54-7-9.53-2.4-1.43-3.89,2-5.1,4.38-2.44,4.73-5.39,2.38-8.47.4-8-5.16-15.26-2.39-16.74,6-.44,2.49,2.85,6.23-.82,7.21s-8.09,1.18-11.84-1.17c-3.52-2.22-7.43-2.08-11-.82-4.32,1.53-8.67,1.08-12.85.67-8.62-.85-18,4.23-20.9,12.45-1.49,4.13-2.4,8.47-4,12.58a2.59,2.59,0,0,0,1.08,3.5l.15.07c5.53,3.08,10.11,8.37,17.9,5.47a12.6,12.6,0,0,1,14.35,3.6c2.41,2.68,4.81,5.87,9.19,2,1.08-.94,4.86-1.95,6.16,1.12,3.58,8.5,11.5,12.33,18.44,17.06,2.3,1.57,4.58,3.38,3.22,5.32-3.86,5.52.55,7.72,3.44,10.54a17.54,17.54,0,0,1,3.94,6.54c-6.07,1.59-6.23,1.67-8.65-3.6a84.69,84.69,0,0,0-21.37-28.92c-1.16-1-1.76-3.34-4.3-1.09-2.92,2.59-.51,3.73.89,4.82,7.34,5.7,7.17,13.56,7.31,21.82.15,8.92-1,17.22-4.75,25.38-1.9,4.14-4.63,4.91-8.48,4.51-7.52-.78-12.21,3.71-11.48,11.17.37,3.89.54,7.35-3.76,9.5-2.44,1.21-2.56,3.29-.17,5.06,3.77,2.81,7.28,6.12,11.39,8.28s5.83,5.13,7.37,9c2.59,6.45,1.57,8.22-5.81,11.4-6.2,2.66-6.15-2.61-7.35-5.63a24.93,24.93,0,0,0-4.74-7.71c-5.21-5.84-12.36-9.58-16.73-16.42-2.36-3.69-5.86-5.59-10.53-1.6-2.07,1.76-6.66,5.26-7.62-2.6-.74-6-5.47-6.61-10-2.14-1.2,1.19-2.47,2.33-3.59,3.59-2,2.26-7,2.23-5.91,6.74,1,4.08,10.15,8.88,14.24,8.16,1.64-.29,3.32-.31,5-.47,3.37-.34,7.57.41,8.77,2.71,1.47,2.83-3.24,3.18-5,4.83-7.83,7.23-7.1,6.39-.23,14.51,5.07,6,8.5,13.29,15.47,17.75.84.54.43,3.19.4,4.86,0,1.06-.86,2.88-.58,3,10,5.72,2.51,13.3,1.88,19.87a51.86,51.86,0,0,1-4.36,15.38c-2.36,5.43-5.86,10.18-12.33,11.72-7,1.66-13.38,5-20.71,5.66-4.17.36-6.92,4-9.5,7.12s-4.45,3.1-7.36.1c-6-6.21-8.37-6-14.63,0-10.48,10.14-10.92,11.44.06,21.25,11.41,10.4,18.29,22.4,18.15,38,0,1.88.47,3.92-1.28,5.37-5.8,4.79-12.41,8.53-17.08,14.83-1.54,2.07-3.58-.23-3.44-3,.23-4.45-2-6.72-6.5-6.7-1.4,0-3.12.44-3.92-1.12-4-7.78-12-11.15-18-16.7-3.64-3.36-6-.76-6,1.42-.16,6.7-3.38,14-1.27,19.72,2.71,7.27,4.89,16.26,12.56,20.47,12.38,6.8,14,19.13,17.31,30.74.28,1-.21,3.13-.68,3.23a7,7,0,0,1-5.42-.68,25,25,0,0,1-12.53-17.82c-1.64-9.06-5.2-16.77-12.84-21.83-3.28-2.17-3.44-4.55-3.28-7.62a18.79,18.79,0,0,1,.72-4.15c4.65-16.65-5.64-30-10.1-44.72-.36-1.16-2-1.94-3.13-3-1.25,1.33-2.52,2.47-3.55,3.8-2.39,3.09-5.81,2.38-8.64,1.78s-.92-3.67-1.43-5.58c-2.32-8.7-5.08-17-13.68-21.94-1.38-.78-3-1.43-4.11-3.36-8.16-13.53-8.27-13.32-23.92-8.21-5,1.61-8.48,4.14-9,9.53a4.83,4.83,0,0,1-2.18,3.53c-7.76,5.75-14.2,12.75-20.33,20.18-3.13,3.81-7.4,6.67-11.13,10-1.42,1.26-3.57,2.64-2.62,4.69,4.42,9.61-2.73,18.4-1.76,27.84.4,3.82-2.37,7.51-5.26,10.41-4.51,4.51-9.58,3.5-11.55-2.4-5.18-15.5-12.59-30-19.45-44.78-4.46-9.59-7.42-19.23-7-29.81.11-3.16.55-6.81-3-8.08-2.55-.91-3.09,2.91-4.64,3.79a11.4,11.4,0,0,1-11.41,0c-3.26-1.88-3.58-4.31-.88-7.67,1.68-2.1-1.83-4-3.08-4.06-6.15-.52-8.93-5.24-12.62-8.95-4.06-4.09-7.49-6.94-15-6.42-13,.91-26.35,1.39-39.43-.93-3.66-.65-5.77-3.91-8.66-5.88-3.21-.81-6.28-1.64-9.81-1.33-12,1.05-21.72-2.85-27.61-14a19.34,19.34,0,0,0-5.67-6.46c-2-1.48-3.9-1.58-5.84.23s-2.39,3.64-.74,5.69c4.13,5.12,5.54,12.14,9.43,16.77,4.51,5.34,12,8,17.32,13.32,1.5,1.5,4.48-.53,6.32-2.26,2.46-2.3,4.7-4.85,7.26-7C1148,502.78,1149.69,500.54,1152.47,502.48Z"/><path class="cls-1" d="M1025.84,484.32c2.09,16.61,14.31,25.93,22.49,37.7a25.83,25.83,0,0,1,4.13,9.42c1.43,6.47,5.11,11.26,9.32,16.43,7.18,8.81,15.92,17.51,15.33,30.45-.1,2.2.67,4.08,1.41,6.2-5.72-6.28-12.5-11-18.88-16.21-.74-.6-1.88-1.27-2-2-1.36-9.57-8.16-16-13.32-23.38a6.19,6.19,0,0,1-1.09-2.59c-2.43-17.63-14-31-21.61-46.19-.66-1.32-1.78-2.1.19-3.33A10.17,10.17,0,0,0,1025.84,484.32Z"/><path d="M1152.47,502.48c-5.69,1.17-8,6.47-11.81,9.87-6.53,5.84-13.26,4.3-15.5-4.15-.49-1.86-1-4-2.77-2.73-7.4,5.32-9.33-3-9.75-5.45-1.15-6.79-5.25-11.54-8.94-16.44-2.41-3.19-1.43-4.46.78-6.31s3.49-5.4,7.47-2.5c3.32,2.41,6.77,4.85,7.92,8.78,2.85,9.74,19.8,15.41,27.13,12.7,4.67-1.72,6.48,0,8.59,3.1A5.12,5.12,0,0,1,1152.47,502.48Z"/><path class="cls-1" d="M1006.84,259.49c-9.27-.44-13.59-6.89-17.33-14.48,8.51,2.33,17.28,4.4,26.36,3.46,1.61-.17,1.88,1.14,1.73,2.43-.22,1.9-1.32,3.3-3.22,3.2s-3.6-1.28-5.37-1.23-4.74-1.48-5.68,1.22C1002.33,257,1004.64,258.34,1006.84,259.49Z"/><path class="cls-3" d="M897.58,424.24a63.75,63.75,0,0,1,8.85.11c1.76.25,2.72,2,2.28,3.93-.61,2.59-2.75,1.91-3.92,1C902.51,427.52,898.71,427.82,897.58,424.24Z"/><path class="cls-3" d="M1010,444.22c2.69-2.43,3.6-5.57,7-5.4.22,0,.68,1.34.51,1.9C1016.62,443.92,1014.13,444.49,1010,444.22Z"/><path class="cls-3" d="M485.76,352.91c-1.62,2.84-2.52,4.7-3.67,6.38-1.53,2.25-5.64,3.71-2.83,7.28,3,3.78,6.35,7.38,11.94,7,2.1-.14,4.22,0,8.43,0C489,377.41,480,379.94,472,384.7c-1,.58-3.61.27-4-.46-1-1.8.69-2.85,2.21-3.72,1.82-1,5-1.58,3.5-4.62-1.56-3.2-3.85-1.58-6.32-.39-6.91,3.33-14,6.26-21.06,9.28-4.43,1.89-8.23,3.91-9.63,9.37-.81,3.15-4.5,4.74-8,5.17-6.15.77-10.45,4.46-15.29,8-6.74,4.94-12.11,11.77-20.17,15-3,1.18-2.81,4.17-2.62,6.86.65,9.36-3.1,14.82-12.26,18.72s-17.2,10.57-24.42,17.85c-7.58,7.64-4.39,16.49-3.16,25.07.59,4.05,1.29,7.95-.29,11.9-.65,1.62-1.31,2.77-3.47,2.68s-2.45-1-3-2.9c-1.22-4.05-2.86-7.86-2.79-12.27.15-10.21-3.92-14.72-14-15.27-3.52-.2-6.28-2.14-9.17-3.33-4.58-1.87-8.45-1.27-10.83,2-5.85,8.13-12.75,5.69-19.45,2.52-4.73-2.24-8.13-2.21-12.44,1.09s-9.65,5.64-14.72,8a18.08,18.08,0,0,0-10.43,12.67,85.81,85.81,0,0,1-5.36,17.3c-5.71,12.3,1.33,28.33,10.37,35.33,6,4.63,12.27,3.44,17.88.26s11-7.31,13.15-14.24c.83-2.69,14.85-5.39,16.65-3.16,1.36,1.67.66,3.69-.35,5.85-3.47,7.37-6.48,15-9.59,22.49-2.34,5.69.87,9.69,7.05,8.91C321.2,568,321.2,568,316.7,589.33c-1.92,9.11,2.72,19.81,10.94,24.61,1.81,1,3.63,2.07,6.4.57,2.12-1.15,5.07-3,8.09-1.38-.12.29-.17.86-.42,1-5.07,2.22-8.13,11.53-15.45,5.52-4.79-3.94-11.26-3.82-15.74-8.91-5.37-6.11-8.32-13.43-12.5-20.08-2.48-3.94-4.27-6.77-9.39-7-8.5-.4-16.21-2.83-22-9.9-5-6.16-10.11-11-19.75-6.35-6.7,3.21-13.43-2.67-19.78-5.46-7.69-3.38-15.14-7.32-22.61-11.2-8-4.17-9-6.8-7-15.85s-3.73-15.22-8.6-21.48c-9.07-11.67-16.14-24.34-18.59-39-.81-4.83-4-6.92-6.94-9.4-1.48-1.25-2.61,1.47-3.91,2.38-4,2.8-2.76,6.54-.88,9.47,7.62,11.84,6.52,26.7,13.7,38.63.68,1.12,1.25,2.26-.38,2.82-.79.27-2.58,0-2.65-.34-.77-3.52-6-4.63-4.94-9,1.2-5.08-1.73-8.23-5.26-10.91-3.32-2.52-4.6-6.06-3.26-9.48,1.45-3.71.12-6.13-1.59-8.93-2.68-4.39-3.94-9.29-2.88-14.29,1.66-7.86-2.87-12.62-8.35-16.24-3.48-2.3-4.65-4.54-4.94-8.5-.42-5.82-2.38-11.43-3.25-17.27-1.38-9.28,1.12-16.43,5.58-24.92,6.31-12,17-20.73,22.07-33.15,1.8-4.44,4.38-6.22,8.41-4.91,4.86,1.57,6-2,8-4.61,2.64-3.38.86-6.19-1.15-8.82-.68-.89-1.38-3-3-1.9-1.11.74-3.28,1.42-2.22,3.76s1.34,4-2.22,4.26c-4.43.38-6.77-2.37-8.47-5.44-.88-1.59-1.69-4.45,2.54-5.07,2.8-.41,4.86-2.47,3.26-6.84-1.78-4.89-.27-11.4,1.66-15.18,3.24-6.3,2-12.52,2.78-18.58.63-4.94-4.3-8.47-8.92-10.35-4.19-1.7-7.65-5.08-11.49-6.43-11.26-3.95-22.29-10.26-35.29-5-5.77,2.31-12,4.53-19.08,2.08-4-1.37-7.84,3.41-11.69,5.51C73,294.6,59,297.54,46.06,303.53c-4.93,2.29-9.93,5.63-17.06,3.94,8.37-2.44,15.13-6.18,22.07-9.56a13,13,0,0,0,4.2-3.8c-1.62-1.31-2.47-3.77-5.13-3.5-2.14.23-4.14-.38-4.66-2.43-.67-2.66,2.77-1.87,3.72-3.57,1.24-2.23,4.16-3.19,4.8-6.05,2.22-9.92,3.31-10.44,14-11.31,5.47-.44,11.42-.36,15.89-4.51,1.13-1.05,3.75-1.86,2.44-4.17-.9-1.59-2.28-3.16-4.61-2.81-3.68.55-6.9-1.08-11.2-2.43,7.22-5.38,15-5.48,22.43-4.56,4.09.51,6.5-1.39,9.36-3,1.71-1,2.53-2.1.71-4.38-3.37-4.21-.21-7.36,3.48-7.15,12.06.68,21.75-6.87,33.15-8.45,18.33-2.54,36.36-3.86,54.9-.27,14.25,2.76,28.56,5.15,42.76,8.28,9,2,17.42-3.48,26.33-4.3s17.36-4.38,26.84-.35c6.28,2.68,14.15-.64,21.2,1.86,5.78,2.06,12.3,2.15,15.94,8.62,1.78,3.17,5.85,2,8.63,1.24,5-1.38,9.46-2.85,12.7,2.9,1.13,2,2.32,1.24,3.86-.07,7.66-6.53,16.28-8.37,25.94-4.91A23.51,23.51,0,0,0,389.87,240c4.16-.52,8.75-1.66,12.95,2.1,2.82,2.52,5.1-1.43,6.82-3.42,2.5-2.92-1.53-3.08-2.51-4.47-.72-1-4,.57-3.27-2.34.53-2,2.61-2.51,4.75-2.34,1.92.16,3.87,0,6.12,0,.15,2.81-6.86,5-.8,8.19,2.64,1.38,4.14-.92,5.6-1.86,1.81-1.17,4.55-2.62,4.3-5.38-.61-6.67,2.55-10.59,9-11.18,3.7-.34,5.38,1.32,4.06,4.42-2.41,5.66,1.66,7.48,5.17,8.46,2.87.79,3.92.89,3.51,4.31-.38,3.08,1,5.59,5.27,3.5a10.65,10.65,0,0,0,4.44-3.41c3.93-6,9.76-5.85,15.91-5.7,5.05.13,4.59,3.57,2.88,5.56-3.93,4.59-7.72,9.72-15.22,9.19-5.13-.37-10.61-1.35-15.41,1.65-1.29.81-2.09,2.36-3.12,3.58,1.43,1.18,2.23,3.57,4.44,3.25,3.28-.46,6,1.15,8.94,1.91,2.59.68,2.76,3.47,2.05,5.49-1,2.78-3.07,1.41-4.61.34-3.51-2.43-6.95-2-10.71-.52-1.26.49-3.6,1-4.59-.75s0-3.18,1.38-4.43,3.58-2.38.74-4.79-5.59-2.11-6.46.69c-2.09,6.62-7.95,6.29-12.62,7.54-17.48,4.66-31.74,14.78-45.65,25.7-3.33,2.62-3.54,5.22-1.47,8.58,3.55,5.75,7.17,10.79,15.08,11.4,3.89.3,7.61,3.28,11.34,5.17,1.66.84,3,2.33,4.75,2.94,8.87,3.17,9.2,3.25,5,11.88-2.88,5.87.53,9.22,4.24,11.92,3.27,2.37,5.79-.91,8.15-3.06s4.61-4.49,5-7.56c.86-6.72,5.14-9.94,10.75-12.59,9.23-4.36,16.36-10.52,15.47-22.07-.18-2.32,1.35-3.39,2.68-4.75,2-2.06,4.37-4,5.84-6.37,2.22-3.64,2.77-8.81,8.33-9.1,8.81-.45,17.55.17,25.22,5.16,3,1.93,2,5.7,1.29,8-1.55,5,2,6.85,4.6,9.11,2.85,2.49,5.27-.41,7.55-1.75,3.22-1.91,6.24-4.15,9.29-6.33,3.72-2.67,4.67-1.4,5,2.77.69,8.86,1.18,17.8,5.67,25.9,1.93,3.46,3.76,6.41,8.39,6.49,2,0,5.23-1.87,6,1.66.86,3.7-.15,8-3.44,9.47-14,6.44-27.89,13.09-44.27,9.33-5.67-1.3-11.52,1.28-16.66,4.18-1.38.79-3.72,2.16-2.9,4.1a4.83,4.83,0,0,0,5.17,3.12A60.52,60.52,0,0,1,485.76,352.91Z"/><path class="cls-3" d="M495.37,1029.49c-8.41,5.14-15.71,1.92-23-.23-3.77-1.12-2.1-4.59-1.77-6.61.8-4.83-.34-5.63-5.23-5.12-12,1.25-22.6-8.77-26.66-19-2.74-6.88-5-13.7-11-18.43-2.86-2.25-2.66-4.19.15-6.2,4.92-3.53,2.58-7.15,1.18-11.76-2.33-7.7-8.7-12.94-11.39-19.4-4-9.57-7.62-20.86-5-31.55,3-12.25-1-23.5-2.21-35.13-1.17-11-3.63-21.77-1.59-33.11.78-4.32-3.38-9.2-2.27-14.28.86-4,1.84-7.76,1.81-11.92-.11-17.07-11.19-26.76-23.52-35.59a35.85,35.85,0,0,0-7.82-4.58c-6.64-2.58-11.46-6.93-12.78-14.54-.36-2.11-2.17-4.17-3.75-5.85a50.91,50.91,0,0,1-11.92-19.65c-2.55-8-6.24-15.08-12.51-20.89-6.06-5.63-6.7-13.29-2.09-20.22,1.88-2.83,4-4.89.08-8.18-3-2.48-1.66-6.25-.4-9.81,3.49-9.79,10.65-17,16.61-25.12,4.94-6.69,5.71-13.73,2.74-21.36-1.43-3.69-3.72-7-3.19-11.41.41-3.42-3-4.37-5.17-6.26a7.19,7.19,0,0,1,6-.24c8.44,3.37,10.86,2.65,15.24-5.21,2.12-3.79,3.95-7.6,9.53-6.85,2.72.37,4-2.47,5.5-4.19,2.76-3.22,5.79-3.69,9.54-2.32-.35,4.42-5.1,6.83-4.45,11.76.4,3,1.65,5.6,4,5.9,1.41.18,3.81-2.51,3.51-5.49-.4-3.9-.62-8.43,4-9.61,4.3-1.08,9.21-1.11,12.65,2.76,5.2,5.85,12.37,7,19.24,6.83,6.29-.19,13.47,4.13,19.13-2.48.58-.68,4.21-.44,2.41,2.27-2.3,3.48.81,4.55,2.28,5.66a74,74,0,0,1,13.39,13.55c6,7.58,13.55,10.8,23.64,10.61,9.81-.18,18.83,2.78,20.77,16.41.82,5.69,7.2,10.42,3,17-.06.1.16.45.32.61,1,1,2.6,3.12,2.92,2.94,8-4.52,7.45,9,15,6.69,8.23-2.52,13,.74,16.85,8.81.65,1.36,1.33,3.34,4.68,2.78,8.47-1.4,16.85,1.49,25.27,2.17,7.18.58,8.79,7.6,14.39,9.76,2.71,1,4.91,3.32,8.15,3.78,6.83,1,8.16,6,8.15,11.85,0,9.16-4,16.67-9.92,23.28C595,747.8,593,755.34,587,760a6.08,6.08,0,0,0-1.77,5.86c3.65,15.59-1.22,30.16-5.66,44.74-.81,2.66-2.11,5.16-3.11,7.76-1.12,2.88-2.8,4.89-6.23,4.81-13.32-.3-22.85,7.17-31.91,15.6-2,1.87-3.19,3.36-1.69,6.69s.48,7.23-.67,11.08a134.93,134.93,0,0,1-20.18,40.74c-3.77,5.19-9.81,3-15.1,1.79-1.81-.4-3.35-2.38-5.57.1-2.72,3,1.48,3.27,1.48,5.11,0,2.26,2.36,3.17,3.06,5.39,3.43,10.83-.25,16.4-11.54,16.55-9.56.12-10.59.94-10.34,9.94.15,5.42-2.4,7.59-7,5.39-3.24-1.56-3.82.72-5.19,1.92-2.45,2.16.27,3.2,1.26,4.6,1.62,2.27,6.35,4.44,4.71,6.46-3.45,4.25-.73,10.15-4.66,13.62s-3.19,6.15.4,9.54c7.46,7,8.49,10.44,2.92,19.1-4.65,7.23.24,12.88.82,19.2.09,1,2,2.7,3.08,2.78C482.52,1019.35,487.62,1026,495.37,1029.49Z"/><path class="cls-3" d="M332,228.07h10.14c2,0,2.79-1.65,3.93-2.8,1.44-1.44-.38-2.46-.95-2.6-4.79-1.18-7.72-5.21-11.68-7.42-4.13-2.31-8.67.29-12.84,2.1-1.9.82-3.63,2.56-5.92,2-1.81-.47-4.68,1.63-5.33-1.72-.51-2.65,1.78-3.3,3.68-4.46,8.23-5,16.39-10.55,26.54-9.61,7.55.7,15.34,1.13,21.48,7.1,2.79,2.71,6.81,4.08,10.84,1.46.6-.39,1.57-1.23,1.76-1.08,5.56,4.34,10.88,0,16.31-.16,3.85-.11,2.12,2.78.93,4.52-2.35,3.45-1.79,6.45,1.88,8,4.1,1.75,1.77,3.3,0,4.29-5.28,3-11.42,4.86-17,2.92a16.27,16.27,0,0,0-13.63.89C351.16,237.6,341.65,232.52,332,228.07Z"/><path class="cls-3" d="M513.64,358c5.92-5.8,11.2-11,16.56-16.16.65-.62,1.16-2.46,2.63-1.12.65.58,1.54,1.83,1.32,2.27-2.94,5.76,2,6.88,5.23,8.35,2.6,1.16,4.92,2.44,4.94,5.24,0,3.72-4.21,3.19-5.84,3.3C530.52,360.41,522.44,360.9,513.64,358Z"/><path class="cls-3" d="M411,212.59c7.76-1,13.42-7.62,21.46-5.94C429.12,216.54,418.23,219.74,411,212.59Z"/><path class="cls-3" d="M457.31,207.86c-5,1.42-10.23,1.36-14.82,4.13-.92.55-3.18.8-3.78-.83s.82-2.94,2.23-3.16C446.34,207.16,451.73,204.93,457.31,207.86Z"/><path class="cls-3" d="M355,237.28c-2.41.79-2,4.13-4.35,4.94C345.75,235.42,351,236.81,355,237.28Z"/><path class="cls-3" d="M1598.59,900c-2-8.21-8.21-13.27-14.82-17.93-6.17-4.35-13-1-19.1-.28-9.05,1.09-18.37,3.64-26.09,9.21-4.94,3.56-10.85,2.45-15.83,2.76-8.6.55-15.67,4.76-23.58,6.67a25.67,25.67,0,0,1-7.59,1.09c-2.89-.17-6.46-.18-7.82-3.08-1.5-3.19,1.76-5,3.55-7.18,4.41-5.41,5.61-11.49,4.46-18.47-2.57-15.72.87-31.33,1.59-47,.43-9.42,9.54-9.29,15.2-11.84,7.06-3.17,14.26-6.33,22.57-7.19,8.09-.84,13.68-7.86,18-14.94a10.65,10.65,0,0,1,6.65-5.32c5.56-1.79,8.35-8,11.89-12.59,6-7.82,15-9.7,22.18-3.28,4,3.62,7.62,1,7.79-1.74.54-8.94,7.13-9.93,13.16-13.21,7.93-4.31,15-3.65,23-1.21,5.15,1.57,4.5,3.5,2.35,6.95-6.26,10.1-6,9.9,3.52,17.11,3.76,2.84,7.92,5.19,11.4,8.3,4.32,3.87,6.91,2.26,10.46-1.22,7.76-7.61,9.8-17.18,10.85-27.29a9.29,9.29,0,0,1,.8-3.4c1.07-1.92.23-5.7,3.39-5.45,2.37.18,2.88,3.21,3,5.55a10.53,10.53,0,0,0,3.29,6.84c8.06,8.09,9.78,17.74,7.07,28.46-.64,2.52.51,4.1,2.27,5.58,7.14,6,10.15,14.48,13.56,22.73a39.35,39.35,0,0,0,8.73,12.72,15.31,15.31,0,0,1,4.28,13.63c-1.74,12-3,24.07-10.43,34.5-2.52,3.56-5,7.43-8.45,9.55-12.38,7.48-19.83,19.64-29.49,29.69-1.66,1.72-3.16,3.91-6,3.15-6.73-1.79-11.64,1.43-16,5.85-1.89,1.93-5,2.2-5.88,1.27-5.7-5.85-13.15-1.74-19.55-3.93-5.78-2-8.79-3.91-6.69-10.44,1.35-4.18.58-9.4-2.93-11.17-3-1.5-3.74-3.1-5.32-5.52C1604.27,892.17,1602.79,900.07,1598.59,900Z"/><path class="cls-3" d="M789.85,171.18c-10,.62-19.24,1.42-25.13,10.08-.9,1.33-2.39,2.1-2.59,4.08-1.24,11.93-9.86,17.1-19.74,20.89a25.07,25.07,0,0,1-4,1.06c-3.09.62-7.19.79-7.57,4-.3,2.56,3.94,3.55,6.26,5.14,1.73,1.18,5.18.56,4.74,4.1-.39,3.18-3.12,1.1-4.61,1.86a4.13,4.13,0,0,0-1.21.72c-10.42,11-24.24,9.55-37.46,10.25a21.67,21.67,0,0,0-13,5.8c-5.94,5.42-12.83,8.51-20.12,8.85-15.82.73-24.49,10.8-32.38,22.28-8,11.72-19.88,13.5-30.94,4.13a11.41,11.41,0,0,1-2.43-4.13c-3.55-8.09.27-16.58-1.15-24.9-.42-2.52,2.22-5.93,5.87-7.25,4.62-1.68,7.44-5.85,11-9,2.42-2.17,2.67-5.94,1.33-7.18-8.28-7.64-8.82-20.46-18.78-27-4.69-3.07-8.88-5.13-14.75-3.73a31.7,31.7,0,0,1-12.87.17c-1.82-.33-6.58.16-5.47-4.56.82-3.48,3.83-3.49,6.62-3.74,3.09-.28,6.17-.12,9.3-.5,10.94-1.35,19.83-8,30.07-11s20.44-4.35,30.9-2.31c10.78,2.09,21.42,1.09,32.2,0,12.92-1.37,25.49-5.48,38.62-5,6.91.23,13.71-.51,20.56-1,13.09-1,26.51-.08,38.55,6.63C777.29,173,783.12,167.86,789.85,171.18Z"/><path class="cls-3" d="M532.13,169.45c24-4.31,48.53-2.89,74.12-7.12-14.71,8.4-29.31,11-44.11,14.06-12.38,2.6-23.86,9.73-35.54,15.25-4.88,2.3-12.05,1.8-15.61-2.11a2,2,0,0,1-.55-2.29c1.61-5.86,12.77-13.18,18.52-11.05,4.36,1.62,8.54.6,12.77,1.07a4.44,4.44,0,0,0,5-3.78v0c.1-1.28-2.15-3.43-4.79-3.49C538.65,169.9,535.26,170.72,532.13,169.45Z"/><path class="cls-3" d="M514,197.94c-4.12,4.93-9.24,4.81-13.6,3.83-9.61-2.17-19.49-.38-29-2.72-1.41-.34-3.46.92-3.87-1.85-.36-2.5,1.75-2.57,3-3.26,2.67-1.48,6.45-1.67,8.39-.46C489.79,200.34,501.79,196.39,514,197.94Z"/><path class="cls-3" d="M513.75,270.23c-9.63.18-14.12-7.21-19.5-13.28-1.05-1.18-.43-2.12.46-3.09,4.52-4.91,9.24-9.19,16.65-6,3.12,1.36,6,.6,7.28-2.31,1.06-2.5-1.55-3.51-3.62-4.55-4.76-2.4-5-8.4-9-11.63-4.59-3.7-8.14-9.56-15.32-4.4-1.12.81-3.42.55-5,.09-7.49-2.24-15.07-2-22.71-1.38-2.27.2-4.66,0-5.48-2.34s0-4.48,1.94-6.46c6.28-6.49,14.85-8.45,22.7-4.86.64.29,1.48.73,2,.53,9.46-3.5,17.41-.71,24.71,5.53,1,.89,2.53.1,3.95-.52,3.68-1.62,7-.7,9.46,2.64.56.77,1.69,1.26,2,2.09,2.12,6.19,12.44.84,12.83,9,.33,6.9,5.72,9.26,10.18,12.56,2.45,1.81,1.67,4.48,1.34,6.68-.39,2.62-2.82,2.57-5.09,2.85-3.66.44-6.24-1.78-9.24-3-1.6-.64-3-2.52-5-.25-1.44,1.7-3.41,3.38-1.9,5.54,1.63,2.32.66,4.66,1,7,.6,3.5-1.61,4.74-4.09,3.53-2.81-1.37-5.29.49-5.07,1.58C520.53,271.57,516.62,270,513.75,270.23Z"/><path class="cls-3" d="M476.31,254.81H488.6C484.54,255.37,480.8,258.74,476.31,254.81Z"/><path class="cls-3" d="M1599.66,453.34c-7.11-14.21-16.83-4.85-25.36-5,1.55-5.64,4.46-8,9.72-8.33,11.53-.64,18.14-8.6,24.53-16.78,3.08-4-1.57-6.16-2.36-9.24-.74-2.91-4.69-6.44-.65-8.44,3.32-1.63,6.93.68,9,4.76,1.53,3.05,3.32,6,2.52,9.31-1.27,5.37,2.75,9.39,3.09,14.37.43,6.18-2.37,8.64-8.12,9C1604.39,443.37,1602.71,444.67,1599.66,453.34Z"/><path class="cls-3" d="M1595.48,377.45c7.29,4.21,13.23,9.78,21.58,10.34,1.18.08,1.92,1,1.27,1.89a17.79,17.79,0,0,1-4.36,4.71c-1.83,1.19-3.93.8-6.06-.34-2.59-1.39-4.79-.23-7.05,1.66-1,.86-.18,4-2.66,2.66-1.58-.85-3.38-2.29-2.82-4.55C1596.72,388.47,1598.19,383.18,1595.48,377.45Z"/><path class="cls-3" d="M1578.67,466.87c-2.78-3.07-5.08-5.32-7-7.84s-1.81-5.2.86-6.86,3.87,1.37,4.9,2.8C1579.72,458.18,1580,462,1578.67,466.87Z"/><path class="cls-3" d="M1586.6,450.21a3.61,3.61,0,0,1,2.93,3.48c.07,1.37-.32,2.19-1.86,2.27-1.77.11-2.72-.53-2.47-2.38C1585.37,452.36,1584.5,450.65,1586.6,450.21Z"/><path class="cls-1" d="M1581.91,457.8c-1.49-2.4-1-6.15-5.39-6.53,8.61-2.34,5.13,3.36,5.23,6.7Z"/><path class="cls-3" d="M1653.26,725.61c5.68-9.29,4.2-14.64-6-19.34-7.33-3.39-13.79-9.06-22.42-9.37-2.86-.1-2.26-2.52-1.84-3.71,1.94-5.49-1.39-7.65-5.53-9.24-1.47-.56-3-1.23-2.68-2.69.29-1.23,1.88-1.88,3.55-1.8,5,.26,11.05-1.86,11,7,0,2.83,3.37,4.94,5.47,7.19,1.51,1.62,2.26,1.38,3.84,0,2.45-2.12,5.38-3.67,8-5.57,5.18-3.69,10.29-3.83,15.75-.41,10.87,6.81,24.28,7.94,34.81,15.8,6.12,4.56,11.46,8,11.88,17.38.29,6.47,6.08,12.55,12.17,16.62,2.81,1.87,5.58,3.7,7.39,6.63-3.65,1.61-6.76-.86-10-1.65-5.34-1.31-10.59-3.15-13.52-8.8-1.26-2.45-3.94-4.18-6-6.19-6.22-6-8.24-5.91-13.74.58-4.72,5.56-13.34,7.46-18.84,2.63A18.32,18.32,0,0,0,1653.26,725.61Z"/><path class="cls-3" d="M1116,755.77c3.17,7.23,4.67,14,2.66,20.69-3.42,11.32-7.32,22.55-11.8,33.5a84.32,84.32,0,0,0-5,18.85c-1.36,8.38-12.43,13.57-19.72,9-4.32-2.7-2.1-7.65-3.17-11.42-1.4-4.95-1.4-10.84,2.72-15.47,4.44-5,5.31-10.6,4.39-17.28-.86-6.26-.88-11.12,7.84-15.37C1102.32,774.18,1111.58,767,1116,755.77Z"/><path class="cls-3" d="M1480.28,668.91c-.45-4.09.86-6,5.22-5.41,1.63.23,3.66.43,4.5-1.42,2.21-4.88,8.24-5.73,10.74-9.53,5.17-7.86,14-11.23,19.88-18,3.57-4.13,7.68-4.22,11.93-1.11,5.07,3.72,4.51,9,1,12.42-5.44,5.26-3.9,9.79-.15,14.18,3.48,4.08,2.88,6.76-.65,10.35-6,6.13-7.68,14.79-11,22.33-2.24,5-5.56,5.24-8.18,3.75-6.86-3.9-14.42-1.89-21.48-3.67-3.07-.77-5.94-1.42-6.81-4.22C1483.23,682.12,1481.89,675.47,1480.28,668.91Z"/><path class="cls-3" d="M1557.23,668.25c-1.76.56-4,.62-5.16,1.79-1.91,2-6.57,3.73-4.88,6.46s4.11,8.62,10,4.6c1-.66,2.79-.09,5.37-.09-5.27,4-7.41,7.9-3.69,13.35.9,1.32.19,3.78.13,5.72,0,.86.32,2-.9,2.42-1.5.52-2.27-.67-2.92-1.57a23.17,23.17,0,0,1-1.92-3.7c-.94-2-2-5-4.47-3.5-2.26,1.33-5.81,3.26-3.72,7.38a4.82,4.82,0,0,1,.81,2.62c-.3,1.63,1.43,4.18-1.61,4.73-3.19.57-2-2.16-2.76-3.68-3.73-7.75-3-14.4,2.4-21.46,2.46-3.24-.1-8.8,2-13.16s6.74-5.3,11.13-1.73Z"/><path class="cls-3" d="M1557,668.43c5-1.12,10.57.41,15-3.33.45-.37,2,0,2.6.57.79.76-.14,1.65-.55,2.49-2.21,4.55-6.18,4.7-10.16,3.66-2.39-.62-4.49-2.37-6.74-3.59Z"/><path class="cls-3" d="M1397.49,638.69c8.31.63,15.19,2.79,19.53,8.64,5.48,7.4,12.62,12.58,19.69,18.1s8.82,15.54,15.78,21.38c4.76,4,6.6,8.91,6.49,15-.06,3.05-.25,5.93-3.09,7.5a8.13,8.13,0,0,1-9.36-1.15c-5.18-4.46-10.33-9-13.18-15.63-6.46-15-15.85-28.07-26.92-39.92C1402.82,648.72,1399.66,644.84,1397.49,638.69Z"/><path class="cls-3" d="M805.21,333a35.5,35.5,0,0,1,6.82-7.6c5.29-4.26,5.3-8.25-.73-11-6.61-3-5.9-8-5.14-13.17.42-2.78,2.86-4.91,5.61-3.25,2.37,1.44,7.21,3.2,4.39,7.06-2.61,3.57.43,4.84,1.69,5.19,4.52,1.26,5.45,4.69,7.08,8.36,2.22,5,4.12,10.88,11.53,11.52-5.15,12.53-17.12,7.83-26.51,12.06C814.79,334.94,809.12,334.85,805.21,333Z"/><path class="cls-3" d="M1733.49,976.61c-1.25-1.25-4.81,3-5.87-.44-1.21-4,2.66-5.45,5.58-7.11,10.31-5.87,22.35-8.08,32-15.23,4.72-3.49,9.47-6.93,14.1-10.54,2-1.53,4.83-1.86,5.57-.24,1,2.22,2,6-.76,7.7-11.92,7.16-23.45,14.9-35,22.65C1744.79,976.36,1739.89,978.17,1733.49,976.61Z"/><path class="cls-3" d="M322.69,526.74c8.92-5.65,18.2-4.16,27.51-3.1,10.4,1.19,17,10.32,26.84,12.63a2.55,2.55,0,0,1,1.35,2.11,2.83,2.83,0,0,1-2.11,1.62c-7.51.1-14.52.32-21.3-5.27C346,527.33,336.25,518.76,322.69,526.74Z"/><path class="cls-3" d="M1513.35,729.19c-10.24-1.67-20.65-2.64-30.64-5.25-6.29-1.64-12.87.93-18.79-2.33-1.22-.67-2.63-1-3.91-1.55-1.43-.62-1.12-1.91-1-3,.16-1.34,1.31-1.19,2.19-1.2,3.13,0,6.52-.79,9.33.16,7.53,2.52,14.68,4.43,23,3,7.71-1.32,12.14,8,20.49,7.16Z"/><path class="cls-3" d="M1793.89,944.06c3.22-3.55,5.89-7.39,4.69-12.57-.45-2,1.23-2.17,2.51-2.76,5.64-2.59,10.91-5.59,11.77-12.58,4.6,1.85,5.76,7,10.89,7.54,1.83.17,1.38,3.69-.52,4.55-8,3.68-13.34,11.1-21.06,15.12C1799.8,944.6,1797.24,946.45,1793.89,944.06Z"/><path class="cls-3" d="M1546.75,593c1.87-8-1.85-12.93-6.41-18.11-2.83-3.21-2.55-7.91-.44-12,.64-1.24,1.15-2.55,1.7-3.83.86-2-2-5.67,2.86-5.79,4.13-.11,3.52,3.7,5,5.72a7.55,7.55,0,0,1,.56,7.57c-2,3.92-3.4,7,1.07,10.06,3,2,4.43,6.52,9.24,5.74,1.89-.31,3.49.15,3,2.6-.64,3.15-2.16,1-3.57.6C1553.6,583.89,1549.22,585.74,1546.75,593Z"/><path class="cls-3" d="M1758.26,720.26c3.53.28,6.08-1.58,6.79,1.57a30.06,30.06,0,0,1,.78,9.45c-.09,1-2.24.12-2-1.26C1764.45,726,1762.37,723.25,1758.26,720.26Z"/><path class="cls-3" d="M1755.85,720.26c-3.94.91-4.91-2.36-5.31-7.63Z"/><path class="cls-3" d="M760.86,249.66c3.92.57,8-1.17,8.45,3.53.38,4.15-3.68,4.39-6.36,5.29-5,1.7-10.23,2.9-15.32,4.42-6,1.8-10.06-3-15-4.71-2.46-.82-.07-3.25,1.15-3.52,4.5-1,8.33-4.44,13.44-3.42S757,250.21,760.86,249.66Z"/><path class="cls-3" d="M385.46,550.87c2.46-1.08.71-6,4.41-6.22,6.35-.37,12.85-.91,19,1.66.75.31,1.22,1.28,1.82,2-.94.68-1.81,1.82-2.82,2C400.39,551.25,393.1,555.79,385.46,550.87Z"/><path class="cls-3" d="M1720.31,713.26c9.09.13,12.67-7.61,18.75-12.59-2.69-2.69-4.88-5.64-9.14-7.72,5.42-.59,9.31,1.63,11.45,4.7s-.42,6.24-2.67,9.42c-3.83,5.4-7.7,9.45-14.87,8.76C1722.15,715.67,1721.28,714.82,1720.31,713.26Z"/><path class="cls-3" d="M1577.29,610.26c2.82,3.65,3.52,8.1,4.78,12.27,1.35,4.46.09,8.85-4.19,11.05-2.34,1.2-5.84,3.69-7.53-2.18-1.45-5-4.63-9.8-12.09-9.82C1567.16,620.88,1573.37,617.28,1577.29,610.26Z"/><path class="cls-3" d="M794,315.17c1.77.46,4.54-1.19,5.68,1s-1.27,4.38-1.64,6.37c-1.47,7.76-7.51,10-13.39,12.54-1.41.61-4.13,2-5-1.58A14.53,14.53,0,0,1,794,315.17Z"/><path class="cls-3" d="M363,503.15c-2.28,2.38-.65,5.59-2.18,8.1C357.83,507,357.83,507,363,503.15Z"/><path class="cls-3" d="M1629.61,958.22c-2.77.41-4.23-.46-3.79-3.48.51-3.48,3.56-6.11,3.12-10-.14-1.27,2.18-1.46,3-.91,3.1,2.2,6.52,1.23,9.78,1.25,3.44,0,4,2.14,2.49,4C1640.49,953.81,1635.77,957.33,1629.61,958.22Z"/><path class="cls-3" d="M1554.89,731.36c-3.55.49-6.26.77-8.8-1C1548.82,728.72,1551.51,727.83,1554.89,731.36Z"/><path class="cls-3" d="M482.79,176.81c6.79-4.73,13.13-5.5,19.7-5.32,1.11,0,2.51-.29,2.69,1.45.16,1.49-.51,2.12-1.82,3.17C496.93,181.24,490.45,178.12,482.79,176.81Z"/><path class="cls-3" d="M1303.13,611.62c7.75,4.47,8.67,10.41,9.09,16.47.16,2.26-1.44,3.35-3.69,3.52s-2.81-.64-3.74-2.89C1302.62,623.48,1304.35,618.33,1303.13,611.62Z"/><path class="cls-3" d="M1793.33,798.89a53.88,53.88,0,0,0,13.11,17,2.55,2.55,0,1,1-3.07,4.07,2.67,2.67,0,0,1-.48-.47C1797.76,814.17,1791.05,809.61,1793.33,798.89Z"/><path class="cls-3" d="M1564.26,738.58c4.37-7.49,10.14-9.44,17.72-7.32C1574.83,730.45,1572.91,740.51,1564.26,738.58Z"/><path class="cls-3" d="M1786.41,744.53c-3.2-1.67-4.67-6.09-10.64-5.7l8.09-3.2C1782.87,739.14,1788.81,740.56,1786.41,744.53Z"/><path class="cls-3" d="M1593.1,673.68c-.9.11-2.1-.22-2-1.27.42-4.21,1-8.4,1.79-12.57.07-.34,1.65-.61,2.49-.55.47,0,.87.85,1.3,1.31-4.18,3.43-.69,7.78-1.39,11.62C1595.08,673.4,1594.29,673.68,1593.1,673.68Z"/><path class="cls-3" d="M1568.7,606.64c-2.1-5.41,4.16-8.07.59-11.84.58-.31,1.17-.88,1.75-.87,3.11,0,4.42,2.21,5.68,5C1573,599.78,1569.69,600.91,1568.7,606.64Z"/><path class="cls-3" d="M1538.66,514.23a10.88,10.88,0,0,1-1.29,7c-.81,1.36,1.17,4.25-2.06,4.29s-3.48-2.85-3.69-4.91c-.25-2.44-.56-4.93,1.06-7.49,1.24-2,2-3.92,4.53-3.37C1540,510.4,1538.15,513,1538.66,514.23Z"/><path class="cls-3" d="M1824.57,774c-.3,3.38,1.75,7.38-1.75,9.25-1.55.82-3.56-2-4-4.62C1818,773.57,1821.4,774.33,1824.57,774Z"/><path class="cls-3" d="M1537.94,602.28c2.87,6.77-2,9.62-5.54,12.94a2.49,2.49,0,0,1-3.31-.07,2.35,2.35,0,0,1-.12-3.27C1532.36,609.3,1533.07,604.29,1537.94,602.28Z"/><path class="cls-3" d="M1478.7,543.29c-2.21,5.45-2.92,9.24-7.86,8.44-3.12-.5-1.94-3.19-1.65-4.58C1470.31,541.72,1474.58,546,1478.7,543.29Z"/><path class="cls-3" d="M876.38,415.09c-.86.1-1.23.24-1.32.14-2.51-2.84-3.57-6-1.82-9.62.22-.45,2.37-.64,2.58-.3C877.8,408.54,876.87,411.87,876.38,415.09Z"/><path d="M949.32,281.7c4.61.7,8.78-1.56,13.17-1.89,3.54-.27,9.25.31,9.26,3.82,0,4-5.24,5.71-9.51,5.86-3.56.13-7.14-.24-10.71-.46-1.76-.1-3.37.09-4.46,1.66-1.46,2.12.7,2.9,1.57,4.14s3.28,2,1.69,4.05c-1.2,1.56-2.21,2.91-5.12,2-4.47-1.34-8.19-.9-7.6,6,.54,6.38-7.77,12.12-14.31,11.28a18.35,18.35,0,0,0-8.52.55c-5.64,2.12-10.86,4.2-16.94,1-1.92-1-5-.5-7.51,1-2.23,1.32-4.22-.76-5.24-2.62-1.22-2.23,1.34-3.62,2.49-3.92,5.07-1.35,8.64-6.19,15-5.2,3.12.49,7-2.1,7.8-6.8a16.66,16.66,0,0,1,8.43-11.66c4.86-2.81,3.79-5.68.63-9.06-7.48-8-6.88-12.64,3.63-17.34,6.59-2.95,9.64-8.81,14.35-13.27,2.26-2.14,3.75-3.31,6.31-.36,2,2.37,4.15,4,.54,6.84-1.6,1.24-2.24,3.67-3.79,5a13,13,0,0,0-3.6,15.06C938.52,281.51,944.36,282.47,949.32,281.7Z"/><path d="M1041.92,407.6c-4.37-.77-8.16-2.48-12-4-10.39-4.16-20.65-7.52-31.51-.46-5.56,3.62-16,0-19.79-5.85-1.9-2.9-.22-5.68.83-8.33a54.13,54.13,0,0,1,13.2-19c4.62-4.46,11.57-2.27,13.39,4.14,1.37,4.82,8.3,6.69,12.06,3.4,1.75-1.53.77-2.47-.35-3.35-4.36-3.47-1.8-5.2,1.61-6.77,1-.48,2.16-1.43,3.15-1.32,3.24.36,5.46-5.4,9.37-1.22,3.64,3.89.88,6.89-.69,10.24s-.07,5.15,2.92,6.62a135.46,135.46,0,0,1,14.75,7.88c2.66,1.74,6.72,4.09,6.17,7.3-.69,4.11-4.29,7.32-8,9.54C1045.46,407.32,1043.06,406,1041.92,407.6Z"/><path d="M1080.46,381.16c4.06-5.68,10-9.43,15.23-14,5.52-4.79,15.86-2.21,18.51,4.81,1.47,3.9-1.81,5.39-5.23,5.52-2.81.1-5.46,0-5.68,3.82-.2,3.42-.49,7.37,3.31,8.7,5,1.75,8,7.08,14.37,6.81,2.74-.11,5.67,3.73,6.2,7.08.37,2.29-1.75,4-4.42,4.14-3,.21-2,1.58-1.06,3.31,1.43,2.69,2.43,5.62,4.87,7.66,3.47,2.88,4.35,6.52,1.34,9.87-3.22,3.6-6.24,8.84-12.72,4.84-3.36-2.07-7.34-3.2-10.51-5.5-4.21-3.06-9.19-5.55-6.07-13.08,2.16-5.2.21-11.8-3.73-15.86C1089.39,393.69,1085.13,387.24,1080.46,381.16Z"/><path class="cls-1" d="M1149.64,502.06c-3.78,3.2-7.44,6.56-11.38,9.56s-9.76,1.79-10.11-2.06c-.37-4.29-.4-7.51-6.12-7.39-1.94,0-2-8.68-6.4-1.67-1.29-3.46-2.19-7.12-4-10.3s-4.3-5.61-6.44-8.43c-1.29-1.7.27-2.6,1.24-3.54s1.91-2.74,4.14-1.26,4.61,2.73,5.89,5.7c5.35,12.45,15.71,16.82,28.53,16.85.93,0,1.87.13,2.81.2Z"/><path d="M366.9,369c-5,1.28-8.55-2.66-13.16-3a14.41,14.41,0,0,0-9.51,2.13c-3.2,2.18-5.16,0-6.4-2.16s1.37-3,2.66-4c6.8-5.24,14.9-7.38,23.12-8.93,4.32-.82,12.5,7.74,10.72,11.86-2.72,6.32,1.36,5.37,4.61,5.44,8.29.18,8.29.09,14.32,6.61-4.09,5.8-11.88,6-16.54,11-2.27,2.45-3.1-.8-4.25-1.73s-3.6-2.34-1.16-4.54c1.51-1.36,3-3.46,1.36-4.81s-5.11-2.21-6.35-1.31c-3.92,2.83-9.75,3.59-10.73,10.11-.74,4.92-3.89,9-7.82,12.27-1.14.95-2.21,2.27-3.57.67-1.12-1.32-3.94-2.18-2.59-4.51,5.14-8.83,9.06-18.6,19.63-23.13C363.21,370.12,366,373.69,366.9,369Z"/><path class="cls-4" d="M380.52,391.39c1.81-.48,2.61,1.17,3.53,2.26,1.18,1.4-.67,1.83-1.26,2.58a4.5,4.5,0,0,1-2.21,1.63c-3.27.77-5.6,4.87-9.57,2.87-.77-.39-2.5-1.34-1.62-2.51A16.39,16.39,0,0,1,380.52,391.39Z"/><path d="M406.41,384.92c-1.23,3.35-4,4.47-6.43,5.44s-4.85-2.64-4.63-3.26c.89-2.43,3.51-3.65,5.85-4.75C404.18,380.94,404.27,384.77,406.41,384.92Z"/><path d="M515.52,677.84c-1.13,2.07-2.29,4.54-5.4,4.49-2.31,0-4.73-2.46-4.14-3.66,1.19-2.43,3.68-4.4,6-5.91C512.45,672.5,515.43,675,515.52,677.84Z"/><path d="M522.86,686.69a4.66,4.66,0,0,1-5.35-3.35c-.27-1.65,1.86-3.46,4.1-3.8a4.39,4.39,0,0,1,4.79,3.38C526.67,684.6,524.47,686.25,522.86,686.69Z"/><path d="M727.35,226.63c-1.87-1-4.33-2.19-4.29-5.3,0-2.31,2.47-4.73,3.67-4.14,2.42,1.19,4.33,3.71,5.91,6.06C732.85,223.56,730.48,226.73,727.35,226.63Z"/><path class="cls-1" d="M969.44,283.68c-5.11,5-11,2.57-16.26,2.2-5.42-.37-8.72,4.32-13.87,4.09-1.72-.07-1.52,2.66-1.49,4.34.06,2.85,2.31,1.55,3.69,2,2.09.73,5.78-3.4,6.44,2.32-2.57-1.2-5.14-.74-7.65-.94-4.13-.33-5.36,1.58-5.48,5.55-.32,10.81-2.62,12.67-13.44,11.91-1.68-.12-3.71-.61-5,.11-7.63,4.26-15.29,3.55-23,.62.65-2.19,1.47-4,4.66-3.73,8.74.64,14-3.92,16.18-12.1a10.28,10.28,0,0,1,5.2-6.89c7.21-4.38,7.2-8.71.68-13.93-4.55-3.65-4.82-8.47.43-11.11,6.94-3.49,12.8-7.68,17-14.25.94-1.47,2.4-4.16,5.07-1.47,2.29,2.31-.05,3.27-1.14,4.66-1.74,2.22-3.34,4.57-5.21,6.67-3.8,4.26-3.88,9.69-2.31,14.14s6.88,6.3,11.63,6.65c4.16.3,8.38.55,12.65-1.09C961.48,282.22,965.39,282.61,969.44,283.68Z"/><path class="cls-1" d="M1029.6,365.33c2.13,3.53.87,6-.44,8.18-2.78,4.58-1.33,7.57,3,9.88,4.51,2.42,9.13,4.65,13.45,7.37,2.65,1.67,7.59,2,6.23,7-1.54,5.62-6.14,6.64-11.3,6.44-3.89-.16-7.1-2.17-10.57-3.51-10.41-4-20.62-7.47-31.53-.55C995.53,402,990.52,402,987,401c-5.23-1.4-7.84-5.49-5.23-11.16a66.7,66.7,0,0,1,11-17c1.63-1.81,3.47-4.27,6.22-2.81,2.25,1.19,4.48,2.39,4.45,6.24,0,5.23,4.66,5.92,8.83,5.62,4.49-.32,9.24-1.43,11.06-6,1.71-4.28-4.86-1-4.62-5.09C1021.43,368,1026.58,368.88,1029.6,365.33Z"/><path class="cls-1" d="M1124.52,404.77c-7.87.75-9,4.24-3.13,11.83,3,3.92,8.11,6.87,3.5,12.61-5,6.16-9.46,1.43-14.05-.78-2.3-1.12-4.77-1.95-6.94-3.28-2.88-1.76-4.46-4.32-3.22-7.87,2.91-8.34.66-15.64-5.8-21-4.84-4-6.17-10.21-10.79-14.12-1.92-1.62.37-2.46,1.17-3.17,3.9-3.45,7.82-6.9,12-10,4-3,12-2.1,14.75,5.07-4.2,1.09-9.79,0-11.32,5.8-1,3.56-1.07,7.89,1.66,10.11,4.62,3.74,9.86,7.36,15.44,9C1121.52,400.12,1123.72,401.1,1124.52,404.77Z"/><path class="cls-1" d="M340.5,366.6c6.06-7.47,14.35-8.42,22.06-10.66,4-1.16,9.2,3.57,9.18,7.75,0,2-1.1,2.33-2.71,2.29-1.93,0-4.07.55-5.75-.1C355.66,363,348.14,360.8,340.5,366.6Z"/><path class="cls-1" d="M375,386.47c-.52-.75-1.59-1.63-1.45-2.19.94-3.64,2.15-7.21,3.27-10.8,3.45,1.2,6.94-3.44,10.34,0,1.11,1.13,2.89,2.65,2.73,3.75-.24,1.64-2.35,2-4.13,1.79-3.06-.42-4.65,1-5.88,3.8C379.28,384.28,377.06,385,375,386.47Z"/><path class="cls-1" d="M357.75,376.44c-6.45,5.21-4.27,16.24-14.59,21.16C347.45,388.52,350.57,381.09,357.75,376.44Z"/></svg>