<svg xmlns="http://www.w3.org/2000/svg" viewBox="0 0 176.72 481.03"><defs><style>.a{fill:#9bcecf;}.b{fill:#47777b;}.c{fill:#9dccce;}.d{fill:#4b797c;}.e{fill:#4e7d81;}.f{fill:#48787b;}.g{fill:#548385;}.h{fill:#4e7a7d;}.i{fill:#537c7f;}.j{fill:#558184;}.k{fill:#7baaac;}.l{fill:#a3cfd0;}.m{fill:#4e7c7f;}.n{fill:#538082;}.o{fill:#aad0d0;}.p{fill:#85aeaf;}.q{fill:#4f7d7f;}.r{fill:#688183;}.s{fill:#568384;}.t{fill:#83adae;}.u{fill:#6e8786;}.v{fill:#78a2a3;}.w{fill:#628c8c;}.x{fill:#617d7e;}.y{fill:#6b8484;}.z{fill:#688;}.aa{fill:#7ba5a7;}.ab{fill:#467072;}.ac{fill:#4a7b7f;}.ad{fill:#497a7f;}.ae{fill:#5a8c8e;}.af{fill:#4e7f82;}.ag{fill:#639596;}.ah{fill:#46777a;}.ai{fill:#609293;}.aj{fill:#7aabae;}.ak{fill:#639496;}.al{fill:#639697;}.am{fill:#8abcbf;}.an{fill:#669799;}.ao{fill:#7bacae;}.ap{fill:#ecf8f8;}.aq{fill:#76a8ab;}.ar{fill:#6b9e9f;}.as{fill:#76a9aa;}.at{fill:#5c8f90;}.au{fill:#7bacb0;}.av{fill:#6c9b9e;}.aw{fill:#7aadae;}.ax{fill:#4e8183;}.ay{fill:#619495;}.az{fill:#74a7aa;}.ba{fill:#5d8e91;}.bb{fill:#76a8aa;}.bc{fill:#72a5a6;}.bd{fill:#699c9d;}.be{fill:#78a9ac;}.bf{fill:#4e7e81;}.bg{fill:#528182;}</style></defs><title>liberty</title><path class="a" d="M62,381.18a82.32,82.32,0,0,1-2.39-28C61,331.3,72.31,313.05,81.4,294c2.37-3.42,3.64-7.51,6.25-10.79-2.38,2.75-3.57,6.23-5.53,9.25C77.48,299.64,75,307.9,70.8,315.32c-.94,1.68-1.61,4.45-4.44,3.37-2-.75-1.72-2.8-1.38-4.6.14-.81.85-1.45.63-2.34a14,14,0,0,1-.82,2c-1.24,2.27-.94,6-5.19,5.42.95-5.06-1.06-9.09-4.43-12.64,9.36-18.95,19.07-37.64,37.14-50.14,5.29-4.86,10.08-10.22,15.09-15.37,1.48-1.27,2.34-3.14,3.48-4-1.47.47-1.92,2.75-3.56,3.77-5,5.38-9.88,10.87-15.4,15.75-6.76,5.61-13,11.84-19.48,17.67-4.58,4.09-9,10.67-17.08,6.54l6.48-19.54C59.48,245,69.52,231.92,73,217.21c.93-3.94,1.82-8.35,4.62-11.75-3.73,5.25-3.8,16.47-8.88,16-6.41-.56-10.33,3.95-15.77,3.41L53.1,221c-3.16-6.77.51-12.07,3.31-17.24-3,2.48-6.37,5.3-11.22,4.49-5.59-8.73-9.25-17.83-5.34-28.36,3.18.65,6.46.68,9.51,1.66.22.15.62.28.75.55.5,1,1.32.81,1,.07C48.92,176.74,49,171,48.89,165.32c1.94-13.56-4.72-25.88-5.71-39-.26-3.48-1-6.87-.23-10.35,4.25.33,2.08,4,3.19,6.2,0,1.26,1.61-.2.2,0-.85.1-.86-.12-.54-.88a16.7,16.7,0,0,0,.68-2.91c.46-6.2-3.23-13.33,4.07-18,9.75,6,6.91,16.65,8.62,25.22,2.59,13,.37,26.59,4.3,39.24.91-1.69,1-4.32,3.08-5.87a6.57,6.57,0,0,1,2.89-1.25c8,.93,15.85,1.5,22.29-4.77a35.1,35.1,0,0,1,16.46-3.19c8.64,1.39,17.22,2.88,19.65,13.39l-1.93,2.18c-6.09,4.44-9.55-2.62-14.47-3.31-7.25-2.94-15.25.66-20.55,7.93.24-.41,2.83-.65,5.33-1.53s1.86-4.74,4.79-6.34c3.85-2.1,7.11-2.72,10.63.15,1.92,1.5,6,1.12,5.38,4.75-.5,2.69-3.76,2.31-6,2.86-4.49,2.3-.78,7.43-2.26,8.74,1-1.38-1.32-6.45,3.29-8.36,3.66-.86,6.83-.41,8.85,3.21a18.59,18.59,0,0,1-1.26,15.6c-6.24,8.74-15.5,3.38-23.29,5-7.1-1.07-10.34-6.55-13.63-12-3.21-4.51,3-11.57-5-15.8-1.49,7.19,3.54,11.45,5.59,16.58,1.6,7.56,7.85,11.18,13.19,15.57,3,3.76,5.65,7.91,10.2,10.57-4.11-3.51-8.36-6.61-9.88-11.94a4.58,4.58,0,0,1,1.28-2.55c4.48-1.49,8.22-.62,11.08,3.38,1.87,2.62,3.85,5.21,7.7,4,2.83-5.83,3.78-12.31,6.58-18.12.9-1.85,1.6-4,4.35-3.44-.06,11.45.14,22.82,8.9,31.8-.49,1.8-4.19,2.35-2,5.17,4.59,4.17,11.08,6,14.22,11.84,2.74,6.14,5.15,12.46,8.32,18.38,4.28,8,8.17,8.32,13.15,1.32,2.71-3.81,5.12-5.24,9.61-2.54,6.59,4,13.53,7.34,20.32,11-2.41,3.21-4.39,6.58-4,10.82.39,3.54,5.72,6.1,2.09,10.45-1.7.63-5-6-5.24,1.17-6.92-.44-5.21,6.82-8.6,9.76-4.54,3.94-6.37,10-9.29,15.25-2.53,4.52-3.84,10-9.66,11.95-3.72,1.25-3,4.32-2.36,7.08a37.68,37.68,0,0,1,.91,14.68c-1.14,14.9,1.45,29.62,2.17,44.43.21,4.31.18,8.33-3.29,11.76-6,5.92-2.75,13.83-2.41,20.24,1.22,23-7.34,45-5.4,67.95.43,5.14.84,9.76,4.74,13.43-7.76,5.56-16.32,3.3-24.57,2.07-5.19-.77-6.19-5.57-5.89-10,.34-5,.44-9.92.45-13.91a57.47,57.47,0,0,1-1.62,17.25c-.65,2.37-1.45,5.14-4.47,5.27-3.8.16-4.53-3.08-4.87-5.84-1.42-11.35-.09-22.63,1.12-33.91.16-1.51,1.08-3.23.37-4-2.74,9,1.22,19.84-7.2,29.93-2.5-8.62-1.75-15.31.54-21.56-3,6-1.76,13.22-2.93,20-.63,3.62-1.57,8.44-5.32,7.94-5-.67-1.53-5.86-2.19-9-.44-2.14.87-4.1,1.72-6-2.73,5.34-1.76,11.37-3.11,16.95-.69,2.85-2.45,6-5.71,4.68-3-1.22-.5-4.35-.27-6.47-3.33,10.35-10,12.39-25.78,7.67C67.93,494.91,67.8,492,68.2,489c1.26-4.33,2.18-8.83,5.71-12.08,3-1.36,2.92,3,4.41,2.76,5.15-.68,3.45,2.51,3.64,4.59,1.43-5.2.78-11.2,2.49-16.82,2-8.95,3.3-18.12,8.31-26.1,7-4.78,14.85-8.22,22.18-12.51,3-1.83,3.57-4.5,3.92-7.91,1.16-11.23,4.8-14.78,16.88-17.89,8.87,2.29,12.92,7.94,12.44,17.15-.46,9.06.51,18.17-.2,24.35,0-11.56,2-26.09-2.32-40.2-1.94-6.39,0-10,5.53-12.59,5.65-4.55,2.64-10.72,1.73-15.55-2.2-11.71-3-23.6-5.4-35.25-1.74-9.14-2.56-18.43-4.37-27.56-.53-1.36-1.75.73-.55,0,3.28,9.57,2.62,19.84,5.34,29.51,1.33,13.74,4.48,27.23,5.55,41,.18,2.35,1.27,5-1.08,7-6.49,3.49-11.76,9-18.87,11.45-4.64,1.76-8.1,5.63-12.73,7.29-6.51,2.34-11.33-.93-9.58-7.48,2.21-8.29.47-16.8,2.88-24.9,1.69-12.81,2.19-25.75,4.24-38.5-.62.8,0,1.61-.11,2.47-1.22,9.44-2.89,18.84-3.19,28.39-2.71,10.21-1.67,20.85-3.81,31.21-1.36,6.61-1.87,14.09,4.27,19.71,2.81,2.57,2.88,5.5-.43,8-7.37,4.59-15.44,8-22.69,12.8C85,447.12,81.08,456.65,72,460.7a3.78,3.78,0,0,1-3.23-2.8c.7-13.47,9-24.25,12-36.32-.9.33-1,2.44-2.26,3.52-1.8,1.5-3.4,4.31-6.13,2.19-1.93-1.5-1.08-4-.23-5.92,8.68-19.75,16.8-39.8,28.65-56-9.22,10.25-20.49,20.92-31.48,31.86-2.63,2.61-5,6.31-9.69,5.26-.83-1.94-1.65-3.87-2.48-5.8C56.62,390.84,64.15,387.54,62,381.18Z" transform="translate(-23.65 -21.87)"/><path class="b" d="M59.59,402.48c15.88-14.53,31-29.78,46.52-45.27C94.6,380,82.05,402.26,72.57,427.1c6-3.28,6.76-10.05,12.81-14.24C82.26,429.58,74,443,70.1,457.77c-.72,10.94-6.19,20.27-9.81,29.83,1.14-1,1.39-3.27,3.08-4.44a3.8,3.8,0,0,1,2.85,0c4,3.48-1.12,9.86,4.14,12.94,2.48.09,5,0,7.44.3,10.29,1.31,18.49-.26,18.21-14.27,3.42,4.76.45,8.51,1.14,13.5,5.81-8.87,4.06-18.92,8.59-27,1.9,6.5-2.91,12.56-.52,20.49,7.16-10.95,3.67-23.5,9-33.69,2.16,7.91-2.68,15.47-.13,24.8L120.5,445l1.78.07v50.09c7.28-10.18,3.63-22.42,9.48-32.71,0,8.38.4,16.78-.13,25.12-.44,7.17,2.39,9.47,9.23,8.92,6.35-.52,12.77-.28,19.16-.37a9.25,9.25,0,0,1,2.12.22c4.89,1.57,13.81-3.61,14.14,3.4.24,5.07-9,2.48-13.83,2.51-41.94.26-83.89.14-125.83.13-2.49,0-5,0-7.47-.06-1.86,0-3.76-.47-4-2.59-.34-3,2.06-3,4.21-3.35,18.44-3,26.18-17.51,27.46-34.53C58.31,442.06,51.05,421.81,59.59,402.48Z" transform="translate(-23.65 -21.87)"/><path class="c" d="M51.19,101.13c-5.54,5.56.47,13.51-4,19.29-2.49-2-1.9-5-2.08-7.61s-2.18.51-2.64-1c-9.23-12.34-11.18-26.17-8.3-41C38.37,61.34,41,60.63,48.8,67c-1.6,9,8.17,14.24,7.46,23-.25,3,.49,6.15.78,9.23C55.23,100.28,52.54,98.64,51.19,101.13Z" transform="translate(-23.65 -21.87)"/><path class="d" d="M164.21,338.33c-3.4-6-3-12.89-4.32-19.36-.27-1.28.15-3.91.48-4,15-1.81,12.25-17.95,20.41-25,5.39-4.67,4.81-8.31-1.77-12.59,5.32-.74,8.2,5.57,12.72,1.32,3.74-3.52-3.66-4.33,0-7.62,2.91,1.18,5,4,6.75,7.35-4.51,7.82-6.07,17.72-15.69,22-.85.37-1.33,2.46-1.31,3.74C181.79,318.67,175.14,329.57,164.21,338.33Z" transform="translate(-23.65 -21.87)"/><path class="e" d="M52.92,224.9c5.36-.82,5.49-7.07,9.64-9.26l4.77,6.59,11.53-22.95c-2.48,23.14-13.07,41.59-17,61.84C51.31,250.91,49.24,238.62,52.92,224.9Z" transform="translate(-23.65 -21.87)"/><path class="f" d="M55.36,280.66c8.68-.13,13.24-7,19.14-11.7s11.34-9.36,17-14c2.08-.62,2.71.21,2.19,2.18a116.07,116.07,0,0,0-32.24,43.49c-1.19,2.8-2,6.25-6.27,5.91C42.92,297.79,53.11,289.26,55.36,280.66Z" transform="translate(-23.65 -21.87)"/><path class="g" d="M59.6,319.13c2.4-3.83,4.79-7.67,7.35-11.77,2.74,3.52-2.27,6.65.08,10.48,4.81-9.1,9.39-17.76,14-26.42,1.9-.56,2.92-.23,2,2-8.25,16.83-15.52,34-20.07,52.3-.64,2.55-.38,5.82-3.36,7.44C51.7,341.83,54.51,330.48,59.6,319.13Z" transform="translate(-23.65 -21.87)"/><path class="h" d="M51.19,101.13c-.46-1.56-3.17-3.4-1.52-4.41,2.71-1.67,5.14.87,7.37,2.5q3.47,19,6.92,38c1.09,4.08,1.52,8.35,3.55,12.17a19.13,19.13,0,0,1,.57,9.47c-3.66,4.42-.25,11.38-4.94,15.23-8.51-19.36-3.57-40.3-7.91-60.1C54.26,109.57,54.17,104.91,51.19,101.13Z" transform="translate(-23.65 -21.87)"/><path class="i" d="M127.84,163.1c-4.85-6.26-11-10.17-19.07-10.89a6.44,6.44,0,0,1-.9-8.25c6.6-3.75,10.91,1.36,15.82,4.13l17.53-3.29c-.32.81-.38,1.5-.75,1.78-3.87,2.93-12.1,3-11.86,7.34.36,6.78,10.42.34,13.38,6.29C137.63,162.89,132.08,159.84,127.84,163.1Z" transform="translate(-23.65 -21.87)"/><path class="j" d="M48.8,67c-6-2.91-11.11-2.43-14.63,3.93-2.68-4.3-4.57-9.16-8.7-12.46C33.67,50.9,49.54,51,58,58.56,56.25,62.8,49.45,61.52,48.8,67Z" transform="translate(-23.65 -21.87)"/><path class="k" d="M58,58.56a51.08,51.08,0,0,0-32.53-.13c-3.67-2.21-.82-4.18.23-6.21,9.2-7.53,23.19-7.63,31.81-.22C58.68,54.11,61.06,56.13,58,58.56Z" transform="translate(-23.65 -21.87)"/><path class="l" d="M57.51,52c-10.63-3.66-21.23-3.07-31.81.22-2.84-8.24,9-6.74,8.77-13.23a3.38,3.38,0,0,1,2.7.11c2.78,2,6.22,1.72,9.29,2.71a9.71,9.71,0,0,1,2.28,1.69C54.39,43.52,58.3,45.33,57.51,52Z" transform="translate(-23.65 -21.87)"/><path class="m" d="M119.65,173.74C117.26,170.65,114,172,111,172c-3.77,0-3.81-1.92-2.32-4.6L115,167c-.23-2.64-2.77-2.83-4.07-4.22-.69-.39-.94-.82-.75-1.27s.4-.7.61-.7c5.37.37,9.43,5.19,15.12,4.44q.93,7.47,1.87,14.95c-.73,1.38-1.45,2.76-2.18,4.13C117.51,184.24,122,177.05,119.65,173.74Z" transform="translate(-23.65 -21.87)"/><path class="a" d="M123.69,148.09c-5.25-.23-9.19-5.47-14.91-3.91-6.08,2.68-11.93,6.17-19,5.6a5.18,5.18,0,0,1-2.43-1.54l-.22-4.15c1-2.07,2.92-2.37,4.88-2.65,7.13,1.68,7.56-4.44,9.82-8.43,1.77.51,3,2.53,5.12,2.07,2.12,3.9,5.2,6.33,9.82,6.4a5.87,5.87,0,0,1,4.74,2.5Q122.6,146,123.69,148.09Z" transform="translate(-23.65 -21.87)"/><path class="n" d="M45.19,208.28l17.18-10.77c-6.07,8-7.7,15.77-9.27,23.52C47.46,218.64,42.37,215.92,45.19,208.28Z" transform="translate(-23.65 -21.87)"/><path class="o" d="M33.79,34.89c.73-2,1-4.36,2.27-5.77,3.41-3.69,7.3-9.23,12.68-6.53,5.72,2.88,6,8.92,2.5,14.55-.43-.22-.85-.44-1.29-.65-4.39-4.35-9.05-1-13.62-.48A3.27,3.27,0,0,1,33.79,34.89Z" transform="translate(-23.65 -21.87)"/><path class="p" d="M87.38,148.24l2.2.12c1.55,1.83,3.72,3.46,2,6.32-5.67,9.19-13.41,7.47-21.48,4.08.9-6.58,8-3.07,10.74-6.63,1.27-1.28,2.8-2.26,4.12-3.48Z" transform="translate(-23.65 -21.87)"/><path class="q" d="M48.89,165.32c3.76,6.81,3.6,14.51,5.75,22-3.81-.23-4.79-2.62-6-4.8-2.9-3.09-5.46-6.31-4.28-11Z" transform="translate(-23.65 -21.87)"/><path class="r" d="M85,148.65a4.3,4.3,0,0,1-2.49,4.27c-6.18,2.68-11-3.33-16.93-2.57-3.11-4.07-1.41-8.72-1.58-13.14C66.7,148.82,77.63,145.42,85,148.65Z" transform="translate(-23.65 -21.87)"/><path class="s" d="M148.94,229l-16.52-10.51c5.52-7.14,9-.66,13,2C148.89,222.41,149.21,225.61,148.94,229Z" transform="translate(-23.65 -21.87)"/><path class="t" d="M145.44,220.5c-4.42-.14-8.11-5.09-13-2-2-.64-4.3-1.94-3.6-4,1.27-3.79,5.2-1.63,7.86-2.49C141.51,212.88,144,216.1,145.44,220.5Z" transform="translate(-23.65 -21.87)"/><path class="u" d="M92,141.44c-.71,2.57-2.73,2.74-4.88,2.65l-9.87-12.27,1.12-1.46Z" transform="translate(-23.65 -21.87)"/><path class="v" d="M44.41,171.5c1.22,3.74,4.61,6.64,4.29,11-3.23.08-7,2.19-8.85-2.57A12.63,12.63,0,0,1,44.41,171.5Z" transform="translate(-23.65 -21.87)"/><path class="w" d="M62,381.18c1.43-.32,4.94-2.95,3.11,1.23-2.14,4.91-3.38,10.63-8,14.26C52.91,389.67,61.32,386.65,62,381.18Z" transform="translate(-23.65 -21.87)"/><path class="x" d="M107,135.08c-.65,1.45-.32,4.11-2.56,3.8-3.4-.47-1.56-3.94-2.56-5.87.58-2.59-.44-5.6,2.42-8.17C107.72,127.66,106.18,131.74,107,135.08Z" transform="translate(-23.65 -21.87)"/><path class="y" d="M121.54,144c-2.05.05-3.74-.56-4.74-2.5L130.24,130C128.6,137.14,124,139.89,121.54,144Z" transform="translate(-23.65 -21.87)"/><path class="z" d="M196.36,268c-4.37-5.7-1.42-8.71,4-10.82C200.69,261.39,198.72,264.77,196.36,268Z" transform="translate(-23.65 -21.87)"/><path class="aa" d="M33.79,34.89l1.89-.12c4.82,1,10.26-2,14.59,2.23l1,.14c-1.23,2-2.88,3.77-2.5,6.36l-2.25-.24c-2.7-3.16-7.62-.62-10.23-4L34.47,39C34.24,37.63,34,36.26,33.79,34.89Z" transform="translate(-23.65 -21.87)"/><path class="ab" d="M42.47,111.86c1.58-.1,3.75-6.69,4.64.36a65.9,65.9,0,0,1,.08,8.2c-.81.46-.47,3.63-2.29,1.37-1.21-1.51-1.34-3.89-1.95-5.87Z" transform="translate(-23.65 -21.87)"/><path class="ac" d="M66.13,483.57H64.39c-1.1-9.09,2.71-16.58,7.69-23.69,6.86-6,10.33-15.41,19.45-19.08a1.59,1.59,0,0,1,2.57.11q-3.5,13.69-7,27.41c-9.18-3.88-8.39,5.88-12.41,9.08q-2.23,5.61-4.46,11.23C67.67,487.93,70.32,483,66.13,483.57Z" transform="translate(-23.65 -21.87)"/><path class="ac" d="M141,250.49V238.87c4.72,7,13.77,8.52,9.65,18-.3.7,1.21,6.89,5.24,2.94,3.15-3.08,6.09.13,7,.91,2.13,1.81-.83,4.19-1.81,6.17-2.5,5-5.42,9.83-8.13,14.65-3.88-.28-5.2-3.8-7.91-5.3C138.28,268.53,142.2,259.11,141,250.49Z" transform="translate(-23.65 -21.87)"/><path class="ad" d="M134.43,403.75c-7.23,4.49-14.81,8.57-12.87,19.37.79,4.41-3.13,5.74-6.44,7.07-2.24.91-2.57-.15-2.09-2,2.94-1.82,4.58-4.17.44-6-6.82-3-6.06-8-5.13-14,2-12.47,3.24-25.06,4.79-37.6,5.23.59,2.4,3.91,2.17,6.35-.36,8.41-.2,16.83-1.94,25.16-1.21,5.81.8,8.12,6.76,4.94,4.61-2.46,9.43-4.53,14.15-6.78.87-.1,1.92-.54,2.16.82C136.7,402.59,135.59,403.21,134.43,403.75Z" transform="translate(-23.65 -21.87)"/><path class="ae" d="M106.72,289.13Q94.66,333.82,82.61,378.5l-4.27-1.24,26.19-88A1.37,1.37,0,0,1,106.72,289.13Z" transform="translate(-23.65 -21.87)"/><path class="af" d="M134.43,403.75c.46-1.2,2.09-2.45-.16-3.53a45,45,0,0,1,17.11-8.44l-.11-.12c-4.9,3.21-2.43,7.38-2.24,11.8.66,15.23.25,30.5.25,48.41C143.07,434.19,155.85,413.81,134.43,403.75Z" transform="translate(-23.65 -21.87)"/><path class="ag" d="M142.81,276.34c.28.65.54,1.31.86,1.94,7.18,14.31,20.84,27.59,5.64,43.91-1.66-1.77-1.94-5.32.63-8.75,5.15-6.87,4.09-13.4-1.36-19.11-6-6.26-5.5-16.85-16.39-20.45-4.93-1.64,2.11-4.28,4.22-6.14C140.77,269,142.53,272.09,142.81,276.34Z" transform="translate(-23.65 -21.87)"/><path class="ah" d="M95.83,193c6.82-3,15.17,1.76,21.38-4.26,6.52,4.94,2.63,11.05,1.89,16.81-5.31.74-10.24-.3-12-5.78-1.69-5.09-5.18-4.88-9.08-4.8A3.59,3.59,0,0,1,95.83,193Z" transform="translate(-23.65 -21.87)"/><path class="ai" d="M112.93,220.8,84.91,242c5.87-12,26.44-27,36.81-26.9.55,3.84-3.44,5-4.6,7.78C114.73,224.2,114.08,222,112.93,220.8Z" transform="translate(-23.65 -21.87)"/><path class="aj" d="M74.71,477.39c2.4-4.07-1.32-12.35,8.14-11.62,2,.15,2.4-.08,4.27,2.54l-3.79,18.2C80.32,482.61,75.64,481.83,74.71,477.39Z" transform="translate(-23.65 -21.87)"/><path class="ak" d="M110.79,160.84c.06.65.11,1.31.14,2-8.68-1.64-9.67-1-8.05,5.56.91,3.65-1.9,3.56-3.62,3.3-5.45-.83-10.47-1.67-6.44,9.71-5.65-6.75-7.71-13.84-3.95-14.75C96.19,164.85,101.21,153,110.79,160.84Z" transform="translate(-23.65 -21.87)"/><path class="al" d="M149,340.62c2,12,4.54,23.95,5.89,36,.56,5,4.86,11.86-3.65,15l.11.12c1.25-16.62-4.17-32.63-4.54-49.1C146.18,340.52,147.08,340,149,340.62Z" transform="translate(-23.65 -21.87)"/><path class="am" d="M72.08,459.87l-7.7,23.69c-.23.67-.28,1.53-.73,2-3,2.93.47,11.54-6.31,9.78-3.11-.81.5-7.43,2-11.12C62.87,475.37,65,466,70.1,457.77Z" transform="translate(-23.65 -21.87)"/><path class="an" d="M91.58,154.68q-1-3.17-2-6.32c6.39-1.41,12.06-6.2,19.2-4.18,0,2.68,0,5.36,0,8Z" transform="translate(-23.65 -21.87)"/><path class="ao" d="M95.83,193,98,195l-.09,2.42c-.63.81-.86,2-2.2,2.11L91,194.39c-3.06,2.25.1,6.55-4.5,8.75L83,182.29h0Z" transform="translate(-23.65 -21.87)"/><path class="ap" d="M65.54,150.35c.42-3.81,2.5-3.34,5.15-2.18,3.87,1.71,7.85,3.18,11.78,4.75-1.5,7.48-9.44,1.37-12.36,5.85l-1-.07-1,.15C64.88,156.72,67.22,152.93,65.54,150.35Z" transform="translate(-23.65 -21.87)"/><path class="aq" d="M156.32,353.2c5.06,12,3.32,24.67,4,37.11C156.92,378.15,159.38,365.39,156.32,353.2Z" transform="translate(-23.65 -21.87)"/><path class="ar" d="M115.3,376.9c-.61-2.15.34-4.84-2.17-6.35,1-11.46,2-22.93,5.46-34.08A164.39,164.39,0,0,1,115.3,376.9Z" transform="translate(-23.65 -21.87)"/><path class="as" d="M106.72,289.13l-2.19.13,10.35-34.88,2.66.79C114.18,266.56,112.47,278.4,106.72,289.13Z" transform="translate(-23.65 -21.87)"/><path class="at" d="M136.54,263.46c.91-9.5-4.9-18.14-3.81-28.83,3.88,7.66,6,14.61,6.06,22.12,2.55,1.85,3.08,4.48,3,7.43-.05,1.93-.5,3.87-2.65,3.51C137.32,267.39,137.63,264.78,136.54,263.46Z" transform="translate(-23.65 -21.87)"/><path class="au" d="M136.54,263.46c1,.88,2.07,2.54,3,2.48,1.95-.13,1.15-2.12.95-3.22a53.22,53.22,0,0,0-1.71-6c2.6-1.43,1.58-4.13,2.2-6.26,2.65,8.39,3.55,17.06,4.06,25.78l-2.24.07-6.4-8.6C136.46,266.32,136.5,264.89,136.54,263.46Z" transform="translate(-23.65 -21.87)"/><path class="av" d="M119.1,205.59c-.55-5.62,2.43-11.63-1.89-16.81,2.83-4.69,1.91-10,2.43-15,3.3,2.81.31,9.14,6,10.62Q122.36,195,119.1,205.59Z" transform="translate(-23.65 -21.87)"/><path class="ar" d="M116.47,300.87c-3.51-14.87,13.34-7.24,15.91-15.39C129.16,292.91,121.11,295,116.47,300.87Z" transform="translate(-23.65 -21.87)"/><path class="aw" d="M149,340.62l-2.18,2.06c-2.77-9.7-4.2-19.55-4-32.78C147.43,321.78,146.68,331.52,149,340.62Z" transform="translate(-23.65 -21.87)"/><path class="ax" d="M95.68,199.54l2.2-2.11c3.61,6.27,10.13,9.09,17,13.4C103.24,213.8,100.13,205.6,95.68,199.54Z" transform="translate(-23.65 -21.87)"/><path class="ay" d="M93.68,257.09l-2.19-2.18c4.56-5.51,9.14-11,15.49-14.6,1.15-.22,1.67.21,1.45,1.4C104.32,247.61,99.74,253.06,93.68,257.09Z" transform="translate(-23.65 -21.87)"/><path class="az" d="M108.67,167.41A4.27,4.27,0,0,0,111,172c-.28,3.82-.6,7.64-.84,11.46-.14,2.23-1.34,3.14-3.42,2.83-1.92-.28-4-2.21-2.91-3.34C108.24,178.48,104.06,171.59,108.67,167.41Z" transform="translate(-23.65 -21.87)"/><path class="ba" d="M113,428.15l2.09,2a71.16,71.16,0,0,1-21,10.71l-2.57-.11A106.23,106.23,0,0,1,113,428.15Z" transform="translate(-23.65 -21.87)"/><path class="bb" d="M66.13,483.57c1-.81,2.67-2.49,2.9-2.31,2.56,2,.47,4.91,1.22,7.35,0,2.52.07,5,.11,7.54C57.77,495.71,69.67,487.05,66.13,483.57Z" transform="translate(-23.65 -21.87)"/><path class="bc" d="M83,293.44l-2-2a35.3,35.3,0,0,1,9.6-13.58C89.09,283.55,87,288.92,83,293.44Z" transform="translate(-23.65 -21.87)"/><path class="bd" d="M108.43,241.71a2.29,2.29,0,0,0-1.45-1.4c1.47-4.61,5.56-6.82,9-9.68C115.24,235.54,111.78,238.59,108.43,241.71Z" transform="translate(-23.65 -21.87)"/><path class="be" d="M112.93,220.8l4.19,2c-2.22,4-5.35,7-10.06,10.07C107.5,227.46,113.32,225.51,112.93,220.8Z" transform="translate(-23.65 -21.87)"/><path class="bf" d="M36.26,39.26c3.54,1,9-2.93,10.23,4C42.85,42.51,37.32,46.61,36.26,39.26Z" transform="translate(-23.65 -21.87)"/><path class="bg" d="M50.27,37c-4.9-.49-10.29,2.23-14.59-2.23a18.37,18.37,0,0,1,12.57-3C53,32.37,50.21,35.05,50.27,37Z" transform="translate(-23.65 -21.87)"/></svg>