<svg id="Layer_1" data-name="Layer 1" xmlns="http://www.w3.org/2000/svg" viewBox="0 0 397.95 298.81"><defs><style>.cls-1{fill:#bd8966;}.cls-2{fill:#f4d3a0;}</style></defs><title>2arnfinn2furious</title><g id="Map"><path d="M365.12,295.63a7.53,7.53,0,0,1-1.77-.22L248.17,266.6,147.59,295.33a7.45,7.45,0,0,1-3.78.08L26.73,266.13A7.29,7.29,0,0,1,21.18,259V10.23a7.32,7.32,0,0,1,9.09-7.12L145.45,31.92,246,3.19a7.64,7.64,0,0,1,3.77-.08L366.89,32.39a7.35,7.35,0,0,1,5.55,7.11V288.31a7.29,7.29,0,0,1-7.32,7.32ZM35.82,253.31l109.63,27.42L246,252a7.53,7.53,0,0,1,3.77-.08l108,27V45.22L248.17,17.81,147.59,46.52a7.24,7.24,0,0,1-3.78.08l-108-27Z"/><path d="M145.58,295.63a7.31,7.31,0,0,1-7.31-7.32V39.5a7.32,7.32,0,1,1,14.63,0V288.31A7.32,7.32,0,0,1,145.58,295.63Z"/><path d="M248,266.35a7.31,7.31,0,0,1-7.31-7.31V10.23a7.32,7.32,0,1,1,14.63,0V259A7.31,7.31,0,0,1,248,266.35Z"/></g><g id="Handshake"><path d="M386.62,183.34a13.89,13.89,0,0,1-5.09,18.95l-2,1.15a13.9,13.9,0,0,1-7.84,1.84l-9.93-.64a13.87,13.87,0,0,1-6-25.86l2-1.15a13.83,13.83,0,0,1,7.83-1.84l9.94.64A13.83,13.83,0,0,1,386.62,183.34Zm-29,10.4a5.82,5.82,0,0,0,4.69,2.91l9.94.63a5.85,5.85,0,0,0,3.32-.77l2-1.15A5.86,5.86,0,0,0,375,184.43l-9.93-.64a5.9,5.9,0,0,0-3.31.78l-2,1.15A5.87,5.87,0,0,0,357.58,193.74Z"/><path d="M392,162.32a14,14,0,0,1-4.92,19.26l-1.73,1a14,14,0,0,1-8.6,1.77l-16.92-2a14.11,14.11,0,0,1-5.45-26.1l1.73-1a14.05,14.05,0,0,1,8.61-1.76l16.92,2A14,14,0,0,1,392,162.32Zm-35.78,8.86a6,6,0,0,0,4.55,3.18l16.93,2a5.82,5.82,0,0,0,3.65-.74l1.72-1a5.89,5.89,0,0,0,2.17-8,6.07,6.07,0,0,0-4.56-3.18l-16.92-2a5.82,5.82,0,0,0-3.65.74l-1.73,1A5.86,5.86,0,0,0,356.24,171.18Z"/><path d="M390.69,139.77A14,14,0,0,1,385.77,159L384,160a14.07,14.07,0,0,1-8.59,1.77l-16.94-2a14.11,14.11,0,0,1-5.43-26.1l1.73-1a14,14,0,0,1,8.59-1.77l16.93,2A13.93,13.93,0,0,1,390.69,139.77Zm-35.78,8.85a6.07,6.07,0,0,0,4.55,3.19l16.93,2a6,6,0,0,0,3.64-.74l1.72-1a5.88,5.88,0,0,0,2.16-8,6.07,6.07,0,0,0-4.55-3.19l-16.93-2a5.9,5.9,0,0,0-3.63.75l-1.73,1A5.88,5.88,0,0,0,354.91,148.62Z"/><path d="M389.35,117.21a14,14,0,0,1-4.92,19.26l-1.73,1a14,14,0,0,1-8.6,1.77l-16.93-2a14.1,14.1,0,0,1-5.44-26.09l1.73-1a14.06,14.06,0,0,1,8.61-1.77l16.92,2A13.93,13.93,0,0,1,389.35,117.21Zm-35.79,8.86a6,6,0,0,0,4.56,3.18l16.92,2a5.89,5.89,0,0,0,3.65-.75l1.72-1a5.89,5.89,0,0,0,2.17-8,6,6,0,0,0-4.56-3.17l-16.92-2a5.89,5.89,0,0,0-3.65.75l-1.72,1A5.89,5.89,0,0,0,353.56,126.07Z"/></g><path class="cls-1" d="M380.7,163.45l-16.92-2a5.82,5.82,0,0,0-3.65.74l-1.73,1a5.86,5.86,0,0,0-2.16,8,6,6,0,0,0,4.55,3.18l16.93,2a5.82,5.82,0,0,0,3.65-.74l1.72-1a5.89,5.89,0,0,0,2.17-8A6.07,6.07,0,0,0,380.7,163.45Z"/><path class="cls-1" d="M358.12,129.25l16.92,2a5.89,5.89,0,0,0,3.65-.75l1.72-1a5.89,5.89,0,0,0,2.17-8,6,6,0,0,0-4.56-3.17l-16.92-2a5.89,5.89,0,0,0-3.65.75l-1.72,1a5.89,5.89,0,0,0-2.17,8A6,6,0,0,0,358.12,129.25Z"/><path class="cls-1" d="M379.36,140.88l-16.93-2a5.9,5.9,0,0,0-3.63.75l-1.73,1a5.88,5.88,0,0,0-2.16,8,6.07,6.07,0,0,0,4.55,3.19l16.93,2a6,6,0,0,0,3.64-.74l1.72-1a5.88,5.88,0,0,0,2.16-8A6.07,6.07,0,0,0,379.36,140.88Z"/><path class="cls-1" d="M375,184.43l-9.93-.64a5.9,5.9,0,0,0-3.31.78l-2,1.15a5.86,5.86,0,0,0,2.53,10.93l9.94.63a5.85,5.85,0,0,0,3.32-.77l2-1.15A5.86,5.86,0,0,0,375,184.43Z"/><g id="Handshake-2" data-name="Handshake"><path d="M21.2,165.58l9.94-.64A13.91,13.91,0,0,1,39,166.78l2,1.15a13.88,13.88,0,0,1-6,25.87l-9.93.63a13.88,13.88,0,0,1-7.84-1.84l-2-1.15a13.87,13.87,0,0,1,6-25.86ZM37,174.87l-2-1.15a5.92,5.92,0,0,0-3.32-.78l-9.92.64a5.86,5.86,0,0,0-2.55,10.93l2,1.15a5.94,5.94,0,0,0,3.32.78l9.94-.64A5.86,5.86,0,0,0,37,174.87Z"/><path d="M15,144.63l16.92-2a14,14,0,0,1,8.61,1.77l1.73,1a14.11,14.11,0,0,1-5.45,26.1l-16.92,2a14.07,14.07,0,0,1-8.61-1.76l-1.72-1A14.11,14.11,0,0,1,15,144.63Zm23.26,7.69-1.73-1a5.83,5.83,0,0,0-3.65-.75L16,152.6a6.07,6.07,0,0,0-4.56,3.18,5.89,5.89,0,0,0,2.17,8l1.72,1a5.89,5.89,0,0,0,3.65.75l16.93-2a6,6,0,0,0,4.55-3.18A5.86,5.86,0,0,0,38.3,152.32Z"/><path d="M16.38,122.09l16.93-2a14,14,0,0,1,8.59,1.77l1.73,1a14.11,14.11,0,0,1-5.44,26.1l-16.93,2a14,14,0,0,1-8.59-1.77l-1.74-1a14.1,14.1,0,0,1,5.45-26.09Zm23.25,7.67-1.73-1a5.9,5.9,0,0,0-3.63-.75l-16.93,2a6.07,6.07,0,0,0-4.55,3.19,5.88,5.88,0,0,0,2.16,8l1.72,1a6,6,0,0,0,3.64.75l16.93-2a6.07,6.07,0,0,0,4.55-3.19A5.86,5.86,0,0,0,39.63,129.76Z"/><path d="M17.71,99.53l16.92-2a14.13,14.13,0,0,1,8.61,1.77l1.73,1a14.11,14.11,0,0,1-5.44,26.1l-16.93,2a14,14,0,0,1-8.6-1.77l-1.73-1a14.11,14.11,0,0,1,5.44-26.1ZM41,107.2l-1.72-1a5.89,5.89,0,0,0-3.65-.75l-16.92,2a6,6,0,0,0-4.56,3.18,5.88,5.88,0,0,0,2.16,8l1.73,1a5.89,5.89,0,0,0,3.65.75l16.92-2a6,6,0,0,0,4.56-3.18A5.89,5.89,0,0,0,41,107.2Z"/></g><path class="cls-1" d="M16,152.6l16.92-2a5.83,5.83,0,0,1,3.65.75l1.73,1a5.86,5.86,0,0,1,2.16,8,6,6,0,0,1-4.55,3.18l-16.93,2a5.89,5.89,0,0,1-3.65-.75l-1.72-1a5.89,5.89,0,0,1-2.17-8A6.07,6.07,0,0,1,16,152.6Z"/><path class="cls-1" d="M38.58,118.4l-16.92,2a5.89,5.89,0,0,1-3.65-.75l-1.73-1a5.88,5.88,0,0,1-2.16-8,6,6,0,0,1,4.56-3.18l16.92-2a5.89,5.89,0,0,1,3.65.75l1.72,1a5.89,5.89,0,0,1,2.17,8A6,6,0,0,1,38.58,118.4Z"/><path class="cls-1" d="M17.34,130l16.93-2a5.9,5.9,0,0,1,3.63.75l1.73,1a5.86,5.86,0,0,1,2.16,8A6.07,6.07,0,0,1,37.24,141l-16.93,2a6,6,0,0,1-3.64-.75l-1.72-1a5.88,5.88,0,0,1-2.16-8A6.07,6.07,0,0,1,17.34,130Z"/><path class="cls-1" d="M21.73,173.58l9.92-.64a5.92,5.92,0,0,1,3.32.78l2,1.15a5.86,5.86,0,0,1-2.53,10.93l-9.94.64a5.94,5.94,0,0,1-3.32-.78l-2-1.15a5.86,5.86,0,0,1,2.55-10.93Z"/><path class="cls-2" d="M35.82,19.61V97.42a14.07,14.07,0,0,1,7.42,1.85l1.73,1a14.14,14.14,0,0,1,.55,23.89,14,14,0,0,1,3,17.92,13.79,13.79,0,0,1-4.35,4.63,14,14,0,0,1,3,17.92,13.75,13.75,0,0,1-4.37,4.63,13.83,13.83,0,0,1-7,24.42v59.63l102.45,25.62V45.21Z"/><polygon class="cls-2" points="152.9 45.01 152.9 278.6 240.72 253.51 240.72 19.94 152.9 45.01"/><path class="cls-2" d="M350.65,197.74a13.87,13.87,0,0,1,3.2-17.63,13.84,13.84,0,0,1-4.37-4.63,14,14,0,0,1,3-17.92A14.18,14.18,0,0,1,351.18,135a14.14,14.14,0,0,1,.55-23.89l1.73-1a13.85,13.85,0,0,1,4.34-1.6V45.22L255.35,19.61v233.7L357.8,278.93V203.77A13.79,13.79,0,0,1,350.65,197.74Z"/></svg>