<svg xmlns="http://www.w3.org/2000/svg" viewBox="0 0 173.16 683.25"><defs><style>.a{fill:#605e5d;}</style></defs><title>royk</title><path class="a" d="M93.44,726.58c-18.81-16.77-40.15-31.51-55.72-50.88s-17.26-46-13.65-69.93c4.41-29.2,14.07-57.4,32.71-81.64a110.78,110.78,0,0,0,19.65-40.26c8.91-33.81-5.23-60.95-19.51-88.65C39,360.4,24.51,324.79,23.14,284.74c-.35-10.24,2.13-17.49,7.84-25.44,28.29-39.39,60.63-75,97.93-106,30.74-25.52,40.63-57.9,33.39-96.46-.6-3.23-.1-6.76.42-10.07.2-1.28,1.88-2.33,2.89-3.48,33.16,27.91,34.63,74,24.48,113.16-7.36,28.36-24.71,49.94-51.53,65.88-43.49,25.86-49.45,88-14,123.8,34.62,35,55.55,123.81,11.15,174-11.17,12.65-19.72,27.63-31,40.18C74.62,593.84,68.06,630.88,83.48,673c6,16.46,9.33,33.92,13.88,50.92Z" transform="translate(-22.47 -43.33)"/></svg>