<svg id="Layer_1" data-name="Layer 1" xmlns="http://www.w3.org/2000/svg" xmlns:xlink="http://www.w3.org/1999/xlink" viewBox="0 0 471.39 435.97"><defs><style>.cls-1{fill:url(#radial-gradient);}</style><radialGradient id="radial-gradient" cx="232.65" cy="218.18" r="218" gradientUnits="userSpaceOnUse"><stop offset="0" stop-color="#fff" stop-opacity="0.5"/><stop offset="0.36" stop-color="#e9e400" stop-opacity="0.5"/><stop offset="0.52" stop-color="#eae506" stop-opacity="0.49"/><stop offset="0.63" stop-color="#ebe71a" stop-opacity="0.45"/><stop offset="0.73" stop-color="#eeea3d" stop-opacity="0.38"/><stop offset="0.83" stop-color="#f2f06d" stop-opacity="0.29"/><stop offset="0.91" stop-color="#f8f6ab" stop-opacity="0.16"/><stop offset="0.99" stop-color="#fefef6" stop-opacity="0.02"/><stop offset="1" stop-color="#fff" stop-opacity="0"/></radialGradient></defs><title>shine2</title><polygon class="cls-1" points="450.65 24.2 257.52 187.77 421.87 0.18 367.07 0.18 252.44 174.4 320.15 0.18 279.32 0.18 236.97 173.78 256.16 0.18 214.24 0.18 223.49 164.63 185.43 0.18 143.47 0.18 207.67 169.01 98.15 0.18 45 0.18 207.97 181.94 14.65 21.74 14.65 68.66 200.97 190.96 14.65 106.5 14.65 136.94 188.71 198.27 14.65 157.84 14.65 186.25 189.04 212.99 14.65 208.85 14.65 231.57 178.29 223.87 14.65 246.93 14.65 273.63 183.97 233.93 14.65 294.36 14.65 325.31 200.97 240.6 14.65 363.26 14.65 410.89 195.44 262.44 41.1 436.18 95.97 436.18 208.61 265.94 143.42 436.18 184.16 436.18 221.88 266.85 207.6 436.18 250.5 436.18 241.13 269.53 279.7 436.18 319.81 436.18 251.27 265.02 366.85 436.18 421.78 436.18 259.8 254.05 450.65 412.63 450.65 365.95 263.65 243.2 450.65 327.97 450.65 298.47 284.44 241.25 450.65 277.89 450.65 251.41 290.13 231.19 450.65 236.37 450.65 211.5 275.58 215.66 450.65 188.73 450.65 161.54 274.01 204.67 450.65 140.41 450.65 108.54 263.65 193.56 450.65 70.45 450.65 24.2"/></svg>