<?xml version="1.0" encoding="UTF-8" standalone="no"?>
<!-- Generator: Gravit.io -->
<svg xmlns="http://www.w3.org/2000/svg" xmlns:xlink="http://www.w3.org/1999/xlink" style="isolation:isolate" viewBox="256 273 676.973 95.79" width="676.973" height="95.79"><path d=" M 932.948 368.79 C 932.967 368.383 932.973 367.974 932.973 367.565 C 932.973 315.373 830.361 273 703.972 273 C 578.766 273 476.894 314.583 475 366.102 L 932.948 368.79 Z " fill="rgb(65,88,81)"/><path d=" M 833.951 368.79 C 833.968 368.417 833.973 368.042 833.973 367.668 C 833.973 319.834 743.236 281 631.473 281 C 520.758 281 430.675 319.11 429 366.326 L 833.951 368.79 Z " fill="rgb(132,173,132)"/><path d=" M 660.951 368.79 C 660.968 368.527 660.973 368.264 660.973 368 C 660.973 334.333 570.236 307 458.473 307 C 347.758 307 257.675 333.824 256 367.056 L 660.951 368.79 Z " fill="rgb(247,243,188)"/><path d=" M 711.951 368.79 C 711.968 368.527 711.973 368.264 711.973 368 C 711.973 334.333 621.236 307 509.473 307 C 398.758 307 308.675 333.824 307 367.056 L 711.951 368.79 Z " fill-rule="evenodd" fill="rgb(222,219,169)"/></svg>