<svg xmlns="http://www.w3.org/2000/svg" viewBox="0 0 406.56 320.58"><defs><style>.a{fill:#eb9b9c;}.b{fill:#c5d4cd;}.c{fill:#f8e2ca;}.d{fill:#c6d5ce;}.e{fill:#927672;}.f{fill:#eda8a3;}.g{fill:#eca7a2;}.h{fill:#eeb3b4;}.i{fill:#917671;}.j{fill:#eb9c9d;}.k{fill:#efecea;}.l{fill:#f4efeb;}.m{fill:#f3f0ec;}.n{fill:#f0efeb;}.o{fill:#f4f2ef;}.p{fill:#f7e1ca;}.q{fill:#f8e1ca;}.r{fill:#f8e3ca;}.s{fill:#f7e2ca;}</style></defs><title>tipi</title><path class="a" d="M112.31,38.66c-1.42,3.14-.34,5.94,1,8.89q40.29,87.72,80.44,175.51c2.71,5.92,5.12,12,8.15,17.73,2,3.78.46,5-3,5.8-16,3.78-32.06,7.55-48.72,7.7-8.48.08-16.9,0-25.41,1.2-20.73,2.9-41.32-2-62.06-2.22a183.29,183.29,0,0,1-44.46-6.1c-5.3-1.39-6.5-2.81-4-8.07q40.39-83.37,80.24-167c4.06-8.48,8-17,12.17-25.45,1.37-2.75,2-5.32.91-8.21,1.69-.6,2.19-3.28,4.37-2.67C113.19,36.15,113,37.59,112.31,38.66Z" transform="translate(-12.97 -1.93)"/><path class="b" d="M355,109.62q24.58,53.87,49.16,107.74c4.79,10.51,9.29,21.16,14.41,31.52,2.2,4.45.61,5.77-3.56,7a191,191,0,0,1-43.35,7.49c-30.69,1.4-61.37,1.88-92.08-1-15.19-1.42-30.27-2.83-45.09-6.32-3.64-.86-6.25-1.62-3.83-6.6,22.22-45.74,44.12-91.63,66.16-137.45,1.14-2.37,2.65-4.57,4-6.85l1,.71c1.88,3.28,5.11,3.21,8.42,3.2,14.14,0,28.28-.11,42.43,0A5.74,5.74,0,0,1,355,109.62Z" transform="translate(-12.97 -1.93)"/><path class="c" d="M152.68,271.64c3.39-12.11,10.48-22.68,15.8-34,19.89-42.25,40.37-84.23,60.73-126.27a7.3,7.3,0,0,0-.06-7.38c-1.79-3.36-4.4-6.5-4.15-10.6h0l5.21,7.68c4.56-10.65.66-21.94,4.23-32.33.84,9.67-1.69,19.3,0,29,3.11-1.24,1.83-5,5.09-6.67.22,5.18-3,8.63-4.93,12.45a8.18,8.18,0,0,0-.23,8Q252,149.1,269.29,186.76c13.41,29.25,26.67,58.55,40,87.83a6.78,6.78,0,0,1-1.89,1.47c-11.39,3.34-23.12,3.54-34.89,3.44-7-.07-13.95-.17-20.89.05-.48,5.82,1.08,11.64-2.6,16.71-4.66.07-4.64-3.69-5.4-6.43-2.58-9.25-4.87-18.57-8.06-28.19-4,5.32-2.17,13-8.5,16.78-11.18,2-22.52,1.6-33.63.69-9.9-.81-20-.32-29.73-2.63C159.72,275.53,155.06,275.94,152.68,271.64Z" transform="translate(-12.97 -1.93)"/><path class="c" d="M246.14,320.72c-6.73,2.61-13.87,1.85-20.55.91-11.88-1.66-23.83-1.47-35.7-2.14a359.9,359.9,0,0,1-48.64-6.17c-5.49-1.06-7.61-3.15-5.05-8.72,1.81-3.93,4-7.61,6.07-11.4,5-2.09,9.74.34,14.56.95a366.14,366.14,0,0,0,52,2.92c3.69-.06,7.49-.57,11,1,4,3.73,1.2,7.7,0,11.32-1.77,5.53-.06,8,5.9,8.57,4.24.41,8.47.48,12.71.63C241.22,318.71,244.09,318.42,246.14,320.72Z" transform="translate(-12.97 -1.93)"/><path class="d" d="M355,109.62l-1.41,0c-7.13-4.6-15.24-3.48-23.15-3.69-9.74-.27-19.5.82-29.21-.51l-.42-.34C306.48,89.51,314.66,75,321.9,60c2.84-5.87,3.83-10.75.34-16.82-4.15-7.21-7-15.09-9.84-22.95,6.24,7.34,8.37,16.69,13.89,26.13.68-12.72,2.41-23.9,1.85-35.31l1.86.17V41.63l10.48-20.26,1.6.75c-3.94,8.13-7.76,16.32-11.87,24.37-1.52,3-2.11,5.46-.55,8.74C338.25,73.29,346.56,91.48,355,109.62Z" transform="translate(-12.97 -1.93)"/><path class="c" d="M316.74,293.29c4,4.13,4.58,9.91,7.65,14.51,1.44,2.16.35,3.47-2.14,4.11a378.17,378.17,0,0,1-38.62,7.46c-10.53,1.54-20.8.22-31.18-.07-2.78-6.49-5.94-12.91-3.69-20.24,2-1.9,4.49-2,7-2,19.47-.09,39,.83,58.09-4.27A4.37,4.37,0,0,1,316.74,293.29Z" transform="translate(-12.97 -1.93)"/><path class="e" d="M248.79,300.52c.65,6.36,4.49,12.15,3.66,18.78-1.76,1.83-4.16,1.13-6.31,1.42-8.59-.75-17.24.16-25.85-1.3-4-.68-5.12-1.78-3.91-5.45,1.62-4.94,2.92-10,4.36-15a8.61,8.61,0,0,1-.23-4c1.23-4.91,3.09-9.63,4.77-14.41a7.71,7.71,0,0,1,2.6-3.21q3.41-10.57,6.82-21.15l1.43-.18q5.79,20,11.57,40C249.31,297.27,248.28,299.07,248.79,300.52Z" transform="translate(-12.97 -1.93)"/><path class="f" d="M227.88,277.41a3,3,0,0,1-1.11,3c-.73.07-1.46.24-2.19.27-8.94.3-9.05.34-5.09,8.09,1.21,2.36,1.33,4.93,2.35,7.29,0,1.11,0,2.2-1.1,2.92-24.09.14-48.2.46-72-4.27-2.18-.43-4.33-1-6.49-1.53,2.78-7.48,5.92-14.82,10.41-21.56,7.95,2.91,16.31,3.57,24.69,4.46C194.19,277.87,211,277.25,227.88,277.41Z" transform="translate(-12.97 -1.93)"/><path class="g" d="M248.79,300.52c-1.36-1.26-1.17-2.87-1.09-4.46,2.88-4,.79-8.82,2.48-13.15,1.27-3.28-4.17-1.6-4.9-5.05,21-1,42,1.17,62.5-3.25-1.86,3.67-1.86,3.67-7.73,5.55,1.15,2.81,3.56,4.33,5.72,6,2.92-1.12,1.26-4.82,4.68-5.87,3,3.31-.23,10.16,6.27,11.74a5.89,5.89,0,0,1,0,1.26c-11.12,4.62-23,5-34.84,5.81C270.87,299.86,259.69,297.37,248.79,300.52Z" transform="translate(-12.97 -1.93)"/><path class="h" d="M112.31,38.66c-1.36-5.16-3.25,2.18-4.74-.19q-6.69-13.69-13.39-27.39l2.17-1,12,25.62c3.2-11.31,1.77-22.72,3.62-33.81,3.35,9.78-1.37,19.54.94,30.75L126.75,4.6l1.81.79C123.49,16.62,118.66,28,112.31,38.66Z" transform="translate(-12.97 -1.93)"/><path class="c" d="M316.72,292c-10.64,1.39-3.39-7.34-6.45-10.26a3.63,3.63,0,0,0-.79.82c-1.15,2.29,1.81,5.91-2.43,7.13-1,.3-10.53-9.07-10.34-10,.44-2.23,2.43-2.05,4.1-2.17,2.7-.2,5.69.33,7-2.92l1.51,0Q313,283.3,316.72,292Z" transform="translate(-12.97 -1.93)"/><path class="c" d="M225,93.41c-3.05-4.24-3.05-4.24-4-8.71,3,3.1,3,3.1,4,8.7Z" transform="translate(-12.97 -1.93)"/><path class="i" d="M114.54,190.27c5.31,19.51,10.49,39,16,58.5,1,3.62-.9,4.32-3.43,4.71-9.67,1.52-19.4,1.14-29.09.16-3.32-.33-4.61-2.44-3.57-5.68q9.27-28.87,18.46-57.76Z" transform="translate(-12.97 -1.93)"/><path class="i" d="M329.22,198.27c5.31,19.51,10.49,39,16,58.5,1,3.62-.9,4.32-3.43,4.71-9.68,1.52-19.4,1.14-29.09.16-3.32-.33-4.61-2.44-3.57-5.68q9.27-28.87,18.46-57.76Z" transform="translate(-12.97 -1.93)"/><path class="j" d="M301.2,105.45c2.79-2.15,6.11-1.56,9.28-1.57,10.41,0,20.83.31,31.22-.14,5.54-.25,9.51,1,11.86,5.91-1.42,1.88-3.55,1.39-5.47,1.4-14.16,0-28.33-.28-42.48.16C300,111.39,300.11,109.14,301.2,105.45Z" transform="translate(-12.97 -1.93)"/><path class="k" d="M375.66,246.15c-2.9-.61-4-2.29-3.77-4.7.19-2.11,1.43-3.76,3.74-3.6,2.7.18,4.9,1.85,4.57,4.52C379.94,244.49,377.84,245.83,375.66,246.15Z" transform="translate(-12.97 -1.93)"/><path class="l" d="M403.57,234.88c2.74.1,4.05,1.39,4.25,3.56.22,2.4-.7,4.38-3.47,4.62-2.39.2-3.64-1.36-3.89-3.49A4,4,0,0,1,403.57,234.88Z" transform="translate(-12.97 -1.93)"/><path class="m" d="M364,239.19c2.14.6,4.19,1.83,4.13,4.16a3.73,3.73,0,0,1-4.38,3.71,4.37,4.37,0,0,1-3.82-4.55C360,240.35,361.52,239.2,364,239.19Z" transform="translate(-12.97 -1.93)"/><path class="n" d="M351.29,239.15c2.54.33,3.7,1.64,3.87,3.78.21,2.7-1.71,3.94-4,4.19-2.42.26-3.35-1.58-3.44-3.66A3.84,3.84,0,0,1,351.29,239.15Z" transform="translate(-12.97 -1.93)"/><path class="o" d="M394.31,240.64c-.08,2.14-1.06,3.71-3.4,3.91s-3.66-1.19-3.93-3.34c-.29-2.31.81-3.55,3.34-3.6C392.56,237.57,394.26,238.08,394.31,240.64Z" transform="translate(-12.97 -1.93)"/><path class="p" d="M221.84,296.08a76.05,76.05,0,0,1-4.41-7.38c-1.36-2.95-5.4-7.13-3.22-8.71,3.13-2.28,8.44-2.21,12.56.44Q224.31,288.26,221.84,296.08Z" transform="translate(-12.97 -1.93)"/><path class="q" d="M178.29,296.17l8.67-9.74c-5.61,1.59-6.89,5.89-10.52,7.2-1.67-.39-1-1.87-1.26-2.87-4-14.62-3.73-14.87,11.74-11.87,4.59.89,10.32,11.21,8.8,15.69-.51,1.51-1.74,1.55-2.95,1.57C188.38,296.2,184,296.17,178.29,296.17Z" transform="translate(-12.97 -1.93)"/><path class="r" d="M210.91,280.7l7.19,14.24c-.62.64-.77.93-.92.94-5.14.25-13.8,2-14.6-.66C201.1,290.21,207.48,285.93,210.91,280.7Z" transform="translate(-12.97 -1.93)"/><path class="c" d="M158.73,290.42c3.61-1.59,5.17-5,7.52-7.69,2-2.3,4.07-3.29,4.6,1a8.55,8.55,0,0,0,.31,1.4c1.05,3.33,3,9.12,1.37,9.72-3.76,1.34-8.61.29-12.92-.37-2.77-.42-.33-2.77-.85-4.14Z" transform="translate(-12.97 -1.93)"/><path class="c" d="M158.76,290.39c-1,0-2.53,1.28-2.92-.69s-.39-4.23-.84-6.29c-.6-2.76-2.19-6.68.45-7.77s6.77.1,10,1c2.66.77.9,2.37,0,3.8-2.17,3.36-5.9,5.77-6.7,9.95Z" transform="translate(-12.97 -1.93)"/><path class="c" d="M207.44,279.26c-.86,6.31-6.52,9.26-8.47,15.16C192.93,279.36,193.44,278.5,207.44,279.26Z" transform="translate(-12.97 -1.93)"/><path class="c" d="M152.51,280.23c.14,2.81.3,5.62.41,8.43.05,1.45,2,3.22-.46,4.27-2,.84-3.87-.09-5.59-1.07-2.33-1.32-.75-2.92-.12-4.27,1.26-2.69,2.75-5.29,4.15-7.93Z" transform="translate(-12.97 -1.93)"/><path class="c" d="M280.71,289c-.4,3.14,3.71,4.51,3.21,8.64H266.05c2.53-5.66,4.64-10.36,6.94-15.49,3.82,1.66,4.27,5.91,7.75,6.89Z" transform="translate(-12.97 -1.93)"/><path class="c" d="M293.4,280.6c2.49,2.24,4.69,3.79,6.3,5.77,2,2.45,7.61,4.9,5.38,7.21-2.46,2.53-8,2.86-12.52,2.5-2.82-.23-3-2.2-2.52-4.15C291,288.36,292.12,284.84,293.4,280.6Z" transform="translate(-12.97 -1.93)"/><path class="c" d="M254,280.63H271.3c-2.6,5.2-4.91,9.84-7.65,15.33C260.34,290.69,257.49,286.14,254,280.63Z" transform="translate(-12.97 -1.93)"/><path class="q" d="M280.74,289a6.5,6.5,0,0,0-.41-2.06c-3.76-6.48-3-7.53,4.95-8.05,4.93-.32,6.12,1.22,4.55,5.54-.95,2.65-1.39,5.47-2.13,8.2-.11.39-.63.68-1.13,1.19L280.71,289Z" transform="translate(-12.97 -1.93)"/><path class="s" d="M253.21,283.29c3.11,5.07,5.76,9,7.09,13.73C249,298.56,249,297.22,253.21,283.29Z" transform="translate(-12.97 -1.93)"/></svg>