<svg xmlns="http://www.w3.org/2000/svg" viewBox="0 0 2213.88 825.83"><defs><style>.a{fill:#ead74e;}.b{fill:#423f4c;}.c{fill:#f7f7f7;}.d{fill:#b73d3d;}</style></defs><title>titanic</title><rect class="a" x="617.6" y="68.54" width="100.17" height="260" transform="translate(-21.3 25.72) rotate(-4.68)"/><rect class="b" x="605.79" y="35.23" width="100.17" height="38.12" transform="translate(-9.57 24.27) rotate(-4.68)"/><rect class="b" x="882.78" y="34.84" width="100.17" height="38.12" transform="translate(-8.62 46.86) rotate(-4.68)"/><rect class="b" x="1167.12" y="34.26" width="100.17" height="38.12" transform="translate(-7.62 70.05) rotate(-4.68)"/><rect class="b" x="1464.6" y="33.42" width="100.17" height="38.12" transform="translate(-6.56 94.31) rotate(-4.68)"/><rect class="a" x="894.58" y="68.14" width="100.17" height="260" transform="translate(-20.34 48.3) rotate(-4.68)"/><rect class="a" x="1179.05" y="69.12" width="100.17" height="260" transform="translate(-19.47 71.51) rotate(-4.68)"/><rect class="a" x="1476.57" y="68.73" width="100.17" height="260" transform="translate(-18.45 95.77) rotate(-4.68)"/><path class="b" d="M2216.68,454.94s-60.48,163.16-68.87,184.25a6.45,6.45,0,0,1-.48,1l-.64,1.11L31.56,646.92c41.88-79.47.71-152-10.8-190.78Z" transform="translate(-7.33 -29.4)"/><path class="c" d="M20.76,456.14S.46,435,9.78,423L2221.21,423s-.15,12-4.53,32Z" transform="translate(-7.33 -29.4)"/><polygon class="c" points="281.61 393.63 575.67 264.43 1735.47 264.43 1939.4 393.56 281.61 393.63"/><circle class="b" cx="404.19" cy="374.56" r="14"/><circle class="b" cx="468.19" cy="374.56" r="14"/><circle class="b" cx="530.19" cy="374.56" r="14"/><circle class="b" cx="587.61" cy="374.56" r="14"/><circle class="b" cx="651.61" cy="374.56" r="14"/><circle class="b" cx="713.61" cy="374.56" r="14"/><circle class="b" cx="769.61" cy="374.56" r="14"/><circle class="b" cx="833.61" cy="374.56" r="14"/><circle class="b" cx="895.61" cy="374.56" r="14"/><circle class="b" cx="957.95" cy="374.56" r="14"/><circle class="b" cx="1021.95" cy="374.56" r="14"/><circle class="b" cx="1083.95" cy="374.56" r="14"/><circle class="b" cx="1141.38" cy="374.56" r="14"/><circle class="b" cx="1205.38" cy="374.56" r="14"/><circle class="b" cx="1267.38" cy="374.56" r="14"/><circle class="b" cx="1323.38" cy="374.56" r="14"/><circle class="b" cx="1387.38" cy="374.56" r="14"/><circle class="b" cx="1449.38" cy="374.56" r="14"/><circle class="b" cx="1515.58" cy="374.56" r="14"/><circle class="b" cx="1579.58" cy="374.56" r="14"/><circle class="b" cx="1641.58" cy="374.56" r="14"/><circle class="b" cx="1699.01" cy="374.56" r="14"/><circle class="b" cx="1763.01" cy="374.56" r="14"/><circle class="b" cx="1825.01" cy="374.56" r="14"/><circle class="b" cx="531.84" cy="317.56" r="14"/><circle class="b" cx="589.26" cy="317.56" r="14"/><circle class="b" cx="653.26" cy="317.56" r="14"/><circle class="b" cx="715.26" cy="317.56" r="14"/><circle class="b" cx="771.26" cy="317.56" r="14"/><circle class="b" cx="835.26" cy="317.56" r="14"/><circle class="b" cx="897.26" cy="317.56" r="14"/><circle class="b" cx="959.61" cy="317.56" r="14"/><circle class="b" cx="1023.61" cy="317.56" r="14"/><circle class="b" cx="1085.61" cy="317.56" r="14"/><circle class="b" cx="1143.03" cy="317.56" r="14"/><circle class="b" cx="1207.03" cy="317.56" r="14"/><circle class="b" cx="1269.03" cy="317.56" r="14"/><circle class="b" cx="1325.03" cy="317.56" r="14"/><circle class="b" cx="1389.03" cy="317.56" r="14"/><circle class="b" cx="1451.03" cy="317.56" r="14"/><circle class="b" cx="1517.24" cy="317.56" r="14"/><circle class="b" cx="1581.24" cy="317.56" r="14"/><circle class="b" cx="1643.24" cy="317.56" r="14"/><circle class="b" cx="1700.66" cy="317.56" r="14"/><circle class="b" cx="1764.66" cy="317.56" r="14"/><path class="d" d="M2146.69,641.29l-.59,1a8.46,8.46,0,0,1-.49.73c-9.52,12.21-64.93,80.66-68,83.24l-58.4,60.81c-48.78,41.1-98.94,72.53-212.28,67.63L144.94,851c-55.44-.13-87.25-11.6-114.73-43.45C-3.06,769,6.28,731,31.56,646.92Z" transform="translate(-7.33 -29.4)"/><path class="c" d="M122.26,490.1a47.75,47.75,0,0,1,8.85-.74c4.93,0,8.11.9,10.33,2.91a8.9,8.9,0,0,1,2.81,6.78,9.38,9.38,0,0,1-6.73,9.12v.16c2.76.95,4.4,3.5,5.25,7.21,1.16,5,2,8.42,2.75,9.8h-4.77c-.58-1-1.38-4.08-2.38-8.53-1.06-4.93-3-6.79-7.16-6.94h-4.34v15.47h-4.61Zm4.61,16.27h4.71c4.93,0,8.06-2.7,8.06-6.79,0-4.61-3.34-6.62-8.21-6.67a19.13,19.13,0,0,0-4.56.42Z" transform="translate(-7.33 -29.4)"/><path class="c" d="M180.87,509.65c-.26-5-.58-11-.53-15.42h-.16c-1.22,4.19-2.7,8.64-4.5,13.57l-6.31,17.33h-3.5l-5.77-17c-1.7-5-3.13-9.65-4.14-13.89h-.1c-.11,4.45-.37,10.44-.69,15.79l-.95,15.32h-4.4l2.49-35.72h5.88l6.09,17.28c1.49,4.4,2.71,8.32,3.61,12h.16c.9-3.61,2.17-7.53,3.76-12l6.36-17.28h5.88l2.23,35.72h-4.51Z" transform="translate(-7.33 -29.4)"/><path class="c" d="M192.75,519.72a16.31,16.31,0,0,0,8.26,2.33c4.72,0,7.48-2.49,7.48-6.09,0-3.34-1.91-5.25-6.73-7.1-5.83-2.07-9.44-5.09-9.44-10.12,0-5.57,4.61-9.7,11.56-9.7a16.23,16.23,0,0,1,7.89,1.75l-1.27,3.76a14.18,14.18,0,0,0-6.78-1.7c-4.88,0-6.73,2.92-6.73,5.36,0,3.34,2.17,5,7.1,6.89,6,2.33,9.11,5.24,9.11,10.49,0,5.51-4.08,10.28-12.5,10.28a18.49,18.49,0,0,1-9.12-2.28Z" transform="translate(-7.33 -29.4)"/><path class="c" d="M235.36,493.54H224.49v-3.92h26.45v3.92H240v31.8h-4.66Z" transform="translate(-7.33 -29.4)"/><path class="c" d="M259.53,489.62v35.72h-4.62V489.62Z" transform="translate(-7.33 -29.4)"/><path class="c" d="M274.37,493.54H263.5v-3.92H290v3.92H279v31.8h-4.66Z" transform="translate(-7.33 -29.4)"/><path class="c" d="M295.72,514.11,292,525.34h-4.77l12.13-35.72H305l12.18,35.72h-4.92l-3.82-11.23Zm11.72-3.61-3.5-10.28c-.8-2.33-1.33-4.45-1.86-6.52H302c-.53,2.12-1.11,4.29-1.8,6.47l-3.5,10.33Z" transform="translate(-7.33 -29.4)"/><path class="c" d="M322.38,525.34V489.62h5l11.45,18.07a101.7,101.7,0,0,1,6.41,11.61l.1,0c-.42-4.77-.53-9.12-.53-14.68V489.62h4.35v35.72h-4.66L333.2,507.22a111.91,111.91,0,0,1-6.68-11.93l-.16.06c.26,4.5.37,8.79.37,14.73v15.26Z" transform="translate(-7.33 -29.4)"/><path class="c" d="M361.87,489.62v35.72h-4.61V489.62Z" transform="translate(-7.33 -29.4)"/><path class="c" d="M394.89,524.17a22.88,22.88,0,0,1-9.44,1.7c-10.07,0-17.64-6.36-17.64-18.07,0-11.18,7.57-18.76,18.65-18.76a19.1,19.1,0,0,1,8.48,1.59l-1.11,3.76a16.78,16.78,0,0,0-7.21-1.48c-8.37,0-13.94,5.35-13.94,14.73,0,8.74,5,14.36,13.73,14.36a18.46,18.46,0,0,0,7.52-1.48Z" transform="translate(-7.33 -29.4)"/></svg>