<svg xmlns="http://www.w3.org/2000/svg" viewBox="0 0 1153.06 825.83"><defs><style>.a{fill:#423f4c;}.b{fill:#ead74e;}.c{fill:#f7f7f7;}.d{fill:#b73d3d;}</style></defs><title>titanicforan</title><rect class="a" x="98.78" y="25.52" width="100.17" height="38.12" transform="translate(-2.95 -8.37) rotate(-4.68)"/><rect class="a" x="396.26" y="24.67" width="100.17" height="38.12" transform="translate(-1.89 15.89) rotate(-4.68)"/><rect class="b" x="110.71" y="60.38" width="100.17" height="260" transform="translate(-14.8 -6.91) rotate(-4.68)"/><rect class="b" x="408.23" y="59.99" width="100.17" height="260" transform="translate(-13.77 17.36) rotate(-4.68)"/><path class="a" d="M16.92,446.82A213.82,213.82,0,0,0,1.6,487.21c-6,23,4,50,16,74a66,66,0,0,1,4,11c0,2,4,4,5,6,4.88,19.52,11.08,38.38,11.08,57.11l1040.67-2.77.64-1.11a6.45,6.45,0,0,0,.48-1c8.39-21.09,68.87-184.25,68.87-184.25Z" transform="translate(0.19 -20.65)"/><path class="c" d="M1152.87,414.21l-1117.28.05a310.17,310.17,0,0,0-18.67,32.56l1131.42-.61C1152.72,426.22,1152.87,414.21,1152.87,414.21Z" transform="translate(0.19 -20.65)"/><path class="c" d="M674.47,285.08H70.88c6.58,43.15-5.63,86.49-31.28,123.13-1.36,2-2.69,4-4,6l842.8,0Z" transform="translate(0.19 -20.65)"/><circle class="a" cx="80.56" cy="374.56" r="14"/><circle class="a" cx="144.56" cy="374.56" r="14"/><circle class="a" cx="206.56" cy="374.56" r="14"/><circle class="a" cx="262.56" cy="374.56" r="14"/><circle class="a" cx="326.56" cy="374.56" r="14"/><circle class="a" cx="388.56" cy="374.56" r="14"/><circle class="a" cx="454.77" cy="374.56" r="14"/><circle class="a" cx="518.77" cy="374.56" r="14"/><circle class="a" cx="580.77" cy="374.56" r="14"/><circle class="a" cx="638.19" cy="374.56" r="14"/><circle class="a" cx="702.19" cy="374.56" r="14"/><circle class="a" cx="764.19" cy="374.56" r="14"/><path class="a" d="M82,352.22a14,14,0,1,0-10.8-22.91q-.9,6.81-2.39,13.55A14,14,0,0,0,82,352.22Z" transform="translate(0.19 -20.65)"/><circle class="a" cx="146.22" cy="317.56" r="14"/><circle class="a" cx="208.22" cy="317.56" r="14"/><circle class="a" cx="264.22" cy="317.56" r="14"/><circle class="a" cx="328.22" cy="317.56" r="14"/><circle class="a" cx="390.22" cy="317.56" r="14"/><circle class="a" cx="456.42" cy="317.56" r="14"/><circle class="a" cx="520.42" cy="317.56" r="14"/><circle class="a" cx="582.42" cy="317.56" r="14"/><circle class="a" cx="639.85" cy="317.56" r="14"/><circle class="a" cx="703.85" cy="317.56" r="14"/><path class="d" d="M37.68,635.32a75.68,75.68,0,0,1-1.08,12.89c-3,22-14,43-20,64-6,18-11,37-7,56,3,12,9,22,12,34,2,10,9,18,16,25,6.52,5.76,13.19,11.37,19.5,17.23L738.59,846c113.34,4.9,163.5-26.53,212.28-67.63l58.4-60.81c3.07-2.58,58.48-71,68-83.24a8.46,8.46,0,0,0,.49-.73l.59-1Z" transform="translate(0.19 -20.65)"/></svg>