<?xml version="1.0" encoding="UTF-8" standalone="no"?>
<!-- Generator: Gravit.io -->
<svg xmlns="http://www.w3.org/2000/svg" xmlns:xlink="http://www.w3.org/1999/xlink" style="isolation:isolate" viewBox="332.5 184.327 533.103 203.173" width="533.103" height="203.173"><path d=" M 378 292 C 370.667 292.667 405.677 257.677 413 257 C 424.256 245.172 466.421 234.372 475 240.398 C 549.205 232.872 594.689 243.273 621 226 C 657.786 206.749 675.557 189.928 699 192 C 729.77 192.659 780.683 200.876 780 192" fill="none" vector-effect="non-scaling-stroke" stroke-width="10" stroke="rgb(209,209,209)" stroke-linejoin="miter" stroke-linecap="round" stroke-miterlimit="3"/><path d=" M 457 312 C 505 310 535 276 583 291.002 C 588.604 291.208 594.27 291.541 600 292" fill="none" vector-effect="non-scaling-stroke" stroke-width="10" stroke="rgb(209,209,209)" stroke-linejoin="miter" stroke-linecap="round" stroke-miterlimit="3"/><path d=" M 600 380 C 620.56 365.162 653 349 725 351.471 C 749.667 352.667 758.343 345.52 751 330" fill="none" vector-effect="non-scaling-stroke" stroke-width="10" stroke="rgb(209,209,209)" stroke-linejoin="miter" stroke-linecap="round" stroke-miterlimit="3"/><path d=" M 340 380 C 375.525 369.837 400.049 378.316 430 371 C 538.708 324.383 618.532 299.253 653 330" fill="none" vector-effect="non-scaling-stroke" stroke-width="10" stroke="rgb(209,209,209)" stroke-linejoin="miter" stroke-linecap="round" stroke-miterlimit="3"/><path d=" M 683 257 C 701.449 253.267 715.459 255.611 725 264 C 749.952 266.826 765.212 262.17 770.75 250 C 793.333 241 861.093 236.343 858 250" fill="none" vector-effect="non-scaling-stroke" stroke-width="10" stroke="rgb(209,209,209)" stroke-linejoin="miter" stroke-linecap="round" stroke-miterlimit="3"/></svg>