<svg xmlns="http://www.w3.org/2000/svg" viewBox="0 0 11308.74 433.52"><defs><style>.a{fill:#1b1b6d;}</style></defs><title>wave-1</title><path class="a" d="M7.68,466.74H0c.73-1.17,2-1.21,3.14-1.47A365.35,365.35,0,0,0,42.5,454c40.44-14.17,77.14-35.11,111-61.23,14.45-11.16,27.92-23.45,41.33-35.8a122.05,122.05,0,0,0,21.55-25.3c2.69-4.35,5.5-8.62,8.26-12.94,15.41-24.12,31-48.12,47.67-71.41,24.19-33.79,50.07-66.19,79-96a541.87,541.87,0,0,1,53-48.24c22.16-17.48,45.69-32.83,71.29-44.86C509.15,42.4,544.2,33.29,581.4,33.24c.92,0,10.18.29,12.94.44a316.66,316.66,0,0,1,48.2,6.37c17.65,3.75,34.73,9.23,50.86,17.42A137.3,137.3,0,0,1,731.53,85.4c20.66,21.85,31.06,48.24,34,77.83a178.18,178.18,0,0,1,.6,24.67,176,176,0,0,1-4.93,35.31,17.9,17.9,0,0,1-.74,1.86c-1-10.71-2.8-17.42-6.34-25.15a104.7,104.7,0,0,0-41.36-46.38,66.13,66.13,0,0,0-20.7-8.63c-8-1.74-16-1.91-23.9.71-8.08,2.69-14.45,7.75-19.73,14.29S639.8,173.69,637,181.37a138.16,138.16,0,0,0-6.68,27.92,75.08,75.08,0,0,0,.23,24.35,102,102,0,0,0,11.42,31.15c8.35,15.28,19.32,28.58,31.42,41a355.18,355.18,0,0,0,34.6,30.72c22.52,17.75,46.51,33.34,71.18,47.91,34.24,20.21,69.71,38,105.87,54.5,18.39,8.38,37,16.81,55.79,24.23.66.26,1.28.61,1.92.92l-.17.48c-1,.08-2,.2-3,.22-5.12.07-10.23.16-15.35.17l-88.06.19c-9.36,0-18.72.1-28.07.12-4.88,0-9.76-.13-14.64-.11-15.35,0-30.71.17-46.06.18-27,0-54.07,0-81.11,0-16.15,0-32.31.18-48.46.25s-32.31.1-48.47.13l-65,.09-153.81.27q-31.44.06-62.87.12-33.48.06-67,.08l-100.31.1c-6.63,0-13.27.12-19.91.17-8.31.07-16.63.16-24.94.17q-32.4,0-64.8,0Z" transform="translate(0 -33.24)"/><path class="a" d="M950.38,466.74H942.7c.72-1.17,2-1.21,3.14-1.47A366.67,366.67,0,0,0,985.2,454c40.44-14.17,77.14-35.11,111-61.23,14.45-11.16,27.91-23.45,41.33-35.8a121.7,121.7,0,0,0,21.54-25.3c2.7-4.35,5.51-8.62,8.26-12.94,15.41-24.12,31-48.12,47.68-71.41,24.18-33.79,50.07-66.19,79-96a543,543,0,0,1,53-48.24c22.17-17.48,45.69-32.83,71.29-44.86,33.5-15.73,68.56-24.84,105.76-24.89.92,0,10.17.29,12.93.44a316.79,316.79,0,0,1,48.21,6.37c17.65,3.75,34.73,9.23,50.86,17.42a137.3,137.3,0,0,1,38.13,27.93c20.66,21.85,31,48.24,34,77.83a178.18,178.18,0,0,1,.6,24.67,176,176,0,0,1-4.94,35.31,14.27,14.27,0,0,1-.74,1.86c-1-10.71-2.79-17.42-6.34-25.15a104.62,104.62,0,0,0-41.35-46.38,66.23,66.23,0,0,0-20.7-8.63c-8-1.74-16-1.91-23.91.71-8.07,2.69-14.45,7.75-19.72,14.29s-8.67,13.78-11.52,21.46a137.49,137.49,0,0,0-6.68,27.92,75.08,75.08,0,0,0,.23,24.35,102.21,102.21,0,0,0,11.41,31.15c8.36,15.28,19.33,28.58,31.43,41a354,354,0,0,0,34.6,30.72c22.52,17.75,46.51,33.34,71.18,47.91,34.23,20.21,69.7,38,105.86,54.5,18.4,8.38,37,16.81,55.8,24.23.66.26,1.28.61,1.91.92l-.16.48c-1,.08-2,.2-3,.22-5.12.07-10.24.16-15.36.17l-88.06.19c-9.35,0-18.71.1-28.07.12-4.87,0-9.75-.13-14.63-.11-15.36,0-30.71.17-46.07.18-27,0-54.07,0-81.1,0-16.16,0-32.31.18-48.46.25s-32.32.1-48.47.13q-32.52.06-65,.09-76.9.12-153.82.27l-62.86.12q-33.48.06-67,.08l-100.31.1c-6.64,0-13.27.12-19.91.17-8.31.07-16.63.16-24.95.17q-32.39,0-64.79,0Z" transform="translate(0 -33.24)"/><path class="a" d="M1893.07,466.74h-7.68c.73-1.17,2-1.21,3.15-1.47A365.83,365.83,0,0,0,1927.89,454c40.44-14.17,77.14-35.11,111-61.23,14.45-11.16,27.91-23.45,41.32-35.8a122.05,122.05,0,0,0,21.55-25.3c2.69-4.35,5.5-8.62,8.26-12.94,15.41-24.12,31-48.12,47.67-71.41,24.19-33.79,50.07-66.19,79.05-96a541.87,541.87,0,0,1,53-48.24c22.17-17.48,45.69-32.83,71.29-44.86,33.5-15.73,68.56-24.84,105.75-24.89.92,0,10.18.29,12.94.44a316.5,316.5,0,0,1,48.2,6.37c17.65,3.75,34.73,9.23,50.87,17.42a137.45,137.45,0,0,1,38.13,27.93c20.66,21.85,31.05,48.24,34,77.83a179.74,179.74,0,0,1,.59,24.67,175.25,175.25,0,0,1-4.93,35.31,17.9,17.9,0,0,1-.74,1.86c-1-10.71-2.8-17.42-6.34-25.15a104.74,104.74,0,0,0-41.35-46.38,66.32,66.32,0,0,0-20.7-8.63c-8-1.74-16-1.91-23.91.71-8.07,2.69-14.45,7.75-19.73,14.29s-8.67,13.78-11.52,21.46a137.47,137.47,0,0,0-6.67,27.92,75.08,75.08,0,0,0,.22,24.35,102.49,102.49,0,0,0,11.42,31.15c8.36,15.28,19.32,28.58,31.42,41a355.18,355.18,0,0,0,34.6,30.72c22.53,17.75,46.51,33.34,71.18,47.91,34.24,20.21,69.71,38,105.87,54.5,18.4,8.38,37,16.81,55.8,24.23.65.26,1.27.61,1.91.92l-.16.48c-1,.08-2,.2-3.06.22-5.11.07-10.23.16-15.35.17l-88.06.19c-9.36,0-18.71.1-28.07.12-4.88,0-9.76-.13-14.63-.11-15.36,0-30.71.17-46.07.18-27,0-54.07,0-81.11,0-16.15,0-32.3.18-48.46.25s-32.31.1-48.47.13q-32.51.06-65,.09l-153.81.27q-31.44.06-62.87.12-33.46.06-67,.08l-100.3.1c-6.64,0-13.28.12-19.91.17-8.32.07-16.63.16-25,.17q-32.4,0-64.79,0Z" transform="translate(0 -33.24)"/><path class="a" d="M2834,466.74h-7.68c.73-1.17,2-1.21,3.15-1.47A365.83,365.83,0,0,0,2868.78,454c40.44-14.17,77.14-35.11,111-61.23,14.45-11.16,27.91-23.45,41.32-35.8a122.05,122.05,0,0,0,21.55-25.3c2.69-4.35,5.5-8.62,8.26-12.94,15.41-24.12,31-48.12,47.67-71.41,24.19-33.79,50.07-66.19,79-96a541.87,541.87,0,0,1,53-48.24c22.17-17.48,45.69-32.83,71.29-44.86,33.5-15.73,68.56-24.84,105.75-24.89.92,0,10.18.29,12.94.44a316.5,316.5,0,0,1,48.2,6.37c17.65,3.75,34.73,9.23,50.87,17.42a137.45,137.45,0,0,1,38.13,27.93c20.66,21.85,31,48.24,34,77.83a179.74,179.74,0,0,1,.59,24.67,175.25,175.25,0,0,1-4.93,35.31,17.9,17.9,0,0,1-.74,1.86c-1-10.71-2.8-17.42-6.34-25.15a104.74,104.74,0,0,0-41.35-46.38,66.32,66.32,0,0,0-20.7-8.63c-8-1.74-16-1.91-23.91.71-8.07,2.69-14.45,7.75-19.73,14.29s-8.67,13.78-11.52,21.46a137.47,137.47,0,0,0-6.67,27.92,75.08,75.08,0,0,0,.22,24.35,102.49,102.49,0,0,0,11.42,31.15c8.36,15.28,19.32,28.58,31.42,41a355.18,355.18,0,0,0,34.6,30.72c22.53,17.75,46.51,33.34,71.18,47.91,34.24,20.21,69.71,38,105.87,54.5,18.4,8.38,37,16.81,55.8,24.23.65.26,1.27.61,1.91.92l-.16.48c-1,.08-2,.2-3.06.22-5.11.07-10.23.16-15.35.17l-88.06.19c-9.36,0-18.71.1-28.07.12-4.88,0-9.76-.13-14.63-.11-15.36,0-30.72.17-46.07.18-27,0-54.07,0-81.11,0-16.15,0-32.3.18-48.46.25s-32.31.1-48.47.13q-32.51.06-65,.09l-153.81.27q-31.44.06-62.87.12-33.47.06-66.95.08l-100.3.1c-6.64,0-13.28.12-19.91.17-8.32.07-16.63.16-25,.17q-32.4,0-64.79,0Z" transform="translate(0 -33.24)"/><path class="a" d="M3776.66,466.74H3769c.73-1.17,2-1.21,3.14-1.47A365.35,365.35,0,0,0,3811.48,454c40.44-14.17,77.14-35.11,111-61.23,14.45-11.16,27.91-23.45,41.33-35.8a121.7,121.7,0,0,0,21.54-25.3c2.7-4.35,5.51-8.62,8.27-12.94,15.41-24.12,31-48.12,47.67-71.41,24.18-33.79,50.07-66.19,79-96a540.72,540.72,0,0,1,53-48.24c22.16-17.48,45.68-32.83,71.29-44.86,33.49-15.73,68.55-24.84,105.75-24.89.92,0,10.18.29,12.94.44a316.66,316.66,0,0,1,48.2,6.37c17.65,3.75,34.73,9.23,50.86,17.42a137.3,137.3,0,0,1,38.13,27.93c20.66,21.85,31.06,48.24,34,77.83a185.24,185.24,0,0,1-4.33,60,17.9,17.9,0,0,1-.74,1.86c-1-10.71-2.8-17.42-6.34-25.15a104.7,104.7,0,0,0-41.36-46.38,66.23,66.23,0,0,0-20.7-8.63c-8-1.74-16-1.91-23.91.71-8.07,2.69-14.44,7.75-19.72,14.29s-8.67,13.78-11.52,21.46a138.16,138.16,0,0,0-6.68,27.92,75.08,75.08,0,0,0,.23,24.35,102.21,102.21,0,0,0,11.41,31.15c8.36,15.28,19.33,28.58,31.43,41a355.18,355.18,0,0,0,34.6,30.72c22.52,17.75,46.51,33.34,71.18,47.91,34.24,20.21,69.7,38,105.87,54.5,18.39,8.38,37,16.81,55.79,24.23.66.26,1.28.61,1.92.92l-.17.48c-1,.08-2,.2-3.05.22-5.12.07-10.23.16-15.35.17l-88.06.19c-9.36,0-18.72.1-28.07.12-4.88,0-9.76-.13-14.64-.11-15.35,0-30.71.17-46.06.18-27,0-54.07,0-81.11,0-16.15,0-32.31.18-48.46.25s-32.31.1-48.47.13l-65,.09-153.81.27q-31.44.06-62.87.12-33.48.06-67,.08l-100.31.1c-6.63,0-13.27.12-19.91.17-8.31.07-16.63.16-24.94.17q-32.4,0-64.8,0Z" transform="translate(0 -33.24)"/><path class="a" d="M4719.36,466.74h-7.68c.72-1.17,2-1.21,3.14-1.47A366.67,366.67,0,0,0,4754.18,454c40.44-14.17,77.14-35.11,111-61.23,14.45-11.16,27.91-23.45,41.33-35.8,8.22-7.58,15.64-15.77,21.54-25.3,2.7-4.35,5.51-8.62,8.26-12.94,15.41-24.12,31-48.12,47.68-71.41,24.18-33.79,50.06-66.19,79-96A543,543,0,0,1,5116,103c22.17-17.48,45.69-32.83,71.29-44.86,33.5-15.73,68.56-24.84,105.75-24.89.92,0,10.18.29,12.94.44a316.79,316.79,0,0,1,48.21,6.37c17.65,3.75,34.73,9.23,50.86,17.42a137.3,137.3,0,0,1,38.13,27.93c20.66,21.85,31.05,48.24,34,77.83a178.18,178.18,0,0,1,.6,24.67,176,176,0,0,1-4.94,35.31,15.88,15.88,0,0,1-.74,1.86c-1-10.71-2.79-17.42-6.34-25.15a104.62,104.62,0,0,0-41.35-46.38,66.23,66.23,0,0,0-20.7-8.63c-8-1.74-16-1.91-23.91.71-8.07,2.69-14.45,7.75-19.72,14.29s-8.67,13.78-11.52,21.46a137.49,137.49,0,0,0-6.68,27.92,75.08,75.08,0,0,0,.23,24.35,102.21,102.21,0,0,0,11.41,31.15c8.36,15.28,19.33,28.58,31.42,41a355.18,355.18,0,0,0,34.6,30.72c22.53,17.75,46.52,33.34,71.19,47.91,34.23,20.21,69.7,38,105.86,54.5,18.4,8.38,37,16.81,55.8,24.23.66.26,1.28.61,1.91.92l-.16.48c-1,.08-2,.2-3.05.22-5.12.07-10.24.16-15.36.17l-88.06.19c-9.35,0-18.71.1-28.07.12-4.88,0-9.75-.13-14.63-.11-15.36,0-30.71.17-46.07.18-27,0-54.07,0-81.1,0-16.16,0-32.31.18-48.47.25s-32.31.1-48.46.13q-32.52.06-65,.09l-153.81.27-62.86.12q-33.48.06-67,.08l-100.3.1c-6.64,0-13.27.12-19.91.17-8.32.07-16.63.16-25,.17q-32.4,0-64.79,0Z" transform="translate(0 -33.24)"/><path class="a" d="M5662.05,466.74h-7.68c.73-1.17,2-1.21,3.14-1.47A365.35,365.35,0,0,0,5696.87,454c40.44-14.17,77.14-35.11,111-61.23,14.45-11.16,27.91-23.45,41.32-35.8a122.05,122.05,0,0,0,21.55-25.3c2.69-4.35,5.5-8.62,8.26-12.94,15.41-24.12,31-48.12,47.67-71.41,24.19-33.79,50.07-66.19,79.05-96a541.87,541.87,0,0,1,53-48.24c22.16-17.48,45.69-32.83,71.29-44.86,33.5-15.73,68.56-24.84,105.75-24.89.92,0,10.18.29,12.94.44a316.5,316.5,0,0,1,48.2,6.37c17.65,3.75,34.73,9.23,50.87,17.42a137.45,137.45,0,0,1,38.13,27.93c20.66,21.85,31.05,48.24,34,77.83a178.18,178.18,0,0,1,.6,24.67,175.25,175.25,0,0,1-4.93,35.31,17.9,17.9,0,0,1-.74,1.86c-1-10.71-2.8-17.42-6.34-25.15a104.7,104.7,0,0,0-41.36-46.38,66.17,66.17,0,0,0-20.69-8.63c-8-1.74-16-1.91-23.91.71-8.08,2.69-14.45,7.75-19.73,14.29s-8.67,13.78-11.52,21.46a137.47,137.47,0,0,0-6.67,27.92,74.8,74.8,0,0,0,.22,24.35,102.23,102.23,0,0,0,11.42,31.15c8.36,15.28,19.32,28.58,31.42,41a355.18,355.18,0,0,0,34.6,30.72c22.52,17.75,46.51,33.34,71.18,47.91,34.24,20.21,69.71,38,105.87,54.5,18.4,8.38,37,16.81,55.8,24.23.65.26,1.27.61,1.91.92l-.17.48c-1,.08-2,.2-3,.22-5.11.07-10.23.16-15.35.17l-88.06.19c-9.36,0-18.71.1-28.07.12-4.88,0-9.76-.13-14.63-.11-15.36,0-30.72.17-46.07.18-27,0-54.07,0-81.11,0-16.15,0-32.31.18-48.46.25s-32.31.1-48.47.13l-65,.09-153.81.27q-31.44.06-62.87.12-33.47.06-66.95.08l-100.31.1c-6.63,0-13.27.12-19.9.17-8.32.07-16.64.16-24.95.17q-32.4,0-64.79,0Z" transform="translate(0 -33.24)"/><path class="a" d="M6604.75,466.74h-7.68c.73-1.17,2-1.21,3.14-1.47A366,366,0,0,0,6639.57,454c40.44-14.17,77.14-35.11,111-61.23,14.45-11.16,27.91-23.45,41.33-35.8a121.7,121.7,0,0,0,21.54-25.3c2.7-4.35,5.51-8.62,8.26-12.94,15.42-24.12,31-48.12,47.68-71.41,24.18-33.79,50.07-66.19,79-96a542,542,0,0,1,53-48.24c22.16-17.48,45.68-32.83,71.29-44.86,33.49-15.73,68.55-24.84,105.75-24.89.92,0,10.18.29,12.94.44a316.66,316.66,0,0,1,48.2,6.37c17.65,3.75,34.73,9.23,50.86,17.42A137.3,137.3,0,0,1,7328.6,85.4c20.66,21.85,31.06,48.24,34,77.83a185.24,185.24,0,0,1-4.33,60,17.9,17.9,0,0,1-.74,1.86c-1-10.71-2.8-17.42-6.34-25.15a104.7,104.7,0,0,0-41.36-46.38,66.23,66.23,0,0,0-20.7-8.63c-8-1.74-16-1.91-23.91.71-8.07,2.69-14.44,7.75-19.72,14.29s-8.67,13.78-11.52,21.46a138.16,138.16,0,0,0-6.68,27.92,75.08,75.08,0,0,0,.23,24.35A102.21,102.21,0,0,0,7239,264.79c8.36,15.28,19.33,28.58,31.43,41a354,354,0,0,0,34.6,30.72c22.52,17.75,46.51,33.34,71.18,47.91,34.24,20.21,69.7,38,105.87,54.5,18.39,8.38,37,16.81,55.79,24.23.66.26,1.28.61,1.91.92l-.16.48c-1,.08-2,.2-3.05.22-5.12.07-10.24.16-15.35.17l-88.06.19c-9.36,0-18.72.1-28.08.12-4.87,0-9.75-.13-14.63-.11-15.35,0-30.71.17-46.07.18-27,0-54.07,0-81.1,0-16.15,0-32.31.18-48.46.25s-32.32.1-48.47.13q-32.52.06-65,.09l-153.81.27-62.87.12q-33.48.06-66.95.08l-100.31.1c-6.63,0-13.27.12-19.91.17-8.31.07-16.63.16-24.95.17q-32.39,0-64.79,0Z" transform="translate(0 -33.24)"/><path class="a" d="M7547.44,466.74h-7.68c.73-1.17,2-1.21,3.15-1.47A365.83,365.83,0,0,0,7582.26,454c40.44-14.17,77.14-35.11,111-61.23,14.45-11.16,27.91-23.45,41.33-35.8,8.22-7.58,15.64-15.77,21.54-25.3,2.69-4.35,5.51-8.62,8.26-12.94,15.41-24.12,31-48.12,47.68-71.41,24.18-33.79,50.06-66.19,79-96a543,543,0,0,1,53-48.24c22.17-17.48,45.69-32.83,71.29-44.86,33.5-15.73,68.56-24.84,105.75-24.89.92,0,10.18.29,12.94.44a316.79,316.79,0,0,1,48.21,6.37c17.65,3.75,34.73,9.23,50.86,17.42A137.3,137.3,0,0,1,8271.3,85.4c20.66,21.85,31.05,48.24,34,77.83a181.35,181.35,0,0,1,.6,24.67,176,176,0,0,1-4.94,35.31,17.9,17.9,0,0,1-.74,1.86c-1-10.71-2.8-17.42-6.34-25.15a104.62,104.62,0,0,0-41.35-46.38,66.23,66.23,0,0,0-20.7-8.63c-8-1.74-16-1.91-23.91.71-8.07,2.69-14.45,7.75-19.73,14.29s-8.66,13.78-11.51,21.46a136.83,136.83,0,0,0-6.68,27.92,75.36,75.36,0,0,0,.22,24.35,102.49,102.49,0,0,0,11.42,31.15c8.36,15.28,19.33,28.58,31.42,41a355.18,355.18,0,0,0,34.6,30.72c22.53,17.75,46.51,33.34,71.19,47.91,34.23,20.21,69.7,38,105.86,54.5,18.4,8.38,37,16.81,55.8,24.23.66.26,1.27.61,1.91.92l-.16.48c-1,.08-2,.2-3,.22-5.12.07-10.24.16-15.36.17l-88.06.19c-9.36,0-18.71.1-28.07.12-4.88,0-9.75-.13-14.63-.11-15.36,0-30.71.17-46.07.18-27,0-54.07,0-81.1,0-16.16,0-32.31.18-48.47.25s-32.31.1-48.47.13q-32.51.06-65,.09l-153.81.27q-31.43.06-62.87.12-33.47.06-67,.08l-100.3.1c-6.64,0-13.27.12-19.91.17-8.32.07-16.63.16-24.95.17q-32.4,0-64.79,0Z" transform="translate(0 -33.24)"/><path class="a" d="M8488.33,466.74h-7.68c.73-1.17,2-1.21,3.15-1.47A365.83,365.83,0,0,0,8523.15,454c40.44-14.17,77.14-35.11,111-61.23,14.45-11.16,27.91-23.45,41.33-35.8,8.22-7.58,15.64-15.77,21.54-25.3,2.69-4.35,5.51-8.62,8.26-12.94,15.41-24.12,31-48.12,47.68-71.41,24.18-33.79,50.06-66.19,79-96A543,543,0,0,1,8885,103c22.17-17.48,45.69-32.83,71.29-44.86,33.5-15.73,68.56-24.84,105.75-24.89.92,0,10.18.29,12.94.44a316.79,316.79,0,0,1,48.21,6.37c17.65,3.75,34.73,9.23,50.86,17.42a137.3,137.3,0,0,1,38.13,27.93c20.66,21.85,31,48.24,34,77.83a181.35,181.35,0,0,1,.6,24.67,176,176,0,0,1-4.94,35.31,17.9,17.9,0,0,1-.74,1.86c-1-10.71-2.8-17.42-6.34-25.15a104.62,104.62,0,0,0-41.35-46.38,66.23,66.23,0,0,0-20.7-8.63c-8-1.74-16-1.91-23.91.71-8.07,2.69-14.45,7.75-19.73,14.29s-8.66,13.78-11.51,21.46a136.83,136.83,0,0,0-6.68,27.92,75.36,75.36,0,0,0,.22,24.35,102.49,102.49,0,0,0,11.42,31.15c8.36,15.28,19.33,28.58,31.42,41a355.18,355.18,0,0,0,34.6,30.72c22.53,17.75,46.51,33.34,71.19,47.91,34.23,20.21,69.7,38,105.86,54.5,18.4,8.38,37,16.81,55.8,24.23.66.26,1.27.61,1.91.92l-.16.48c-1,.08-2,.2-3.05.22-5.12.07-10.24.16-15.36.17l-88.06.19c-9.36,0-18.71.1-28.07.12-4.88,0-9.75-.13-14.63-.11-15.36,0-30.71.17-46.07.18-27,0-54.07,0-81.1,0-16.16,0-32.31.18-48.47.25s-32.31.1-48.47.13q-32.51.06-65,.09l-153.81.27q-31.42.06-62.87.12-33.47.06-67,.08l-100.3.1c-6.64,0-13.27.12-19.91.17-8.32.07-16.63.16-25,.17q-32.4,0-64.79,0Z" transform="translate(0 -33.24)"/><path class="a" d="M9431,466.74h-7.68c.73-1.17,2-1.21,3.14-1.47A365.35,365.35,0,0,0,9465.85,454c40.44-14.17,77.14-35.11,111-61.23,14.45-11.16,27.91-23.45,41.32-35.8a122.05,122.05,0,0,0,21.55-25.3c2.69-4.35,5.5-8.62,8.26-12.94,15.41-24.12,31-48.12,47.67-71.41,24.19-33.79,50.07-66.19,79.05-96a541.87,541.87,0,0,1,53-48.24c22.16-17.48,45.69-32.83,71.29-44.86,33.5-15.73,68.56-24.84,105.75-24.89.92,0,10.18.29,12.94.44a316.66,316.66,0,0,1,48.2,6.37c17.65,3.75,34.73,9.23,50.87,17.42a137.26,137.26,0,0,1,38.12,27.93c20.66,21.85,31.06,48.24,34,77.83a178.18,178.18,0,0,1,.6,24.67,175.25,175.25,0,0,1-4.93,35.31,17.9,17.9,0,0,1-.74,1.86c-1-10.71-2.8-17.42-6.34-25.15a104.7,104.7,0,0,0-41.36-46.38,66.17,66.17,0,0,0-20.69-8.63c-8-1.74-16-1.91-23.91.71-8.08,2.69-14.45,7.75-19.73,14.29s-8.67,13.78-11.52,21.46a138.16,138.16,0,0,0-6.68,27.92,75.08,75.08,0,0,0,.23,24.35,102.23,102.23,0,0,0,11.42,31.15c8.35,15.28,19.32,28.58,31.42,41a355.18,355.18,0,0,0,34.6,30.72c22.52,17.75,46.51,33.34,71.18,47.91,34.24,20.21,69.71,38,105.87,54.5,18.4,8.38,37,16.81,55.8,24.23.65.26,1.27.61,1.91.92l-.17.48c-1,.08-2,.2-3,.22-5.12.07-10.23.16-15.35.17l-88.06.19c-9.36,0-18.72.1-28.07.12-4.88,0-9.76-.13-14.64-.11-15.35,0-30.71.17-46.06.18-27,0-54.07,0-81.11,0-16.15,0-32.31.18-48.46.25s-32.31.1-48.47.13l-65,.09-153.81.27q-31.44.06-62.87.12-33.48.06-66.95.08l-100.31.1c-6.63,0-13.27.12-19.9.17-8.32.07-16.64.16-24.95.17q-32.4,0-64.8,0Z" transform="translate(0 -33.24)"/><path class="a" d="M10373.73,466.74h-7.68c.72-1.17,2-1.21,3.14-1.47a366,366,0,0,0,39.36-11.32c40.44-14.17,77.14-35.11,111-61.23,14.45-11.16,27.91-23.45,41.33-35.8a121.7,121.7,0,0,0,21.54-25.3c2.7-4.35,5.51-8.62,8.26-12.94,15.42-24.12,31-48.12,47.68-71.41,24.18-33.79,50.07-66.19,79-96a543,543,0,0,1,53-48.24c22.17-17.48,45.69-32.83,71.29-44.86,33.5-15.73,68.56-24.84,105.76-24.89.92,0,10.17.29,12.93.44a316.79,316.79,0,0,1,48.21,6.37c17.65,3.75,34.73,9.23,50.86,17.42a137.3,137.3,0,0,1,38.13,27.93c20.66,21.85,31,48.24,34,77.83a185.24,185.24,0,0,1-4.33,60,16.29,16.29,0,0,1-.75,1.86c-1-10.71-2.79-17.42-6.33-25.15a104.7,104.7,0,0,0-41.36-46.38,66.23,66.23,0,0,0-20.7-8.63c-8-1.74-16-1.91-23.91.71-8.07,2.69-14.45,7.75-19.72,14.29s-8.67,13.78-11.52,21.46a138.16,138.16,0,0,0-6.68,27.92,75.08,75.08,0,0,0,.23,24.35,102.21,102.21,0,0,0,11.41,31.15c8.36,15.28,19.33,28.58,31.43,41a354,354,0,0,0,34.6,30.72c22.52,17.75,46.51,33.34,71.18,47.91,34.23,20.21,69.7,38,105.86,54.5,18.4,8.38,37,16.81,55.8,24.23.66.26,1.28.61,1.91.92l-.16.48c-1,.08-2,.2-3,.22-5.12.07-10.24.16-15.35.17l-88.07.19c-9.35,0-18.71.1-28.07.12-4.87,0-9.75-.13-14.63-.11-15.36,0-30.71.17-46.07.18-27,0-54.07,0-81.1,0-16.16,0-32.31.18-48.46.25s-32.32.1-48.47.13q-32.52.06-65,.09l-153.82.27-62.86.12q-33.48.06-67,.08l-100.31.1c-6.64,0-13.27.12-19.91.17-8.31.07-16.63.16-25,.17q-32.39,0-64.79,0Z" transform="translate(0 -33.24)"/></svg>